%TF.GenerationSoftware,KiCad,Pcbnew,9.0.1*%
%TF.CreationDate,2026-03-10T16:59:17+01:00*%
%TF.ProjectId,EMG_sensor,454d475f-7365-46e7-936f-722e6b696361,rev?*%
%TF.SameCoordinates,Original*%
%TF.FileFunction,Copper,L2,Bot*%
%TF.FilePolarity,Positive*%
%FSLAX46Y46*%
G04 Gerber Fmt 4.6, Leading zero omitted, Abs format (unit mm)*
G04 Created by KiCad (PCBNEW 9.0.1) date 2026-03-10 16:59:17*
%MOMM*%
%LPD*%
G01*
G04 APERTURE LIST*
G04 Aperture macros list*
%AMRoundRect*
0 Rectangle with rounded corners*
0 $1 Rounding radius*
0 $2 $3 $4 $5 $6 $7 $8 $9 X,Y pos of 4 corners*
0 Add a 4 corners polygon primitive as box body*
4,1,4,$2,$3,$4,$5,$6,$7,$8,$9,$2,$3,0*
0 Add four circle primitives for the rounded corners*
1,1,$1+$1,$2,$3*
1,1,$1+$1,$4,$5*
1,1,$1+$1,$6,$7*
1,1,$1+$1,$8,$9*
0 Add four rect primitives between the rounded corners*
20,1,$1+$1,$2,$3,$4,$5,0*
20,1,$1+$1,$4,$5,$6,$7,0*
20,1,$1+$1,$6,$7,$8,$9,0*
20,1,$1+$1,$8,$9,$2,$3,0*%
G04 Aperture macros list end*
%TA.AperFunction,ComponentPad*%
%ADD10R,1.700000X1.700000*%
%TD*%
%TA.AperFunction,ComponentPad*%
%ADD11R,1.730000X2.030000*%
%TD*%
%TA.AperFunction,ComponentPad*%
%ADD12O,1.730000X2.030000*%
%TD*%
%TA.AperFunction,ComponentPad*%
%ADD13RoundRect,0.250000X0.750000X-0.600000X0.750000X0.600000X-0.750000X0.600000X-0.750000X-0.600000X0*%
%TD*%
%TA.AperFunction,ComponentPad*%
%ADD14O,2.000000X1.700000*%
%TD*%
%TA.AperFunction,ComponentPad*%
%ADD15C,4.400000*%
%TD*%
%TA.AperFunction,ViaPad*%
%ADD16C,0.600000*%
%TD*%
%TA.AperFunction,Conductor*%
%ADD17C,0.200000*%
%TD*%
G04 APERTURE END LIST*
D10*
%TO.P,J4,1,Pin_1*%
%TO.N,Net-(J4-Pin_1)*%
X152120000Y-96470000D03*
%TD*%
D11*
%TO.P,J1,1,Pin_1*%
%TO.N,Net-(J1-Pin_1)*%
X120450000Y-78625000D03*
D12*
%TO.P,J1,2,Pin_2*%
%TO.N,Net-(J1-Pin_2)*%
X122990000Y-78625000D03*
%TO.P,J1,3,Pin_3*%
%TO.N,Net-(J1-Pin_3)*%
X125530000Y-78625000D03*
%TD*%
D13*
%TO.P,J5,1,Pin_1*%
%TO.N,Net-(J5-Pin_1)*%
X116000000Y-100000000D03*
D14*
%TO.P,J5,2,Pin_2*%
%TO.N,Net-(J5-Pin_2)*%
X116000000Y-97500000D03*
%TD*%
D15*
%TO.P,H1,1,1*%
%TO.N,GND*%
X116000000Y-78000000D03*
%TD*%
D10*
%TO.P,J3,1,Pin_1*%
%TO.N,Net-(J3-Pin_1)*%
X148340000Y-95060000D03*
%TD*%
D15*
%TO.P,H4,1,1*%
%TO.N,GND*%
X151000000Y-78000000D03*
%TD*%
%TO.P,H2,1,1*%
%TO.N,GND*%
X116000000Y-106000000D03*
%TD*%
%TO.P,H3,1,1*%
%TO.N,GND*%
X151000000Y-106000000D03*
%TD*%
D10*
%TO.P,J2,1,Pin_1*%
%TO.N,Net-(J2-Pin_1)*%
X142500000Y-99500000D03*
%TD*%
D16*
%TO.N,GND*%
X142890000Y-104770000D03*
X145960000Y-100990000D03*
X137910000Y-89110000D03*
X120030000Y-86540000D03*
%TO.N,Net-(D1-K)*%
X137000000Y-84640000D03*
X143890000Y-87790000D03*
%TO.N,Net-(D1-A)*%
X145210000Y-82930000D03*
%TO.N,Net-(J4-Pin_1)*%
X139960000Y-97730000D03*
%TO.N,Net-(C1-Pad1)*%
X118740000Y-91770000D03*
X120200000Y-88300000D03*
%TO.N,Net-(U5--)*%
X148860000Y-98060000D03*
X151440000Y-91880000D03*
%TO.N,Net-(D1-A)*%
X141540000Y-88060000D03*
%TO.N,Net-(J1-Pin_3)*%
X128190000Y-102564999D03*
X132770000Y-103810000D03*
X123940000Y-88820000D03*
X132950000Y-89030000D03*
%TO.N,Net-(J2-Pin_1)*%
X134350000Y-105000000D03*
X138590000Y-96020000D03*
X145180000Y-89500000D03*
X135850000Y-90970000D03*
X124820000Y-104780000D03*
X125940000Y-91600000D03*
X123930000Y-90230000D03*
X124850000Y-98190000D03*
%TO.N,Net-(J3-Pin_1)*%
X128840000Y-101800000D03*
X132690000Y-85940000D03*
X131700000Y-94830000D03*
X141120000Y-102360000D03*
X142400000Y-87190000D03*
X138550000Y-87310000D03*
X150850000Y-86280000D03*
X129270000Y-86860000D03*
X123450000Y-86820000D03*
X143093032Y-93940000D03*
%TO.N,Net-(J4-Pin_1)*%
X129850000Y-107170000D03*
X143350000Y-95480000D03*
X139610000Y-99220000D03*
%TD*%
D17*
%TO.N,Net-(D1-K)*%
X141021000Y-88661000D02*
X137000000Y-84640000D01*
X143019000Y-88661000D02*
X141021000Y-88661000D01*
X143890000Y-87790000D02*
X143019000Y-88661000D01*
%TO.N,Net-(D1-A)*%
X141540000Y-86000000D02*
X141540000Y-88060000D01*
X144610000Y-82930000D02*
X141540000Y-86000000D01*
X145210000Y-82930000D02*
X144610000Y-82930000D01*
%TO.N,Net-(J1-Pin_3)*%
X132950000Y-89030000D02*
X132740000Y-88820000D01*
X132740000Y-88820000D02*
X123940000Y-88820000D01*
%TO.N,Net-(C1-Pad1)*%
X120200000Y-88300000D02*
X120200000Y-90310000D01*
X120200000Y-90310000D02*
X118740000Y-91770000D01*
%TO.N,Net-(U5--)*%
X150830000Y-96090000D02*
X150830000Y-92490000D01*
X148860000Y-98060000D02*
X150830000Y-96090000D01*
X150830000Y-92490000D02*
X151440000Y-91880000D01*
%TO.N,Net-(J1-Pin_3)*%
X132120000Y-104460000D02*
X129090000Y-104460000D01*
X128190000Y-103560000D02*
X128190000Y-102564999D01*
X129090000Y-104460000D02*
X128190000Y-103560000D01*
X132770000Y-103810000D02*
X132120000Y-104460000D01*
%TO.N,Net-(J2-Pin_1)*%
X124850000Y-98190000D02*
X123930000Y-97270000D01*
X143710000Y-90970000D02*
X145180000Y-89500000D01*
X139858943Y-99821000D02*
X139529000Y-99821000D01*
X125300000Y-91600000D02*
X123930000Y-90230000D01*
X134350000Y-105230000D02*
X131809000Y-107771000D01*
X140211000Y-99468943D02*
X139858943Y-99821000D01*
X124820000Y-98220000D02*
X124850000Y-98190000D01*
X123930000Y-97270000D02*
X123930000Y-90230000D01*
X124820000Y-104780000D02*
X124820000Y-98220000D01*
X140211000Y-98971057D02*
X140211000Y-99468943D01*
X124820000Y-104880000D02*
X124820000Y-104780000D01*
X138590000Y-96020000D02*
X138590000Y-97350057D01*
X135850000Y-90970000D02*
X143710000Y-90970000D01*
X139529000Y-99821000D02*
X134350000Y-105000000D01*
X134350000Y-105000000D02*
X134350000Y-105230000D01*
X127711000Y-107771000D02*
X124820000Y-104880000D01*
X125940000Y-91600000D02*
X125300000Y-91600000D01*
X138590000Y-97350057D02*
X140211000Y-98971057D01*
X131809000Y-107771000D02*
X127711000Y-107771000D01*
%TO.N,Net-(J3-Pin_1)*%
X142400000Y-87190000D02*
X149760000Y-87190000D01*
X128840000Y-97690000D02*
X128840000Y-101800000D01*
X145260000Y-96106968D02*
X145260000Y-99042000D01*
X141942000Y-102360000D02*
X141120000Y-102360000D01*
X138550000Y-87310000D02*
X137180000Y-85940000D01*
X131700000Y-94830000D02*
X128840000Y-97690000D01*
X143093032Y-93940000D02*
X145260000Y-96106968D01*
X150620000Y-86450000D02*
X150680000Y-86450000D01*
X129270000Y-86860000D02*
X129230000Y-86820000D01*
X129230000Y-86820000D02*
X123450000Y-86820000D01*
X137180000Y-85940000D02*
X132690000Y-85940000D01*
X149760000Y-87190000D02*
X150560000Y-86390000D01*
X132590000Y-93940000D02*
X131700000Y-94830000D01*
X150560000Y-86390000D02*
X150620000Y-86450000D01*
X150680000Y-86450000D02*
X150850000Y-86280000D01*
X145260000Y-99042000D02*
X141942000Y-102360000D01*
X143093032Y-93940000D02*
X132590000Y-93940000D01*
%TO.N,Net-(J4-Pin_1)*%
X138209943Y-99220000D02*
X130259943Y-107170000D01*
X130259943Y-107170000D02*
X129850000Y-107170000D01*
X139960000Y-97730000D02*
X141100000Y-97730000D01*
X139670000Y-99160000D02*
X139610000Y-99220000D01*
X141100000Y-97730000D02*
X143350000Y-95480000D01*
X139610000Y-99220000D02*
X138209943Y-99220000D01*
%TD*%
%TA.AperFunction,Conductor*%
%TO.N,GND*%
G36*
X149539675Y-75520185D02*
G01*
X149585430Y-75572989D01*
X149595374Y-75642147D01*
X149566349Y-75705703D01*
X149538608Y-75729494D01*
X149435127Y-75794515D01*
X149275425Y-75921871D01*
X150417263Y-77063709D01*
X150283398Y-77160967D01*
X150160967Y-77283398D01*
X150063709Y-77417262D01*
X148921871Y-76275425D01*
X148794515Y-76435127D01*
X148633172Y-76691903D01*
X148501598Y-76965119D01*
X148501592Y-76965133D01*
X148401438Y-77251354D01*
X148401434Y-77251366D01*
X148333954Y-77547017D01*
X148333952Y-77547033D01*
X148300000Y-77848366D01*
X148300000Y-78151633D01*
X148333952Y-78452966D01*
X148333954Y-78452982D01*
X148401434Y-78748633D01*
X148401438Y-78748645D01*
X148501592Y-79034866D01*
X148501598Y-79034880D01*
X148633172Y-79308096D01*
X148794515Y-79564872D01*
X148921871Y-79724573D01*
X150063708Y-78582736D01*
X150160967Y-78716602D01*
X150283398Y-78839033D01*
X150417262Y-78936290D01*
X149275425Y-80078127D01*
X149435127Y-80205484D01*
X149691903Y-80366827D01*
X149965119Y-80498401D01*
X149965133Y-80498407D01*
X150251354Y-80598561D01*
X150251366Y-80598565D01*
X150547017Y-80666045D01*
X150547033Y-80666047D01*
X150848366Y-80699999D01*
X150848368Y-80700000D01*
X151151632Y-80700000D01*
X151151633Y-80699999D01*
X151452966Y-80666047D01*
X151452982Y-80666045D01*
X151748633Y-80598565D01*
X151748645Y-80598561D01*
X152034866Y-80498407D01*
X152034880Y-80498401D01*
X152308096Y-80366827D01*
X152564872Y-80205484D01*
X152724573Y-80078126D01*
X151582737Y-78936290D01*
X151716602Y-78839033D01*
X151839033Y-78716602D01*
X151936290Y-78582737D01*
X153078126Y-79724573D01*
X153205487Y-79564868D01*
X153270506Y-79461392D01*
X153322840Y-79415100D01*
X153391894Y-79404451D01*
X153455742Y-79432826D01*
X153494114Y-79491216D01*
X153499500Y-79527363D01*
X153499500Y-95143456D01*
X153479815Y-95210495D01*
X153427011Y-95256250D01*
X153357853Y-95266194D01*
X153301189Y-95242723D01*
X153270167Y-95219500D01*
X153212331Y-95176204D01*
X153212329Y-95176203D01*
X153212328Y-95176202D01*
X153077482Y-95125908D01*
X153077483Y-95125908D01*
X153017883Y-95119501D01*
X153017881Y-95119500D01*
X153017873Y-95119500D01*
X153017865Y-95119500D01*
X151554500Y-95119500D01*
X151487461Y-95099815D01*
X151441706Y-95047011D01*
X151430500Y-94995500D01*
X151430500Y-92799836D01*
X151450185Y-92732797D01*
X151502989Y-92687042D01*
X151530309Y-92678219D01*
X151673497Y-92649737D01*
X151819179Y-92589394D01*
X151950289Y-92501789D01*
X152061789Y-92390289D01*
X152149394Y-92259179D01*
X152209737Y-92113497D01*
X152240500Y-91958842D01*
X152240500Y-91801158D01*
X152240500Y-91801155D01*
X152240499Y-91801153D01*
X152234402Y-91770500D01*
X152209737Y-91646503D01*
X152157816Y-91521153D01*
X152149397Y-91500827D01*
X152149390Y-91500814D01*
X152061789Y-91369711D01*
X152061786Y-91369707D01*
X151950292Y-91258213D01*
X151950288Y-91258210D01*
X151819185Y-91170609D01*
X151819172Y-91170602D01*
X151673501Y-91110264D01*
X151673489Y-91110261D01*
X151518845Y-91079500D01*
X151518842Y-91079500D01*
X151361158Y-91079500D01*
X151361155Y-91079500D01*
X151206510Y-91110261D01*
X151206498Y-91110264D01*
X151060827Y-91170602D01*
X151060814Y-91170609D01*
X150929711Y-91258210D01*
X150929707Y-91258213D01*
X150818213Y-91369707D01*
X150818210Y-91369711D01*
X150730609Y-91500814D01*
X150730602Y-91500827D01*
X150670264Y-91646498D01*
X150670261Y-91646508D01*
X150639361Y-91801849D01*
X150630595Y-91818606D01*
X150626576Y-91837083D01*
X150607831Y-91862124D01*
X150606976Y-91863760D01*
X150605426Y-91865338D01*
X150540974Y-91929790D01*
X150461286Y-92009478D01*
X150461285Y-92009478D01*
X150461284Y-92009479D01*
X150349481Y-92121282D01*
X150349480Y-92121284D01*
X150303745Y-92200501D01*
X150299361Y-92208094D01*
X150299359Y-92208096D01*
X150270425Y-92258209D01*
X150270424Y-92258210D01*
X150270163Y-92259185D01*
X150229499Y-92410943D01*
X150229499Y-92410945D01*
X150229499Y-92579046D01*
X150229500Y-92579059D01*
X150229500Y-95789902D01*
X150209815Y-95856941D01*
X150193181Y-95877583D01*
X149867543Y-96203220D01*
X149806220Y-96236705D01*
X149736528Y-96231721D01*
X149680595Y-96189849D01*
X149656178Y-96124385D01*
X149663681Y-96072205D01*
X149684090Y-96017486D01*
X149684091Y-96017483D01*
X149690500Y-95957873D01*
X149690499Y-94162128D01*
X149684091Y-94102517D01*
X149668331Y-94060263D01*
X149633797Y-93967671D01*
X149633793Y-93967664D01*
X149547547Y-93852455D01*
X149547544Y-93852452D01*
X149432335Y-93766206D01*
X149432328Y-93766202D01*
X149297482Y-93715908D01*
X149297483Y-93715908D01*
X149237883Y-93709501D01*
X149237881Y-93709500D01*
X149237873Y-93709500D01*
X149237864Y-93709500D01*
X147442129Y-93709500D01*
X147442123Y-93709501D01*
X147382516Y-93715908D01*
X147247671Y-93766202D01*
X147247664Y-93766206D01*
X147132455Y-93852452D01*
X147132452Y-93852455D01*
X147046206Y-93967664D01*
X147046202Y-93967671D01*
X146995908Y-94102517D01*
X146989501Y-94162116D01*
X146989501Y-94162123D01*
X146989500Y-94162135D01*
X146989500Y-95957870D01*
X146989501Y-95957876D01*
X146995908Y-96017483D01*
X147046202Y-96152328D01*
X147046206Y-96152335D01*
X147132452Y-96267544D01*
X147132455Y-96267547D01*
X147247664Y-96353793D01*
X147247671Y-96353797D01*
X147382517Y-96404091D01*
X147382516Y-96404091D01*
X147389444Y-96404835D01*
X147442127Y-96410500D01*
X149237872Y-96410499D01*
X149297483Y-96404091D01*
X149352205Y-96383680D01*
X149421896Y-96378696D01*
X149483220Y-96412180D01*
X149516705Y-96473503D01*
X149511721Y-96543195D01*
X149483220Y-96587543D01*
X148845339Y-97225425D01*
X148784016Y-97258910D01*
X148781850Y-97259361D01*
X148626508Y-97290261D01*
X148626498Y-97290264D01*
X148480827Y-97350602D01*
X148480814Y-97350609D01*
X148349711Y-97438210D01*
X148349707Y-97438213D01*
X148238213Y-97549707D01*
X148238210Y-97549711D01*
X148150609Y-97680814D01*
X148150602Y-97680827D01*
X148090264Y-97826498D01*
X148090261Y-97826510D01*
X148059500Y-97981153D01*
X148059500Y-98138846D01*
X148090261Y-98293489D01*
X148090264Y-98293501D01*
X148150602Y-98439172D01*
X148150609Y-98439185D01*
X148238210Y-98570288D01*
X148238213Y-98570292D01*
X148349707Y-98681786D01*
X148349711Y-98681789D01*
X148480814Y-98769390D01*
X148480827Y-98769397D01*
X148572308Y-98807289D01*
X148626503Y-98829737D01*
X148781153Y-98860499D01*
X148781156Y-98860500D01*
X148781158Y-98860500D01*
X148938844Y-98860500D01*
X148938845Y-98860499D01*
X149093497Y-98829737D01*
X149239179Y-98769394D01*
X149370289Y-98681789D01*
X149481789Y-98570289D01*
X149569394Y-98439179D01*
X149629737Y-98293497D01*
X149657105Y-98155909D01*
X149660638Y-98138150D01*
X149693023Y-98076239D01*
X149694520Y-98074714D01*
X150557821Y-97211412D01*
X150619142Y-97177929D01*
X150688833Y-97182913D01*
X150744767Y-97224785D01*
X150769184Y-97290249D01*
X150769500Y-97299093D01*
X150769500Y-97367869D01*
X150769501Y-97367876D01*
X150775908Y-97427483D01*
X150826202Y-97562328D01*
X150826206Y-97562335D01*
X150912452Y-97677544D01*
X150912455Y-97677547D01*
X151027664Y-97763793D01*
X151027671Y-97763797D01*
X151162517Y-97814091D01*
X151162516Y-97814091D01*
X151169444Y-97814835D01*
X151222127Y-97820500D01*
X153017872Y-97820499D01*
X153077483Y-97814091D01*
X153212331Y-97763796D01*
X153301189Y-97697276D01*
X153366653Y-97672859D01*
X153434926Y-97687710D01*
X153484332Y-97737115D01*
X153499500Y-97796543D01*
X153499500Y-104472636D01*
X153479815Y-104539675D01*
X153427011Y-104585430D01*
X153357853Y-104595374D01*
X153294297Y-104566349D01*
X153270506Y-104538608D01*
X153205484Y-104435127D01*
X153078127Y-104275425D01*
X151936290Y-105417262D01*
X151839033Y-105283398D01*
X151716602Y-105160967D01*
X151582736Y-105063709D01*
X152724573Y-103921871D01*
X152564872Y-103794515D01*
X152308096Y-103633172D01*
X152034880Y-103501598D01*
X152034866Y-103501592D01*
X151748645Y-103401438D01*
X151748633Y-103401434D01*
X151452982Y-103333954D01*
X151452966Y-103333952D01*
X151151633Y-103300000D01*
X150848366Y-103300000D01*
X150547033Y-103333952D01*
X150547017Y-103333954D01*
X150251366Y-103401434D01*
X150251354Y-103401438D01*
X149965133Y-103501592D01*
X149965119Y-103501598D01*
X149691903Y-103633172D01*
X149435127Y-103794515D01*
X149275425Y-103921871D01*
X150417263Y-105063709D01*
X150283398Y-105160967D01*
X150160967Y-105283398D01*
X150063709Y-105417262D01*
X148921871Y-104275425D01*
X148794515Y-104435127D01*
X148633172Y-104691903D01*
X148501598Y-104965119D01*
X148501592Y-104965133D01*
X148401438Y-105251354D01*
X148401434Y-105251366D01*
X148333954Y-105547017D01*
X148333952Y-105547033D01*
X148300000Y-105848366D01*
X148300000Y-106151633D01*
X148333952Y-106452966D01*
X148333954Y-106452982D01*
X148401434Y-106748633D01*
X148401438Y-106748645D01*
X148501592Y-107034866D01*
X148501598Y-107034880D01*
X148633172Y-107308096D01*
X148794515Y-107564872D01*
X148921871Y-107724573D01*
X150063708Y-106582736D01*
X150160967Y-106716602D01*
X150283398Y-106839033D01*
X150417262Y-106936290D01*
X149275425Y-108078127D01*
X149435127Y-108205484D01*
X149538608Y-108270506D01*
X149584899Y-108322841D01*
X149595547Y-108391894D01*
X149567172Y-108455743D01*
X149508783Y-108494115D01*
X149472636Y-108499500D01*
X132210975Y-108499500D01*
X132143936Y-108479815D01*
X132098181Y-108427011D01*
X132088237Y-108357853D01*
X132117262Y-108294297D01*
X132128161Y-108283208D01*
X132137781Y-108274575D01*
X132177716Y-108251520D01*
X132289520Y-108139716D01*
X132289521Y-108139713D01*
X134696114Y-105733120D01*
X134725347Y-105711441D01*
X134729164Y-105709400D01*
X134729179Y-105709394D01*
X134860289Y-105621789D01*
X134971789Y-105510289D01*
X135059394Y-105379179D01*
X135119737Y-105233497D01*
X135139729Y-105132989D01*
X135150638Y-105078150D01*
X135183023Y-105016239D01*
X135184518Y-105014716D01*
X139741415Y-100457820D01*
X139802738Y-100424335D01*
X139829096Y-100421501D01*
X139937997Y-100421501D01*
X139938000Y-100421501D01*
X140090728Y-100380577D01*
X140140847Y-100351639D01*
X140227659Y-100301520D01*
X140339463Y-100189716D01*
X140339464Y-100189714D01*
X140691520Y-99837659D01*
X140770577Y-99700728D01*
X140811501Y-99548000D01*
X140811501Y-99389885D01*
X140811501Y-99382290D01*
X140811500Y-99382272D01*
X140811500Y-98892002D01*
X140811500Y-98892000D01*
X140784303Y-98790500D01*
X140770577Y-98739272D01*
X140736056Y-98679481D01*
X140732419Y-98673181D01*
X140732415Y-98673172D01*
X140691524Y-98602347D01*
X140691521Y-98602343D01*
X140691520Y-98602341D01*
X140631360Y-98542181D01*
X140597876Y-98480857D01*
X140602861Y-98411166D01*
X140644732Y-98355232D01*
X140710197Y-98330816D01*
X140719042Y-98330500D01*
X141013334Y-98330500D01*
X141020939Y-98330500D01*
X141020943Y-98330501D01*
X141056395Y-98330501D01*
X141123434Y-98350187D01*
X141169188Y-98402992D01*
X141174055Y-98436850D01*
X141179130Y-98472148D01*
X141172574Y-98497833D01*
X141155909Y-98542514D01*
X141155908Y-98542516D01*
X141151887Y-98579924D01*
X141149501Y-98602123D01*
X141149500Y-98602135D01*
X141149500Y-100397870D01*
X141149501Y-100397876D01*
X141155908Y-100457483D01*
X141206202Y-100592328D01*
X141206206Y-100592335D01*
X141292452Y-100707544D01*
X141292455Y-100707547D01*
X141407664Y-100793793D01*
X141407671Y-100793797D01*
X141542517Y-100844091D01*
X141542516Y-100844091D01*
X141549444Y-100844835D01*
X141602127Y-100850500D01*
X142302903Y-100850499D01*
X142369941Y-100870183D01*
X142415696Y-100922987D01*
X142425640Y-100992146D01*
X142396615Y-101055702D01*
X142390583Y-101062180D01*
X141752760Y-101700004D01*
X141691437Y-101733489D01*
X141621746Y-101728505D01*
X141596188Y-101715425D01*
X141499185Y-101650609D01*
X141499172Y-101650602D01*
X141353501Y-101590264D01*
X141353489Y-101590261D01*
X141198845Y-101559500D01*
X141198842Y-101559500D01*
X141041158Y-101559500D01*
X141041155Y-101559500D01*
X140886510Y-101590261D01*
X140886498Y-101590264D01*
X140740827Y-101650602D01*
X140740814Y-101650609D01*
X140609711Y-101738210D01*
X140609707Y-101738213D01*
X140498213Y-101849707D01*
X140498210Y-101849711D01*
X140410609Y-101980814D01*
X140410602Y-101980827D01*
X140350264Y-102126498D01*
X140350261Y-102126510D01*
X140319500Y-102281153D01*
X140319500Y-102438846D01*
X140350261Y-102593489D01*
X140350264Y-102593501D01*
X140410602Y-102739172D01*
X140410609Y-102739185D01*
X140498210Y-102870288D01*
X140498213Y-102870292D01*
X140609707Y-102981786D01*
X140609711Y-102981789D01*
X140740814Y-103069390D01*
X140740827Y-103069397D01*
X140816181Y-103100609D01*
X140886503Y-103129737D01*
X141041153Y-103160499D01*
X141041156Y-103160500D01*
X141041158Y-103160500D01*
X141198844Y-103160500D01*
X141198845Y-103160499D01*
X141353497Y-103129737D01*
X141499179Y-103069394D01*
X141588817Y-103009500D01*
X141630875Y-102981398D01*
X141648921Y-102975747D01*
X141664831Y-102965523D01*
X141695792Y-102961071D01*
X141697553Y-102960520D01*
X141699766Y-102960500D01*
X141855331Y-102960500D01*
X141855347Y-102960501D01*
X141862943Y-102960501D01*
X142021054Y-102960501D01*
X142021057Y-102960501D01*
X142173785Y-102919577D01*
X142254240Y-102873126D01*
X142310716Y-102840520D01*
X142422520Y-102728716D01*
X142422520Y-102728714D01*
X142432724Y-102718511D01*
X142432727Y-102718506D01*
X145740520Y-99410716D01*
X145819577Y-99273784D01*
X145860501Y-99121057D01*
X145860501Y-98962942D01*
X145860501Y-98955347D01*
X145860500Y-98955329D01*
X145860500Y-96196028D01*
X145860501Y-96196015D01*
X145860501Y-96027912D01*
X145860501Y-96027911D01*
X145819577Y-95875184D01*
X145819573Y-95875177D01*
X145740524Y-95738258D01*
X145740518Y-95738250D01*
X143927605Y-93925337D01*
X143894120Y-93864014D01*
X143893669Y-93861847D01*
X143891800Y-93852452D01*
X143862769Y-93706503D01*
X143806760Y-93571284D01*
X143802429Y-93560827D01*
X143802422Y-93560814D01*
X143714821Y-93429711D01*
X143714818Y-93429707D01*
X143603324Y-93318213D01*
X143603320Y-93318210D01*
X143472217Y-93230609D01*
X143472204Y-93230602D01*
X143326533Y-93170264D01*
X143326521Y-93170261D01*
X143171877Y-93139500D01*
X143171874Y-93139500D01*
X143014190Y-93139500D01*
X143014187Y-93139500D01*
X142859542Y-93170261D01*
X142859530Y-93170264D01*
X142713859Y-93230602D01*
X142713846Y-93230609D01*
X142582157Y-93318602D01*
X142515479Y-93339480D01*
X142513266Y-93339500D01*
X132669057Y-93339500D01*
X132510943Y-93339500D01*
X132358215Y-93380423D01*
X132358214Y-93380423D01*
X132358212Y-93380424D01*
X132358209Y-93380425D01*
X132308096Y-93409359D01*
X132308095Y-93409360D01*
X132272853Y-93429707D01*
X132221285Y-93459479D01*
X132221282Y-93459481D01*
X131685339Y-93995425D01*
X131624016Y-94028910D01*
X131621850Y-94029361D01*
X131466508Y-94060261D01*
X131466498Y-94060264D01*
X131320827Y-94120602D01*
X131320814Y-94120609D01*
X131189711Y-94208210D01*
X131189707Y-94208213D01*
X131078213Y-94319707D01*
X131078210Y-94319711D01*
X130990609Y-94450814D01*
X130990602Y-94450827D01*
X130930264Y-94596498D01*
X130930261Y-94596508D01*
X130899362Y-94751848D01*
X130866977Y-94813759D01*
X130865426Y-94815337D01*
X128471286Y-97209478D01*
X128359482Y-97321281D01*
X128359480Y-97321283D01*
X128359480Y-97321284D01*
X128313191Y-97401459D01*
X128313190Y-97401459D01*
X128280424Y-97458212D01*
X128280423Y-97458213D01*
X128258492Y-97540061D01*
X128247298Y-97581840D01*
X128239500Y-97610941D01*
X128239499Y-97610945D01*
X128239499Y-97779046D01*
X128239500Y-97779059D01*
X128239500Y-101220234D01*
X128219815Y-101287273D01*
X128218602Y-101289125D01*
X128130609Y-101420814D01*
X128130602Y-101420827D01*
X128070264Y-101566498D01*
X128070261Y-101566508D01*
X128043641Y-101700332D01*
X128011255Y-101762243D01*
X127961919Y-101792421D01*
X127962130Y-101792931D01*
X127958899Y-101794269D01*
X127958043Y-101794793D01*
X127956514Y-101795257D01*
X127810827Y-101855601D01*
X127810814Y-101855608D01*
X127679711Y-101943209D01*
X127679707Y-101943212D01*
X127568213Y-102054706D01*
X127568210Y-102054710D01*
X127480609Y-102185813D01*
X127480602Y-102185826D01*
X127420264Y-102331497D01*
X127420261Y-102331509D01*
X127389500Y-102486152D01*
X127389500Y-102643845D01*
X127420261Y-102798488D01*
X127420264Y-102798500D01*
X127480602Y-102944171D01*
X127480609Y-102944184D01*
X127568602Y-103075873D01*
X127589480Y-103142550D01*
X127589500Y-103144764D01*
X127589500Y-103473330D01*
X127589499Y-103473348D01*
X127589499Y-103639054D01*
X127589498Y-103639054D01*
X127589499Y-103639057D01*
X127630423Y-103791785D01*
X127648549Y-103823180D01*
X127659358Y-103841900D01*
X127659359Y-103841904D01*
X127659360Y-103841904D01*
X127709479Y-103928714D01*
X127709481Y-103928717D01*
X127828349Y-104047585D01*
X127828355Y-104047590D01*
X128605139Y-104824374D01*
X128605149Y-104824385D01*
X128609479Y-104828715D01*
X128609480Y-104828716D01*
X128721284Y-104940520D01*
X128775147Y-104971617D01*
X128808095Y-104990639D01*
X128808097Y-104990641D01*
X128858213Y-105019576D01*
X128858215Y-105019577D01*
X129010942Y-105060500D01*
X129010943Y-105060500D01*
X131220846Y-105060500D01*
X131287885Y-105080185D01*
X131333640Y-105132989D01*
X131343584Y-105202147D01*
X131314559Y-105265703D01*
X131308527Y-105272181D01*
X130210434Y-106370272D01*
X130149111Y-106403757D01*
X130089489Y-106401362D01*
X130089472Y-106401451D01*
X130088910Y-106401339D01*
X130086763Y-106401253D01*
X130083497Y-106400262D01*
X129928845Y-106369500D01*
X129928842Y-106369500D01*
X129771158Y-106369500D01*
X129771155Y-106369500D01*
X129616510Y-106400261D01*
X129616498Y-106400264D01*
X129470827Y-106460602D01*
X129470814Y-106460609D01*
X129339711Y-106548210D01*
X129339707Y-106548213D01*
X129228213Y-106659707D01*
X129228210Y-106659711D01*
X129140609Y-106790814D01*
X129140602Y-106790827D01*
X129080264Y-106936498D01*
X129080261Y-106936510D01*
X129053571Y-107070691D01*
X129021186Y-107132602D01*
X128960471Y-107167176D01*
X128931954Y-107170500D01*
X128011097Y-107170500D01*
X127944058Y-107150815D01*
X127923416Y-107134181D01*
X125656819Y-104867584D01*
X125623334Y-104806261D01*
X125620500Y-104779903D01*
X125620500Y-104701155D01*
X125620499Y-104701153D01*
X125610547Y-104651123D01*
X125589737Y-104546503D01*
X125543604Y-104435127D01*
X125529397Y-104400827D01*
X125529390Y-104400814D01*
X125441398Y-104269125D01*
X125420520Y-104202447D01*
X125420500Y-104200234D01*
X125420500Y-98802940D01*
X125440185Y-98735901D01*
X125456816Y-98715261D01*
X125471789Y-98700289D01*
X125559394Y-98569179D01*
X125619737Y-98423497D01*
X125650500Y-98268842D01*
X125650500Y-98111158D01*
X125650500Y-98111155D01*
X125650499Y-98111153D01*
X125648025Y-98098716D01*
X125619737Y-97956503D01*
X125567578Y-97830578D01*
X125559397Y-97810827D01*
X125559390Y-97810814D01*
X125471789Y-97679711D01*
X125471786Y-97679707D01*
X125360292Y-97568213D01*
X125360288Y-97568210D01*
X125229185Y-97480609D01*
X125229172Y-97480602D01*
X125083501Y-97420264D01*
X125083491Y-97420261D01*
X124928149Y-97389361D01*
X124866238Y-97356976D01*
X124864660Y-97355425D01*
X124566819Y-97057584D01*
X124533334Y-96996261D01*
X124530500Y-96969903D01*
X124530500Y-91979097D01*
X124550185Y-91912058D01*
X124602989Y-91866303D01*
X124672147Y-91856359D01*
X124735703Y-91885384D01*
X124742173Y-91891408D01*
X124931284Y-92080520D01*
X124931286Y-92080521D01*
X124931290Y-92080524D01*
X125050194Y-92149172D01*
X125068216Y-92159577D01*
X125220943Y-92200501D01*
X125220945Y-92200501D01*
X125360236Y-92200501D01*
X125427275Y-92220186D01*
X125429127Y-92221399D01*
X125560814Y-92309390D01*
X125560827Y-92309397D01*
X125706498Y-92369735D01*
X125706503Y-92369737D01*
X125861153Y-92400499D01*
X125861156Y-92400500D01*
X125861158Y-92400500D01*
X126018844Y-92400500D01*
X126018845Y-92400499D01*
X126173497Y-92369737D01*
X126319179Y-92309394D01*
X126450289Y-92221789D01*
X126561789Y-92110289D01*
X126649394Y-91979179D01*
X126709737Y-91833497D01*
X126740500Y-91678842D01*
X126740500Y-91521158D01*
X126740500Y-91521155D01*
X126740499Y-91521153D01*
X126732371Y-91480292D01*
X126709737Y-91366503D01*
X126665501Y-91259707D01*
X126649397Y-91220827D01*
X126649390Y-91220814D01*
X126561789Y-91089711D01*
X126561786Y-91089707D01*
X126450290Y-90978211D01*
X126319999Y-90891153D01*
X135049500Y-90891153D01*
X135049500Y-91048846D01*
X135080261Y-91203489D01*
X135080264Y-91203501D01*
X135140602Y-91349172D01*
X135140609Y-91349185D01*
X135228210Y-91480288D01*
X135228213Y-91480292D01*
X135339707Y-91591786D01*
X135339711Y-91591789D01*
X135470814Y-91679390D01*
X135470827Y-91679397D01*
X135616498Y-91739735D01*
X135616503Y-91739737D01*
X135771153Y-91770499D01*
X135771156Y-91770500D01*
X135771158Y-91770500D01*
X135928844Y-91770500D01*
X135928845Y-91770499D01*
X136083497Y-91739737D01*
X136229179Y-91679394D01*
X136230005Y-91678842D01*
X136360875Y-91591398D01*
X136427553Y-91570520D01*
X136429766Y-91570500D01*
X143623331Y-91570500D01*
X143623347Y-91570501D01*
X143630943Y-91570501D01*
X143789054Y-91570501D01*
X143789057Y-91570501D01*
X143941785Y-91529577D01*
X143991904Y-91500639D01*
X144078716Y-91450520D01*
X144190520Y-91338716D01*
X144190520Y-91338714D01*
X144200728Y-91328507D01*
X144200729Y-91328504D01*
X145194662Y-90334572D01*
X145255983Y-90301089D01*
X145258150Y-90300638D01*
X145316085Y-90289113D01*
X145413497Y-90269737D01*
X145559179Y-90209394D01*
X145690289Y-90121789D01*
X145801789Y-90010289D01*
X145889394Y-89879179D01*
X145949737Y-89733497D01*
X145980500Y-89578842D01*
X145980500Y-89421158D01*
X145980500Y-89421155D01*
X145980499Y-89421153D01*
X145978116Y-89409172D01*
X145949737Y-89266503D01*
X145930714Y-89220576D01*
X145889397Y-89120827D01*
X145889390Y-89120814D01*
X145801789Y-88989711D01*
X145801786Y-88989707D01*
X145690292Y-88878213D01*
X145690288Y-88878210D01*
X145559185Y-88790609D01*
X145559172Y-88790602D01*
X145413501Y-88730264D01*
X145413489Y-88730261D01*
X145258845Y-88699500D01*
X145258842Y-88699500D01*
X145101158Y-88699500D01*
X145101155Y-88699500D01*
X144946510Y-88730261D01*
X144946498Y-88730264D01*
X144800827Y-88790602D01*
X144800814Y-88790609D01*
X144669711Y-88878210D01*
X144669707Y-88878213D01*
X144558213Y-88989707D01*
X144558210Y-88989711D01*
X144470609Y-89120814D01*
X144470602Y-89120827D01*
X144410264Y-89266498D01*
X144410261Y-89266508D01*
X144379361Y-89421850D01*
X144346976Y-89483761D01*
X144345425Y-89485339D01*
X143497584Y-90333181D01*
X143436261Y-90366666D01*
X143409903Y-90369500D01*
X136429766Y-90369500D01*
X136362727Y-90349815D01*
X136360875Y-90348602D01*
X136229185Y-90260609D01*
X136229172Y-90260602D01*
X136083501Y-90200264D01*
X136083489Y-90200261D01*
X135928845Y-90169500D01*
X135928842Y-90169500D01*
X135771158Y-90169500D01*
X135771155Y-90169500D01*
X135616510Y-90200261D01*
X135616498Y-90200264D01*
X135470827Y-90260602D01*
X135470814Y-90260609D01*
X135339711Y-90348210D01*
X135339707Y-90348213D01*
X135228213Y-90459707D01*
X135228210Y-90459711D01*
X135140609Y-90590814D01*
X135140602Y-90590827D01*
X135080264Y-90736498D01*
X135080261Y-90736510D01*
X135049500Y-90891153D01*
X126319999Y-90891153D01*
X126319185Y-90890609D01*
X126319172Y-90890602D01*
X126173501Y-90830264D01*
X126173489Y-90830261D01*
X126018845Y-90799500D01*
X126018842Y-90799500D01*
X125861158Y-90799500D01*
X125861155Y-90799500D01*
X125706510Y-90830261D01*
X125706498Y-90830264D01*
X125555193Y-90892937D01*
X125554470Y-90891193D01*
X125494662Y-90903634D01*
X125429423Y-90878622D01*
X125416953Y-90867717D01*
X124764573Y-90215337D01*
X124731088Y-90154014D01*
X124730637Y-90151847D01*
X124724658Y-90121789D01*
X124699737Y-89996503D01*
X124651143Y-89879185D01*
X124639397Y-89850827D01*
X124639390Y-89850814D01*
X124551789Y-89719711D01*
X124551786Y-89719707D01*
X124464260Y-89632181D01*
X124430775Y-89570858D01*
X124435759Y-89501166D01*
X124477631Y-89445233D01*
X124543095Y-89420816D01*
X124551941Y-89420500D01*
X132181891Y-89420500D01*
X132248930Y-89440185D01*
X132284993Y-89475609D01*
X132328210Y-89540289D01*
X132439707Y-89651786D01*
X132439711Y-89651789D01*
X132570814Y-89739390D01*
X132570827Y-89739397D01*
X132716498Y-89799735D01*
X132716503Y-89799737D01*
X132871153Y-89830499D01*
X132871156Y-89830500D01*
X132871158Y-89830500D01*
X133028844Y-89830500D01*
X133028845Y-89830499D01*
X133183497Y-89799737D01*
X133329179Y-89739394D01*
X133460289Y-89651789D01*
X133571789Y-89540289D01*
X133659394Y-89409179D01*
X133719737Y-89263497D01*
X133750500Y-89108842D01*
X133750500Y-88951158D01*
X133750500Y-88951155D01*
X133750499Y-88951153D01*
X133740094Y-88898846D01*
X133719737Y-88796503D01*
X133696813Y-88741158D01*
X133659397Y-88650827D01*
X133659390Y-88650814D01*
X133571789Y-88519711D01*
X133571786Y-88519707D01*
X133460292Y-88408213D01*
X133460288Y-88408210D01*
X133329185Y-88320609D01*
X133329172Y-88320602D01*
X133183501Y-88260264D01*
X133183489Y-88260261D01*
X133028845Y-88229500D01*
X133028842Y-88229500D01*
X132872706Y-88229500D01*
X132867059Y-88229371D01*
X132853611Y-88228757D01*
X132819057Y-88219499D01*
X132660943Y-88219499D01*
X132660939Y-88219500D01*
X124519766Y-88219500D01*
X124452727Y-88199815D01*
X124450875Y-88198602D01*
X124319185Y-88110609D01*
X124319172Y-88110602D01*
X124173501Y-88050264D01*
X124173489Y-88050261D01*
X124018845Y-88019500D01*
X124018842Y-88019500D01*
X123861158Y-88019500D01*
X123861155Y-88019500D01*
X123706510Y-88050261D01*
X123706498Y-88050264D01*
X123560827Y-88110602D01*
X123560814Y-88110609D01*
X123429711Y-88198210D01*
X123429707Y-88198213D01*
X123318213Y-88309707D01*
X123318210Y-88309711D01*
X123230609Y-88440814D01*
X123230602Y-88440827D01*
X123170264Y-88586498D01*
X123170261Y-88586510D01*
X123139500Y-88741153D01*
X123139500Y-88898846D01*
X123170261Y-89053489D01*
X123170264Y-89053501D01*
X123230602Y-89199172D01*
X123230609Y-89199185D01*
X123318210Y-89330288D01*
X123318213Y-89330292D01*
X123420240Y-89432319D01*
X123453725Y-89493642D01*
X123448741Y-89563334D01*
X123420240Y-89607681D01*
X123308213Y-89719707D01*
X123308210Y-89719711D01*
X123220609Y-89850814D01*
X123220602Y-89850827D01*
X123160264Y-89996498D01*
X123160261Y-89996510D01*
X123129500Y-90151153D01*
X123129500Y-90308846D01*
X123160261Y-90463489D01*
X123160264Y-90463501D01*
X123220602Y-90609172D01*
X123220609Y-90609185D01*
X123308602Y-90740874D01*
X123329480Y-90807551D01*
X123329500Y-90809765D01*
X123329500Y-97183330D01*
X123329499Y-97183348D01*
X123329499Y-97349054D01*
X123329498Y-97349054D01*
X123370423Y-97501786D01*
X123370424Y-97501787D01*
X123398093Y-97549711D01*
X123433446Y-97610945D01*
X123449481Y-97638717D01*
X123568349Y-97757585D01*
X123568355Y-97757590D01*
X124015425Y-98204660D01*
X124048910Y-98265983D01*
X124049361Y-98268149D01*
X124080261Y-98423491D01*
X124080264Y-98423501D01*
X124140602Y-98569172D01*
X124140609Y-98569184D01*
X124198602Y-98655976D01*
X124219480Y-98722653D01*
X124219500Y-98724867D01*
X124219500Y-104200234D01*
X124199815Y-104267273D01*
X124198602Y-104269125D01*
X124110609Y-104400814D01*
X124110602Y-104400827D01*
X124050264Y-104546498D01*
X124050261Y-104546510D01*
X124019500Y-104701153D01*
X124019500Y-104858846D01*
X124050261Y-105013489D01*
X124050264Y-105013501D01*
X124110602Y-105159172D01*
X124110609Y-105159185D01*
X124198210Y-105290288D01*
X124198213Y-105290292D01*
X124309707Y-105401786D01*
X124309711Y-105401789D01*
X124440814Y-105489390D01*
X124440827Y-105489397D01*
X124508961Y-105517618D01*
X124586503Y-105549737D01*
X124617018Y-105555806D01*
X124678929Y-105588191D01*
X124680508Y-105589743D01*
X127230478Y-108139713D01*
X127230480Y-108139716D01*
X127342284Y-108251520D01*
X127382110Y-108274513D01*
X127391656Y-108283045D01*
X127403608Y-108302286D01*
X127419239Y-108318679D01*
X127421689Y-108331394D01*
X127428524Y-108342396D01*
X127428176Y-108365045D01*
X127432463Y-108387286D01*
X127427649Y-108399308D01*
X127427451Y-108412258D01*
X127414912Y-108431123D01*
X127406495Y-108452151D01*
X127395946Y-108459663D01*
X127388778Y-108470449D01*
X127368033Y-108479539D01*
X127349582Y-108492680D01*
X127330871Y-108495826D01*
X127324784Y-108498494D01*
X127319765Y-108497693D01*
X127309024Y-108499500D01*
X117527364Y-108499500D01*
X117460325Y-108479815D01*
X117414570Y-108427011D01*
X117404626Y-108357853D01*
X117433651Y-108294297D01*
X117461392Y-108270506D01*
X117564872Y-108205484D01*
X117724573Y-108078126D01*
X116582737Y-106936290D01*
X116716602Y-106839033D01*
X116839033Y-106716602D01*
X116936290Y-106582737D01*
X118078126Y-107724573D01*
X118205484Y-107564872D01*
X118366827Y-107308096D01*
X118498401Y-107034880D01*
X118498407Y-107034866D01*
X118598561Y-106748645D01*
X118598565Y-106748633D01*
X118666045Y-106452982D01*
X118666047Y-106452966D01*
X118699999Y-106151633D01*
X118700000Y-106151631D01*
X118700000Y-105848368D01*
X118699999Y-105848366D01*
X118666047Y-105547033D01*
X118666045Y-105547017D01*
X118598565Y-105251366D01*
X118598561Y-105251354D01*
X118498407Y-104965133D01*
X118498401Y-104965119D01*
X118366827Y-104691903D01*
X118205484Y-104435127D01*
X118078127Y-104275425D01*
X116936290Y-105417262D01*
X116839033Y-105283398D01*
X116716602Y-105160967D01*
X116582736Y-105063709D01*
X117724573Y-103921871D01*
X117564872Y-103794515D01*
X117308096Y-103633172D01*
X117034880Y-103501598D01*
X117034866Y-103501592D01*
X116748645Y-103401438D01*
X116748633Y-103401434D01*
X116452982Y-103333954D01*
X116452966Y-103333952D01*
X116151633Y-103300000D01*
X115848366Y-103300000D01*
X115547033Y-103333952D01*
X115547017Y-103333954D01*
X115251366Y-103401434D01*
X115251354Y-103401438D01*
X114965133Y-103501592D01*
X114965119Y-103501598D01*
X114691903Y-103633172D01*
X114435127Y-103794515D01*
X114275425Y-103921871D01*
X115417263Y-105063709D01*
X115283398Y-105160967D01*
X115160967Y-105283398D01*
X115063709Y-105417263D01*
X113921871Y-104275425D01*
X113794515Y-104435127D01*
X113729494Y-104538608D01*
X113677159Y-104584899D01*
X113608106Y-104595547D01*
X113544257Y-104567172D01*
X113505885Y-104508783D01*
X113500500Y-104472636D01*
X113500500Y-97393713D01*
X114499500Y-97393713D01*
X114499500Y-97606287D01*
X114509534Y-97669644D01*
X114529633Y-97796543D01*
X114532754Y-97816243D01*
X114595012Y-98007853D01*
X114598444Y-98018414D01*
X114694951Y-98207820D01*
X114819890Y-98379786D01*
X114958705Y-98518601D01*
X114992190Y-98579924D01*
X114987206Y-98649616D01*
X114945334Y-98705549D01*
X114936121Y-98711821D01*
X114781342Y-98807289D01*
X114657289Y-98931342D01*
X114565187Y-99080663D01*
X114565186Y-99080666D01*
X114510001Y-99247203D01*
X114510001Y-99247204D01*
X114510000Y-99247204D01*
X114499500Y-99349983D01*
X114499500Y-100650001D01*
X114499501Y-100650018D01*
X114510000Y-100752796D01*
X114510001Y-100752799D01*
X114548899Y-100870183D01*
X114565186Y-100919334D01*
X114657288Y-101068656D01*
X114781344Y-101192712D01*
X114930666Y-101284814D01*
X115097203Y-101339999D01*
X115199991Y-101350500D01*
X116800008Y-101350499D01*
X116902797Y-101339999D01*
X117069334Y-101284814D01*
X117218656Y-101192712D01*
X117342712Y-101068656D01*
X117434814Y-100919334D01*
X117489999Y-100752797D01*
X117500500Y-100650009D01*
X117500499Y-99349992D01*
X117489999Y-99247203D01*
X117434814Y-99080666D01*
X117342712Y-98931344D01*
X117218656Y-98807288D01*
X117069334Y-98715186D01*
X117069333Y-98715185D01*
X117063878Y-98711821D01*
X117017154Y-98659873D01*
X117005931Y-98590910D01*
X117033775Y-98526828D01*
X117041272Y-98518623D01*
X117180104Y-98379792D01*
X117215917Y-98330500D01*
X117305048Y-98207820D01*
X117305047Y-98207820D01*
X117305051Y-98207816D01*
X117401557Y-98018412D01*
X117467246Y-97816243D01*
X117500500Y-97606287D01*
X117500500Y-97393713D01*
X117467246Y-97183757D01*
X117401557Y-96981588D01*
X117305051Y-96792184D01*
X117305049Y-96792181D01*
X117305048Y-96792179D01*
X117180109Y-96620213D01*
X117029786Y-96469890D01*
X116857820Y-96344951D01*
X116668414Y-96248444D01*
X116668413Y-96248443D01*
X116668412Y-96248443D01*
X116466243Y-96182754D01*
X116466241Y-96182753D01*
X116466240Y-96182753D01*
X116274186Y-96152335D01*
X116256287Y-96149500D01*
X115743713Y-96149500D01*
X115725814Y-96152335D01*
X115533760Y-96182753D01*
X115331585Y-96248444D01*
X115142179Y-96344951D01*
X114970213Y-96469890D01*
X114819890Y-96620213D01*
X114694951Y-96792179D01*
X114598444Y-96981585D01*
X114532753Y-97183760D01*
X114506327Y-97350609D01*
X114499500Y-97393713D01*
X113500500Y-97393713D01*
X113500500Y-91691153D01*
X117939500Y-91691153D01*
X117939500Y-91848846D01*
X117970261Y-92003489D01*
X117970264Y-92003501D01*
X118030602Y-92149172D01*
X118030609Y-92149185D01*
X118118210Y-92280288D01*
X118118213Y-92280292D01*
X118229707Y-92391786D01*
X118229711Y-92391789D01*
X118360814Y-92479390D01*
X118360827Y-92479397D01*
X118506498Y-92539735D01*
X118506503Y-92539737D01*
X118653904Y-92569057D01*
X118661153Y-92570499D01*
X118661156Y-92570500D01*
X118661158Y-92570500D01*
X118818844Y-92570500D01*
X118818845Y-92570499D01*
X118973497Y-92539737D01*
X119119179Y-92479394D01*
X119250289Y-92391789D01*
X119361789Y-92280289D01*
X119449394Y-92149179D01*
X119509737Y-92003497D01*
X119529113Y-91906085D01*
X119540638Y-91848150D01*
X119573023Y-91786239D01*
X119574516Y-91784718D01*
X120680520Y-90678716D01*
X120759577Y-90541785D01*
X120800501Y-90389057D01*
X120800501Y-90230942D01*
X120800501Y-90223347D01*
X120800500Y-90223329D01*
X120800500Y-88879765D01*
X120820185Y-88812726D01*
X120821398Y-88810874D01*
X120831001Y-88796503D01*
X120909394Y-88679179D01*
X120969737Y-88533497D01*
X121000500Y-88378842D01*
X121000500Y-88221158D01*
X121000500Y-88221155D01*
X121000499Y-88221153D01*
X120995936Y-88198213D01*
X120969737Y-88066503D01*
X120969735Y-88066498D01*
X120909397Y-87920827D01*
X120909390Y-87920814D01*
X120821789Y-87789711D01*
X120821786Y-87789707D01*
X120710292Y-87678213D01*
X120710288Y-87678210D01*
X120579185Y-87590609D01*
X120579172Y-87590602D01*
X120433501Y-87530264D01*
X120433489Y-87530261D01*
X120278845Y-87499500D01*
X120278842Y-87499500D01*
X120121158Y-87499500D01*
X120121155Y-87499500D01*
X119966510Y-87530261D01*
X119966498Y-87530264D01*
X119820827Y-87590602D01*
X119820814Y-87590609D01*
X119689711Y-87678210D01*
X119689707Y-87678213D01*
X119578213Y-87789707D01*
X119578210Y-87789711D01*
X119490609Y-87920814D01*
X119490602Y-87920827D01*
X119430264Y-88066498D01*
X119430261Y-88066510D01*
X119399500Y-88221153D01*
X119399500Y-88378846D01*
X119430261Y-88533489D01*
X119430264Y-88533501D01*
X119490602Y-88679172D01*
X119490609Y-88679185D01*
X119578602Y-88810874D01*
X119599480Y-88877551D01*
X119599500Y-88879765D01*
X119599500Y-90009902D01*
X119579815Y-90076941D01*
X119563181Y-90097583D01*
X118725339Y-90935425D01*
X118664016Y-90968910D01*
X118661850Y-90969361D01*
X118506508Y-91000261D01*
X118506498Y-91000264D01*
X118360827Y-91060602D01*
X118360814Y-91060609D01*
X118229711Y-91148210D01*
X118229707Y-91148213D01*
X118118213Y-91259707D01*
X118118210Y-91259711D01*
X118030609Y-91390814D01*
X118030602Y-91390827D01*
X117970264Y-91536498D01*
X117970261Y-91536510D01*
X117939500Y-91691153D01*
X113500500Y-91691153D01*
X113500500Y-86741153D01*
X122649500Y-86741153D01*
X122649500Y-86898846D01*
X122680261Y-87053489D01*
X122680264Y-87053501D01*
X122740602Y-87199172D01*
X122740609Y-87199185D01*
X122828210Y-87330288D01*
X122828213Y-87330292D01*
X122939707Y-87441786D01*
X122939711Y-87441789D01*
X123070814Y-87529390D01*
X123070827Y-87529397D01*
X123216498Y-87589735D01*
X123216503Y-87589737D01*
X123371153Y-87620499D01*
X123371156Y-87620500D01*
X123371158Y-87620500D01*
X123528844Y-87620500D01*
X123528845Y-87620499D01*
X123683497Y-87589737D01*
X123829179Y-87529394D01*
X123845359Y-87518583D01*
X123960875Y-87441398D01*
X124027553Y-87420520D01*
X124029766Y-87420500D01*
X128647059Y-87420500D01*
X128714098Y-87440185D01*
X128734740Y-87456819D01*
X128759707Y-87481786D01*
X128759711Y-87481789D01*
X128890814Y-87569390D01*
X128890827Y-87569397D01*
X129036498Y-87629735D01*
X129036503Y-87629737D01*
X129191153Y-87660499D01*
X129191156Y-87660500D01*
X129191158Y-87660500D01*
X129348844Y-87660500D01*
X129348845Y-87660499D01*
X129503497Y-87629737D01*
X129649179Y-87569394D01*
X129780289Y-87481789D01*
X129891789Y-87370289D01*
X129979394Y-87239179D01*
X130039737Y-87093497D01*
X130070500Y-86938842D01*
X130070500Y-86781158D01*
X130070500Y-86781155D01*
X130070499Y-86781153D01*
X130062542Y-86741153D01*
X130039737Y-86626503D01*
X130023236Y-86586666D01*
X129979397Y-86480827D01*
X129979390Y-86480814D01*
X129891789Y-86349711D01*
X129891786Y-86349707D01*
X129780292Y-86238213D01*
X129780288Y-86238210D01*
X129649185Y-86150609D01*
X129649172Y-86150602D01*
X129503501Y-86090264D01*
X129503489Y-86090261D01*
X129348845Y-86059500D01*
X129348842Y-86059500D01*
X129191158Y-86059500D01*
X129191155Y-86059500D01*
X129036510Y-86090261D01*
X129036498Y-86090264D01*
X128890827Y-86150602D01*
X128890815Y-86150609D01*
X128818990Y-86198602D01*
X128752313Y-86219480D01*
X128750099Y-86219500D01*
X124029766Y-86219500D01*
X123962727Y-86199815D01*
X123960875Y-86198602D01*
X123829185Y-86110609D01*
X123829172Y-86110602D01*
X123683501Y-86050264D01*
X123683489Y-86050261D01*
X123528845Y-86019500D01*
X123528842Y-86019500D01*
X123371158Y-86019500D01*
X123371155Y-86019500D01*
X123216510Y-86050261D01*
X123216498Y-86050264D01*
X123070827Y-86110602D01*
X123070814Y-86110609D01*
X122939711Y-86198210D01*
X122939707Y-86198213D01*
X122828213Y-86309707D01*
X122828210Y-86309711D01*
X122740609Y-86440814D01*
X122740602Y-86440827D01*
X122680264Y-86586498D01*
X122680261Y-86586510D01*
X122649500Y-86741153D01*
X113500500Y-86741153D01*
X113500500Y-85861153D01*
X131889500Y-85861153D01*
X131889500Y-86018846D01*
X131920261Y-86173489D01*
X131920264Y-86173501D01*
X131980602Y-86319172D01*
X131980609Y-86319185D01*
X132068210Y-86450288D01*
X132068213Y-86450292D01*
X132179707Y-86561786D01*
X132179711Y-86561789D01*
X132310814Y-86649390D01*
X132310827Y-86649397D01*
X132456498Y-86709735D01*
X132456503Y-86709737D01*
X132611153Y-86740499D01*
X132611156Y-86740500D01*
X132611158Y-86740500D01*
X132768844Y-86740500D01*
X132768845Y-86740499D01*
X132923497Y-86709737D01*
X133069179Y-86649394D01*
X133069185Y-86649390D01*
X133200875Y-86561398D01*
X133267553Y-86540520D01*
X133269766Y-86540500D01*
X136879903Y-86540500D01*
X136946942Y-86560185D01*
X136967584Y-86576819D01*
X137715425Y-87324660D01*
X137748910Y-87385983D01*
X137749361Y-87388149D01*
X137780261Y-87543491D01*
X137780264Y-87543501D01*
X137840602Y-87689172D01*
X137840609Y-87689185D01*
X137928210Y-87820288D01*
X137928213Y-87820292D01*
X138039707Y-87931786D01*
X138039711Y-87931789D01*
X138170814Y-88019390D01*
X138170827Y-88019397D01*
X138245348Y-88050264D01*
X138316503Y-88079737D01*
X138471153Y-88110499D01*
X138471156Y-88110500D01*
X138471158Y-88110500D01*
X138628844Y-88110500D01*
X138628845Y-88110499D01*
X138783497Y-88079737D01*
X138919264Y-88023501D01*
X138929172Y-88019397D01*
X138929172Y-88019396D01*
X138929179Y-88019394D01*
X139060289Y-87931789D01*
X139163741Y-87828336D01*
X139225062Y-87794853D01*
X139294754Y-87799837D01*
X139339102Y-87828338D01*
X140652284Y-89141520D01*
X140652286Y-89141521D01*
X140652290Y-89141524D01*
X140789209Y-89220573D01*
X140789216Y-89220577D01*
X140941943Y-89261501D01*
X140941945Y-89261501D01*
X141107654Y-89261501D01*
X141107670Y-89261500D01*
X142932331Y-89261500D01*
X142932347Y-89261501D01*
X142939943Y-89261501D01*
X143098054Y-89261501D01*
X143098057Y-89261501D01*
X143250785Y-89220577D01*
X143305969Y-89188716D01*
X143387716Y-89141520D01*
X143499520Y-89029716D01*
X143499520Y-89029714D01*
X143509724Y-89019511D01*
X143509727Y-89019506D01*
X143904662Y-88624572D01*
X143965983Y-88591089D01*
X143968150Y-88590638D01*
X144026085Y-88579113D01*
X144123497Y-88559737D01*
X144269179Y-88499394D01*
X144400289Y-88411789D01*
X144511789Y-88300289D01*
X144599394Y-88169179D01*
X144659737Y-88023497D01*
X144677979Y-87931790D01*
X144686231Y-87890308D01*
X144718616Y-87828397D01*
X144779332Y-87793823D01*
X144807848Y-87790500D01*
X149673331Y-87790500D01*
X149673347Y-87790501D01*
X149680943Y-87790501D01*
X149839054Y-87790501D01*
X149839057Y-87790501D01*
X149991785Y-87749577D01*
X150058328Y-87711158D01*
X150128716Y-87670520D01*
X150240520Y-87558716D01*
X150240520Y-87558714D01*
X150250724Y-87548511D01*
X150250728Y-87548506D01*
X150682415Y-87116819D01*
X150743738Y-87083334D01*
X150770096Y-87080500D01*
X150928844Y-87080500D01*
X150928845Y-87080499D01*
X151083497Y-87049737D01*
X151229179Y-86989394D01*
X151360289Y-86901789D01*
X151471789Y-86790289D01*
X151559394Y-86659179D01*
X151619737Y-86513497D01*
X151650500Y-86358842D01*
X151650500Y-86201158D01*
X151650500Y-86201155D01*
X151650499Y-86201153D01*
X151640445Y-86150609D01*
X151619737Y-86046503D01*
X151608280Y-86018842D01*
X151559397Y-85900827D01*
X151559390Y-85900814D01*
X151471789Y-85769711D01*
X151471786Y-85769707D01*
X151360292Y-85658213D01*
X151360288Y-85658210D01*
X151229185Y-85570609D01*
X151229172Y-85570602D01*
X151083501Y-85510264D01*
X151083489Y-85510261D01*
X150928845Y-85479500D01*
X150928842Y-85479500D01*
X150771158Y-85479500D01*
X150771155Y-85479500D01*
X150616510Y-85510261D01*
X150616498Y-85510264D01*
X150470827Y-85570602D01*
X150470814Y-85570609D01*
X150339711Y-85658210D01*
X150339707Y-85658213D01*
X150228213Y-85769707D01*
X150228210Y-85769711D01*
X150140609Y-85900814D01*
X150140606Y-85900820D01*
X150108086Y-85979330D01*
X150081206Y-86019557D01*
X149547584Y-86553181D01*
X149486261Y-86586666D01*
X149459903Y-86589500D01*
X142979766Y-86589500D01*
X142912727Y-86569815D01*
X142910875Y-86568602D01*
X142779185Y-86480609D01*
X142779172Y-86480602D01*
X142633501Y-86420264D01*
X142633489Y-86420261D01*
X142478845Y-86389500D01*
X142478842Y-86389500D01*
X142321158Y-86389500D01*
X142321148Y-86389500D01*
X142320825Y-86389565D01*
X142320652Y-86389549D01*
X142315093Y-86390097D01*
X142314989Y-86389041D01*
X142251235Y-86383327D01*
X142196064Y-86340456D01*
X142172829Y-86274563D01*
X142188907Y-86206568D01*
X142208967Y-86180267D01*
X144714974Y-83674260D01*
X144776295Y-83640777D01*
X144845987Y-83645761D01*
X144850105Y-83647382D01*
X144915000Y-83674262D01*
X144976503Y-83699737D01*
X145131153Y-83730499D01*
X145131156Y-83730500D01*
X145131158Y-83730500D01*
X145288844Y-83730500D01*
X145288845Y-83730499D01*
X145443497Y-83699737D01*
X145589179Y-83639394D01*
X145720289Y-83551789D01*
X145831789Y-83440289D01*
X145919394Y-83309179D01*
X145979737Y-83163497D01*
X146010500Y-83008842D01*
X146010500Y-82851158D01*
X146010500Y-82851155D01*
X146010499Y-82851153D01*
X145979738Y-82696510D01*
X145979737Y-82696503D01*
X145979735Y-82696498D01*
X145919397Y-82550827D01*
X145919390Y-82550814D01*
X145831789Y-82419711D01*
X145831786Y-82419707D01*
X145720292Y-82308213D01*
X145720288Y-82308210D01*
X145589185Y-82220609D01*
X145589172Y-82220602D01*
X145443501Y-82160264D01*
X145443489Y-82160261D01*
X145288845Y-82129500D01*
X145288842Y-82129500D01*
X145131158Y-82129500D01*
X145131155Y-82129500D01*
X144976510Y-82160261D01*
X144976498Y-82160264D01*
X144830827Y-82220602D01*
X144830814Y-82220609D01*
X144699127Y-82308601D01*
X144632450Y-82329479D01*
X144630236Y-82329499D01*
X144530943Y-82329499D01*
X144454579Y-82349961D01*
X144378214Y-82370423D01*
X144378209Y-82370426D01*
X144241290Y-82449475D01*
X144241282Y-82449481D01*
X141059479Y-85631284D01*
X141043934Y-85658211D01*
X141031643Y-85679500D01*
X140980423Y-85768215D01*
X140939499Y-85920943D01*
X140939499Y-85920945D01*
X140939499Y-86089046D01*
X140939500Y-86089059D01*
X140939500Y-87430902D01*
X140919815Y-87497941D01*
X140867011Y-87543696D01*
X140797853Y-87553640D01*
X140734297Y-87524615D01*
X140727819Y-87518583D01*
X137834573Y-84625337D01*
X137801088Y-84564014D01*
X137800637Y-84561847D01*
X137769738Y-84406510D01*
X137769737Y-84406503D01*
X137769735Y-84406498D01*
X137709397Y-84260827D01*
X137709390Y-84260814D01*
X137621789Y-84129711D01*
X137621786Y-84129707D01*
X137510292Y-84018213D01*
X137510288Y-84018210D01*
X137379185Y-83930609D01*
X137379172Y-83930602D01*
X137233501Y-83870264D01*
X137233489Y-83870261D01*
X137078845Y-83839500D01*
X137078842Y-83839500D01*
X136921158Y-83839500D01*
X136921155Y-83839500D01*
X136766510Y-83870261D01*
X136766498Y-83870264D01*
X136620827Y-83930602D01*
X136620814Y-83930609D01*
X136489711Y-84018210D01*
X136489707Y-84018213D01*
X136378213Y-84129707D01*
X136378210Y-84129711D01*
X136290609Y-84260814D01*
X136290602Y-84260827D01*
X136230264Y-84406498D01*
X136230261Y-84406510D01*
X136199500Y-84561153D01*
X136199500Y-84718846D01*
X136230261Y-84873489D01*
X136230264Y-84873501D01*
X136290602Y-85019172D01*
X136290609Y-85019185D01*
X136375752Y-85146609D01*
X136396630Y-85213286D01*
X136378146Y-85280666D01*
X136326167Y-85327357D01*
X136272650Y-85339500D01*
X133269766Y-85339500D01*
X133202727Y-85319815D01*
X133200875Y-85318602D01*
X133069185Y-85230609D01*
X133069172Y-85230602D01*
X132923501Y-85170264D01*
X132923489Y-85170261D01*
X132768845Y-85139500D01*
X132768842Y-85139500D01*
X132611158Y-85139500D01*
X132611155Y-85139500D01*
X132456510Y-85170261D01*
X132456498Y-85170264D01*
X132310827Y-85230602D01*
X132310814Y-85230609D01*
X132179711Y-85318210D01*
X132179707Y-85318213D01*
X132068213Y-85429707D01*
X132068210Y-85429711D01*
X131980609Y-85560814D01*
X131980602Y-85560827D01*
X131920264Y-85706498D01*
X131920261Y-85706510D01*
X131889500Y-85861153D01*
X113500500Y-85861153D01*
X113500500Y-79527363D01*
X113520185Y-79460324D01*
X113572989Y-79414569D01*
X113642147Y-79404625D01*
X113705703Y-79433650D01*
X113729494Y-79461392D01*
X113794512Y-79564869D01*
X113921871Y-79724573D01*
X115063708Y-78582736D01*
X115160967Y-78716602D01*
X115283398Y-78839033D01*
X115417262Y-78936290D01*
X114275425Y-80078127D01*
X114435127Y-80205484D01*
X114691903Y-80366827D01*
X114965119Y-80498401D01*
X114965133Y-80498407D01*
X115251354Y-80598561D01*
X115251366Y-80598565D01*
X115547017Y-80666045D01*
X115547033Y-80666047D01*
X115848366Y-80699999D01*
X115848368Y-80700000D01*
X116151632Y-80700000D01*
X116151633Y-80699999D01*
X116452966Y-80666047D01*
X116452982Y-80666045D01*
X116748633Y-80598565D01*
X116748645Y-80598561D01*
X117034866Y-80498407D01*
X117034880Y-80498401D01*
X117308096Y-80366827D01*
X117564872Y-80205484D01*
X117724573Y-80078126D01*
X116582737Y-78936290D01*
X116716602Y-78839033D01*
X116839033Y-78716602D01*
X116936290Y-78582737D01*
X118078126Y-79724573D01*
X118205484Y-79564872D01*
X118366827Y-79308096D01*
X118498401Y-79034880D01*
X118498407Y-79034866D01*
X118598561Y-78748645D01*
X118598565Y-78748633D01*
X118666045Y-78452982D01*
X118666047Y-78452966D01*
X118699999Y-78151633D01*
X118700000Y-78151631D01*
X118700000Y-77848368D01*
X118699999Y-77848364D01*
X118668939Y-77572689D01*
X118667749Y-77562135D01*
X119084500Y-77562135D01*
X119084500Y-79687870D01*
X119084501Y-79687876D01*
X119090908Y-79747483D01*
X119141202Y-79882328D01*
X119141206Y-79882335D01*
X119227452Y-79997544D01*
X119227455Y-79997547D01*
X119342664Y-80083793D01*
X119342671Y-80083797D01*
X119477517Y-80134091D01*
X119477516Y-80134091D01*
X119484444Y-80134835D01*
X119537127Y-80140500D01*
X121362872Y-80140499D01*
X121422483Y-80134091D01*
X121557331Y-80083796D01*
X121672546Y-79997546D01*
X121758796Y-79882331D01*
X121802048Y-79766365D01*
X121843917Y-79710433D01*
X121909381Y-79686015D01*
X121977654Y-79700866D01*
X122005910Y-79722018D01*
X122100437Y-79816545D01*
X122274322Y-79942880D01*
X122368251Y-79990739D01*
X122465829Y-80040458D01*
X122465832Y-80040459D01*
X122656494Y-80102408D01*
X122670245Y-80106876D01*
X122882533Y-80140500D01*
X122882534Y-80140500D01*
X123097466Y-80140500D01*
X123097467Y-80140500D01*
X123309755Y-80106876D01*
X123309758Y-80106875D01*
X123309759Y-80106875D01*
X123514167Y-80040459D01*
X123514170Y-80040458D01*
X123705678Y-79942880D01*
X123879563Y-79816545D01*
X124031545Y-79664563D01*
X124157880Y-79490678D01*
X124157879Y-79490678D01*
X124159682Y-79488198D01*
X124215012Y-79445532D01*
X124284625Y-79439553D01*
X124346420Y-79472159D01*
X124360318Y-79488198D01*
X124362120Y-79490678D01*
X124488455Y-79664563D01*
X124640437Y-79816545D01*
X124814322Y-79942880D01*
X124908251Y-79990739D01*
X125005829Y-80040458D01*
X125005832Y-80040459D01*
X125196494Y-80102408D01*
X125210245Y-80106876D01*
X125422533Y-80140500D01*
X125422534Y-80140500D01*
X125637466Y-80140500D01*
X125637467Y-80140500D01*
X125849755Y-80106876D01*
X125849758Y-80106875D01*
X125849759Y-80106875D01*
X126054167Y-80040459D01*
X126054170Y-80040458D01*
X126245678Y-79942880D01*
X126419563Y-79816545D01*
X126571545Y-79664563D01*
X126697880Y-79490678D01*
X126795458Y-79299170D01*
X126861876Y-79094755D01*
X126895500Y-78882467D01*
X126895500Y-78367533D01*
X126861876Y-78155245D01*
X126861875Y-78155241D01*
X126861875Y-78155240D01*
X126795459Y-77950832D01*
X126795455Y-77950824D01*
X126770165Y-77901188D01*
X126770164Y-77901187D01*
X126707315Y-77777840D01*
X126697880Y-77759322D01*
X126571545Y-77585437D01*
X126419563Y-77433455D01*
X126245678Y-77307120D01*
X126199121Y-77283398D01*
X126054170Y-77209541D01*
X126054167Y-77209540D01*
X125849757Y-77143124D01*
X125708229Y-77120708D01*
X125637467Y-77109500D01*
X125422533Y-77109500D01*
X125351770Y-77120708D01*
X125210243Y-77143124D01*
X125210240Y-77143124D01*
X125005832Y-77209540D01*
X125005829Y-77209541D01*
X124814321Y-77307120D01*
X124730981Y-77367671D01*
X124640437Y-77433455D01*
X124640435Y-77433457D01*
X124640434Y-77433457D01*
X124488457Y-77585434D01*
X124488457Y-77585435D01*
X124488455Y-77585437D01*
X124406151Y-77698719D01*
X124360318Y-77761802D01*
X124304988Y-77804467D01*
X124235374Y-77810446D01*
X124173579Y-77777840D01*
X124159682Y-77761802D01*
X124113849Y-77698719D01*
X124031545Y-77585437D01*
X123879563Y-77433455D01*
X123705678Y-77307120D01*
X123659121Y-77283398D01*
X123514170Y-77209541D01*
X123514167Y-77209540D01*
X123309757Y-77143124D01*
X123168229Y-77120708D01*
X123097467Y-77109500D01*
X122882533Y-77109500D01*
X122811770Y-77120708D01*
X122670243Y-77143124D01*
X122670240Y-77143124D01*
X122465832Y-77209540D01*
X122465829Y-77209541D01*
X122274321Y-77307120D01*
X122100438Y-77433454D01*
X122005910Y-77527982D01*
X121944586Y-77561466D01*
X121874895Y-77556482D01*
X121818962Y-77514610D01*
X121802047Y-77483632D01*
X121758798Y-77367673D01*
X121758793Y-77367664D01*
X121672547Y-77252455D01*
X121672544Y-77252452D01*
X121557335Y-77166206D01*
X121557328Y-77166202D01*
X121422482Y-77115908D01*
X121422483Y-77115908D01*
X121362883Y-77109501D01*
X121362881Y-77109500D01*
X121362873Y-77109500D01*
X121362864Y-77109500D01*
X119537129Y-77109500D01*
X119537123Y-77109501D01*
X119477516Y-77115908D01*
X119342671Y-77166202D01*
X119342664Y-77166206D01*
X119227455Y-77252452D01*
X119227452Y-77252455D01*
X119141206Y-77367664D01*
X119141202Y-77367671D01*
X119090908Y-77502517D01*
X119084501Y-77562116D01*
X119084500Y-77562135D01*
X118667749Y-77562135D01*
X118666047Y-77547031D01*
X118666045Y-77547017D01*
X118598565Y-77251366D01*
X118598561Y-77251354D01*
X118498407Y-76965133D01*
X118498401Y-76965119D01*
X118366827Y-76691903D01*
X118205484Y-76435127D01*
X118078127Y-76275425D01*
X116936290Y-77417262D01*
X116839033Y-77283398D01*
X116716602Y-77160967D01*
X116582736Y-77063708D01*
X117724573Y-75921871D01*
X117564872Y-75794515D01*
X117461392Y-75729494D01*
X117415101Y-75677159D01*
X117404453Y-75608106D01*
X117432828Y-75544257D01*
X117491217Y-75505885D01*
X117527364Y-75500500D01*
X149472636Y-75500500D01*
X149539675Y-75520185D01*
G37*
%TD.AperFunction*%
%TD*%
M02*
