%TF.GenerationSoftware,KiCad,Pcbnew,9.0.1*%
%TF.CreationDate,2026-03-10T16:59:16+01:00*%
%TF.ProjectId,EMG_sensor,454d475f-7365-46e7-936f-722e6b696361,rev?*%
%TF.SameCoordinates,Original*%
%TF.FileFunction,Copper,L1,Top*%
%TF.FilePolarity,Positive*%
%FSLAX46Y46*%
G04 Gerber Fmt 4.6, Leading zero omitted, Abs format (unit mm)*
G04 Created by KiCad (PCBNEW 9.0.1) date 2026-03-10 16:59:16*
%MOMM*%
%LPD*%
G01*
G04 APERTURE LIST*
G04 Aperture macros list*
%AMRoundRect*
0 Rectangle with rounded corners*
0 $1 Rounding radius*
0 $2 $3 $4 $5 $6 $7 $8 $9 X,Y pos of 4 corners*
0 Add a 4 corners polygon primitive as box body*
4,1,4,$2,$3,$4,$5,$6,$7,$8,$9,$2,$3,0*
0 Add four circle primitives for the rounded corners*
1,1,$1+$1,$2,$3*
1,1,$1+$1,$4,$5*
1,1,$1+$1,$6,$7*
1,1,$1+$1,$8,$9*
0 Add four rect primitives between the rounded corners*
20,1,$1+$1,$2,$3,$4,$5,0*
20,1,$1+$1,$4,$5,$6,$7,0*
20,1,$1+$1,$6,$7,$8,$9,0*
20,1,$1+$1,$8,$9,$2,$3,0*%
G04 Aperture macros list end*
%TA.AperFunction,ComponentPad*%
%ADD10R,1.700000X1.700000*%
%TD*%
%TA.AperFunction,SMDPad,CuDef*%
%ADD11RoundRect,0.155000X0.155000X-0.212500X0.155000X0.212500X-0.155000X0.212500X-0.155000X-0.212500X0*%
%TD*%
%TA.AperFunction,SMDPad,CuDef*%
%ADD12RoundRect,0.155000X-0.212500X-0.155000X0.212500X-0.155000X0.212500X0.155000X-0.212500X0.155000X0*%
%TD*%
%TA.AperFunction,SMDPad,CuDef*%
%ADD13RoundRect,0.225000X-0.375000X0.225000X-0.375000X-0.225000X0.375000X-0.225000X0.375000X0.225000X0*%
%TD*%
%TA.AperFunction,SMDPad,CuDef*%
%ADD14RoundRect,0.160000X-0.197500X-0.160000X0.197500X-0.160000X0.197500X0.160000X-0.197500X0.160000X0*%
%TD*%
%TA.AperFunction,SMDPad,CuDef*%
%ADD15RoundRect,0.160000X0.160000X-0.197500X0.160000X0.197500X-0.160000X0.197500X-0.160000X-0.197500X0*%
%TD*%
%TA.AperFunction,ComponentPad*%
%ADD16R,1.730000X2.030000*%
%TD*%
%TA.AperFunction,ComponentPad*%
%ADD17O,1.730000X2.030000*%
%TD*%
%TA.AperFunction,SMDPad,CuDef*%
%ADD18RoundRect,0.160000X-0.160000X0.197500X-0.160000X-0.197500X0.160000X-0.197500X0.160000X0.197500X0*%
%TD*%
%TA.AperFunction,SMDPad,CuDef*%
%ADD19RoundRect,0.150000X-0.725000X-0.150000X0.725000X-0.150000X0.725000X0.150000X-0.725000X0.150000X0*%
%TD*%
%TA.AperFunction,ComponentPad*%
%ADD20RoundRect,0.250000X0.750000X-0.600000X0.750000X0.600000X-0.750000X0.600000X-0.750000X-0.600000X0*%
%TD*%
%TA.AperFunction,ComponentPad*%
%ADD21O,2.000000X1.700000*%
%TD*%
%TA.AperFunction,ComponentPad*%
%ADD22C,4.400000*%
%TD*%
%TA.AperFunction,SMDPad,CuDef*%
%ADD23RoundRect,0.160000X0.197500X0.160000X-0.197500X0.160000X-0.197500X-0.160000X0.197500X-0.160000X0*%
%TD*%
%TA.AperFunction,ViaPad*%
%ADD24C,0.600000*%
%TD*%
%TA.AperFunction,Conductor*%
%ADD25C,0.200000*%
%TD*%
G04 APERTURE END LIST*
D10*
%TO.P,J4,1,Pin_1*%
%TO.N,Net-(J4-Pin_1)*%
X152120000Y-96470000D03*
%TD*%
D11*
%TO.P,C2,1*%
%TO.N,Net-(C2-Pad1)*%
X148567500Y-100567500D03*
%TO.P,C2,2*%
%TO.N,Net-(U5--)*%
X148567500Y-99432500D03*
%TD*%
D12*
%TO.P,C1,1*%
%TO.N,Net-(C1-Pad1)*%
X118432500Y-91000000D03*
%TO.P,C1,2*%
%TO.N,Net-(C1-Pad2)*%
X119567500Y-91000000D03*
%TD*%
D13*
%TO.P,D2,1,K*%
%TO.N,Net-(D1-A)*%
X142930000Y-82890000D03*
%TO.P,D2,2,A*%
%TO.N,Net-(D2-A)*%
X142930000Y-86190000D03*
%TD*%
%TO.P,D1,1,K*%
%TO.N,Net-(D1-K)*%
X142970000Y-77890000D03*
%TO.P,D1,2,A*%
%TO.N,Net-(D1-A)*%
X142970000Y-81190000D03*
%TD*%
D14*
%TO.P,R13,2*%
%TO.N,Net-(C2-Pad1)*%
X135487500Y-98260000D03*
%TO.P,R13,1*%
%TO.N,Net-(U5--)*%
X134292500Y-98260000D03*
%TD*%
%TO.P,R11,1*%
%TO.N,Net-(U4--)*%
X149402500Y-91000000D03*
%TO.P,R11,2*%
%TO.N,Net-(R11-Pad2)*%
X150597500Y-91000000D03*
%TD*%
%TO.P,R1,1*%
%TO.N,Net-(J1-Pin_1)*%
X116360000Y-83160000D03*
%TO.P,R1,2*%
%TO.N,Net-(U1--)*%
X117555000Y-83160000D03*
%TD*%
D15*
%TO.P,R7,1*%
%TO.N,Net-(R6-Pad2)*%
X132950000Y-88035000D03*
%TO.P,R7,2*%
%TO.N,Net-(U3--)*%
X132950000Y-86840000D03*
%TD*%
D14*
%TO.P,R10,1*%
%TO.N,Net-(D2-A)*%
X146995000Y-91000000D03*
%TO.P,R10,2*%
%TO.N,Net-(U4--)*%
X148190000Y-91000000D03*
%TD*%
%TO.P,R16,1*%
%TO.N,Net-(J1-Pin_3)*%
X131960000Y-98250000D03*
%TO.P,R16,2*%
%TO.N,Net-(U8-+)*%
X133155000Y-98250000D03*
%TD*%
D16*
%TO.P,J1,1,Pin_1*%
%TO.N,Net-(J1-Pin_1)*%
X120450000Y-78625000D03*
D17*
%TO.P,J1,2,Pin_2*%
%TO.N,Net-(J1-Pin_2)*%
X122990000Y-78625000D03*
%TO.P,J1,3,Pin_3*%
%TO.N,Net-(J1-Pin_3)*%
X125530000Y-78625000D03*
%TD*%
D14*
%TO.P,R8,1*%
%TO.N,Net-(U3--)*%
X139835000Y-83500000D03*
%TO.P,R8,2*%
%TO.N,Net-(D2-A)*%
X141030000Y-83500000D03*
%TD*%
%TO.P,R19,1*%
%TO.N,Net-(U8--)*%
X127370000Y-99600000D03*
%TO.P,R19,2*%
%TO.N,Net-(J1-Pin_3)*%
X128565000Y-99600000D03*
%TD*%
D15*
%TO.P,R20,1*%
%TO.N,Net-(J5-Pin_1)*%
X120500000Y-100597500D03*
%TO.P,R20,2*%
%TO.N,Net-(U7-+)*%
X120500000Y-99402500D03*
%TD*%
D18*
%TO.P,R18,1*%
%TO.N,Net-(U7--)*%
X122500000Y-102402500D03*
%TO.P,R18,2*%
%TO.N,Net-(U8--)*%
X122500000Y-103597500D03*
%TD*%
D19*
%TO.P,U3,1,NULL*%
%TO.N,unconnected-(U3-NULL-Pad1)*%
X134925000Y-85595000D03*
%TO.P,U3,2,-*%
%TO.N,Net-(U3--)*%
X134925000Y-86865000D03*
%TO.P,U3,3,+*%
%TO.N,Net-(J1-Pin_3)*%
X134925000Y-88135000D03*
%TO.P,U3,4,V-*%
%TO.N,Net-(J2-Pin_1)*%
X134925000Y-89405000D03*
%TO.P,U3,5,NULL*%
%TO.N,unconnected-(U3-NULL-Pad5)*%
X140075000Y-89405000D03*
%TO.P,U3,6*%
%TO.N,Net-(D1-A)*%
X140075000Y-88135000D03*
%TO.P,U3,7,V+*%
%TO.N,Net-(J3-Pin_1)*%
X140075000Y-86865000D03*
%TO.P,U3,8,NC*%
%TO.N,unconnected-(U3-NC-Pad8)*%
X140075000Y-85595000D03*
%TD*%
D20*
%TO.P,J5,1,Pin_1*%
%TO.N,Net-(J5-Pin_1)*%
X116000000Y-100000000D03*
D21*
%TO.P,J5,2,Pin_2*%
%TO.N,Net-(J5-Pin_2)*%
X116000000Y-97500000D03*
%TD*%
D22*
%TO.P,H1,1,1*%
%TO.N,GND*%
X116000000Y-78000000D03*
%TD*%
D15*
%TO.P,R21,1*%
%TO.N,Net-(J5-Pin_2)*%
X120500000Y-98097500D03*
%TO.P,R21,2*%
%TO.N,Net-(U7-+)*%
X120500000Y-96902500D03*
%TD*%
D23*
%TO.P,R3,1*%
%TO.N,Net-(J1-Pin_3)*%
X122260000Y-83140000D03*
%TO.P,R3,2*%
%TO.N,Net-(U1-+)*%
X121065000Y-83140000D03*
%TD*%
%TO.P,R17,1*%
%TO.N,Net-(J4-Pin_1)*%
X129097500Y-107110000D03*
%TO.P,R17,2*%
%TO.N,Net-(U8-+)*%
X127902500Y-107110000D03*
%TD*%
D19*
%TO.P,U1,1,NULL*%
%TO.N,unconnected-(U1-NULL-Pad1)*%
X116925000Y-85595000D03*
%TO.P,U1,2,-*%
%TO.N,Net-(U1--)*%
X116925000Y-86865000D03*
%TO.P,U1,3,+*%
%TO.N,Net-(U1-+)*%
X116925000Y-88135000D03*
%TO.P,U1,4,V-*%
%TO.N,Net-(J2-Pin_1)*%
X116925000Y-89405000D03*
%TO.P,U1,5,NULL*%
%TO.N,unconnected-(U1-NULL-Pad5)*%
X122075000Y-89405000D03*
%TO.P,U1,6*%
%TO.N,Net-(C1-Pad1)*%
X122075000Y-88135000D03*
%TO.P,U1,7,V+*%
%TO.N,Net-(J3-Pin_1)*%
X122075000Y-86865000D03*
%TO.P,U1,8,NC*%
%TO.N,unconnected-(U1-NC-Pad8)*%
X122075000Y-85595000D03*
%TD*%
D14*
%TO.P,R14,1*%
%TO.N,Net-(C2-Pad1)*%
X136580000Y-98270000D03*
%TO.P,R14,2*%
%TO.N,Net-(J1-Pin_3)*%
X137775000Y-98270000D03*
%TD*%
D23*
%TO.P,R12,1*%
%TO.N,Net-(R11-Pad2)*%
X153007500Y-91070000D03*
%TO.P,R12,2*%
%TO.N,Net-(U5--)*%
X151812500Y-91070000D03*
%TD*%
D10*
%TO.P,J3,1,Pin_1*%
%TO.N,Net-(J3-Pin_1)*%
X148340000Y-95060000D03*
%TD*%
D22*
%TO.P,H4,1,1*%
%TO.N,GND*%
X151000000Y-78000000D03*
%TD*%
D19*
%TO.P,U2,1,NULL*%
%TO.N,unconnected-(U2-NULL-Pad1)*%
X125925000Y-85595000D03*
%TO.P,U2,2,-*%
%TO.N,Net-(U2--)*%
X125925000Y-86865000D03*
%TO.P,U2,3,+*%
%TO.N,Net-(J1-Pin_3)*%
X125925000Y-88135000D03*
%TO.P,U2,4,V-*%
%TO.N,Net-(J2-Pin_1)*%
X125925000Y-89405000D03*
%TO.P,U2,5,NULL*%
%TO.N,unconnected-(U2-NULL-Pad5)*%
X131075000Y-89405000D03*
%TO.P,U2,6*%
%TO.N,Net-(R6-Pad2)*%
X131075000Y-88135000D03*
%TO.P,U2,7,V+*%
%TO.N,Net-(J3-Pin_1)*%
X131075000Y-86865000D03*
%TO.P,U2,8,NC*%
%TO.N,unconnected-(U2-NC-Pad8)*%
X131075000Y-85595000D03*
%TD*%
D14*
%TO.P,R6,1*%
%TO.N,Net-(U2--)*%
X126902500Y-91000000D03*
%TO.P,R6,2*%
%TO.N,Net-(R6-Pad2)*%
X128097500Y-91000000D03*
%TD*%
D23*
%TO.P,R9,1*%
%TO.N,Net-(U3--)*%
X138530000Y-83500000D03*
%TO.P,R9,2*%
%TO.N,Net-(D1-K)*%
X137335000Y-83500000D03*
%TD*%
D19*
%TO.P,U5,1,NULL*%
%TO.N,unconnected-(U5-NULL-Pad1)*%
X134350000Y-101190000D03*
%TO.P,U5,2,-*%
%TO.N,Net-(U5--)*%
X134350000Y-102460000D03*
%TO.P,U5,3,+*%
%TO.N,Net-(J1-Pin_3)*%
X134350000Y-103730000D03*
%TO.P,U5,4,V-*%
%TO.N,Net-(J2-Pin_1)*%
X134350000Y-105000000D03*
%TO.P,U5,5,NULL*%
%TO.N,unconnected-(U5-NULL-Pad5)*%
X139500000Y-105000000D03*
%TO.P,U5,6*%
%TO.N,Net-(C2-Pad1)*%
X139500000Y-103730000D03*
%TO.P,U5,7,V+*%
%TO.N,Net-(J3-Pin_1)*%
X139500000Y-102460000D03*
%TO.P,U5,8,NC*%
%TO.N,unconnected-(U5-NC-Pad8)*%
X139500000Y-101190000D03*
%TD*%
D14*
%TO.P,R2,1*%
%TO.N,Net-(J1-Pin_2)*%
X118700000Y-83140000D03*
%TO.P,R2,2*%
%TO.N,Net-(U1-+)*%
X119895000Y-83140000D03*
%TD*%
D22*
%TO.P,H2,1,1*%
%TO.N,GND*%
X116000000Y-106000000D03*
%TD*%
D19*
%TO.P,U7,1,NULL*%
%TO.N,unconnected-(U7-NULL-Pad1)*%
X124850000Y-94380000D03*
%TO.P,U7,2,-*%
%TO.N,Net-(U7--)*%
X124850000Y-95650000D03*
%TO.P,U7,3,+*%
%TO.N,Net-(U7-+)*%
X124850000Y-96920000D03*
%TO.P,U7,4,V-*%
%TO.N,Net-(J2-Pin_1)*%
X124850000Y-98190000D03*
%TO.P,U7,5,NULL*%
%TO.N,unconnected-(U7-NULL-Pad5)*%
X130000000Y-98190000D03*
%TO.P,U7,6*%
%TO.N,Net-(U7--)*%
X130000000Y-96920000D03*
%TO.P,U7,7,V+*%
%TO.N,Net-(J3-Pin_1)*%
X130000000Y-95650000D03*
%TO.P,U7,8,NC*%
%TO.N,unconnected-(U7-NC-Pad8)*%
X130000000Y-94380000D03*
%TD*%
D22*
%TO.P,H3,1,1*%
%TO.N,GND*%
X151000000Y-106000000D03*
%TD*%
D19*
%TO.P,U4,1,NULL*%
%TO.N,unconnected-(U4-NULL-Pad1)*%
X146815000Y-85440000D03*
%TO.P,U4,2,-*%
%TO.N,Net-(U4--)*%
X146815000Y-86710000D03*
%TO.P,U4,3,+*%
%TO.N,Net-(D1-K)*%
X146815000Y-87980000D03*
%TO.P,U4,4,V-*%
%TO.N,Net-(J2-Pin_1)*%
X146815000Y-89250000D03*
%TO.P,U4,5,NULL*%
%TO.N,unconnected-(U4-NULL-Pad5)*%
X151965000Y-89250000D03*
%TO.P,U4,6*%
%TO.N,Net-(R11-Pad2)*%
X151965000Y-87980000D03*
%TO.P,U4,7,V+*%
%TO.N,Net-(J3-Pin_1)*%
X151965000Y-86710000D03*
%TO.P,U4,8,NC*%
%TO.N,unconnected-(U4-NC-Pad8)*%
X151965000Y-85440000D03*
%TD*%
%TO.P,U8,1,NULL*%
%TO.N,unconnected-(U8-NULL-Pad1)*%
X124850000Y-100960000D03*
%TO.P,U8,2,-*%
%TO.N,Net-(U8--)*%
X124850000Y-102230000D03*
%TO.P,U8,3,+*%
%TO.N,Net-(U8-+)*%
X124850000Y-103500000D03*
%TO.P,U8,4,V-*%
%TO.N,Net-(J2-Pin_1)*%
X124850000Y-104770000D03*
%TO.P,U8,5,NULL*%
%TO.N,unconnected-(U8-NULL-Pad5)*%
X130000000Y-104770000D03*
%TO.P,U8,6*%
%TO.N,Net-(J1-Pin_3)*%
X130000000Y-103500000D03*
%TO.P,U8,7,V+*%
%TO.N,Net-(J3-Pin_1)*%
X130000000Y-102230000D03*
%TO.P,U8,8,NC*%
%TO.N,unconnected-(U8-NC-Pad8)*%
X130000000Y-100960000D03*
%TD*%
%TO.P,U6,1,NULL*%
%TO.N,unconnected-(U6-NULL-Pad1)*%
X140060000Y-92670000D03*
%TO.P,U6,2,-*%
%TO.N,Net-(J1-Pin_3)*%
X140060000Y-93940000D03*
%TO.P,U6,3,+*%
X140060000Y-95210000D03*
%TO.P,U6,4,V-*%
%TO.N,Net-(J2-Pin_1)*%
X140060000Y-96480000D03*
%TO.P,U6,5,NULL*%
%TO.N,unconnected-(U6-NULL-Pad5)*%
X145210000Y-96480000D03*
%TO.P,U6,6*%
%TO.N,Net-(J4-Pin_1)*%
X145210000Y-95210000D03*
%TO.P,U6,7,V+*%
%TO.N,Net-(J3-Pin_1)*%
X145210000Y-93940000D03*
%TO.P,U6,8,NC*%
%TO.N,unconnected-(U6-NC-Pad8)*%
X145210000Y-92670000D03*
%TD*%
D14*
%TO.P,R4,1*%
%TO.N,Net-(U1--)*%
X115835000Y-91000000D03*
%TO.P,R4,2*%
%TO.N,Net-(C1-Pad1)*%
X117030000Y-91000000D03*
%TD*%
%TO.P,R5,1*%
%TO.N,Net-(C1-Pad2)*%
X123402500Y-91000000D03*
%TO.P,R5,2*%
%TO.N,Net-(U2--)*%
X124597500Y-91000000D03*
%TD*%
D10*
%TO.P,J2,1,Pin_1*%
%TO.N,Net-(J2-Pin_1)*%
X142500000Y-99500000D03*
%TD*%
D14*
%TO.P,R15,1*%
%TO.N,Net-(J1-Pin_3)*%
X138880000Y-98290000D03*
%TO.P,R15,2*%
%TO.N,Net-(J4-Pin_1)*%
X140075000Y-98290000D03*
%TD*%
D24*
%TO.N,GND*%
X142890000Y-104770000D03*
X145960000Y-100990000D03*
X137910000Y-89110000D03*
X120030000Y-86540000D03*
%TO.N,Net-(D1-K)*%
X137000000Y-84640000D03*
X143890000Y-87790000D03*
%TO.N,Net-(D1-A)*%
X145210000Y-82930000D03*
%TO.N,Net-(J4-Pin_1)*%
X139960000Y-97730000D03*
%TO.N,Net-(C1-Pad1)*%
X118740000Y-91770000D03*
X120200000Y-88300000D03*
%TO.N,Net-(U5--)*%
X148860000Y-98060000D03*
X151440000Y-91880000D03*
%TO.N,Net-(D1-A)*%
X141540000Y-88060000D03*
%TO.N,Net-(J1-Pin_3)*%
X128190000Y-102564999D03*
X132770000Y-103810000D03*
X123940000Y-88820000D03*
X132950000Y-89030000D03*
%TO.N,Net-(J2-Pin_1)*%
X134350000Y-105000000D03*
X138590000Y-96020000D03*
X145180000Y-89500000D03*
X135850000Y-90970000D03*
X124820000Y-104780000D03*
X125940000Y-91600000D03*
X123930000Y-90230000D03*
X124850000Y-98190000D03*
%TO.N,Net-(J3-Pin_1)*%
X128840000Y-101800000D03*
X132690000Y-85940000D03*
X131700000Y-94830000D03*
X141120000Y-102360000D03*
X142400000Y-87190000D03*
X138550000Y-87310000D03*
X150850000Y-86280000D03*
X129270000Y-86860000D03*
X123450000Y-86820000D03*
X143093032Y-93940000D03*
%TO.N,Net-(J4-Pin_1)*%
X129850000Y-107170000D03*
X143350000Y-95480000D03*
X139610000Y-99220000D03*
%TD*%
D25*
%TO.N,Net-(U5--)*%
X135320000Y-102460000D02*
X134350000Y-102460000D01*
X145400000Y-106150000D02*
X139010000Y-106150000D01*
X149310000Y-102240000D02*
X145400000Y-106150000D01*
X149310000Y-99640000D02*
X149310000Y-102240000D01*
X149270000Y-99600000D02*
X149310000Y-99640000D01*
X148647370Y-99600000D02*
X149270000Y-99600000D01*
X139010000Y-106150000D02*
X135320000Y-102460000D01*
%TO.N,Net-(U8-+)*%
X125724999Y-103500000D02*
X124850000Y-103500000D01*
X128092500Y-105867501D02*
X125724999Y-103500000D01*
X132120000Y-104640000D02*
X131031130Y-105728870D01*
X131031130Y-105728870D02*
X129401260Y-105728870D01*
X133155000Y-99067900D02*
X132120000Y-100102900D01*
X129401260Y-105728870D02*
X128092500Y-107037630D01*
X133155000Y-98250000D02*
X133155000Y-99067900D01*
X128092500Y-107037630D02*
X128092500Y-105867501D01*
X132120000Y-100102900D02*
X132120000Y-104640000D01*
%TO.N,Net-(J4-Pin_1)*%
X151560000Y-97030000D02*
X152120000Y-96470000D01*
X147276968Y-97030000D02*
X151560000Y-97030000D01*
X145456968Y-95210000D02*
X147276968Y-97030000D01*
X145210000Y-95210000D02*
X145456968Y-95210000D01*
%TO.N,Net-(J3-Pin_1)*%
X146970000Y-94000000D02*
X148060000Y-95090000D01*
X145210000Y-93940000D02*
X145270000Y-94000000D01*
X145270000Y-94000000D02*
X146970000Y-94000000D01*
%TO.N,Net-(J1-Pin_3)*%
X125530000Y-79870000D02*
X122260000Y-83140000D01*
X125530000Y-78625000D02*
X125530000Y-79870000D01*
%TO.N,Net-(U1-+)*%
X117171968Y-88135000D02*
X116925000Y-88135000D01*
X119895000Y-85411968D02*
X117171968Y-88135000D01*
X119895000Y-83140000D02*
X119895000Y-85411968D01*
%TO.N,Net-(J1-Pin_2)*%
X122990000Y-78850000D02*
X118700000Y-83140000D01*
X122990000Y-78625000D02*
X122990000Y-78850000D01*
%TO.N,Net-(U1--)*%
X115350000Y-84290000D02*
X116884999Y-84290000D01*
X116884999Y-84290000D02*
X117555000Y-83619999D01*
X117555000Y-83619999D02*
X117555000Y-83160000D01*
X115350000Y-86164999D02*
X115350000Y-84290000D01*
%TO.N,Net-(J1-Pin_1)*%
X120450000Y-78625000D02*
X116360000Y-82715000D01*
X116360000Y-82715000D02*
X116360000Y-83160000D01*
%TO.N,Net-(D1-K)*%
X137000000Y-83835000D02*
X137335000Y-83500000D01*
X137000000Y-84640000D02*
X137000000Y-83835000D01*
X145582999Y-87790000D02*
X143890000Y-87790000D01*
X145674000Y-87698999D02*
X145582999Y-87790000D01*
X137360000Y-83500000D02*
X142970000Y-77890000D01*
X137335000Y-83500000D02*
X137360000Y-83500000D01*
%TO.N,Net-(D2-A)*%
X145220000Y-91000000D02*
X147185000Y-91000000D01*
X143095000Y-88875000D02*
X145220000Y-91000000D01*
X143100000Y-88870000D02*
X143095000Y-88875000D01*
X143100000Y-86360000D02*
X143100000Y-88870000D01*
X142930000Y-86190000D02*
X143100000Y-86360000D01*
X142930000Y-86190000D02*
X142930000Y-85400000D01*
X142930000Y-85400000D02*
X141030000Y-83500000D01*
%TO.N,Net-(D1-A)*%
X145170000Y-82890000D02*
X145210000Y-82930000D01*
X142930000Y-82890000D02*
X145170000Y-82890000D01*
X142970000Y-82850000D02*
X142930000Y-82890000D01*
X142970000Y-81190000D02*
X142970000Y-82850000D01*
%TO.N,Net-(C2-Pad1)*%
X145740000Y-103730000D02*
X148567500Y-100902500D01*
X139500000Y-103730000D02*
X145740000Y-103730000D01*
X148567500Y-100902500D02*
X148567500Y-100407500D01*
%TO.N,Net-(J4-Pin_1)*%
X140075000Y-97845000D02*
X139960000Y-97730000D01*
X140075000Y-98290000D02*
X140075000Y-97845000D01*
X140075000Y-98755000D02*
X139610000Y-99220000D01*
X140075000Y-98290000D02*
X140075000Y-98755000D01*
%TO.N,Net-(J1-Pin_3)*%
X134745000Y-95465000D02*
X137775000Y-95465000D01*
X131960000Y-98250000D02*
X134745000Y-95465000D01*
X131960000Y-98830000D02*
X131190000Y-99600000D01*
X131960000Y-98250000D02*
X131960000Y-98830000D01*
%TO.N,Net-(U5--)*%
X134292500Y-99287500D02*
X132680000Y-100900000D01*
X134292500Y-98260000D02*
X134292500Y-99287500D01*
%TO.N,Net-(C2-Pad1)*%
X138625001Y-103730000D02*
X139500000Y-103730000D01*
X136580000Y-101684999D02*
X138625001Y-103730000D01*
X136580000Y-98270000D02*
X136580000Y-101684999D01*
X135497500Y-98270000D02*
X135487500Y-98260000D01*
X136580000Y-98270000D02*
X135497500Y-98270000D01*
%TO.N,Net-(J1-Pin_3)*%
X137795000Y-98290000D02*
X137775000Y-98270000D01*
X138880000Y-98290000D02*
X137795000Y-98290000D01*
X137775000Y-95465000D02*
X137775000Y-98270000D01*
X138030000Y-95210000D02*
X137775000Y-95465000D01*
%TO.N,Net-(U1--)*%
X117575000Y-83140000D02*
X117555000Y-83160000D01*
%TO.N,Net-(J1-Pin_3)*%
X138030000Y-95210000D02*
X140060000Y-95210000D01*
X137850000Y-98100001D02*
X137850000Y-98300000D01*
X128375000Y-99600000D02*
X131190000Y-99600000D01*
X128190000Y-99415000D02*
X128375000Y-99600000D01*
X128190000Y-102564999D02*
X128190000Y-99415000D01*
%TO.N,Net-(U5--)*%
X132680000Y-101664999D02*
X132680000Y-100900000D01*
X133475001Y-102460000D02*
X132680000Y-101664999D01*
X134350000Y-102460000D02*
X133475001Y-102460000D01*
%TO.N,Net-(U7-+)*%
X120590000Y-97092500D02*
X120762500Y-96920000D01*
X120500000Y-97092500D02*
X120590000Y-97092500D01*
X120699999Y-97092500D02*
X120500000Y-97092500D01*
X120762500Y-96920000D02*
X124850000Y-96920000D01*
X121230000Y-97622501D02*
X120699999Y-97092500D01*
X120500000Y-99592500D02*
X121230000Y-98862500D01*
X121230000Y-98862500D02*
X121230000Y-97622501D01*
%TO.N,Net-(U5--)*%
X148567500Y-99592500D02*
X148639870Y-99592500D01*
%TO.N,Net-(J1-Pin_3)*%
X134267500Y-88792500D02*
X134925000Y-88135000D01*
X133187500Y-88792500D02*
X134267500Y-88792500D01*
X132950000Y-89030000D02*
X133187500Y-88792500D01*
%TO.N,Net-(U3--)*%
X132950000Y-86840000D02*
X132975000Y-86865000D01*
X132975000Y-86865000D02*
X134925000Y-86865000D01*
%TO.N,Net-(J2-Pin_1)*%
X126090000Y-91750000D02*
X125940000Y-91600000D01*
X132580000Y-91750000D02*
X126090000Y-91750000D01*
X134925000Y-89405000D02*
X132580000Y-91750000D01*
%TO.N,Net-(C1-Pad2)*%
X119407500Y-91000000D02*
X123592500Y-91000000D01*
%TO.N,Net-(C1-Pad1)*%
X116840000Y-91000000D02*
X118592500Y-91000000D01*
X120365000Y-88135000D02*
X120200000Y-88300000D01*
X118740000Y-91147500D02*
X118592500Y-91000000D01*
X122075000Y-88135000D02*
X120365000Y-88135000D01*
X118740000Y-91770000D02*
X118740000Y-91147500D01*
%TO.N,Net-(U5--)*%
X151440000Y-91880000D02*
X151440000Y-91632500D01*
X148567500Y-99592500D02*
X148567500Y-98352500D01*
X148567500Y-98352500D02*
X148860000Y-98060000D01*
X151440000Y-91632500D02*
X152002500Y-91070000D01*
%TO.N,Net-(D1-A)*%
X141540000Y-88060000D02*
X140150000Y-88060000D01*
X140150000Y-88060000D02*
X140075000Y-88135000D01*
%TO.N,Net-(D1-K)*%
X137525000Y-83500000D02*
X137525000Y-83427630D01*
X145975001Y-88000000D02*
X146850000Y-88000000D01*
X145674000Y-87698999D02*
X145975001Y-88000000D01*
%TO.N,Net-(J1-Pin_3)*%
X124110000Y-84890000D02*
X124110000Y-87910000D01*
X124625000Y-88135000D02*
X123940000Y-88820000D01*
X136580000Y-88350000D02*
X136580000Y-91334999D01*
X134925000Y-88135000D02*
X136365000Y-88135000D01*
X136580000Y-91334999D02*
X139185001Y-93940000D01*
X132850000Y-103730000D02*
X132770000Y-103810000D01*
X136365000Y-88135000D02*
X136580000Y-88350000D01*
X124200000Y-87910000D02*
X124425000Y-88135000D01*
X124110000Y-87910000D02*
X124200000Y-87910000D01*
X134350000Y-103730000D02*
X132850000Y-103730000D01*
X122720000Y-83500000D02*
X124110000Y-84890000D01*
X140060000Y-93940000D02*
X140060000Y-95210000D01*
X128190000Y-102564999D02*
X129125001Y-103500000D01*
X124425000Y-88135000D02*
X125925000Y-88135000D01*
X125925000Y-88135000D02*
X124625000Y-88135000D01*
X129125001Y-103500000D02*
X130000000Y-103500000D01*
X139185001Y-93940000D02*
X140060000Y-93940000D01*
%TO.N,Net-(J2-Pin_1)*%
X146621000Y-89500000D02*
X146851000Y-89270000D01*
X123930000Y-90230000D02*
X117750000Y-90230000D01*
X139050000Y-96480000D02*
X138590000Y-96020000D01*
X142500000Y-99500000D02*
X142500000Y-98920000D01*
X117750000Y-90230000D02*
X116925000Y-89405000D01*
X123930000Y-90230000D02*
X124755000Y-89405000D01*
X142500000Y-98920000D02*
X140060000Y-96480000D01*
X134925000Y-90045000D02*
X135850000Y-90970000D01*
X145180000Y-89500000D02*
X146621000Y-89500000D01*
X140060000Y-96480000D02*
X139050000Y-96480000D01*
X124755000Y-89405000D02*
X125925000Y-89405000D01*
X134925000Y-89405000D02*
X134925000Y-90045000D01*
%TO.N,Net-(J3-Pin_1)*%
X131075000Y-86865000D02*
X131765000Y-86865000D01*
X143093032Y-93940000D02*
X142141000Y-92987968D01*
X130880000Y-95650000D02*
X130000000Y-95650000D01*
X123450000Y-86820000D02*
X122120000Y-86820000D01*
X131075000Y-86865000D02*
X129275000Y-86865000D01*
X138995000Y-86865000D02*
X138550000Y-87310000D01*
X140075000Y-86865000D02*
X138995000Y-86865000D01*
X128840000Y-101800000D02*
X129570000Y-101800000D01*
X150850000Y-86280000D02*
X151550000Y-86280000D01*
X141194943Y-86865000D02*
X140075000Y-86865000D01*
X131700000Y-94830000D02*
X130880000Y-95650000D01*
X129570000Y-101800000D02*
X130000000Y-102230000D01*
X131765000Y-86865000D02*
X132690000Y-85940000D01*
X139600000Y-102360000D02*
X139500000Y-102460000D01*
X142141000Y-87811057D02*
X141194943Y-86865000D01*
X145290000Y-94020000D02*
X145210000Y-93940000D01*
X129275000Y-86865000D02*
X129270000Y-86860000D01*
X141120000Y-102360000D02*
X139600000Y-102360000D01*
X145210000Y-93940000D02*
X143093032Y-93940000D01*
X142400000Y-87552057D02*
X142400000Y-87190000D01*
X122120000Y-86820000D02*
X122075000Y-86865000D01*
X142141000Y-87811057D02*
X142400000Y-87552057D01*
X142141000Y-92987968D02*
X142141000Y-87811057D01*
X151550000Y-86280000D02*
X152000000Y-86730000D01*
%TO.N,Net-(J4-Pin_1)*%
X128907500Y-107110000D02*
X129790000Y-107110000D01*
X143350000Y-95480000D02*
X144940000Y-95480000D01*
X144940000Y-95480000D02*
X145210000Y-95210000D01*
X129790000Y-107110000D02*
X129850000Y-107170000D01*
%TO.N,Net-(J5-Pin_1)*%
X116000000Y-100000000D02*
X116407500Y-100407500D01*
X116407500Y-100407500D02*
X120500000Y-100407500D01*
%TO.N,Net-(J5-Pin_2)*%
X116000000Y-97500000D02*
X116530000Y-97500000D01*
X116937500Y-97907500D02*
X120500000Y-97907500D01*
X116530000Y-97500000D02*
X116937500Y-97907500D01*
%TO.N,Net-(U1--)*%
X115350000Y-90325000D02*
X116025000Y-91000000D01*
X116050001Y-86865000D02*
X116925000Y-86865000D01*
X115350000Y-86164999D02*
X115350000Y-90325000D01*
X115350000Y-86164999D02*
X116050001Y-86865000D01*
%TO.N,Net-(U1-+)*%
X119705000Y-83140000D02*
X121255000Y-83140000D01*
%TO.N,Net-(U2--)*%
X127092500Y-91000000D02*
X127101000Y-90991500D01*
X124407500Y-91000000D02*
X127092500Y-91000000D01*
X126799999Y-86865000D02*
X125925000Y-86865000D01*
X127101000Y-90991500D02*
X127101000Y-87166001D01*
X127101000Y-87166001D02*
X126799999Y-86865000D01*
%TO.N,Net-(R6-Pad2)*%
X130772500Y-88135000D02*
X131075000Y-88135000D01*
X127907500Y-91000000D02*
X130772500Y-88135000D01*
X131075000Y-88135000D02*
X132840000Y-88135000D01*
X132840000Y-88135000D02*
X133000000Y-87975000D01*
%TO.N,Net-(U3--)*%
X138340000Y-83500000D02*
X140025000Y-83500000D01*
X134925000Y-86865000D02*
X135799999Y-86865000D01*
X138340000Y-84324999D02*
X138340000Y-83500000D01*
X135799999Y-86865000D02*
X138340000Y-84324999D01*
%TO.N,Net-(U4--)*%
X148000000Y-91000000D02*
X148026000Y-90974000D01*
X148026000Y-87031001D02*
X147724999Y-86730000D01*
X149592500Y-91000000D02*
X148000000Y-91000000D01*
X147724999Y-86730000D02*
X146850000Y-86730000D01*
X148026000Y-90974000D02*
X148026000Y-87031001D01*
%TO.N,Net-(U7--)*%
X126994999Y-96920000D02*
X130000000Y-96920000D01*
X129125001Y-96920000D02*
X130000000Y-96920000D01*
X127254001Y-98791000D02*
X129125001Y-96920000D01*
X125502032Y-98791000D02*
X127254001Y-98791000D01*
X122500000Y-101793032D02*
X125502032Y-98791000D01*
X125724999Y-95650000D02*
X126994999Y-96920000D01*
X122500000Y-102592500D02*
X122500000Y-101793032D01*
X124850000Y-95650000D02*
X125724999Y-95650000D01*
%TO.N,Net-(U8--)*%
X125129999Y-102230000D02*
X127560000Y-99799999D01*
X123425532Y-103407500D02*
X124603032Y-102230000D01*
X124850000Y-102230000D02*
X125129999Y-102230000D01*
X124603032Y-102230000D02*
X124850000Y-102230000D01*
X122500000Y-103407500D02*
X123425532Y-103407500D01*
X127560000Y-99799999D02*
X127560000Y-99600000D01*
%TO.N,Net-(J1-Pin_3)*%
X122720000Y-83500000D02*
X122620000Y-83500000D01*
X122620000Y-83500000D02*
X122260000Y-83140000D01*
%TO.N,Net-(R11-Pad2)*%
X150957500Y-90450000D02*
X150407500Y-91000000D01*
X152269870Y-90450000D02*
X150957500Y-90450000D01*
X152817500Y-90997630D02*
X152269870Y-90450000D01*
X153176000Y-90711500D02*
X152817500Y-91070000D01*
X153141000Y-89156000D02*
X153176000Y-89191000D01*
X153176000Y-89191000D02*
X153176000Y-90711500D01*
X152231968Y-88000000D02*
X153141000Y-88909032D01*
X152000000Y-88000000D02*
X152231968Y-88000000D01*
X153141000Y-88909032D02*
X153141000Y-89156000D01*
X152817500Y-91070000D02*
X152817500Y-90997630D01*
%TD*%
%TA.AperFunction,Conductor*%
%TO.N,GND*%
G36*
X115160967Y-78716602D02*
G01*
X115283398Y-78839033D01*
X115417262Y-78936290D01*
X114275425Y-80078127D01*
X114435127Y-80205484D01*
X114691903Y-80366827D01*
X114965119Y-80498401D01*
X114965133Y-80498407D01*
X115251354Y-80598561D01*
X115251366Y-80598565D01*
X115547017Y-80666045D01*
X115547033Y-80666047D01*
X115848366Y-80699999D01*
X115848368Y-80700000D01*
X116151632Y-80700000D01*
X116151633Y-80699999D01*
X116452966Y-80666047D01*
X116452982Y-80666045D01*
X116748633Y-80598565D01*
X116748645Y-80598561D01*
X117034866Y-80498407D01*
X117034880Y-80498401D01*
X117308096Y-80366827D01*
X117564872Y-80205484D01*
X117724573Y-80078126D01*
X116582737Y-78936290D01*
X116716602Y-78839033D01*
X116839033Y-78716602D01*
X116936290Y-78582737D01*
X118078126Y-79724573D01*
X118205484Y-79564872D01*
X118366825Y-79308100D01*
X118407036Y-79224600D01*
X118453859Y-79172740D01*
X118521286Y-79154427D01*
X118587910Y-79175474D01*
X118632578Y-79229200D01*
X118641109Y-79298547D01*
X118634408Y-79323132D01*
X118474683Y-79736100D01*
X118446713Y-79779050D01*
X116762427Y-81463337D01*
X115991286Y-82234478D01*
X115991284Y-82234480D01*
X115963132Y-82262632D01*
X115879480Y-82346283D01*
X115863904Y-82373264D01*
X115863900Y-82373271D01*
X115848419Y-82400082D01*
X115805187Y-82444192D01*
X115752167Y-82476245D01*
X115752165Y-82476246D01*
X115638743Y-82589669D01*
X115638742Y-82589670D01*
X115555767Y-82726929D01*
X115555765Y-82726933D01*
X115508048Y-82880065D01*
X115502000Y-82946621D01*
X115502000Y-83373388D01*
X115508046Y-83439926D01*
X115508047Y-83439930D01*
X115508048Y-83439933D01*
X115535681Y-83528610D01*
X115536833Y-83598470D01*
X115500032Y-83657862D01*
X115436963Y-83687930D01*
X115417296Y-83689500D01*
X115270943Y-83689500D01*
X115118216Y-83730423D01*
X115118209Y-83730426D01*
X114981290Y-83809475D01*
X114981282Y-83809481D01*
X114869481Y-83921282D01*
X114869475Y-83921290D01*
X114790426Y-84058209D01*
X114790423Y-84058216D01*
X114749500Y-84210943D01*
X114749500Y-86085938D01*
X114749499Y-86085942D01*
X114749499Y-86244056D01*
X114749500Y-86244059D01*
X114749500Y-90238330D01*
X114749499Y-90238348D01*
X114749499Y-90404054D01*
X114749498Y-90404054D01*
X114749499Y-90404057D01*
X114790423Y-90556785D01*
X114808400Y-90587922D01*
X114808401Y-90587924D01*
X114808402Y-90587924D01*
X114834665Y-90633414D01*
X114869479Y-90693714D01*
X114869481Y-90693717D01*
X114940681Y-90764917D01*
X114974166Y-90826240D01*
X114977000Y-90852598D01*
X114977000Y-91213388D01*
X114983046Y-91279926D01*
X114983048Y-91279933D01*
X115030765Y-91433066D01*
X115030767Y-91433070D01*
X115113742Y-91570329D01*
X115113746Y-91570334D01*
X115227165Y-91683753D01*
X115227170Y-91683757D01*
X115364429Y-91766732D01*
X115364433Y-91766734D01*
X115402831Y-91778699D01*
X115517567Y-91814452D01*
X115584119Y-91820500D01*
X116085880Y-91820499D01*
X116085888Y-91820499D01*
X116152426Y-91814453D01*
X116152427Y-91814452D01*
X116152433Y-91814452D01*
X116305569Y-91766733D01*
X116368350Y-91728779D01*
X116435905Y-91710944D01*
X116496649Y-91728779D01*
X116559431Y-91766733D01*
X116559434Y-91766734D01*
X116559433Y-91766734D01*
X116597831Y-91778699D01*
X116712567Y-91814452D01*
X116779119Y-91820500D01*
X117280880Y-91820499D01*
X117280888Y-91820499D01*
X117347426Y-91814453D01*
X117347427Y-91814452D01*
X117347433Y-91814452D01*
X117500569Y-91766733D01*
X117637835Y-91683753D01*
X117642103Y-91679484D01*
X117703421Y-91645999D01*
X117773112Y-91650980D01*
X117796082Y-91662375D01*
X117807722Y-91669739D01*
X117815046Y-91677063D01*
X117880233Y-91715614D01*
X117881797Y-91716604D01*
X117903695Y-91741516D01*
X117926304Y-91765730D01*
X117926792Y-91767791D01*
X117927926Y-91769081D01*
X117929378Y-91778699D01*
X117939500Y-91821393D01*
X117939500Y-91848846D01*
X117970261Y-92003489D01*
X117970264Y-92003501D01*
X118030602Y-92149172D01*
X118030609Y-92149185D01*
X118118210Y-92280288D01*
X118118213Y-92280292D01*
X118229707Y-92391786D01*
X118229711Y-92391789D01*
X118360814Y-92479390D01*
X118360827Y-92479397D01*
X118506498Y-92539735D01*
X118506503Y-92539737D01*
X118661153Y-92570499D01*
X118661156Y-92570500D01*
X118661158Y-92570500D01*
X118818844Y-92570500D01*
X118818845Y-92570499D01*
X118973497Y-92539737D01*
X119119179Y-92479394D01*
X119250289Y-92391789D01*
X119361789Y-92280289D01*
X119449394Y-92149179D01*
X119509737Y-92003497D01*
X119523879Y-91932402D01*
X119528274Y-91910308D01*
X119560659Y-91848397D01*
X119621374Y-91813823D01*
X119649891Y-91810499D01*
X119846190Y-91810499D01*
X119846202Y-91810499D01*
X119883358Y-91807576D01*
X120042400Y-91761370D01*
X120184954Y-91677063D01*
X120225197Y-91636820D01*
X120286520Y-91603334D01*
X120312879Y-91600500D01*
X122660050Y-91600500D01*
X122727089Y-91620185D01*
X122747731Y-91636819D01*
X122794665Y-91683753D01*
X122794670Y-91683757D01*
X122931929Y-91766732D01*
X122931933Y-91766734D01*
X122970331Y-91778699D01*
X123085067Y-91814452D01*
X123151619Y-91820500D01*
X123653380Y-91820499D01*
X123653388Y-91820499D01*
X123719926Y-91814453D01*
X123719927Y-91814452D01*
X123719933Y-91814452D01*
X123873069Y-91766733D01*
X123935850Y-91728779D01*
X124003405Y-91710944D01*
X124064149Y-91728779D01*
X124126931Y-91766733D01*
X124126934Y-91766734D01*
X124126933Y-91766734D01*
X124165331Y-91778699D01*
X124280067Y-91814452D01*
X124346619Y-91820500D01*
X124848380Y-91820499D01*
X124848388Y-91820499D01*
X124914926Y-91814453D01*
X124914927Y-91814452D01*
X124914933Y-91814452D01*
X125025972Y-91779851D01*
X125095832Y-91778699D01*
X125155224Y-91815500D01*
X125177423Y-91850784D01*
X125230602Y-91979172D01*
X125230609Y-91979185D01*
X125318210Y-92110288D01*
X125318213Y-92110292D01*
X125429707Y-92221786D01*
X125429711Y-92221789D01*
X125560814Y-92309390D01*
X125560827Y-92309397D01*
X125664302Y-92352257D01*
X125706503Y-92369737D01*
X125861153Y-92400499D01*
X125861156Y-92400500D01*
X125861158Y-92400500D01*
X126018844Y-92400500D01*
X126018845Y-92400499D01*
X126095152Y-92385320D01*
X126173488Y-92369739D01*
X126173489Y-92369738D01*
X126173497Y-92369737D01*
X126197155Y-92359937D01*
X126244604Y-92350500D01*
X132493331Y-92350500D01*
X132493347Y-92350501D01*
X132500943Y-92350501D01*
X132659054Y-92350501D01*
X132659057Y-92350501D01*
X132811785Y-92309577D01*
X132862513Y-92280289D01*
X132948716Y-92230520D01*
X133060520Y-92118716D01*
X133060520Y-92118714D01*
X133070724Y-92108511D01*
X133070727Y-92108506D01*
X134517322Y-90661912D01*
X134578641Y-90628430D01*
X134648333Y-90633414D01*
X134692680Y-90661915D01*
X135015425Y-90984660D01*
X135048910Y-91045983D01*
X135049361Y-91048149D01*
X135080261Y-91203491D01*
X135080264Y-91203501D01*
X135140602Y-91349172D01*
X135140609Y-91349185D01*
X135228210Y-91480288D01*
X135228213Y-91480292D01*
X135339707Y-91591786D01*
X135339711Y-91591789D01*
X135470814Y-91679390D01*
X135470827Y-91679397D01*
X135565840Y-91718752D01*
X135616503Y-91739737D01*
X135725254Y-91761369D01*
X135771153Y-91770499D01*
X135771156Y-91770500D01*
X135771158Y-91770500D01*
X135928844Y-91770500D01*
X136004186Y-91755513D01*
X136061868Y-91744039D01*
X136069773Y-91744746D01*
X136077212Y-91741972D01*
X136104078Y-91747816D01*
X136131458Y-91750266D01*
X136139465Y-91755513D01*
X136145485Y-91756823D01*
X136173736Y-91777972D01*
X136173739Y-91777974D01*
X136211284Y-91815519D01*
X136211285Y-91815519D01*
X136218353Y-91822587D01*
X136218355Y-91822589D01*
X138529063Y-94133298D01*
X138539793Y-94145539D01*
X138554184Y-94164313D01*
X138557266Y-94168334D01*
X138708294Y-94315967D01*
X138728545Y-94341854D01*
X138732956Y-94349367D01*
X138733256Y-94350398D01*
X138775887Y-94422484D01*
X138776023Y-94422715D01*
X138784404Y-94456191D01*
X138793008Y-94490103D01*
X138792943Y-94490297D01*
X138792992Y-94490493D01*
X138781931Y-94523223D01*
X138770848Y-94556365D01*
X138770688Y-94556492D01*
X138770624Y-94556685D01*
X138743521Y-94578322D01*
X138716382Y-94600129D01*
X138716148Y-94600175D01*
X138716021Y-94600277D01*
X138715218Y-94600359D01*
X138669093Y-94609500D01*
X138109057Y-94609500D01*
X137950942Y-94609500D01*
X137940575Y-94612278D01*
X137798214Y-94650423D01*
X137798209Y-94650426D01*
X137661290Y-94729475D01*
X137661282Y-94729481D01*
X137562583Y-94828181D01*
X137501260Y-94861666D01*
X137474902Y-94864500D01*
X134831670Y-94864500D01*
X134831654Y-94864499D01*
X134824058Y-94864499D01*
X134665943Y-94864499D01*
X134613166Y-94878641D01*
X134513214Y-94905423D01*
X134513209Y-94905426D01*
X134376290Y-94984475D01*
X134376282Y-94984481D01*
X131967582Y-97393181D01*
X131906259Y-97426666D01*
X131879902Y-97429500D01*
X131709111Y-97429500D01*
X131642573Y-97435546D01*
X131642566Y-97435548D01*
X131482270Y-97485498D01*
X131481303Y-97482395D01*
X131426396Y-97489772D01*
X131363111Y-97460160D01*
X131325883Y-97401035D01*
X131326102Y-97332608D01*
X131372597Y-97172573D01*
X131372598Y-97172567D01*
X131373369Y-97162774D01*
X131375500Y-97135694D01*
X131375500Y-96704306D01*
X131372598Y-96667431D01*
X131368004Y-96651619D01*
X131326745Y-96509606D01*
X131326744Y-96509603D01*
X131326744Y-96509602D01*
X131243081Y-96368135D01*
X131243078Y-96368132D01*
X131238298Y-96361969D01*
X131240750Y-96360066D01*
X131214155Y-96311421D01*
X131219104Y-96241726D01*
X131229347Y-96220593D01*
X131237087Y-96207858D01*
X131243081Y-96201865D01*
X131326744Y-96060398D01*
X131326766Y-96060321D01*
X131327976Y-96058331D01*
X131328837Y-96057545D01*
X131347592Y-96033742D01*
X131502765Y-95883204D01*
X131506797Y-95879250D01*
X131506923Y-95879125D01*
X131544503Y-95837455D01*
X131544509Y-95837444D01*
X131546550Y-95834674D01*
X131558717Y-95820516D01*
X131714664Y-95664570D01*
X131775983Y-95631089D01*
X131778150Y-95630638D01*
X131844554Y-95617429D01*
X131933497Y-95599737D01*
X132079179Y-95539394D01*
X132210289Y-95451789D01*
X132321789Y-95340289D01*
X132409394Y-95209179D01*
X132418153Y-95188034D01*
X132443886Y-95125908D01*
X132469737Y-95063497D01*
X132500500Y-94908842D01*
X132500500Y-94751158D01*
X132500500Y-94751155D01*
X132500499Y-94751153D01*
X132480391Y-94650066D01*
X132469737Y-94596503D01*
X132453164Y-94556492D01*
X132409397Y-94450827D01*
X132409390Y-94450814D01*
X132321789Y-94319711D01*
X132321786Y-94319707D01*
X132210292Y-94208213D01*
X132210288Y-94208210D01*
X132079185Y-94120609D01*
X132079172Y-94120602D01*
X131933501Y-94060264D01*
X131933489Y-94060261D01*
X131778845Y-94029500D01*
X131778842Y-94029500D01*
X131621158Y-94029500D01*
X131621153Y-94029500D01*
X131470818Y-94059403D01*
X131401226Y-94053176D01*
X131346049Y-94010312D01*
X131327550Y-93972378D01*
X131326744Y-93969602D01*
X131243081Y-93828135D01*
X131243079Y-93828133D01*
X131243076Y-93828129D01*
X131126870Y-93711923D01*
X131126862Y-93711917D01*
X130985396Y-93628255D01*
X130985393Y-93628254D01*
X130827573Y-93582402D01*
X130827567Y-93582401D01*
X130790701Y-93579500D01*
X130790694Y-93579500D01*
X129209306Y-93579500D01*
X129209298Y-93579500D01*
X129172432Y-93582401D01*
X129172426Y-93582402D01*
X129014606Y-93628254D01*
X129014603Y-93628255D01*
X128873137Y-93711917D01*
X128873129Y-93711923D01*
X128756923Y-93828129D01*
X128756917Y-93828137D01*
X128673255Y-93969603D01*
X128673254Y-93969606D01*
X128627402Y-94127426D01*
X128627401Y-94127432D01*
X128624500Y-94164298D01*
X128624500Y-94595701D01*
X128627401Y-94632567D01*
X128627402Y-94632573D01*
X128673254Y-94790393D01*
X128673255Y-94790396D01*
X128756917Y-94931862D01*
X128761702Y-94938031D01*
X128759256Y-94939927D01*
X128785857Y-94988642D01*
X128780873Y-95058334D01*
X128760069Y-95090703D01*
X128761702Y-95091969D01*
X128756917Y-95098137D01*
X128673255Y-95239603D01*
X128673254Y-95239606D01*
X128627402Y-95397426D01*
X128627401Y-95397432D01*
X128624500Y-95434298D01*
X128624500Y-95865701D01*
X128627401Y-95902567D01*
X128627402Y-95902573D01*
X128673254Y-96060393D01*
X128673257Y-96060400D01*
X128715825Y-96132380D01*
X128733008Y-96200104D01*
X128710848Y-96266366D01*
X128656381Y-96310129D01*
X128609093Y-96319500D01*
X127295096Y-96319500D01*
X127228057Y-96299815D01*
X127207415Y-96283181D01*
X126380933Y-95456699D01*
X126370200Y-95444453D01*
X126352734Y-95421666D01*
X126327943Y-95397432D01*
X126201705Y-95274032D01*
X126182292Y-95249551D01*
X126177179Y-95241101D01*
X126176744Y-95239602D01*
X126093081Y-95098135D01*
X126086996Y-95092050D01*
X126079216Y-95079191D01*
X126073980Y-95059391D01*
X126064155Y-95041421D01*
X126065228Y-95026299D01*
X126061353Y-95011643D01*
X126067653Y-94992154D01*
X126069104Y-94971726D01*
X126079474Y-94955589D01*
X126082846Y-94945161D01*
X126089888Y-94939384D01*
X126089940Y-94939304D01*
X126088298Y-94938031D01*
X126093075Y-94931870D01*
X126093081Y-94931865D01*
X126176744Y-94790398D01*
X126222598Y-94632569D01*
X126225500Y-94595694D01*
X126225500Y-94164306D01*
X126222598Y-94127431D01*
X126220615Y-94120606D01*
X126176745Y-93969606D01*
X126176744Y-93969603D01*
X126176744Y-93969602D01*
X126093081Y-93828135D01*
X126093079Y-93828133D01*
X126093076Y-93828129D01*
X125976870Y-93711923D01*
X125976862Y-93711917D01*
X125835396Y-93628255D01*
X125835393Y-93628254D01*
X125677573Y-93582402D01*
X125677567Y-93582401D01*
X125640701Y-93579500D01*
X125640694Y-93579500D01*
X124059306Y-93579500D01*
X124059298Y-93579500D01*
X124022432Y-93582401D01*
X124022426Y-93582402D01*
X123864606Y-93628254D01*
X123864603Y-93628255D01*
X123723137Y-93711917D01*
X123723129Y-93711923D01*
X123606923Y-93828129D01*
X123606917Y-93828137D01*
X123523255Y-93969603D01*
X123523254Y-93969606D01*
X123477402Y-94127426D01*
X123477401Y-94127432D01*
X123474500Y-94164298D01*
X123474500Y-94595701D01*
X123477401Y-94632567D01*
X123477402Y-94632573D01*
X123523254Y-94790393D01*
X123523255Y-94790396D01*
X123606917Y-94931862D01*
X123611702Y-94938031D01*
X123609256Y-94939927D01*
X123635857Y-94988642D01*
X123630873Y-95058334D01*
X123610069Y-95090703D01*
X123611702Y-95091969D01*
X123606917Y-95098137D01*
X123523255Y-95239603D01*
X123523254Y-95239606D01*
X123477402Y-95397426D01*
X123477401Y-95397432D01*
X123474500Y-95434298D01*
X123474500Y-95865701D01*
X123477401Y-95902567D01*
X123477402Y-95902573D01*
X123523254Y-96060393D01*
X123523257Y-96060400D01*
X123565825Y-96132380D01*
X123583008Y-96200104D01*
X123560848Y-96266366D01*
X123506381Y-96310129D01*
X123459093Y-96319500D01*
X121259950Y-96319500D01*
X121192911Y-96299815D01*
X121172269Y-96283181D01*
X121070334Y-96181246D01*
X121070329Y-96181242D01*
X120933070Y-96098267D01*
X120933066Y-96098265D01*
X120779933Y-96050548D01*
X120779935Y-96050548D01*
X120753312Y-96048128D01*
X120713381Y-96044500D01*
X120713378Y-96044500D01*
X120286611Y-96044500D01*
X120220073Y-96050546D01*
X120220066Y-96050548D01*
X120066933Y-96098265D01*
X120066929Y-96098267D01*
X119929670Y-96181242D01*
X119929665Y-96181246D01*
X119816246Y-96294665D01*
X119816242Y-96294670D01*
X119733267Y-96431929D01*
X119733265Y-96431933D01*
X119685548Y-96585065D01*
X119679500Y-96651621D01*
X119679500Y-97153388D01*
X119681172Y-97171779D01*
X119667635Y-97240325D01*
X119619188Y-97290670D01*
X119557681Y-97307000D01*
X117983114Y-97307000D01*
X117916075Y-97287315D01*
X117899524Y-97274590D01*
X117157071Y-96596993D01*
X117152980Y-96593084D01*
X117029788Y-96469892D01*
X116976212Y-96430968D01*
X116976211Y-96430967D01*
X116970969Y-96427159D01*
X116966353Y-96423006D01*
X116966212Y-96422881D01*
X116922797Y-96388450D01*
X116905539Y-96379621D01*
X116897723Y-96373942D01*
X116857818Y-96344950D01*
X116668414Y-96248444D01*
X116668413Y-96248443D01*
X116668412Y-96248443D01*
X116466243Y-96182754D01*
X116466241Y-96182753D01*
X116466240Y-96182753D01*
X116304957Y-96157208D01*
X116256287Y-96149500D01*
X115743713Y-96149500D01*
X115695042Y-96157208D01*
X115533760Y-96182753D01*
X115331585Y-96248444D01*
X115142179Y-96344951D01*
X114970213Y-96469890D01*
X114819890Y-96620213D01*
X114694951Y-96792179D01*
X114598444Y-96981585D01*
X114532753Y-97183760D01*
X114499500Y-97393713D01*
X114499500Y-97606286D01*
X114530490Y-97801952D01*
X114532754Y-97816243D01*
X114586338Y-97981158D01*
X114598444Y-98018414D01*
X114694951Y-98207820D01*
X114819890Y-98379786D01*
X114958705Y-98518601D01*
X114992190Y-98579924D01*
X114987206Y-98649616D01*
X114945334Y-98705549D01*
X114936121Y-98711821D01*
X114781342Y-98807289D01*
X114657289Y-98931342D01*
X114565187Y-99080663D01*
X114565185Y-99080668D01*
X114548778Y-99130182D01*
X114510001Y-99247203D01*
X114510001Y-99247204D01*
X114510000Y-99247204D01*
X114499500Y-99349983D01*
X114499500Y-100650001D01*
X114499501Y-100650018D01*
X114510000Y-100752796D01*
X114510001Y-100752799D01*
X114563728Y-100914933D01*
X114565186Y-100919334D01*
X114657288Y-101068656D01*
X114781344Y-101192712D01*
X114930666Y-101284814D01*
X115097203Y-101339999D01*
X115199991Y-101350500D01*
X116800008Y-101350499D01*
X116902797Y-101339999D01*
X116969798Y-101317796D01*
X116987952Y-101313269D01*
X117007372Y-101309961D01*
X117926382Y-101013971D01*
X117964396Y-101008000D01*
X119627018Y-101008000D01*
X119694057Y-101027685D01*
X119733135Y-101067851D01*
X119816242Y-101205329D01*
X119816246Y-101205334D01*
X119929665Y-101318753D01*
X119929670Y-101318757D01*
X120066929Y-101401732D01*
X120066933Y-101401734D01*
X120097504Y-101411260D01*
X120220067Y-101449452D01*
X120286619Y-101455500D01*
X120713380Y-101455499D01*
X120713388Y-101455499D01*
X120779926Y-101449453D01*
X120779927Y-101449452D01*
X120779933Y-101449452D01*
X120933069Y-101401733D01*
X121035190Y-101339999D01*
X121070329Y-101318757D01*
X121070330Y-101318755D01*
X121070335Y-101318753D01*
X121183753Y-101205335D01*
X121266733Y-101068069D01*
X121314452Y-100914933D01*
X121320500Y-100848381D01*
X121320499Y-100346620D01*
X121320499Y-100346611D01*
X121314453Y-100280073D01*
X121314452Y-100280070D01*
X121314452Y-100280067D01*
X121266733Y-100126931D01*
X121228779Y-100064149D01*
X121210944Y-99996595D01*
X121228780Y-99935850D01*
X121232683Y-99929394D01*
X121266733Y-99873069D01*
X121314452Y-99719933D01*
X121319650Y-99662731D01*
X121345321Y-99597749D01*
X121355452Y-99586281D01*
X121588506Y-99353228D01*
X121588511Y-99353224D01*
X121598714Y-99343020D01*
X121598716Y-99343020D01*
X121710520Y-99231216D01*
X121775030Y-99119481D01*
X121789577Y-99094285D01*
X121830501Y-98941557D01*
X121830501Y-98783443D01*
X121830501Y-98775848D01*
X121830500Y-98775830D01*
X121830500Y-97711559D01*
X121830500Y-97701561D01*
X121830501Y-97701559D01*
X121830501Y-97644498D01*
X121842061Y-97605128D01*
X121850186Y-97577461D01*
X121850186Y-97577460D01*
X121850187Y-97577459D01*
X121902991Y-97531705D01*
X121903001Y-97531703D01*
X121954501Y-97520500D01*
X123459093Y-97520500D01*
X123526132Y-97540185D01*
X123571887Y-97592989D01*
X123581831Y-97662147D01*
X123565825Y-97707620D01*
X123523257Y-97779599D01*
X123523255Y-97779604D01*
X123477402Y-97937426D01*
X123477401Y-97937432D01*
X123474500Y-97974298D01*
X123474500Y-98405701D01*
X123477401Y-98442567D01*
X123477402Y-98442573D01*
X123523254Y-98600393D01*
X123523255Y-98600396D01*
X123606917Y-98741862D01*
X123606923Y-98741870D01*
X123723129Y-98858076D01*
X123723133Y-98858079D01*
X123723135Y-98858081D01*
X123864602Y-98941744D01*
X123899263Y-98951814D01*
X124022426Y-98987597D01*
X124022429Y-98987597D01*
X124022431Y-98987598D01*
X124059306Y-98990500D01*
X124153935Y-98990500D01*
X124220974Y-99010185D01*
X124266729Y-99062989D01*
X124276673Y-99132147D01*
X124247648Y-99195703D01*
X124241617Y-99202179D01*
X123163730Y-100280066D01*
X122131286Y-101312510D01*
X122019481Y-101424314D01*
X122019479Y-101424317D01*
X122008939Y-101442573D01*
X121975495Y-101500501D01*
X121940423Y-101561247D01*
X121907416Y-101684423D01*
X121905194Y-101690281D01*
X121892458Y-101707093D01*
X121876943Y-101733968D01*
X121816243Y-101794669D01*
X121816242Y-101794670D01*
X121733267Y-101931929D01*
X121733265Y-101931933D01*
X121685548Y-102085065D01*
X121685548Y-102085067D01*
X121680836Y-102136924D01*
X121679500Y-102151621D01*
X121679500Y-102653388D01*
X121685546Y-102719926D01*
X121685548Y-102719933D01*
X121733265Y-102873066D01*
X121733267Y-102873070D01*
X121771219Y-102935851D01*
X121789055Y-103003406D01*
X121771219Y-103064149D01*
X121733267Y-103126929D01*
X121733265Y-103126933D01*
X121685548Y-103280065D01*
X121679500Y-103346621D01*
X121679500Y-103848388D01*
X121685546Y-103914926D01*
X121685548Y-103914933D01*
X121733265Y-104068066D01*
X121733267Y-104068070D01*
X121816242Y-104205329D01*
X121816246Y-104205334D01*
X121929665Y-104318753D01*
X121929670Y-104318757D01*
X122066929Y-104401732D01*
X122066933Y-104401734D01*
X122121100Y-104418612D01*
X122220067Y-104449452D01*
X122286619Y-104455500D01*
X122713380Y-104455499D01*
X122713388Y-104455499D01*
X122779926Y-104449453D01*
X122779927Y-104449452D01*
X122779933Y-104449452D01*
X122933069Y-104401733D01*
X123003717Y-104359024D01*
X123070329Y-104318757D01*
X123070330Y-104318755D01*
X123070335Y-104318753D01*
X123183753Y-104205335D01*
X123266733Y-104068069D01*
X123266733Y-104068068D01*
X123266864Y-104067852D01*
X123274797Y-104060586D01*
X123279268Y-104050798D01*
X123300116Y-104037399D01*
X123318391Y-104020664D01*
X123330544Y-104017844D01*
X123338046Y-104013024D01*
X123372981Y-104008001D01*
X123512147Y-104008001D01*
X123579186Y-104027686D01*
X123600531Y-104047219D01*
X123601402Y-104046349D01*
X123602372Y-104047319D01*
X123604100Y-104050485D01*
X123610123Y-104055996D01*
X123611697Y-104058025D01*
X123609253Y-104059920D01*
X123612891Y-104066584D01*
X123624941Y-104080490D01*
X123626533Y-104091568D01*
X123635857Y-104108642D01*
X123633575Y-104140542D01*
X123634885Y-104149648D01*
X123632560Y-104154738D01*
X123630873Y-104178334D01*
X123610069Y-104210703D01*
X123611702Y-104211969D01*
X123606917Y-104218137D01*
X123523255Y-104359603D01*
X123523254Y-104359606D01*
X123477402Y-104517426D01*
X123477401Y-104517432D01*
X123474500Y-104554298D01*
X123474500Y-104985701D01*
X123477401Y-105022567D01*
X123477402Y-105022573D01*
X123523254Y-105180393D01*
X123523255Y-105180396D01*
X123606917Y-105321862D01*
X123606923Y-105321870D01*
X123723129Y-105438076D01*
X123723133Y-105438079D01*
X123723135Y-105438081D01*
X123864602Y-105521744D01*
X123892382Y-105529815D01*
X124022426Y-105567597D01*
X124022429Y-105567597D01*
X124022431Y-105567598D01*
X124059306Y-105570500D01*
X124678673Y-105570500D01*
X124702864Y-105572882D01*
X124721460Y-105576581D01*
X124741157Y-105580500D01*
X124741158Y-105580500D01*
X124898843Y-105580500D01*
X124918539Y-105576581D01*
X124937135Y-105572882D01*
X124961327Y-105570500D01*
X125640686Y-105570500D01*
X125640694Y-105570500D01*
X125677569Y-105567598D01*
X125677571Y-105567597D01*
X125677573Y-105567597D01*
X125719191Y-105555505D01*
X125835398Y-105521744D01*
X125976865Y-105438081D01*
X126093081Y-105321865D01*
X126176744Y-105180398D01*
X126203663Y-105087740D01*
X126241268Y-105028857D01*
X126304741Y-104999650D01*
X126373927Y-105009396D01*
X126410420Y-105034656D01*
X127455681Y-106079917D01*
X127470384Y-106106844D01*
X127486977Y-106132663D01*
X127487868Y-106138863D01*
X127489166Y-106141240D01*
X127492000Y-106167598D01*
X127492000Y-106237017D01*
X127472315Y-106304056D01*
X127432150Y-106343134D01*
X127294666Y-106426245D01*
X127181246Y-106539665D01*
X127181242Y-106539670D01*
X127098267Y-106676929D01*
X127098265Y-106676933D01*
X127050548Y-106830065D01*
X127044500Y-106896621D01*
X127044500Y-107323388D01*
X127050546Y-107389926D01*
X127050548Y-107389933D01*
X127098265Y-107543066D01*
X127098267Y-107543070D01*
X127181242Y-107680329D01*
X127181246Y-107680334D01*
X127294665Y-107793753D01*
X127294670Y-107793757D01*
X127431929Y-107876732D01*
X127431933Y-107876734D01*
X127486100Y-107893612D01*
X127585067Y-107924452D01*
X127651619Y-107930500D01*
X128153380Y-107930499D01*
X128153388Y-107930499D01*
X128219926Y-107924453D01*
X128219927Y-107924452D01*
X128219933Y-107924452D01*
X128373069Y-107876733D01*
X128435850Y-107838779D01*
X128503405Y-107820944D01*
X128564149Y-107838779D01*
X128626931Y-107876733D01*
X128626934Y-107876734D01*
X128626933Y-107876734D01*
X128681100Y-107893612D01*
X128780067Y-107924452D01*
X128846619Y-107930500D01*
X129348380Y-107930499D01*
X129348388Y-107930499D01*
X129414926Y-107924453D01*
X129414927Y-107924453D01*
X129414929Y-107924452D01*
X129414933Y-107924452D01*
X129466044Y-107908524D01*
X129535900Y-107907373D01*
X129550365Y-107912342D01*
X129616503Y-107939737D01*
X129616507Y-107939737D01*
X129616511Y-107939739D01*
X129771153Y-107970499D01*
X129771156Y-107970500D01*
X129771158Y-107970500D01*
X129928844Y-107970500D01*
X129928845Y-107970499D01*
X130083497Y-107939737D01*
X130229179Y-107879394D01*
X130360289Y-107791789D01*
X130471789Y-107680289D01*
X130559394Y-107549179D01*
X130619737Y-107403497D01*
X130650500Y-107248842D01*
X130650500Y-107091158D01*
X130650500Y-107091155D01*
X130650499Y-107091153D01*
X130646871Y-107072914D01*
X130619737Y-106936503D01*
X130619735Y-106936498D01*
X130559397Y-106790827D01*
X130559390Y-106790814D01*
X130471789Y-106659711D01*
X130471786Y-106659707D01*
X130355982Y-106543903D01*
X130357122Y-106542762D01*
X130322188Y-106491475D01*
X130320319Y-106421630D01*
X130356508Y-106361863D01*
X130419264Y-106331148D01*
X130440188Y-106329370D01*
X130944461Y-106329370D01*
X130944477Y-106329371D01*
X130952073Y-106329371D01*
X131110184Y-106329371D01*
X131110187Y-106329371D01*
X131262915Y-106288447D01*
X131313034Y-106259509D01*
X131399846Y-106209390D01*
X131511650Y-106097586D01*
X131511650Y-106097584D01*
X131521858Y-106087377D01*
X131521859Y-106087374D01*
X132600520Y-105008716D01*
X132679577Y-104871784D01*
X132720501Y-104719057D01*
X132720501Y-104719048D01*
X132720599Y-104718310D01*
X132720856Y-104717727D01*
X132720901Y-104717560D01*
X132720800Y-104716853D01*
X132721504Y-104715310D01*
X132722604Y-104711207D01*
X132723294Y-104711391D01*
X132735012Y-104685732D01*
X132748868Y-104654415D01*
X132749506Y-104653993D01*
X132749825Y-104653297D01*
X132778636Y-104634780D01*
X132807194Y-104615946D01*
X132808173Y-104615799D01*
X132808603Y-104615523D01*
X132843538Y-104610500D01*
X132854036Y-104610500D01*
X132921075Y-104630185D01*
X132966830Y-104682989D01*
X132977654Y-104744228D01*
X132974500Y-104784298D01*
X132974500Y-105215701D01*
X132977401Y-105252567D01*
X132977402Y-105252573D01*
X133023254Y-105410393D01*
X133023255Y-105410396D01*
X133023256Y-105410398D01*
X133030990Y-105423475D01*
X133106917Y-105551862D01*
X133106923Y-105551870D01*
X133223129Y-105668076D01*
X133223133Y-105668079D01*
X133223135Y-105668081D01*
X133364602Y-105751744D01*
X133406224Y-105763836D01*
X133522426Y-105797597D01*
X133522429Y-105797597D01*
X133522431Y-105797598D01*
X133559306Y-105800500D01*
X133559314Y-105800500D01*
X135140686Y-105800500D01*
X135140694Y-105800500D01*
X135177569Y-105797598D01*
X135177571Y-105797597D01*
X135177573Y-105797597D01*
X135219191Y-105785505D01*
X135335398Y-105751744D01*
X135476865Y-105668081D01*
X135593081Y-105551865D01*
X135676744Y-105410398D01*
X135722598Y-105252569D01*
X135725500Y-105215694D01*
X135725500Y-104784306D01*
X135722598Y-104747431D01*
X135721667Y-104744228D01*
X135676745Y-104589606D01*
X135676744Y-104589603D01*
X135676744Y-104589602D01*
X135593081Y-104448135D01*
X135593078Y-104448132D01*
X135588298Y-104441969D01*
X135590750Y-104440066D01*
X135564155Y-104391421D01*
X135569104Y-104321726D01*
X135589940Y-104289304D01*
X135588298Y-104288031D01*
X135593075Y-104281870D01*
X135593081Y-104281865D01*
X135676744Y-104140398D01*
X135713750Y-104013024D01*
X135724366Y-103976485D01*
X135726525Y-103977112D01*
X135753314Y-103923843D01*
X135813469Y-103888303D01*
X135883290Y-103890927D01*
X135931592Y-103920827D01*
X138525139Y-106514374D01*
X138525149Y-106514385D01*
X138529479Y-106518715D01*
X138529480Y-106518716D01*
X138641284Y-106630520D01*
X138641286Y-106630521D01*
X138641290Y-106630524D01*
X138691842Y-106659710D01*
X138691847Y-106659712D01*
X138778209Y-106709574D01*
X138778210Y-106709575D01*
X138778212Y-106709575D01*
X138778215Y-106709577D01*
X138930943Y-106750501D01*
X138930946Y-106750501D01*
X139096653Y-106750501D01*
X139096669Y-106750500D01*
X145313331Y-106750500D01*
X145313347Y-106750501D01*
X145320943Y-106750501D01*
X145479054Y-106750501D01*
X145479057Y-106750501D01*
X145631785Y-106709577D01*
X145718155Y-106659711D01*
X145768716Y-106630520D01*
X145880520Y-106518716D01*
X145880520Y-106518714D01*
X145890724Y-106508511D01*
X145890728Y-106508506D01*
X149668506Y-102730728D01*
X149668511Y-102730724D01*
X149678714Y-102720520D01*
X149678716Y-102720520D01*
X149790520Y-102608716D01*
X149852750Y-102500930D01*
X149869577Y-102471785D01*
X149910501Y-102319057D01*
X149910501Y-102160943D01*
X149910501Y-102153348D01*
X149910500Y-102153330D01*
X149910500Y-99729060D01*
X149910501Y-99729047D01*
X149910501Y-99560944D01*
X149899340Y-99519290D01*
X149869577Y-99408216D01*
X149857108Y-99386619D01*
X149790524Y-99271290D01*
X149790518Y-99271282D01*
X149638717Y-99119481D01*
X149638716Y-99119480D01*
X149543404Y-99064452D01*
X149501785Y-99040423D01*
X149397865Y-99012577D01*
X149392511Y-99010599D01*
X149368881Y-98993023D01*
X149343733Y-98977694D01*
X149338204Y-98970204D01*
X149336449Y-98968899D01*
X149335625Y-98966711D01*
X149328756Y-98957406D01*
X149283430Y-98880766D01*
X149266246Y-98813043D01*
X149288405Y-98746780D01*
X149321268Y-98714543D01*
X149370289Y-98681789D01*
X149481789Y-98570289D01*
X149569394Y-98439179D01*
X149629737Y-98293497D01*
X149660500Y-98138842D01*
X149660500Y-97981158D01*
X149660500Y-97981155D01*
X149660499Y-97981153D01*
X149629738Y-97826510D01*
X149629737Y-97826503D01*
X149629735Y-97826498D01*
X149619568Y-97801952D01*
X149612099Y-97732483D01*
X149643374Y-97670004D01*
X149703463Y-97634352D01*
X149734129Y-97630500D01*
X150815165Y-97630500D01*
X150882204Y-97650185D01*
X150905541Y-97671910D01*
X150906180Y-97671272D01*
X150912451Y-97677542D01*
X150912454Y-97677546D01*
X150938811Y-97697277D01*
X151027664Y-97763793D01*
X151027671Y-97763797D01*
X151162517Y-97814091D01*
X151162516Y-97814091D01*
X151169444Y-97814835D01*
X151222127Y-97820500D01*
X153017872Y-97820499D01*
X153077483Y-97814091D01*
X153212331Y-97763796D01*
X153301189Y-97697276D01*
X153366653Y-97672859D01*
X153434926Y-97687710D01*
X153484332Y-97737115D01*
X153499500Y-97796543D01*
X153499500Y-104472636D01*
X153479815Y-104539675D01*
X153427011Y-104585430D01*
X153357853Y-104595374D01*
X153294297Y-104566349D01*
X153270506Y-104538608D01*
X153205484Y-104435127D01*
X153078127Y-104275425D01*
X151936290Y-105417262D01*
X151839033Y-105283398D01*
X151716602Y-105160967D01*
X151582736Y-105063709D01*
X152724573Y-103921871D01*
X152564872Y-103794515D01*
X152308096Y-103633172D01*
X152034880Y-103501598D01*
X152034866Y-103501592D01*
X151748645Y-103401438D01*
X151748633Y-103401434D01*
X151452982Y-103333954D01*
X151452966Y-103333952D01*
X151151633Y-103300000D01*
X150848366Y-103300000D01*
X150547033Y-103333952D01*
X150547017Y-103333954D01*
X150251366Y-103401434D01*
X150251354Y-103401438D01*
X149965133Y-103501592D01*
X149965119Y-103501598D01*
X149691903Y-103633172D01*
X149435127Y-103794515D01*
X149275425Y-103921871D01*
X150417263Y-105063709D01*
X150283398Y-105160967D01*
X150160967Y-105283398D01*
X150063709Y-105417262D01*
X148921871Y-104275425D01*
X148794515Y-104435127D01*
X148633172Y-104691903D01*
X148501598Y-104965119D01*
X148501592Y-104965133D01*
X148401438Y-105251354D01*
X148401434Y-105251366D01*
X148333954Y-105547017D01*
X148333952Y-105547033D01*
X148300000Y-105848366D01*
X148300000Y-106151633D01*
X148333952Y-106452966D01*
X148333954Y-106452982D01*
X148401434Y-106748633D01*
X148401438Y-106748645D01*
X148501592Y-107034866D01*
X148501598Y-107034880D01*
X148633172Y-107308096D01*
X148794515Y-107564872D01*
X148921871Y-107724573D01*
X150063708Y-106582736D01*
X150160967Y-106716602D01*
X150283398Y-106839033D01*
X150417262Y-106936290D01*
X149275425Y-108078127D01*
X149435127Y-108205484D01*
X149538608Y-108270506D01*
X149584899Y-108322841D01*
X149595547Y-108391894D01*
X149567172Y-108455743D01*
X149508783Y-108494115D01*
X149472636Y-108499500D01*
X117527364Y-108499500D01*
X117460325Y-108479815D01*
X117414570Y-108427011D01*
X117404626Y-108357853D01*
X117433651Y-108294297D01*
X117461392Y-108270506D01*
X117564872Y-108205484D01*
X117724573Y-108078126D01*
X116582737Y-106936290D01*
X116716602Y-106839033D01*
X116839033Y-106716602D01*
X116936290Y-106582737D01*
X118078126Y-107724573D01*
X118205484Y-107564872D01*
X118366827Y-107308096D01*
X118498401Y-107034880D01*
X118498407Y-107034866D01*
X118598561Y-106748645D01*
X118598565Y-106748633D01*
X118666045Y-106452982D01*
X118666047Y-106452966D01*
X118699999Y-106151633D01*
X118700000Y-106151631D01*
X118700000Y-105848368D01*
X118699999Y-105848366D01*
X118666047Y-105547033D01*
X118666045Y-105547017D01*
X118598565Y-105251366D01*
X118598561Y-105251354D01*
X118498407Y-104965133D01*
X118498401Y-104965119D01*
X118366827Y-104691903D01*
X118205484Y-104435127D01*
X118078127Y-104275425D01*
X116936290Y-105417262D01*
X116839033Y-105283398D01*
X116716602Y-105160967D01*
X116582736Y-105063709D01*
X117724573Y-103921871D01*
X117564872Y-103794515D01*
X117308096Y-103633172D01*
X117034880Y-103501598D01*
X117034866Y-103501592D01*
X116748645Y-103401438D01*
X116748633Y-103401434D01*
X116452982Y-103333954D01*
X116452966Y-103333952D01*
X116151633Y-103300000D01*
X115848366Y-103300000D01*
X115547033Y-103333952D01*
X115547017Y-103333954D01*
X115251366Y-103401434D01*
X115251354Y-103401438D01*
X114965133Y-103501592D01*
X114965119Y-103501598D01*
X114691903Y-103633172D01*
X114435127Y-103794515D01*
X114275425Y-103921871D01*
X115417263Y-105063709D01*
X115283398Y-105160967D01*
X115160967Y-105283398D01*
X115063709Y-105417263D01*
X113921871Y-104275425D01*
X113794515Y-104435127D01*
X113729494Y-104538608D01*
X113677159Y-104584899D01*
X113608106Y-104595547D01*
X113544257Y-104567172D01*
X113505885Y-104508783D01*
X113500500Y-104472636D01*
X113500500Y-79527363D01*
X113520185Y-79460324D01*
X113572989Y-79414569D01*
X113642147Y-79404625D01*
X113705703Y-79433650D01*
X113729494Y-79461392D01*
X113794512Y-79564869D01*
X113921871Y-79724573D01*
X115063708Y-78582736D01*
X115160967Y-78716602D01*
G37*
%TD.AperFunction*%
%TA.AperFunction,Conductor*%
G36*
X148628834Y-101792914D02*
G01*
X148684767Y-101834786D01*
X148709184Y-101900250D01*
X148709500Y-101909096D01*
X148709500Y-101939903D01*
X148689815Y-102006942D01*
X148673181Y-102027584D01*
X145187584Y-105513181D01*
X145126261Y-105546666D01*
X145099903Y-105549500D01*
X140951484Y-105549500D01*
X140884445Y-105529815D01*
X140838690Y-105477011D01*
X140828746Y-105407853D01*
X140832408Y-105390905D01*
X140872597Y-105252573D01*
X140872598Y-105252567D01*
X140872693Y-105251366D01*
X140875500Y-105215694D01*
X140875500Y-104784306D01*
X140872598Y-104747431D01*
X140871667Y-104744228D01*
X140826745Y-104589606D01*
X140826744Y-104589603D01*
X140826744Y-104589602D01*
X140805870Y-104554306D01*
X140784175Y-104517620D01*
X140766992Y-104449896D01*
X140789152Y-104383634D01*
X140843619Y-104339871D01*
X140890907Y-104330500D01*
X145653331Y-104330500D01*
X145653347Y-104330501D01*
X145660943Y-104330501D01*
X145819054Y-104330501D01*
X145819057Y-104330501D01*
X145971785Y-104289577D01*
X146037313Y-104251744D01*
X146108716Y-104210520D01*
X146220520Y-104098716D01*
X146220520Y-104098714D01*
X146230724Y-104088511D01*
X146230727Y-104088506D01*
X148497821Y-101821413D01*
X148559142Y-101787930D01*
X148628834Y-101792914D01*
G37*
%TD.AperFunction*%
%TA.AperFunction,Conductor*%
G36*
X141529263Y-93117669D02*
G01*
X141569194Y-93175004D01*
X141571370Y-93182238D01*
X141581421Y-93219750D01*
X141581422Y-93219751D01*
X141581423Y-93219753D01*
X141585310Y-93226486D01*
X141586202Y-93228031D01*
X141596642Y-93246112D01*
X141630641Y-93305000D01*
X141660479Y-93356683D01*
X141779349Y-93475553D01*
X141779355Y-93475558D01*
X142258457Y-93954660D01*
X142291942Y-94015983D01*
X142292393Y-94018149D01*
X142323293Y-94173491D01*
X142323296Y-94173501D01*
X142383634Y-94319172D01*
X142383641Y-94319185D01*
X142471242Y-94450288D01*
X142471245Y-94450292D01*
X142582739Y-94561786D01*
X142582743Y-94561789D01*
X142713846Y-94649390D01*
X142713853Y-94649394D01*
X142779051Y-94676399D01*
X142833453Y-94720239D01*
X142855519Y-94786533D01*
X142838241Y-94854232D01*
X142819280Y-94878641D01*
X142728210Y-94969711D01*
X142640609Y-95100814D01*
X142640602Y-95100827D01*
X142580264Y-95246498D01*
X142580261Y-95246510D01*
X142549500Y-95401153D01*
X142549500Y-95558846D01*
X142580261Y-95713489D01*
X142580264Y-95713501D01*
X142640602Y-95859172D01*
X142640609Y-95859185D01*
X142728210Y-95990288D01*
X142728213Y-95990292D01*
X142839707Y-96101786D01*
X142839711Y-96101789D01*
X142970814Y-96189390D01*
X142970827Y-96189397D01*
X143113379Y-96248443D01*
X143116503Y-96249737D01*
X143271153Y-96280499D01*
X143271156Y-96280500D01*
X143271158Y-96280500D01*
X143428844Y-96280500D01*
X143428845Y-96280499D01*
X143583497Y-96249737D01*
X143663048Y-96216785D01*
X143732516Y-96209317D01*
X143794996Y-96240592D01*
X143830648Y-96300681D01*
X143834500Y-96331347D01*
X143834500Y-96695701D01*
X143837401Y-96732567D01*
X143837402Y-96732573D01*
X143883254Y-96890393D01*
X143883255Y-96890396D01*
X143966917Y-97031862D01*
X143966923Y-97031870D01*
X144083129Y-97148076D01*
X144083132Y-97148078D01*
X144083135Y-97148081D01*
X144224602Y-97231744D01*
X144254138Y-97240325D01*
X144382426Y-97277597D01*
X144382429Y-97277597D01*
X144382431Y-97277598D01*
X144419306Y-97280500D01*
X144419314Y-97280500D01*
X146000686Y-97280500D01*
X146000694Y-97280500D01*
X146037569Y-97277598D01*
X146037571Y-97277597D01*
X146037573Y-97277597D01*
X146120865Y-97253398D01*
X146195398Y-97231744D01*
X146336865Y-97148081D01*
X146353657Y-97131287D01*
X146414978Y-97097802D01*
X146484670Y-97102785D01*
X146529019Y-97131286D01*
X146908252Y-97510520D01*
X146908254Y-97510521D01*
X146908258Y-97510524D01*
X147024198Y-97577461D01*
X147045184Y-97589577D01*
X147197911Y-97630501D01*
X147197913Y-97630501D01*
X147363622Y-97630501D01*
X147363638Y-97630500D01*
X147985871Y-97630500D01*
X148052910Y-97650185D01*
X148098665Y-97702989D01*
X148108609Y-97772147D01*
X148107303Y-97779604D01*
X148104925Y-97791104D01*
X148090263Y-97826503D01*
X148059500Y-97981158D01*
X148059500Y-98010837D01*
X148056932Y-98023259D01*
X148048564Y-98038967D01*
X148042887Y-98060155D01*
X148007924Y-98120711D01*
X148007923Y-98120712D01*
X147989983Y-98187666D01*
X147966999Y-98273443D01*
X147966999Y-98273445D01*
X147966999Y-98441546D01*
X147967000Y-98441559D01*
X147967000Y-98687120D01*
X147947315Y-98754159D01*
X147930681Y-98774801D01*
X147890441Y-98815040D01*
X147890434Y-98815049D01*
X147806129Y-98957601D01*
X147806128Y-98957604D01*
X147759924Y-99116637D01*
X147759923Y-99116643D01*
X147757000Y-99153789D01*
X147757000Y-99711190D01*
X147757001Y-99711215D01*
X147759923Y-99748354D01*
X147806130Y-99907401D01*
X147823564Y-99936881D01*
X147840745Y-100004606D01*
X147823564Y-100063119D01*
X147806130Y-100092599D01*
X147806128Y-100092604D01*
X147759924Y-100251637D01*
X147759923Y-100251643D01*
X147757000Y-100288789D01*
X147757000Y-100812401D01*
X147737315Y-100879440D01*
X147720681Y-100900082D01*
X145527584Y-103093181D01*
X145466261Y-103126666D01*
X145439903Y-103129500D01*
X141781941Y-103129500D01*
X141714902Y-103109815D01*
X141669147Y-103057011D01*
X141659203Y-102987853D01*
X141688228Y-102924297D01*
X141694260Y-102917819D01*
X141741786Y-102870292D01*
X141741789Y-102870289D01*
X141829394Y-102739179D01*
X141889737Y-102593497D01*
X141920500Y-102438842D01*
X141920500Y-102281158D01*
X141920500Y-102281155D01*
X141920499Y-102281153D01*
X141906621Y-102211386D01*
X141889737Y-102126503D01*
X141859757Y-102054124D01*
X141829397Y-101980827D01*
X141829390Y-101980814D01*
X141741789Y-101849711D01*
X141741786Y-101849707D01*
X141630292Y-101738213D01*
X141630288Y-101738210D01*
X141499185Y-101650609D01*
X141499172Y-101650602D01*
X141353501Y-101590264D01*
X141353489Y-101590261D01*
X141198845Y-101559500D01*
X141198842Y-101559500D01*
X141041158Y-101559500D01*
X141041157Y-101559500D01*
X141021227Y-101563464D01*
X140951636Y-101557235D01*
X140896459Y-101514371D01*
X140873216Y-101448481D01*
X140873419Y-101432125D01*
X140875500Y-101405694D01*
X140875500Y-100974306D01*
X140872598Y-100937431D01*
X140867340Y-100919334D01*
X140836273Y-100812401D01*
X140826744Y-100779602D01*
X140743081Y-100638135D01*
X140743079Y-100638133D01*
X140743076Y-100638129D01*
X140626870Y-100521923D01*
X140626862Y-100521917D01*
X140517909Y-100457483D01*
X140485398Y-100438256D01*
X140485397Y-100438255D01*
X140485396Y-100438255D01*
X140485393Y-100438254D01*
X140327573Y-100392402D01*
X140327567Y-100392401D01*
X140290701Y-100389500D01*
X140290694Y-100389500D01*
X138709306Y-100389500D01*
X138709298Y-100389500D01*
X138672432Y-100392401D01*
X138672426Y-100392402D01*
X138514606Y-100438254D01*
X138514603Y-100438255D01*
X138373137Y-100521917D01*
X138373129Y-100521923D01*
X138256923Y-100638129D01*
X138256917Y-100638137D01*
X138173255Y-100779603D01*
X138173254Y-100779606D01*
X138127402Y-100937426D01*
X138127401Y-100937432D01*
X138124500Y-100974298D01*
X138124500Y-101405701D01*
X138127401Y-101442567D01*
X138127402Y-101442573D01*
X138173254Y-101600393D01*
X138173255Y-101600396D01*
X138173256Y-101600398D01*
X138202946Y-101650602D01*
X138256917Y-101741862D01*
X138261702Y-101748031D01*
X138259256Y-101749927D01*
X138285857Y-101798642D01*
X138280873Y-101868334D01*
X138260069Y-101900703D01*
X138261702Y-101901969D01*
X138256917Y-101908137D01*
X138173255Y-102049603D01*
X138173254Y-102049604D01*
X138146336Y-102142258D01*
X138108730Y-102201143D01*
X138045257Y-102230349D01*
X137976070Y-102220603D01*
X137939579Y-102195343D01*
X137216819Y-101472583D01*
X137183334Y-101411260D01*
X137180500Y-101384902D01*
X137180500Y-99166635D01*
X137200185Y-99099596D01*
X137252989Y-99053841D01*
X137322147Y-99043897D01*
X137341391Y-99048250D01*
X137457567Y-99084452D01*
X137524119Y-99090500D01*
X138025880Y-99090499D01*
X138025888Y-99090499D01*
X138092425Y-99084453D01*
X138092426Y-99084452D01*
X138092433Y-99084452D01*
X138245569Y-99036733D01*
X138246799Y-99035989D01*
X138247824Y-99035718D01*
X138252409Y-99033655D01*
X138252751Y-99034416D01*
X138314349Y-99018146D01*
X138375106Y-99035983D01*
X138409431Y-99056733D01*
X138409432Y-99056733D01*
X138409433Y-99056734D01*
X138434202Y-99064452D01*
X138562567Y-99104452D01*
X138629119Y-99110500D01*
X138685500Y-99110499D01*
X138752538Y-99130182D01*
X138798293Y-99182986D01*
X138809500Y-99234499D01*
X138809500Y-99298846D01*
X138840261Y-99453489D01*
X138840264Y-99453501D01*
X138900602Y-99599172D01*
X138900609Y-99599185D01*
X138988210Y-99730288D01*
X138988213Y-99730292D01*
X139099707Y-99841786D01*
X139099711Y-99841789D01*
X139230814Y-99929390D01*
X139230827Y-99929397D01*
X139376498Y-99989735D01*
X139376503Y-99989737D01*
X139517851Y-100017853D01*
X139531153Y-100020499D01*
X139531156Y-100020500D01*
X139531158Y-100020500D01*
X139688844Y-100020500D01*
X139688845Y-100020499D01*
X139843497Y-99989737D01*
X139989179Y-99929394D01*
X140120289Y-99841789D01*
X140231789Y-99730289D01*
X140319394Y-99599179D01*
X140379737Y-99453497D01*
X140410500Y-99298842D01*
X140410500Y-99298840D01*
X140410637Y-99298152D01*
X140443021Y-99236241D01*
X140444462Y-99234773D01*
X140555520Y-99123716D01*
X140604315Y-99039198D01*
X140647554Y-98995081D01*
X140682829Y-98973757D01*
X140682830Y-98973755D01*
X140682835Y-98973753D01*
X140796253Y-98860335D01*
X140861223Y-98752860D01*
X140912750Y-98705673D01*
X140981609Y-98693834D01*
X141045938Y-98721102D01*
X141085313Y-98778820D01*
X141091140Y-98809979D01*
X141144489Y-99749304D01*
X141144492Y-99749332D01*
X141148756Y-99788072D01*
X141149500Y-99801638D01*
X141149500Y-100397870D01*
X141149501Y-100397876D01*
X141155908Y-100457483D01*
X141206202Y-100592328D01*
X141206206Y-100592335D01*
X141292452Y-100707544D01*
X141292455Y-100707547D01*
X141407664Y-100793793D01*
X141407671Y-100793797D01*
X141542517Y-100844091D01*
X141542516Y-100844091D01*
X141548972Y-100844785D01*
X141602127Y-100850500D01*
X143397872Y-100850499D01*
X143457483Y-100844091D01*
X143592331Y-100793796D01*
X143707546Y-100707546D01*
X143793796Y-100592331D01*
X143844091Y-100457483D01*
X143850500Y-100397873D01*
X143850499Y-98602128D01*
X143844091Y-98542517D01*
X143839461Y-98530104D01*
X143793797Y-98407671D01*
X143793793Y-98407664D01*
X143707547Y-98292455D01*
X143707544Y-98292452D01*
X143592335Y-98206206D01*
X143592328Y-98206202D01*
X143457482Y-98155908D01*
X143457483Y-98155908D01*
X143397883Y-98149501D01*
X143397881Y-98149500D01*
X143397873Y-98149500D01*
X143397865Y-98149500D01*
X143145855Y-98149500D01*
X143088291Y-98135329D01*
X143060402Y-98120712D01*
X142499077Y-97826510D01*
X142004492Y-97567288D01*
X141974375Y-97545140D01*
X141423490Y-96994255D01*
X141390005Y-96932932D01*
X141392094Y-96871980D01*
X141432598Y-96732569D01*
X141435500Y-96695694D01*
X141435500Y-96264306D01*
X141432598Y-96227431D01*
X141430611Y-96220593D01*
X141386745Y-96069606D01*
X141386744Y-96069603D01*
X141386744Y-96069602D01*
X141303081Y-95928135D01*
X141303078Y-95928132D01*
X141298298Y-95921969D01*
X141300750Y-95920066D01*
X141274155Y-95871421D01*
X141279104Y-95801726D01*
X141299940Y-95769304D01*
X141298298Y-95768031D01*
X141303075Y-95761870D01*
X141303081Y-95761865D01*
X141386744Y-95620398D01*
X141432598Y-95462569D01*
X141435500Y-95425694D01*
X141435500Y-94994306D01*
X141432598Y-94957431D01*
X141429033Y-94945161D01*
X141386745Y-94799606D01*
X141386744Y-94799603D01*
X141386744Y-94799602D01*
X141303081Y-94658135D01*
X141303078Y-94658132D01*
X141298298Y-94651969D01*
X141300750Y-94650066D01*
X141274155Y-94601421D01*
X141279104Y-94531726D01*
X141299940Y-94499304D01*
X141298298Y-94498031D01*
X141303075Y-94491870D01*
X141303081Y-94491865D01*
X141386744Y-94350398D01*
X141432598Y-94192569D01*
X141435500Y-94155694D01*
X141435500Y-93724306D01*
X141432598Y-93687431D01*
X141415405Y-93628254D01*
X141386745Y-93529606D01*
X141386744Y-93529603D01*
X141386744Y-93529602D01*
X141303081Y-93388135D01*
X141303078Y-93388132D01*
X141298298Y-93381969D01*
X141300750Y-93380066D01*
X141296079Y-93371522D01*
X141280870Y-93352748D01*
X141279622Y-93341421D01*
X141274155Y-93331421D01*
X141275866Y-93307314D01*
X141273222Y-93283298D01*
X141278296Y-93273094D01*
X141279104Y-93261726D01*
X141299940Y-93229304D01*
X141298298Y-93228031D01*
X141303073Y-93221872D01*
X141303081Y-93221865D01*
X141344865Y-93151210D01*
X141395932Y-93103529D01*
X141464673Y-93091025D01*
X141529263Y-93117669D01*
G37*
%TD.AperFunction*%
%TA.AperFunction,Conductor*%
G36*
X139246649Y-84195531D02*
G01*
X139354661Y-84260827D01*
X139364433Y-84266734D01*
X139418600Y-84283612D01*
X139517567Y-84314452D01*
X139584119Y-84320500D01*
X140085880Y-84320499D01*
X140085888Y-84320499D01*
X140152426Y-84314453D01*
X140152427Y-84314452D01*
X140152433Y-84314452D01*
X140296197Y-84269653D01*
X140305566Y-84266734D01*
X140305566Y-84266733D01*
X140305569Y-84266733D01*
X140368350Y-84228779D01*
X140435905Y-84210944D01*
X140496649Y-84228779D01*
X140559431Y-84266733D01*
X140559434Y-84266734D01*
X140559433Y-84266734D01*
X140613600Y-84283612D01*
X140712567Y-84314452D01*
X140779119Y-84320500D01*
X140949901Y-84320499D01*
X141016941Y-84340183D01*
X141037583Y-84356818D01*
X141999695Y-85318930D01*
X142033180Y-85380253D01*
X142028196Y-85449945D01*
X141999697Y-85494290D01*
X141982033Y-85511954D01*
X141982029Y-85511959D01*
X141893001Y-85656294D01*
X141892996Y-85656305D01*
X141839651Y-85817290D01*
X141829500Y-85916647D01*
X141829500Y-86350959D01*
X141809815Y-86417998D01*
X141757011Y-86463753D01*
X141687853Y-86473697D01*
X141632833Y-86451435D01*
X141624815Y-86445636D01*
X141563659Y-86384480D01*
X141453141Y-86320673D01*
X141426728Y-86305423D01*
X141426727Y-86305422D01*
X141409791Y-86300884D01*
X141350132Y-86264517D01*
X141319605Y-86201669D01*
X141327902Y-86132294D01*
X141335146Y-86118008D01*
X141401744Y-86005398D01*
X141403334Y-85999927D01*
X141447597Y-85847573D01*
X141447598Y-85847567D01*
X141450500Y-85810694D01*
X141450500Y-85379306D01*
X141447598Y-85342431D01*
X141440770Y-85318930D01*
X141401745Y-85184606D01*
X141401744Y-85184603D01*
X141401744Y-85184602D01*
X141318081Y-85043135D01*
X141318079Y-85043133D01*
X141318076Y-85043129D01*
X141201870Y-84926923D01*
X141201862Y-84926917D01*
X141060396Y-84843255D01*
X141060393Y-84843254D01*
X140902573Y-84797402D01*
X140902567Y-84797401D01*
X140865701Y-84794500D01*
X140865694Y-84794500D01*
X139284306Y-84794500D01*
X139284298Y-84794500D01*
X139247432Y-84797401D01*
X139247426Y-84797402D01*
X139089606Y-84843254D01*
X139089603Y-84843255D01*
X138948137Y-84926917D01*
X138948129Y-84926923D01*
X138831923Y-85043129D01*
X138831917Y-85043137D01*
X138748255Y-85184603D01*
X138748254Y-85184606D01*
X138702402Y-85342426D01*
X138702401Y-85342432D01*
X138699500Y-85379298D01*
X138699500Y-85810701D01*
X138702401Y-85847567D01*
X138702402Y-85847573D01*
X138748254Y-86005393D01*
X138748255Y-86005396D01*
X138748256Y-86005398D01*
X138773830Y-86048642D01*
X138820980Y-86128368D01*
X138823653Y-86138903D01*
X138830211Y-86147573D01*
X138832094Y-86172174D01*
X138838163Y-86196092D01*
X138834715Y-86206401D01*
X138835545Y-86217238D01*
X138823829Y-86238951D01*
X138816003Y-86262355D01*
X138806656Y-86270780D01*
X138802368Y-86278729D01*
X138784589Y-86290673D01*
X138774221Y-86300021D01*
X138765602Y-86304783D01*
X138763215Y-86305423D01*
X138736802Y-86320673D01*
X138735835Y-86321231D01*
X138735812Y-86321244D01*
X138626286Y-86384478D01*
X138535337Y-86475427D01*
X138474013Y-86508911D01*
X138471848Y-86509362D01*
X138316508Y-86540261D01*
X138316498Y-86540264D01*
X138170827Y-86600602D01*
X138170814Y-86600609D01*
X138039711Y-86688210D01*
X138039707Y-86688213D01*
X137928213Y-86799707D01*
X137928210Y-86799711D01*
X137840609Y-86930814D01*
X137840602Y-86930827D01*
X137780264Y-87076498D01*
X137780261Y-87076510D01*
X137749500Y-87231153D01*
X137749500Y-87388846D01*
X137780261Y-87543489D01*
X137780264Y-87543501D01*
X137840602Y-87689172D01*
X137840609Y-87689185D01*
X137928210Y-87820288D01*
X137928213Y-87820292D01*
X138039707Y-87931786D01*
X138039711Y-87931789D01*
X138170814Y-88019390D01*
X138170827Y-88019397D01*
X138316498Y-88079735D01*
X138316503Y-88079737D01*
X138471153Y-88110499D01*
X138471156Y-88110500D01*
X138575500Y-88110500D01*
X138642539Y-88130185D01*
X138688294Y-88182989D01*
X138699500Y-88234500D01*
X138699500Y-88350701D01*
X138702401Y-88387567D01*
X138702402Y-88387573D01*
X138748254Y-88545393D01*
X138748255Y-88545396D01*
X138831917Y-88686862D01*
X138836702Y-88693031D01*
X138834256Y-88694927D01*
X138860857Y-88743642D01*
X138855873Y-88813334D01*
X138835069Y-88845703D01*
X138836702Y-88846969D01*
X138831917Y-88853137D01*
X138748255Y-88994603D01*
X138748254Y-88994606D01*
X138702402Y-89152426D01*
X138702401Y-89152432D01*
X138699500Y-89189298D01*
X138699500Y-89620701D01*
X138702401Y-89657567D01*
X138702402Y-89657573D01*
X138748254Y-89815393D01*
X138748255Y-89815396D01*
X138831917Y-89956862D01*
X138831923Y-89956870D01*
X138948129Y-90073076D01*
X138948133Y-90073079D01*
X138948135Y-90073081D01*
X139089602Y-90156744D01*
X139108523Y-90162241D01*
X139247426Y-90202597D01*
X139247429Y-90202597D01*
X139247431Y-90202598D01*
X139284306Y-90205500D01*
X139284314Y-90205500D01*
X140865686Y-90205500D01*
X140865694Y-90205500D01*
X140902569Y-90202598D01*
X140902571Y-90202597D01*
X140902573Y-90202597D01*
X140961262Y-90185546D01*
X141060398Y-90156744D01*
X141201865Y-90073081D01*
X141318081Y-89956865D01*
X141318084Y-89956858D01*
X141318515Y-89956305D01*
X141318972Y-89955974D01*
X141323598Y-89951349D01*
X141324343Y-89952094D01*
X141375154Y-89915394D01*
X141444921Y-89911599D01*
X141505664Y-89946125D01*
X141538098Y-90008010D01*
X141540500Y-90032298D01*
X141540500Y-92066320D01*
X141520815Y-92133359D01*
X141468011Y-92179114D01*
X141398853Y-92189058D01*
X141335297Y-92160033D01*
X141309769Y-92129443D01*
X141304884Y-92121183D01*
X141303081Y-92118135D01*
X141303079Y-92118133D01*
X141303076Y-92118129D01*
X141186870Y-92001923D01*
X141186862Y-92001917D01*
X141089773Y-91944499D01*
X141045398Y-91918256D01*
X141045397Y-91918255D01*
X141045396Y-91918255D01*
X141045393Y-91918254D01*
X140887573Y-91872402D01*
X140887567Y-91872401D01*
X140850701Y-91869500D01*
X140850694Y-91869500D01*
X139269306Y-91869500D01*
X139269298Y-91869500D01*
X139232432Y-91872401D01*
X139232426Y-91872402D01*
X139074606Y-91918254D01*
X139074603Y-91918255D01*
X138933137Y-92001917D01*
X138933129Y-92001923D01*
X138816923Y-92118129D01*
X138816917Y-92118137D01*
X138733255Y-92259603D01*
X138733254Y-92259604D01*
X138706336Y-92352257D01*
X138668729Y-92411142D01*
X138605256Y-92440348D01*
X138536070Y-92430602D01*
X138499579Y-92405342D01*
X137216819Y-91122582D01*
X137183334Y-91061259D01*
X137180500Y-91034901D01*
X137180500Y-88439059D01*
X137180501Y-88439046D01*
X137180501Y-88270945D01*
X137180501Y-88270943D01*
X137139577Y-88118215D01*
X137110639Y-88068095D01*
X137060520Y-87981284D01*
X136948716Y-87869480D01*
X136948715Y-87869479D01*
X136944385Y-87865149D01*
X136944374Y-87865139D01*
X136852590Y-87773355D01*
X136852588Y-87773352D01*
X136733717Y-87654481D01*
X136733709Y-87654475D01*
X136641270Y-87601106D01*
X136641268Y-87601105D01*
X136596790Y-87575425D01*
X136596789Y-87575424D01*
X136574270Y-87569390D01*
X136444057Y-87534499D01*
X136315907Y-87534499D01*
X136309640Y-87532658D01*
X136303218Y-87533848D01*
X136276527Y-87522935D01*
X136248868Y-87514814D01*
X136244592Y-87509879D01*
X136238545Y-87507407D01*
X136221990Y-87483795D01*
X136203113Y-87462010D01*
X136202183Y-87455545D01*
X136198434Y-87450198D01*
X136197272Y-87421390D01*
X136193169Y-87392852D01*
X136195816Y-87385291D01*
X136195619Y-87380385D01*
X136208627Y-87348710D01*
X136208976Y-87347716D01*
X136209054Y-87347583D01*
X136251744Y-87275398D01*
X136252045Y-87274360D01*
X136256454Y-87266852D01*
X136263372Y-87260351D01*
X136276705Y-87240964D01*
X136427734Y-87093333D01*
X136431821Y-87089291D01*
X136431915Y-87089197D01*
X136468069Y-87048949D01*
X136468073Y-87048941D01*
X136470199Y-87046049D01*
X136482443Y-87031789D01*
X138698506Y-84815727D01*
X138698511Y-84815723D01*
X138708714Y-84805519D01*
X138708716Y-84805519D01*
X138820520Y-84693715D01*
X138824164Y-84687401D01*
X138888521Y-84575934D01*
X138888522Y-84575931D01*
X138899577Y-84556784D01*
X138940501Y-84404056D01*
X138940501Y-84372982D01*
X138943532Y-84362659D01*
X138942294Y-84351972D01*
X138953204Y-84329719D01*
X138960186Y-84305943D01*
X138969127Y-84297243D01*
X138973053Y-84289237D01*
X139000351Y-84266865D01*
X139118350Y-84195532D01*
X139185905Y-84177696D01*
X139246649Y-84195531D01*
G37*
%TD.AperFunction*%
%TA.AperFunction,Conductor*%
G36*
X149539675Y-75520185D02*
G01*
X149585430Y-75572989D01*
X149595374Y-75642147D01*
X149566349Y-75705703D01*
X149538608Y-75729494D01*
X149435127Y-75794515D01*
X149275425Y-75921871D01*
X150417263Y-77063709D01*
X150283398Y-77160967D01*
X150160967Y-77283398D01*
X150063709Y-77417262D01*
X148921871Y-76275425D01*
X148794515Y-76435127D01*
X148633172Y-76691903D01*
X148501598Y-76965119D01*
X148501592Y-76965133D01*
X148401438Y-77251354D01*
X148401434Y-77251366D01*
X148333954Y-77547017D01*
X148333952Y-77547033D01*
X148300000Y-77848366D01*
X148300000Y-78151633D01*
X148333952Y-78452966D01*
X148333954Y-78452982D01*
X148401434Y-78748633D01*
X148401438Y-78748645D01*
X148501592Y-79034866D01*
X148501598Y-79034880D01*
X148633172Y-79308096D01*
X148794515Y-79564872D01*
X148921871Y-79724573D01*
X150063708Y-78582736D01*
X150160967Y-78716602D01*
X150283398Y-78839033D01*
X150417262Y-78936290D01*
X149275425Y-80078127D01*
X149435127Y-80205484D01*
X149691903Y-80366827D01*
X149965119Y-80498401D01*
X149965133Y-80498407D01*
X150251354Y-80598561D01*
X150251366Y-80598565D01*
X150547017Y-80666045D01*
X150547033Y-80666047D01*
X150848366Y-80699999D01*
X150848368Y-80700000D01*
X151151632Y-80700000D01*
X151151633Y-80699999D01*
X151452966Y-80666047D01*
X151452982Y-80666045D01*
X151748633Y-80598565D01*
X151748645Y-80598561D01*
X152034866Y-80498407D01*
X152034880Y-80498401D01*
X152308096Y-80366827D01*
X152564872Y-80205484D01*
X152724573Y-80078126D01*
X151582737Y-78936290D01*
X151716602Y-78839033D01*
X151839033Y-78716602D01*
X151936290Y-78582737D01*
X153078126Y-79724573D01*
X153205487Y-79564868D01*
X153270506Y-79461392D01*
X153322840Y-79415100D01*
X153391894Y-79404451D01*
X153455742Y-79432826D01*
X153494114Y-79491216D01*
X153499500Y-79527363D01*
X153499500Y-84927630D01*
X153479815Y-84994669D01*
X153427011Y-85040424D01*
X153357853Y-85050368D01*
X153294297Y-85021343D01*
X153268768Y-84990751D01*
X153208083Y-84888138D01*
X153208076Y-84888129D01*
X153091870Y-84771923D01*
X153091862Y-84771917D01*
X152959630Y-84693716D01*
X152950398Y-84688256D01*
X152950397Y-84688255D01*
X152950396Y-84688255D01*
X152950393Y-84688254D01*
X152792573Y-84642402D01*
X152792567Y-84642401D01*
X152755701Y-84639500D01*
X152755694Y-84639500D01*
X151174306Y-84639500D01*
X151174298Y-84639500D01*
X151137432Y-84642401D01*
X151137426Y-84642402D01*
X150979606Y-84688254D01*
X150979603Y-84688255D01*
X150838137Y-84771917D01*
X150838129Y-84771923D01*
X150721923Y-84888129D01*
X150721917Y-84888137D01*
X150638255Y-85029603D01*
X150638254Y-85029606D01*
X150592402Y-85187426D01*
X150592401Y-85187432D01*
X150589500Y-85224298D01*
X150589500Y-85438593D01*
X150569815Y-85505632D01*
X150517011Y-85551387D01*
X150512953Y-85553154D01*
X150470824Y-85570604D01*
X150470814Y-85570609D01*
X150339711Y-85658210D01*
X150339707Y-85658213D01*
X150228213Y-85769707D01*
X150228210Y-85769711D01*
X150140609Y-85900814D01*
X150140602Y-85900827D01*
X150080264Y-86046498D01*
X150080261Y-86046510D01*
X150049500Y-86201153D01*
X150049500Y-86358846D01*
X150080261Y-86513489D01*
X150080264Y-86513501D01*
X150140602Y-86659172D01*
X150140609Y-86659185D01*
X150228210Y-86790288D01*
X150228213Y-86790292D01*
X150339707Y-86901786D01*
X150339711Y-86901789D01*
X150470814Y-86989390D01*
X150470827Y-86989397D01*
X150562882Y-87027527D01*
X150617286Y-87071368D01*
X150623477Y-87081246D01*
X150630508Y-87093733D01*
X150638256Y-87120398D01*
X150721919Y-87261865D01*
X150729393Y-87269339D01*
X150737738Y-87284158D01*
X150741933Y-87302299D01*
X150750857Y-87318642D01*
X150749641Y-87335633D01*
X150753480Y-87352231D01*
X150747201Y-87369759D01*
X150745873Y-87388334D01*
X150733844Y-87407050D01*
X150729919Y-87418009D01*
X150725740Y-87421223D01*
X150726702Y-87421969D01*
X150721917Y-87428137D01*
X150638255Y-87569603D01*
X150638254Y-87569606D01*
X150592402Y-87727426D01*
X150592401Y-87727432D01*
X150589500Y-87764298D01*
X150589500Y-88195701D01*
X150592401Y-88232567D01*
X150592402Y-88232573D01*
X150638254Y-88390393D01*
X150638255Y-88390396D01*
X150638256Y-88390398D01*
X150638328Y-88390520D01*
X150721917Y-88531862D01*
X150726702Y-88538031D01*
X150724256Y-88539927D01*
X150750857Y-88588642D01*
X150745873Y-88658334D01*
X150725069Y-88690703D01*
X150726702Y-88691969D01*
X150721917Y-88698137D01*
X150638255Y-88839603D01*
X150638254Y-88839606D01*
X150592402Y-88997426D01*
X150592401Y-88997432D01*
X150589500Y-89034298D01*
X150589500Y-89465701D01*
X150592401Y-89502567D01*
X150592402Y-89502573D01*
X150638254Y-89660393D01*
X150638254Y-89660394D01*
X150698142Y-89761661D01*
X150715323Y-89829385D01*
X150693163Y-89895647D01*
X150653409Y-89932168D01*
X150588787Y-89969477D01*
X150588782Y-89969481D01*
X150476980Y-90081283D01*
X150476980Y-90081284D01*
X150476978Y-90081286D01*
X150442387Y-90115877D01*
X150413722Y-90144542D01*
X150352398Y-90178026D01*
X150337261Y-90180351D01*
X150280073Y-90185546D01*
X150280066Y-90185548D01*
X150126933Y-90233265D01*
X150126929Y-90233267D01*
X150064149Y-90271219D01*
X149996594Y-90289055D01*
X149935851Y-90271219D01*
X149873070Y-90233267D01*
X149873066Y-90233265D01*
X149719933Y-90185548D01*
X149719935Y-90185548D01*
X149693312Y-90183128D01*
X149653381Y-90179500D01*
X149653378Y-90179500D01*
X149151611Y-90179500D01*
X149085073Y-90185546D01*
X149085066Y-90185548D01*
X148931933Y-90233265D01*
X148931931Y-90233266D01*
X148860398Y-90276509D01*
X148846400Y-90280204D01*
X148834440Y-90288364D01*
X148813293Y-90288945D01*
X148792844Y-90294344D01*
X148777779Y-90289920D01*
X148764597Y-90290283D01*
X148732102Y-90276509D01*
X148686352Y-90248853D01*
X148639163Y-90197326D01*
X148626500Y-90142735D01*
X148626500Y-87120061D01*
X148626501Y-87120048D01*
X148626501Y-86951945D01*
X148621749Y-86934210D01*
X148585577Y-86799217D01*
X148580424Y-86790292D01*
X148506524Y-86662291D01*
X148506518Y-86662283D01*
X148345686Y-86501451D01*
X148321401Y-86470876D01*
X148208460Y-86364225D01*
X148149791Y-86305556D01*
X148130740Y-86280996D01*
X148129399Y-86278729D01*
X148058081Y-86158135D01*
X148058078Y-86158132D01*
X148053298Y-86151969D01*
X148055750Y-86150066D01*
X148029155Y-86101421D01*
X148034104Y-86031726D01*
X148054940Y-85999304D01*
X148053298Y-85998031D01*
X148058075Y-85991870D01*
X148058081Y-85991865D01*
X148141744Y-85850398D01*
X148187598Y-85692569D01*
X148190500Y-85655694D01*
X148190500Y-85224306D01*
X148187598Y-85187431D01*
X148186777Y-85184606D01*
X148141745Y-85029606D01*
X148141744Y-85029603D01*
X148141744Y-85029602D01*
X148058081Y-84888135D01*
X148058079Y-84888133D01*
X148058076Y-84888129D01*
X147941870Y-84771923D01*
X147941862Y-84771917D01*
X147809630Y-84693716D01*
X147800398Y-84688256D01*
X147800397Y-84688255D01*
X147800396Y-84688255D01*
X147800393Y-84688254D01*
X147642573Y-84642402D01*
X147642567Y-84642401D01*
X147605701Y-84639500D01*
X147605694Y-84639500D01*
X146024306Y-84639500D01*
X146024298Y-84639500D01*
X145987432Y-84642401D01*
X145987426Y-84642402D01*
X145829606Y-84688254D01*
X145829603Y-84688255D01*
X145688137Y-84771917D01*
X145688129Y-84771923D01*
X145571923Y-84888129D01*
X145571917Y-84888137D01*
X145488255Y-85029603D01*
X145488254Y-85029606D01*
X145442402Y-85187426D01*
X145442401Y-85187432D01*
X145439500Y-85224298D01*
X145439500Y-85655701D01*
X145442401Y-85692567D01*
X145442402Y-85692573D01*
X145488254Y-85850393D01*
X145488255Y-85850396D01*
X145488256Y-85850398D01*
X145500043Y-85870329D01*
X145571917Y-85991862D01*
X145576702Y-85998031D01*
X145574256Y-85999927D01*
X145600857Y-86048642D01*
X145595873Y-86118334D01*
X145575069Y-86150703D01*
X145576702Y-86151969D01*
X145571917Y-86158137D01*
X145488255Y-86299603D01*
X145488254Y-86299606D01*
X145442402Y-86457426D01*
X145442401Y-86457432D01*
X145439500Y-86494298D01*
X145439500Y-86925701D01*
X145442401Y-86962567D01*
X145442402Y-86962573D01*
X145459249Y-87020558D01*
X145459166Y-87049650D01*
X145461933Y-87078616D01*
X145459067Y-87084174D01*
X145459050Y-87090427D01*
X145443249Y-87114858D01*
X145429919Y-87140719D01*
X145423013Y-87146149D01*
X145421108Y-87149097D01*
X145402176Y-87162538D01*
X145384254Y-87172885D01*
X145322253Y-87189500D01*
X144469766Y-87189500D01*
X144402727Y-87169815D01*
X144400875Y-87168602D01*
X144269185Y-87080609D01*
X144269172Y-87080602D01*
X144123501Y-87020264D01*
X144123489Y-87020261D01*
X143996209Y-86994943D01*
X143934298Y-86962558D01*
X143899723Y-86901842D01*
X143903463Y-86832073D01*
X143914857Y-86808236D01*
X143967003Y-86723697D01*
X144020349Y-86562708D01*
X144030500Y-86463345D01*
X144030499Y-85916656D01*
X144028881Y-85900821D01*
X144020349Y-85817292D01*
X144020348Y-85817289D01*
X143983637Y-85706503D01*
X143967003Y-85656303D01*
X143966999Y-85656297D01*
X143966998Y-85656294D01*
X143877970Y-85511959D01*
X143877967Y-85511955D01*
X143758044Y-85392032D01*
X143758040Y-85392029D01*
X143613700Y-85302998D01*
X143613694Y-85302995D01*
X143580580Y-85292022D01*
X143523136Y-85252248D01*
X143499811Y-85206411D01*
X143497973Y-85199551D01*
X143489577Y-85168216D01*
X143472556Y-85138735D01*
X143410524Y-85031290D01*
X143410518Y-85031282D01*
X142431416Y-84052180D01*
X142397931Y-83990857D01*
X142402915Y-83921165D01*
X142444787Y-83865232D01*
X142510251Y-83840815D01*
X142519069Y-83840499D01*
X143353344Y-83840499D01*
X143353352Y-83840498D01*
X143353355Y-83840498D01*
X143438366Y-83831814D01*
X143452708Y-83830349D01*
X143613697Y-83777003D01*
X143758044Y-83687968D01*
X143877968Y-83568044D01*
X143889465Y-83549403D01*
X143941412Y-83502679D01*
X143995004Y-83490500D01*
X144587059Y-83490500D01*
X144654098Y-83510185D01*
X144674740Y-83526819D01*
X144699707Y-83551786D01*
X144699711Y-83551789D01*
X144830814Y-83639390D01*
X144830827Y-83639397D01*
X144976498Y-83699735D01*
X144976503Y-83699737D01*
X145130771Y-83730423D01*
X145131153Y-83730499D01*
X145131156Y-83730500D01*
X145131158Y-83730500D01*
X145288844Y-83730500D01*
X145288845Y-83730499D01*
X145443497Y-83699737D01*
X145589179Y-83639394D01*
X145720289Y-83551789D01*
X145831789Y-83440289D01*
X145919394Y-83309179D01*
X145979737Y-83163497D01*
X146010500Y-83008842D01*
X146010500Y-82851158D01*
X146010500Y-82851155D01*
X146010499Y-82851153D01*
X146003978Y-82818371D01*
X145979737Y-82696503D01*
X145975199Y-82685548D01*
X145919397Y-82550827D01*
X145919390Y-82550814D01*
X145831789Y-82419711D01*
X145831786Y-82419707D01*
X145720292Y-82308213D01*
X145720288Y-82308210D01*
X145589185Y-82220609D01*
X145589172Y-82220602D01*
X145443501Y-82160264D01*
X145443489Y-82160261D01*
X145288845Y-82129500D01*
X145288842Y-82129500D01*
X145131158Y-82129500D01*
X145131155Y-82129500D01*
X144976510Y-82160261D01*
X144976498Y-82160264D01*
X144830827Y-82220602D01*
X144830815Y-82220609D01*
X144758990Y-82268602D01*
X144692313Y-82289480D01*
X144690099Y-82289500D01*
X143995004Y-82289500D01*
X143927965Y-82269815D01*
X143902261Y-82247809D01*
X143895118Y-82239760D01*
X143877968Y-82211956D01*
X143811076Y-82145064D01*
X143808631Y-82142309D01*
X143795249Y-82113904D01*
X143780208Y-82086358D01*
X143780480Y-82082553D01*
X143778854Y-82079102D01*
X143782952Y-82047982D01*
X143785192Y-82016666D01*
X143787562Y-82012977D01*
X143787977Y-82009830D01*
X143794670Y-82001917D01*
X143813693Y-81972319D01*
X143853694Y-81932318D01*
X143917968Y-81868044D01*
X144007003Y-81723697D01*
X144060349Y-81562708D01*
X144070500Y-81463345D01*
X144070499Y-80916656D01*
X144060349Y-80817292D01*
X144007003Y-80656303D01*
X144006999Y-80656297D01*
X144006998Y-80656294D01*
X143917970Y-80511959D01*
X143917967Y-80511955D01*
X143798044Y-80392032D01*
X143798040Y-80392029D01*
X143653705Y-80303001D01*
X143653699Y-80302998D01*
X143653697Y-80302997D01*
X143615425Y-80290315D01*
X143492709Y-80249651D01*
X143393346Y-80239500D01*
X142546662Y-80239500D01*
X142546644Y-80239501D01*
X142447292Y-80249650D01*
X142447289Y-80249651D01*
X142286305Y-80302996D01*
X142286294Y-80303001D01*
X142141959Y-80392029D01*
X142141955Y-80392032D01*
X142022032Y-80511955D01*
X142022029Y-80511959D01*
X141933001Y-80656294D01*
X141932996Y-80656305D01*
X141879651Y-80817290D01*
X141869500Y-80916647D01*
X141869500Y-81463337D01*
X141869501Y-81463355D01*
X141879650Y-81562707D01*
X141879651Y-81562710D01*
X141932996Y-81723694D01*
X141933001Y-81723705D01*
X142022029Y-81868040D01*
X142022032Y-81868044D01*
X142086306Y-81932318D01*
X142119791Y-81993641D01*
X142114807Y-82063333D01*
X142086307Y-82107679D01*
X141982032Y-82211955D01*
X141982029Y-82211959D01*
X141893001Y-82356294D01*
X141892996Y-82356305D01*
X141839651Y-82517290D01*
X141829500Y-82616647D01*
X141829500Y-82712254D01*
X141809815Y-82779293D01*
X141757011Y-82825048D01*
X141687853Y-82834992D01*
X141641351Y-82818371D01*
X141500570Y-82733267D01*
X141500566Y-82733265D01*
X141347433Y-82685548D01*
X141347435Y-82685548D01*
X141320812Y-82683128D01*
X141280881Y-82679500D01*
X141280878Y-82679500D01*
X140779111Y-82679500D01*
X140712573Y-82685546D01*
X140712566Y-82685548D01*
X140559433Y-82733265D01*
X140559429Y-82733267D01*
X140496649Y-82771219D01*
X140429094Y-82789055D01*
X140368351Y-82771219D01*
X140305570Y-82733267D01*
X140305566Y-82733265D01*
X140152433Y-82685548D01*
X140152435Y-82685548D01*
X140125812Y-82683128D01*
X140085881Y-82679500D01*
X140085878Y-82679500D01*
X139584111Y-82679500D01*
X139517573Y-82685546D01*
X139517566Y-82685548D01*
X139364434Y-82733265D01*
X139256119Y-82798743D01*
X139188564Y-82816578D01*
X139122090Y-82795060D01*
X139077803Y-82741019D01*
X139069763Y-82671613D01*
X139100523Y-82608879D01*
X139104266Y-82604967D01*
X142832416Y-78876818D01*
X142893739Y-78843333D01*
X142920097Y-78840499D01*
X143393338Y-78840499D01*
X143393344Y-78840499D01*
X143393352Y-78840498D01*
X143393355Y-78840498D01*
X143447760Y-78834940D01*
X143492708Y-78830349D01*
X143653697Y-78777003D01*
X143798044Y-78687968D01*
X143917968Y-78568044D01*
X144007003Y-78423697D01*
X144060349Y-78262708D01*
X144070500Y-78163345D01*
X144070499Y-77616656D01*
X144066524Y-77577747D01*
X144060349Y-77517292D01*
X144060348Y-77517289D01*
X144022089Y-77401830D01*
X144007003Y-77356303D01*
X144006999Y-77356297D01*
X144006998Y-77356294D01*
X143917970Y-77211959D01*
X143917967Y-77211955D01*
X143798044Y-77092032D01*
X143798040Y-77092029D01*
X143653705Y-77003001D01*
X143653699Y-77002998D01*
X143653697Y-77002997D01*
X143586077Y-76980590D01*
X143492709Y-76949651D01*
X143393346Y-76939500D01*
X142546662Y-76939500D01*
X142546644Y-76939501D01*
X142447292Y-76949650D01*
X142447289Y-76949651D01*
X142286305Y-77002996D01*
X142286294Y-77003001D01*
X142141959Y-77092029D01*
X142141955Y-77092032D01*
X142022032Y-77211955D01*
X142022029Y-77211959D01*
X141933001Y-77356294D01*
X141932996Y-77356305D01*
X141879651Y-77517290D01*
X141869500Y-77616647D01*
X141869500Y-78089902D01*
X141849815Y-78156941D01*
X141833181Y-78177583D01*
X137367582Y-82643181D01*
X137306259Y-82676666D01*
X137279902Y-82679500D01*
X137084111Y-82679500D01*
X137017573Y-82685546D01*
X137017566Y-82685548D01*
X136864433Y-82733265D01*
X136864429Y-82733267D01*
X136727170Y-82816242D01*
X136727165Y-82816246D01*
X136613746Y-82929665D01*
X136613742Y-82929670D01*
X136530767Y-83066929D01*
X136530765Y-83066933D01*
X136483048Y-83220065D01*
X136477000Y-83286621D01*
X136477000Y-83506636D01*
X136460387Y-83568636D01*
X136440424Y-83603212D01*
X136440423Y-83603213D01*
X136430728Y-83639397D01*
X136399499Y-83755943D01*
X136399499Y-83755945D01*
X136399499Y-83924046D01*
X136399500Y-83924059D01*
X136399500Y-84060234D01*
X136379815Y-84127273D01*
X136378602Y-84129125D01*
X136290609Y-84260814D01*
X136290602Y-84260827D01*
X136230264Y-84406498D01*
X136230261Y-84406510D01*
X136199500Y-84561153D01*
X136199500Y-84561158D01*
X136199500Y-84718842D01*
X136203444Y-84738671D01*
X136211946Y-84781414D01*
X136205718Y-84851005D01*
X136162854Y-84906182D01*
X136096964Y-84929426D01*
X136028967Y-84913358D01*
X136027207Y-84912336D01*
X135910396Y-84843255D01*
X135910393Y-84843254D01*
X135752573Y-84797402D01*
X135752567Y-84797401D01*
X135715701Y-84794500D01*
X135715694Y-84794500D01*
X134134306Y-84794500D01*
X134134298Y-84794500D01*
X134097432Y-84797401D01*
X134097426Y-84797402D01*
X133939606Y-84843254D01*
X133939603Y-84843255D01*
X133798137Y-84926917D01*
X133798129Y-84926923D01*
X133681923Y-85043129D01*
X133681917Y-85043137D01*
X133598255Y-85184603D01*
X133598254Y-85184606D01*
X133552402Y-85342426D01*
X133552401Y-85342432D01*
X133549499Y-85379316D01*
X133549410Y-85381582D01*
X133527105Y-85447796D01*
X133472542Y-85491439D01*
X133403046Y-85498655D01*
X133340681Y-85467153D01*
X133322404Y-85445597D01*
X133311789Y-85429711D01*
X133311786Y-85429707D01*
X133200292Y-85318213D01*
X133200288Y-85318210D01*
X133069185Y-85230609D01*
X133069172Y-85230602D01*
X132923501Y-85170264D01*
X132923489Y-85170261D01*
X132768845Y-85139500D01*
X132768842Y-85139500D01*
X132611158Y-85139500D01*
X132611153Y-85139500D01*
X132486109Y-85164373D01*
X132416518Y-85158146D01*
X132361340Y-85115283D01*
X132355192Y-85105888D01*
X132318081Y-85043135D01*
X132318076Y-85043129D01*
X132201870Y-84926923D01*
X132201862Y-84926917D01*
X132060396Y-84843255D01*
X132060393Y-84843254D01*
X131902573Y-84797402D01*
X131902567Y-84797401D01*
X131865701Y-84794500D01*
X131865694Y-84794500D01*
X130284306Y-84794500D01*
X130284298Y-84794500D01*
X130247432Y-84797401D01*
X130247426Y-84797402D01*
X130089606Y-84843254D01*
X130089603Y-84843255D01*
X129948137Y-84926917D01*
X129948129Y-84926923D01*
X129831923Y-85043129D01*
X129831917Y-85043137D01*
X129748255Y-85184603D01*
X129748254Y-85184606D01*
X129702402Y-85342426D01*
X129702401Y-85342432D01*
X129699500Y-85379298D01*
X129699500Y-85810701D01*
X129702401Y-85847567D01*
X129737724Y-85969149D01*
X129737524Y-86039018D01*
X129699581Y-86097688D01*
X129635943Y-86126531D01*
X129571195Y-86118304D01*
X129503501Y-86090264D01*
X129503489Y-86090261D01*
X129348845Y-86059500D01*
X129348842Y-86059500D01*
X129191158Y-86059500D01*
X129191155Y-86059500D01*
X129036510Y-86090261D01*
X129036498Y-86090264D01*
X128890827Y-86150602D01*
X128890814Y-86150609D01*
X128759711Y-86238210D01*
X128759707Y-86238213D01*
X128648213Y-86349707D01*
X128648210Y-86349711D01*
X128560609Y-86480814D01*
X128560602Y-86480827D01*
X128500264Y-86626498D01*
X128500261Y-86626510D01*
X128469500Y-86781153D01*
X128469500Y-86938846D01*
X128500261Y-87093489D01*
X128500264Y-87093501D01*
X128560602Y-87239172D01*
X128560609Y-87239185D01*
X128648210Y-87370288D01*
X128648213Y-87370292D01*
X128759707Y-87481786D01*
X128759711Y-87481789D01*
X128890814Y-87569390D01*
X128890827Y-87569397D01*
X129022971Y-87624132D01*
X129036503Y-87629737D01*
X129160894Y-87654480D01*
X129191153Y-87660499D01*
X129191156Y-87660500D01*
X129191158Y-87660500D01*
X129348844Y-87660500D01*
X129348845Y-87660499D01*
X129503497Y-87629737D01*
X129574500Y-87600326D01*
X129643966Y-87592858D01*
X129706445Y-87624132D01*
X129742098Y-87684221D01*
X129741027Y-87749482D01*
X129702401Y-87882432D01*
X129699500Y-87919298D01*
X129699500Y-88307402D01*
X129679815Y-88374441D01*
X129663181Y-88395083D01*
X127913722Y-90144541D01*
X127891525Y-90156661D01*
X127871566Y-90172201D01*
X127856528Y-90175771D01*
X127852399Y-90178026D01*
X127837226Y-90180354D01*
X127836685Y-90180403D01*
X127768143Y-90166846D01*
X127717812Y-90118385D01*
X127701500Y-90056909D01*
X127701500Y-87255061D01*
X127701501Y-87255048D01*
X127701501Y-87086945D01*
X127701501Y-87086944D01*
X127660577Y-86934217D01*
X127655656Y-86925694D01*
X127581524Y-86797291D01*
X127581518Y-86797283D01*
X127455930Y-86671695D01*
X127445200Y-86659454D01*
X127427734Y-86636666D01*
X127402943Y-86612432D01*
X127276705Y-86489032D01*
X127257292Y-86464551D01*
X127252179Y-86456101D01*
X127251744Y-86454602D01*
X127168081Y-86313135D01*
X127161996Y-86307050D01*
X127154216Y-86294191D01*
X127148980Y-86274391D01*
X127139155Y-86256421D01*
X127140228Y-86241299D01*
X127136353Y-86226643D01*
X127142653Y-86207154D01*
X127144104Y-86186726D01*
X127154474Y-86170589D01*
X127157846Y-86160161D01*
X127164888Y-86154384D01*
X127164940Y-86154304D01*
X127163298Y-86153031D01*
X127168075Y-86146870D01*
X127168081Y-86146865D01*
X127251744Y-86005398D01*
X127293650Y-85861158D01*
X127297597Y-85847573D01*
X127297598Y-85847567D01*
X127300500Y-85810694D01*
X127300500Y-85379306D01*
X127297598Y-85342431D01*
X127290770Y-85318930D01*
X127251745Y-85184606D01*
X127251744Y-85184603D01*
X127251744Y-85184602D01*
X127168081Y-85043135D01*
X127168079Y-85043133D01*
X127168076Y-85043129D01*
X127051870Y-84926923D01*
X127051862Y-84926917D01*
X126910396Y-84843255D01*
X126910393Y-84843254D01*
X126752573Y-84797402D01*
X126752567Y-84797401D01*
X126715701Y-84794500D01*
X126715694Y-84794500D01*
X125134306Y-84794500D01*
X125134298Y-84794500D01*
X125097432Y-84797401D01*
X125097426Y-84797402D01*
X124939606Y-84843254D01*
X124939605Y-84843254D01*
X124889926Y-84872634D01*
X124822202Y-84889815D01*
X124755939Y-84867655D01*
X124712177Y-84813189D01*
X124707033Y-84798002D01*
X124669577Y-84658215D01*
X124613541Y-84561158D01*
X124590520Y-84521284D01*
X124478716Y-84409480D01*
X124478713Y-84409478D01*
X123246915Y-83177680D01*
X123213430Y-83116357D01*
X123218414Y-83046665D01*
X123246913Y-83002320D01*
X125499792Y-80749441D01*
X125511509Y-80739117D01*
X125535043Y-80720884D01*
X125732767Y-80516487D01*
X125734091Y-80515142D01*
X125898713Y-80350521D01*
X125898716Y-80350520D01*
X126010520Y-80238716D01*
X126016270Y-80228754D01*
X126034529Y-80204544D01*
X126379438Y-79847999D01*
X126395661Y-79833910D01*
X126419563Y-79816545D01*
X126571545Y-79664563D01*
X126622021Y-79595088D01*
X126654313Y-79555110D01*
X126661914Y-79540180D01*
X126697880Y-79490678D01*
X126795458Y-79299170D01*
X126795660Y-79298547D01*
X126861875Y-79094759D01*
X126861875Y-79094758D01*
X126861876Y-79094755D01*
X126895500Y-78882467D01*
X126895500Y-78367533D01*
X126861876Y-78155245D01*
X126861875Y-78155241D01*
X126861875Y-78155240D01*
X126795459Y-77950832D01*
X126795458Y-77950829D01*
X126707315Y-77777840D01*
X126697880Y-77759322D01*
X126571545Y-77585437D01*
X126419563Y-77433455D01*
X126245678Y-77307120D01*
X126199121Y-77283398D01*
X126054170Y-77209541D01*
X126054167Y-77209540D01*
X125849757Y-77143124D01*
X125708229Y-77120708D01*
X125637467Y-77109500D01*
X125422533Y-77109500D01*
X125351770Y-77120708D01*
X125210243Y-77143124D01*
X125210240Y-77143124D01*
X125005832Y-77209540D01*
X125005829Y-77209541D01*
X124814321Y-77307120D01*
X124730981Y-77367671D01*
X124640437Y-77433455D01*
X124640435Y-77433457D01*
X124640434Y-77433457D01*
X124488457Y-77585434D01*
X124488457Y-77585435D01*
X124488455Y-77585437D01*
X124465782Y-77616644D01*
X124360318Y-77761802D01*
X124304988Y-77804467D01*
X124235374Y-77810446D01*
X124173579Y-77777840D01*
X124159682Y-77761802D01*
X124113849Y-77698719D01*
X124031545Y-77585437D01*
X123879563Y-77433455D01*
X123705678Y-77307120D01*
X123659121Y-77283398D01*
X123514170Y-77209541D01*
X123514167Y-77209540D01*
X123309757Y-77143124D01*
X123168229Y-77120708D01*
X123097467Y-77109500D01*
X122882533Y-77109500D01*
X122811770Y-77120708D01*
X122670243Y-77143124D01*
X122670240Y-77143124D01*
X122465832Y-77209540D01*
X122465829Y-77209541D01*
X122274321Y-77307120D01*
X122100438Y-77433454D01*
X122005910Y-77527982D01*
X121944586Y-77561466D01*
X121874895Y-77556482D01*
X121818962Y-77514610D01*
X121802047Y-77483632D01*
X121758798Y-77367673D01*
X121758793Y-77367664D01*
X121672547Y-77252455D01*
X121672544Y-77252452D01*
X121557335Y-77166206D01*
X121557328Y-77166202D01*
X121422482Y-77115908D01*
X121422483Y-77115908D01*
X121362883Y-77109501D01*
X121362881Y-77109500D01*
X121362873Y-77109500D01*
X121362864Y-77109500D01*
X119537129Y-77109500D01*
X119537123Y-77109501D01*
X119477516Y-77115908D01*
X119342671Y-77166202D01*
X119342664Y-77166206D01*
X119227455Y-77252452D01*
X119227452Y-77252455D01*
X119141206Y-77367664D01*
X119141202Y-77367671D01*
X119090908Y-77502517D01*
X119084501Y-77562116D01*
X119084500Y-77562135D01*
X119084500Y-78136281D01*
X119076151Y-78181012D01*
X118844422Y-78780143D01*
X118801879Y-78835568D01*
X118736125Y-78859194D01*
X118668037Y-78843520D01*
X118619230Y-78793523D01*
X118605203Y-78725076D01*
X118607880Y-78707819D01*
X118666045Y-78452978D01*
X118666047Y-78452966D01*
X118699999Y-78151633D01*
X118700000Y-78151631D01*
X118700000Y-77848368D01*
X118699999Y-77848366D01*
X118666047Y-77547033D01*
X118666045Y-77547017D01*
X118598565Y-77251366D01*
X118598561Y-77251354D01*
X118498407Y-76965133D01*
X118498401Y-76965119D01*
X118366827Y-76691903D01*
X118205484Y-76435127D01*
X118078127Y-76275425D01*
X116936290Y-77417262D01*
X116839033Y-77283398D01*
X116716602Y-77160967D01*
X116582736Y-77063708D01*
X117724573Y-75921871D01*
X117564872Y-75794515D01*
X117461392Y-75729494D01*
X117415101Y-75677159D01*
X117404453Y-75608106D01*
X117432828Y-75544257D01*
X117491217Y-75505885D01*
X117527364Y-75500500D01*
X149472636Y-75500500D01*
X149539675Y-75520185D01*
G37*
%TD.AperFunction*%
%TA.AperFunction,Conductor*%
G36*
X120624312Y-85557571D02*
G01*
X120678190Y-85602056D01*
X120699465Y-85668608D01*
X120699500Y-85671560D01*
X120699500Y-85810701D01*
X120702401Y-85847567D01*
X120702402Y-85847573D01*
X120748254Y-86005393D01*
X120748255Y-86005396D01*
X120748256Y-86005398D01*
X120773830Y-86048642D01*
X120831917Y-86146862D01*
X120836702Y-86153031D01*
X120834256Y-86154927D01*
X120860857Y-86203642D01*
X120855873Y-86273334D01*
X120835069Y-86305703D01*
X120836702Y-86306969D01*
X120831917Y-86313137D01*
X120748255Y-86454603D01*
X120748254Y-86454606D01*
X120702402Y-86612426D01*
X120702401Y-86612432D01*
X120699500Y-86649298D01*
X120699500Y-87080701D01*
X120702401Y-87117567D01*
X120702402Y-87117573D01*
X120748254Y-87275393D01*
X120748257Y-87275400D01*
X120790825Y-87347380D01*
X120792480Y-87353903D01*
X120796887Y-87358989D01*
X120800963Y-87387338D01*
X120808008Y-87415104D01*
X120805873Y-87421486D01*
X120806831Y-87428147D01*
X120794933Y-87454199D01*
X120785848Y-87481366D01*
X120780601Y-87485581D01*
X120777806Y-87491703D01*
X120753708Y-87507189D01*
X120731381Y-87525129D01*
X120723302Y-87526729D01*
X120719028Y-87529477D01*
X120684093Y-87534500D01*
X120465858Y-87534500D01*
X120439639Y-87530609D01*
X120439472Y-87531451D01*
X120278845Y-87499500D01*
X120278842Y-87499500D01*
X120121158Y-87499500D01*
X120121155Y-87499500D01*
X119966510Y-87530261D01*
X119966498Y-87530264D01*
X119820827Y-87590602D01*
X119820814Y-87590609D01*
X119689711Y-87678210D01*
X119689707Y-87678213D01*
X119578213Y-87789707D01*
X119578210Y-87789711D01*
X119490609Y-87920814D01*
X119490602Y-87920827D01*
X119430264Y-88066498D01*
X119430261Y-88066510D01*
X119399500Y-88221153D01*
X119399500Y-88378846D01*
X119430261Y-88533489D01*
X119430264Y-88533501D01*
X119490602Y-88679172D01*
X119490609Y-88679185D01*
X119578210Y-88810288D01*
X119578213Y-88810292D01*
X119689707Y-88921786D01*
X119689711Y-88921789D01*
X119820814Y-89009390D01*
X119820827Y-89009397D01*
X119966498Y-89069735D01*
X119966503Y-89069737D01*
X120121153Y-89100499D01*
X120121156Y-89100500D01*
X120121158Y-89100500D01*
X120278844Y-89100500D01*
X120278845Y-89100499D01*
X120433497Y-89069737D01*
X120531244Y-89029248D01*
X120600713Y-89021780D01*
X120663192Y-89053055D01*
X120698844Y-89113144D01*
X120702314Y-89153536D01*
X120699500Y-89189292D01*
X120699500Y-89505500D01*
X120679815Y-89572539D01*
X120627011Y-89618294D01*
X120575500Y-89629500D01*
X118424500Y-89629500D01*
X118357461Y-89609815D01*
X118311706Y-89557011D01*
X118300500Y-89505500D01*
X118300500Y-89189313D01*
X118300499Y-89189298D01*
X118297598Y-89152432D01*
X118297597Y-89152426D01*
X118256042Y-89009397D01*
X118251744Y-88994602D01*
X118168081Y-88853135D01*
X118168078Y-88853132D01*
X118163298Y-88846969D01*
X118165750Y-88845066D01*
X118139155Y-88796421D01*
X118144104Y-88726726D01*
X118164940Y-88694304D01*
X118163298Y-88693031D01*
X118168075Y-88686870D01*
X118168081Y-88686865D01*
X118251744Y-88545398D01*
X118296741Y-88390520D01*
X118297597Y-88387573D01*
X118297598Y-88387567D01*
X118298631Y-88374441D01*
X118300500Y-88350694D01*
X118300500Y-87919306D01*
X118300345Y-87917341D01*
X118300410Y-87917032D01*
X118300404Y-87916868D01*
X118300445Y-87916866D01*
X118314702Y-87848965D01*
X118336278Y-87819924D01*
X120375520Y-85780684D01*
X120454577Y-85643753D01*
X120455725Y-85639465D01*
X120457681Y-85636256D01*
X120457685Y-85636249D01*
X120457686Y-85636249D01*
X120492089Y-85579807D01*
X120554936Y-85549277D01*
X120624312Y-85557571D01*
G37*
%TD.AperFunction*%
%TD*%
%TA.AperFunction,Conductor*%
%TO.N,Net-(U5--)*%
G36*
X135220293Y-102272844D02*
G01*
X135221441Y-102273684D01*
X135525780Y-102526048D01*
X135529961Y-102533966D01*
X135527318Y-102542522D01*
X135526585Y-102543327D01*
X135396419Y-102673493D01*
X135391285Y-102676491D01*
X135136047Y-102747567D01*
X135128854Y-102747271D01*
X134386851Y-102473167D01*
X134380278Y-102467086D01*
X134379930Y-102458138D01*
X134386011Y-102451565D01*
X134388407Y-102450762D01*
X135211480Y-102271259D01*
X135220293Y-102272844D01*
G37*
%TD.AperFunction*%
%TD*%
%TA.AperFunction,Conductor*%
%TO.N,Net-(U8-+)*%
G36*
X125727921Y-103367959D02*
G01*
X125729177Y-103369024D01*
X125999379Y-103633150D01*
X126002899Y-103641384D01*
X125999567Y-103649696D01*
X125869566Y-103779697D01*
X125861981Y-103783104D01*
X125577683Y-103799842D01*
X125572517Y-103798971D01*
X124887967Y-103515318D01*
X124881636Y-103508985D01*
X124881637Y-103500030D01*
X124887970Y-103493699D01*
X124890667Y-103492945D01*
X125719224Y-103365826D01*
X125727921Y-103367959D01*
G37*
%TD.AperFunction*%
%TD*%
%TA.AperFunction,Conductor*%
%TO.N,Net-(J4-Pin_1)*%
G36*
X146057453Y-95424043D02*
G01*
X146064632Y-95429396D01*
X146066194Y-95436813D01*
X146040301Y-95647424D01*
X146036961Y-95654269D01*
X145903653Y-95787577D01*
X145895380Y-95791004D01*
X145891391Y-95790303D01*
X145128981Y-95513775D01*
X145122372Y-95507733D01*
X145121769Y-95499399D01*
X145206062Y-95220000D01*
X145211732Y-95213070D01*
X145220134Y-95212038D01*
X146057453Y-95424043D01*
G37*
%TD.AperFunction*%
%TD*%
%TA.AperFunction,Conductor*%
%TO.N,Net-(J3-Pin_1)*%
G36*
X146869114Y-93902420D02*
G01*
X148599958Y-94207672D01*
X148607510Y-94212483D01*
X148609448Y-94221226D01*
X148609069Y-94222762D01*
X148342479Y-95055377D01*
X148336692Y-95062211D01*
X148336680Y-95062217D01*
X147500919Y-95491379D01*
X147491995Y-95492110D01*
X147485167Y-95486315D01*
X147484923Y-95485810D01*
X146856439Y-94102306D01*
X146855391Y-94097467D01*
X146855391Y-93913943D01*
X146858818Y-93905670D01*
X146867091Y-93902243D01*
X146869114Y-93902420D01*
G37*
%TD.AperFunction*%
%TD*%
%TA.AperFunction,Conductor*%
%TO.N,Net-(J3-Pin_1)*%
G36*
X146041807Y-93684321D02*
G01*
X146042593Y-93684773D01*
X146379526Y-93896559D01*
X146384707Y-93903863D01*
X146385000Y-93906465D01*
X146385000Y-94091520D01*
X146381573Y-94099793D01*
X146376942Y-94102639D01*
X145996270Y-94227315D01*
X145988584Y-94227175D01*
X145241329Y-93951909D01*
X145234750Y-93945833D01*
X145234394Y-93936886D01*
X145240470Y-93930307D01*
X145241892Y-93929759D01*
X146032890Y-93683508D01*
X146041807Y-93684321D01*
G37*
%TD.AperFunction*%
%TD*%
%TA.AperFunction,Conductor*%
%TO.N,Net-(J1-Pin_3)*%
G36*
X125533087Y-78627058D02*
G01*
X125535979Y-78628925D01*
X126239999Y-79247466D01*
X126243953Y-79255500D01*
X126241067Y-79263977D01*
X126240686Y-79264390D01*
X125171721Y-80369420D01*
X125163506Y-80372983D01*
X125155177Y-80369694D01*
X125155039Y-80369558D01*
X125024265Y-80238784D01*
X125021224Y-80233491D01*
X124684309Y-78953962D01*
X124685516Y-78945091D01*
X124691500Y-78940035D01*
X125524139Y-78626764D01*
X125533087Y-78627058D01*
G37*
%TD.AperFunction*%
%TD*%
%TA.AperFunction,Conductor*%
%TO.N,Net-(U1-+)*%
G36*
X117615337Y-87555097D02*
G01*
X117618653Y-87557422D01*
X117751961Y-87690730D01*
X117755301Y-87697575D01*
X117781194Y-87908186D01*
X117778802Y-87916816D01*
X117772453Y-87920956D01*
X116935135Y-88132961D01*
X116926274Y-88131670D01*
X116921062Y-88124998D01*
X116836769Y-87845600D01*
X116837660Y-87836692D01*
X116843980Y-87831224D01*
X117606391Y-87554696D01*
X117615337Y-87555097D01*
G37*
%TD.AperFunction*%
%TD*%
%TA.AperFunction,Conductor*%
%TO.N,Net-(J1-Pin_2)*%
G36*
X122153994Y-78310881D02*
G01*
X122984391Y-78621927D01*
X122990936Y-78628039D01*
X122991825Y-78630943D01*
X123157147Y-79613831D01*
X123155140Y-79622558D01*
X123149674Y-79626743D01*
X121893702Y-80092146D01*
X121884754Y-80091807D01*
X121881364Y-80089448D01*
X121749882Y-79957966D01*
X121746455Y-79949693D01*
X121746778Y-79946965D01*
X122138527Y-78319103D01*
X122143793Y-78311863D01*
X122152638Y-78310467D01*
X122153994Y-78310881D01*
G37*
%TD.AperFunction*%
%TD*%
%TA.AperFunction,Conductor*%
%TO.N,Net-(J1-Pin_1)*%
G36*
X119596061Y-78271275D02*
G01*
X119808078Y-78358850D01*
X120444956Y-78621917D01*
X120451294Y-78628243D01*
X120451952Y-78630388D01*
X120656210Y-79629805D01*
X120654509Y-79638597D01*
X120648411Y-79643259D01*
X119050906Y-80170101D01*
X119041976Y-80169438D01*
X119038969Y-80167263D01*
X118908029Y-80036323D01*
X118904602Y-80028050D01*
X118905389Y-80023833D01*
X119580683Y-78277866D01*
X119586862Y-78271388D01*
X119595815Y-78271177D01*
X119596061Y-78271275D01*
G37*
%TD.AperFunction*%
%TD*%
%TA.AperFunction,Conductor*%
%TO.N,Net-(C2-Pad1)*%
G36*
X140286704Y-103443485D02*
G01*
X140286834Y-103443546D01*
X140668366Y-103626813D01*
X140674340Y-103633484D01*
X140675000Y-103637359D01*
X140675000Y-103822640D01*
X140671573Y-103830913D01*
X140668366Y-103833186D01*
X140286867Y-104016437D01*
X140277926Y-104016931D01*
X140277757Y-104016870D01*
X139528804Y-103740979D01*
X139522225Y-103734903D01*
X139521869Y-103725956D01*
X139527945Y-103719377D01*
X139528804Y-103719021D01*
X139770466Y-103630000D01*
X140277758Y-103443129D01*
X140286704Y-103443485D01*
G37*
%TD.AperFunction*%
%TD*%
%TA.AperFunction,Conductor*%
%TO.N,Net-(C2-Pad1)*%
G36*
X138777479Y-103431027D02*
G01*
X139462032Y-103714681D01*
X139468363Y-103721014D01*
X139468362Y-103729969D01*
X139462029Y-103736300D01*
X139459327Y-103737055D01*
X138630775Y-103864173D01*
X138622078Y-103862040D01*
X138620822Y-103860975D01*
X138350620Y-103596849D01*
X138347100Y-103588615D01*
X138350431Y-103580304D01*
X138480434Y-103450301D01*
X138488016Y-103446895D01*
X138772320Y-103430157D01*
X138777479Y-103431027D01*
G37*
%TD.AperFunction*%
%TD*%
%TA.AperFunction,Conductor*%
%TO.N,Net-(J1-Pin_3)*%
G36*
X139282242Y-94923129D02*
G01*
X140031195Y-95199021D01*
X140037774Y-95205097D01*
X140038130Y-95214044D01*
X140032054Y-95220623D01*
X140031195Y-95220979D01*
X139282242Y-95496870D01*
X139273295Y-95496514D01*
X139273132Y-95496437D01*
X138891634Y-95313186D01*
X138885660Y-95306515D01*
X138885000Y-95302640D01*
X138885000Y-95117359D01*
X138888427Y-95109086D01*
X138891632Y-95106814D01*
X139273133Y-94923561D01*
X139282073Y-94923068D01*
X139282242Y-94923129D01*
G37*
%TD.AperFunction*%
%TD*%
%TA.AperFunction,Conductor*%
%TO.N,Net-(U5--)*%
G36*
X133627479Y-102161027D02*
G01*
X134312032Y-102444681D01*
X134318363Y-102451014D01*
X134318362Y-102459969D01*
X134312029Y-102466300D01*
X134309327Y-102467055D01*
X133480775Y-102594173D01*
X133472078Y-102592040D01*
X133470822Y-102590975D01*
X133200620Y-102326849D01*
X133197100Y-102318615D01*
X133200431Y-102310304D01*
X133330434Y-102180301D01*
X133338016Y-102176895D01*
X133622320Y-102160157D01*
X133627479Y-102161027D01*
G37*
%TD.AperFunction*%
%TD*%
%TA.AperFunction,Conductor*%
%TO.N,Net-(U7-+)*%
G36*
X124072242Y-96633129D02*
G01*
X124821195Y-96909021D01*
X124827774Y-96915097D01*
X124828130Y-96924044D01*
X124822054Y-96930623D01*
X124821195Y-96930979D01*
X124072242Y-97206870D01*
X124063295Y-97206514D01*
X124063132Y-97206437D01*
X123681634Y-97023186D01*
X123675660Y-97016515D01*
X123675000Y-97012640D01*
X123675000Y-96827359D01*
X123678427Y-96819086D01*
X123681632Y-96816814D01*
X124063133Y-96633561D01*
X124072073Y-96633068D01*
X124072242Y-96633129D01*
G37*
%TD.AperFunction*%
%TD*%
%TA.AperFunction,Conductor*%
%TO.N,Net-(J1-Pin_3)*%
G36*
X134930153Y-88145114D02*
G01*
X134930168Y-88145150D01*
X135045133Y-88424948D01*
X135045108Y-88433903D01*
X135039543Y-88439860D01*
X134491121Y-88714071D01*
X134482189Y-88714706D01*
X134477616Y-88711879D01*
X134213111Y-88447374D01*
X134209684Y-88439101D01*
X134213111Y-88430828D01*
X134216895Y-88428297D01*
X134914865Y-88138789D01*
X134923818Y-88138785D01*
X134930153Y-88145114D01*
G37*
%TD.AperFunction*%
%TD*%
%TA.AperFunction,Conductor*%
%TO.N,Net-(U3--)*%
G36*
X134147242Y-86578129D02*
G01*
X134896195Y-86854021D01*
X134902774Y-86860097D01*
X134903130Y-86869044D01*
X134897054Y-86875623D01*
X134896195Y-86875979D01*
X134147242Y-87151870D01*
X134138295Y-87151514D01*
X134138132Y-87151437D01*
X133756634Y-86968186D01*
X133750660Y-86961515D01*
X133750000Y-86957640D01*
X133750000Y-86772359D01*
X133753427Y-86764086D01*
X133756632Y-86761814D01*
X134138133Y-86578561D01*
X134147073Y-86578068D01*
X134147242Y-86578129D01*
G37*
%TD.AperFunction*%
%TD*%
%TA.AperFunction,Conductor*%
%TO.N,Net-(C1-Pad1)*%
G36*
X121297242Y-87848129D02*
G01*
X122046195Y-88124021D01*
X122052774Y-88130097D01*
X122053130Y-88139044D01*
X122047054Y-88145623D01*
X122046195Y-88145979D01*
X121297242Y-88421870D01*
X121288295Y-88421514D01*
X121288132Y-88421437D01*
X120906634Y-88238186D01*
X120900660Y-88231515D01*
X120900000Y-88227640D01*
X120900000Y-88042359D01*
X120903427Y-88034086D01*
X120906632Y-88031814D01*
X121288133Y-87848561D01*
X121297073Y-87848068D01*
X121297242Y-87848129D01*
G37*
%TD.AperFunction*%
%TD*%
%TA.AperFunction,Conductor*%
%TO.N,Net-(D1-A)*%
G36*
X141241553Y-87957556D02*
G01*
X141248546Y-87963146D01*
X141250000Y-87968794D01*
X141250000Y-88153689D01*
X141246573Y-88161962D01*
X141244727Y-88163466D01*
X140916546Y-88379184D01*
X140907750Y-88380865D01*
X140906809Y-88380629D01*
X140107877Y-88144991D01*
X140100911Y-88139364D01*
X140099965Y-88130459D01*
X140105592Y-88123493D01*
X140107129Y-88122795D01*
X140853800Y-87847744D01*
X140861091Y-87847485D01*
X141241553Y-87957556D01*
G37*
%TD.AperFunction*%
%TD*%
%TA.AperFunction,Conductor*%
%TO.N,Net-(D1-K)*%
G36*
X146092190Y-87680907D02*
G01*
X146412478Y-87813623D01*
X146776072Y-87964284D01*
X146782403Y-87970617D01*
X146782402Y-87979572D01*
X146776069Y-87985903D01*
X146773222Y-87986679D01*
X145945743Y-88102998D01*
X145937073Y-88100756D01*
X145935879Y-88099723D01*
X145805569Y-87970617D01*
X145665506Y-87831849D01*
X145662042Y-87823593D01*
X145665430Y-87815305D01*
X145795188Y-87685547D01*
X145803371Y-87682121D01*
X146087628Y-87680017D01*
X146092190Y-87680907D01*
G37*
%TD.AperFunction*%
%TD*%
%TA.AperFunction,Conductor*%
%TO.N,Net-(J1-Pin_3)*%
G36*
X135711704Y-87848485D02*
G01*
X135711834Y-87848546D01*
X136093366Y-88031813D01*
X136099340Y-88038484D01*
X136100000Y-88042359D01*
X136100000Y-88227640D01*
X136096573Y-88235913D01*
X136093366Y-88238186D01*
X135711867Y-88421437D01*
X135702926Y-88421931D01*
X135702757Y-88421870D01*
X134953804Y-88145979D01*
X134947225Y-88139903D01*
X134946869Y-88130956D01*
X134952945Y-88124377D01*
X134953804Y-88124021D01*
X135195466Y-88035000D01*
X135702758Y-87848129D01*
X135711704Y-87848485D01*
G37*
%TD.AperFunction*%
%TD*%
%TA.AperFunction,Conductor*%
%TO.N,Net-(J1-Pin_3)*%
G36*
X139337479Y-93641027D02*
G01*
X140022032Y-93924681D01*
X140028363Y-93931014D01*
X140028362Y-93939969D01*
X140022029Y-93946300D01*
X140019327Y-93947055D01*
X139190775Y-94074173D01*
X139182078Y-94072040D01*
X139180822Y-94070975D01*
X138910620Y-93806849D01*
X138907100Y-93798615D01*
X138910431Y-93790304D01*
X139040434Y-93660301D01*
X139048016Y-93656895D01*
X139332320Y-93640157D01*
X139337479Y-93641027D01*
G37*
%TD.AperFunction*%
%TD*%
%TA.AperFunction,Conductor*%
%TO.N,Net-(J1-Pin_3)*%
G36*
X133572242Y-103443129D02*
G01*
X134321195Y-103719021D01*
X134327774Y-103725097D01*
X134328130Y-103734044D01*
X134322054Y-103740623D01*
X134321195Y-103740979D01*
X133572242Y-104016870D01*
X133563295Y-104016514D01*
X133563132Y-104016437D01*
X133181634Y-103833186D01*
X133175660Y-103826515D01*
X133175000Y-103822640D01*
X133175000Y-103637359D01*
X133178427Y-103629086D01*
X133181632Y-103626814D01*
X133563133Y-103443561D01*
X133572073Y-103443068D01*
X133572242Y-103443129D01*
G37*
%TD.AperFunction*%
%TD*%
%TA.AperFunction,Conductor*%
%TO.N,Net-(J1-Pin_3)*%
G36*
X140162011Y-94613427D02*
G01*
X140163473Y-94615210D01*
X140354688Y-94902032D01*
X140356426Y-94910817D01*
X140353240Y-94916781D01*
X140068287Y-95202685D01*
X140060019Y-95206126D01*
X140051741Y-95202713D01*
X140051713Y-95202685D01*
X139766759Y-94916781D01*
X139763346Y-94908503D01*
X139765310Y-94902034D01*
X139956527Y-94615210D01*
X139963967Y-94610227D01*
X139966262Y-94610000D01*
X140153738Y-94610000D01*
X140162011Y-94613427D01*
G37*
%TD.AperFunction*%
%TD*%
%TA.AperFunction,Conductor*%
%TO.N,Net-(J1-Pin_3)*%
G36*
X140068258Y-93947285D02*
G01*
X140221849Y-94101389D01*
X140353240Y-94233218D01*
X140356653Y-94241496D01*
X140354688Y-94247967D01*
X140163473Y-94534790D01*
X140156033Y-94539773D01*
X140153738Y-94540000D01*
X139966262Y-94540000D01*
X139957989Y-94536573D01*
X139956527Y-94534790D01*
X139765311Y-94247967D01*
X139763573Y-94239182D01*
X139766759Y-94233218D01*
X140051714Y-93947313D01*
X140059981Y-93943873D01*
X140068258Y-93947285D01*
G37*
%TD.AperFunction*%
%TD*%
%TA.AperFunction,Conductor*%
%TO.N,Net-(J1-Pin_3)*%
G36*
X129277479Y-103201027D02*
G01*
X129962032Y-103484681D01*
X129968363Y-103491014D01*
X129968362Y-103499969D01*
X129962029Y-103506300D01*
X129959327Y-103507055D01*
X129130775Y-103634173D01*
X129122078Y-103632040D01*
X129120822Y-103630975D01*
X128850620Y-103366849D01*
X128847100Y-103358615D01*
X128850431Y-103350304D01*
X128980434Y-103220301D01*
X128988016Y-103216895D01*
X129272320Y-103200157D01*
X129277479Y-103201027D01*
G37*
%TD.AperFunction*%
%TD*%
%TA.AperFunction,Conductor*%
%TO.N,Net-(J1-Pin_3)*%
G36*
X125147242Y-87848129D02*
G01*
X125896195Y-88124021D01*
X125902774Y-88130097D01*
X125903130Y-88139044D01*
X125897054Y-88145623D01*
X125896195Y-88145979D01*
X125147242Y-88421870D01*
X125138295Y-88421514D01*
X125138132Y-88421437D01*
X124756634Y-88238186D01*
X124750660Y-88231515D01*
X124750000Y-88227640D01*
X124750000Y-88042359D01*
X124753427Y-88034086D01*
X124756632Y-88031814D01*
X125138133Y-87848561D01*
X125147073Y-87848068D01*
X125147242Y-87848129D01*
G37*
%TD.AperFunction*%
%TD*%
%TA.AperFunction,Conductor*%
%TO.N,Net-(J1-Pin_3)*%
G36*
X125147242Y-87848129D02*
G01*
X125896195Y-88124021D01*
X125902774Y-88130097D01*
X125903130Y-88139044D01*
X125897054Y-88145623D01*
X125896195Y-88145979D01*
X125147242Y-88421870D01*
X125138295Y-88421514D01*
X125138132Y-88421437D01*
X124756634Y-88238186D01*
X124750660Y-88231515D01*
X124750000Y-88227640D01*
X124750000Y-88042359D01*
X124753427Y-88034086D01*
X124756632Y-88031814D01*
X125138133Y-87848561D01*
X125147073Y-87848068D01*
X125147242Y-87848129D01*
G37*
%TD.AperFunction*%
%TD*%
%TA.AperFunction,Conductor*%
%TO.N,Net-(J2-Pin_1)*%
G36*
X117633099Y-89698295D02*
G01*
X117639427Y-89704629D01*
X117639422Y-89713584D01*
X117636888Y-89717374D01*
X117507842Y-89846421D01*
X117372383Y-89981879D01*
X117364110Y-89985306D01*
X117358879Y-89984071D01*
X116810455Y-89709859D01*
X116804588Y-89703095D01*
X116804866Y-89694948D01*
X116919832Y-89415148D01*
X116926145Y-89408800D01*
X116935098Y-89408775D01*
X117633099Y-89698295D01*
G37*
%TD.AperFunction*%
%TD*%
%TA.AperFunction,Conductor*%
%TO.N,Net-(J2-Pin_1)*%
G36*
X140768099Y-96773295D02*
G01*
X140774427Y-96779629D01*
X140774422Y-96788584D01*
X140771888Y-96792374D01*
X140642842Y-96921421D01*
X140507383Y-97056879D01*
X140499110Y-97060306D01*
X140493879Y-97059071D01*
X139945455Y-96784859D01*
X139939588Y-96778095D01*
X139939866Y-96769948D01*
X140054832Y-96490148D01*
X140061145Y-96483800D01*
X140070098Y-96483775D01*
X140768099Y-96773295D01*
G37*
%TD.AperFunction*%
%TD*%
%TA.AperFunction,Conductor*%
%TO.N,Net-(J2-Pin_1)*%
G36*
X141707287Y-97982241D02*
G01*
X142970649Y-98644394D01*
X142976386Y-98651270D01*
X142975581Y-98660188D01*
X142975405Y-98660512D01*
X142503098Y-99496473D01*
X142496044Y-99501991D01*
X142496019Y-99501998D01*
X141663967Y-99731278D01*
X141655081Y-99730172D01*
X141649579Y-99723106D01*
X141649178Y-99720661D01*
X141588441Y-98651270D01*
X141558546Y-98124899D01*
X141561498Y-98116446D01*
X141561936Y-98115982D01*
X141693587Y-97984331D01*
X141701859Y-97980905D01*
X141707287Y-97982241D01*
G37*
%TD.AperFunction*%
%TD*%
%TA.AperFunction,Conductor*%
%TO.N,Net-(J2-Pin_1)*%
G36*
X145945772Y-89136337D02*
G01*
X146806879Y-89248808D01*
X146814638Y-89253277D01*
X146816994Y-89259144D01*
X146847264Y-89537579D01*
X146844752Y-89546175D01*
X146836898Y-89550475D01*
X146836133Y-89550533D01*
X145692081Y-89599478D01*
X145683669Y-89596408D01*
X145679892Y-89588289D01*
X145679881Y-89587789D01*
X145679881Y-89404790D01*
X145683239Y-89396585D01*
X145935917Y-89139733D01*
X145944162Y-89136239D01*
X145945772Y-89136337D01*
G37*
%TD.AperFunction*%
%TD*%
%TA.AperFunction,Conductor*%
%TO.N,Net-(J2-Pin_1)*%
G36*
X139556447Y-96294428D02*
G01*
X140024934Y-96467492D01*
X140031507Y-96473573D01*
X140031855Y-96482521D01*
X140025774Y-96489094D01*
X140023678Y-96489827D01*
X139205421Y-96691365D01*
X139196568Y-96690017D01*
X139195504Y-96689290D01*
X138873208Y-96442159D01*
X138868728Y-96434405D01*
X138871042Y-96425755D01*
X138872046Y-96424609D01*
X139002229Y-96294426D01*
X139006439Y-96291728D01*
X139273542Y-96192917D01*
X139281652Y-96192916D01*
X139556447Y-96294428D01*
G37*
%TD.AperFunction*%
%TD*%
%TA.AperFunction,Conductor*%
%TO.N,Net-(J2-Pin_1)*%
G36*
X125147162Y-89118096D02*
G01*
X125893206Y-89392345D01*
X125899789Y-89398416D01*
X125900151Y-89407364D01*
X125894080Y-89413947D01*
X125892620Y-89414506D01*
X125099259Y-89659422D01*
X125090343Y-89658588D01*
X125089302Y-89657967D01*
X124823129Y-89479884D01*
X124821362Y-89478433D01*
X124692435Y-89349506D01*
X124689008Y-89341233D01*
X124692435Y-89332960D01*
X124695646Y-89330685D01*
X125138141Y-89118553D01*
X125147081Y-89118067D01*
X125147162Y-89118096D01*
G37*
%TD.AperFunction*%
%TD*%
%TA.AperFunction,Conductor*%
%TO.N,Net-(J3-Pin_1)*%
G36*
X131013527Y-95370385D02*
G01*
X131020975Y-95373783D01*
X131150907Y-95503715D01*
X131154334Y-95511988D01*
X131150907Y-95520261D01*
X131150781Y-95520386D01*
X130879189Y-95783868D01*
X130870865Y-95787169D01*
X130869231Y-95787029D01*
X130040397Y-95657148D01*
X130032754Y-95652482D01*
X130030649Y-95643778D01*
X130035315Y-95636135D01*
X130037725Y-95634781D01*
X130722452Y-95351055D01*
X130727751Y-95350194D01*
X131013527Y-95370385D01*
G37*
%TD.AperFunction*%
%TD*%
%TA.AperFunction,Conductor*%
%TO.N,Net-(J3-Pin_1)*%
G36*
X123242320Y-86717191D02*
G01*
X123248911Y-86723250D01*
X123250000Y-86728178D01*
X123250000Y-86913312D01*
X123246573Y-86921585D01*
X123244239Y-86923393D01*
X122891092Y-87131432D01*
X122882224Y-87132678D01*
X122881474Y-87132458D01*
X122878376Y-87131432D01*
X122662763Y-87060015D01*
X122105761Y-86875520D01*
X122098985Y-86869665D01*
X122098333Y-86860734D01*
X122104188Y-86853958D01*
X122105385Y-86853438D01*
X122853374Y-86577901D01*
X122861436Y-86577893D01*
X123242320Y-86717191D01*
G37*
%TD.AperFunction*%
%TD*%
%TA.AperFunction,Conductor*%
%TO.N,Net-(J3-Pin_1)*%
G36*
X130297242Y-86578129D02*
G01*
X131046195Y-86854021D01*
X131052774Y-86860097D01*
X131053130Y-86869044D01*
X131047054Y-86875623D01*
X131046195Y-86875979D01*
X130297242Y-87151870D01*
X130288295Y-87151514D01*
X130288132Y-87151437D01*
X129906634Y-86968186D01*
X129900660Y-86961515D01*
X129900000Y-86957640D01*
X129900000Y-86772359D01*
X129903427Y-86764086D01*
X129906632Y-86761814D01*
X130288133Y-86578561D01*
X130297073Y-86578068D01*
X130297242Y-86578129D01*
G37*
%TD.AperFunction*%
%TD*%
%TA.AperFunction,Conductor*%
%TO.N,Net-(J3-Pin_1)*%
G36*
X139246304Y-86614677D02*
G01*
X140042247Y-86854223D01*
X140049180Y-86859888D01*
X140050078Y-86868798D01*
X140044412Y-86875732D01*
X140042928Y-86876401D01*
X139297415Y-87151802D01*
X139288467Y-87151454D01*
X139288025Y-87151239D01*
X139000171Y-87003723D01*
X138997234Y-87001584D01*
X138867351Y-86871701D01*
X138863924Y-86863428D01*
X138867351Y-86855155D01*
X138869266Y-86853607D01*
X139236592Y-86616060D01*
X139245399Y-86614445D01*
X139246304Y-86614677D01*
G37*
%TD.AperFunction*%
%TD*%
%TA.AperFunction,Conductor*%
%TO.N,Net-(J3-Pin_1)*%
G36*
X140884185Y-86593943D02*
G01*
X140884777Y-86594257D01*
X141175521Y-86759756D01*
X141291248Y-86825630D01*
X141296743Y-86832701D01*
X141295628Y-86841586D01*
X141293733Y-86844071D01*
X141164229Y-86973575D01*
X141161866Y-86975400D01*
X140862177Y-87150787D01*
X140853305Y-87152008D01*
X140852213Y-87151664D01*
X140105316Y-86875753D01*
X140098743Y-86869672D01*
X140098395Y-86860724D01*
X140104476Y-86854151D01*
X140105612Y-86853698D01*
X140875251Y-86593348D01*
X140884185Y-86593943D01*
G37*
%TD.AperFunction*%
%TD*%
%TA.AperFunction,Conductor*%
%TO.N,Net-(J3-Pin_1)*%
G36*
X129469443Y-101705510D02*
G01*
X130093820Y-101926128D01*
X130100478Y-101932115D01*
X130100978Y-101940984D01*
X130004552Y-102219731D01*
X129998609Y-102226429D01*
X129990498Y-102227216D01*
X129292142Y-102042147D01*
X129285023Y-102036715D01*
X129283829Y-102027840D01*
X129288218Y-102021404D01*
X129453848Y-101900000D01*
X129453848Y-101716543D01*
X129457275Y-101708270D01*
X129465548Y-101704843D01*
X129469443Y-101705510D01*
G37*
%TD.AperFunction*%
%TD*%
%TA.AperFunction,Conductor*%
%TO.N,Net-(J3-Pin_1)*%
G36*
X132088457Y-86405997D02*
G01*
X132089799Y-86407150D01*
X132219373Y-86536724D01*
X132222800Y-86544997D01*
X132219982Y-86552612D01*
X131953511Y-86863415D01*
X131945525Y-86867466D01*
X131944605Y-86867500D01*
X131084164Y-86865727D01*
X131075898Y-86862283D01*
X131072651Y-86855973D01*
X131025549Y-86576717D01*
X131027552Y-86567991D01*
X131035140Y-86563236D01*
X131035240Y-86563219D01*
X132079763Y-86403857D01*
X132088457Y-86405997D01*
G37*
%TD.AperFunction*%
%TD*%
%TA.AperFunction,Conductor*%
%TO.N,Net-(J3-Pin_1)*%
G36*
X140665875Y-102257941D02*
G01*
X140673191Y-102263105D01*
X140675000Y-102269354D01*
X140675000Y-102453920D01*
X140671573Y-102462193D01*
X140670025Y-102463494D01*
X140353778Y-102685631D01*
X140345038Y-102687582D01*
X140344013Y-102687355D01*
X139534528Y-102469559D01*
X139527429Y-102464101D01*
X139526270Y-102455221D01*
X139531728Y-102448122D01*
X139533519Y-102447283D01*
X140279159Y-102172612D01*
X140285776Y-102172179D01*
X140665875Y-102257941D01*
G37*
%TD.AperFunction*%
%TD*%
%TA.AperFunction,Conductor*%
%TO.N,Net-(J3-Pin_1)*%
G36*
X144432242Y-93653129D02*
G01*
X145181195Y-93929021D01*
X145187774Y-93935097D01*
X145188130Y-93944044D01*
X145182054Y-93950623D01*
X145181195Y-93950979D01*
X144432242Y-94226870D01*
X144423295Y-94226514D01*
X144423132Y-94226437D01*
X144041634Y-94043186D01*
X144035660Y-94036515D01*
X144035000Y-94032640D01*
X144035000Y-93847359D01*
X144038427Y-93839086D01*
X144041632Y-93836814D01*
X144423133Y-93653561D01*
X144432073Y-93653068D01*
X144432242Y-93653129D01*
G37*
%TD.AperFunction*%
%TD*%
%TA.AperFunction,Conductor*%
%TO.N,Net-(J3-Pin_1)*%
G36*
X151449514Y-86185645D02*
G01*
X151988813Y-86380000D01*
X152061117Y-86406057D01*
X152067738Y-86412086D01*
X152068181Y-86420964D01*
X151969623Y-86699751D01*
X151963635Y-86706409D01*
X151955512Y-86707138D01*
X151269214Y-86519868D01*
X151262135Y-86514384D01*
X151261007Y-86505501D01*
X151265536Y-86499030D01*
X151433848Y-86380000D01*
X151433848Y-86196653D01*
X151437275Y-86188380D01*
X151445548Y-86184953D01*
X151449514Y-86185645D01*
G37*
%TD.AperFunction*%
%TD*%
%TA.AperFunction,Conductor*%
%TO.N,Net-(J4-Pin_1)*%
G36*
X144341020Y-95114777D02*
G01*
X145201762Y-95208988D01*
X145209612Y-95213295D01*
X145212105Y-95219228D01*
X145245449Y-95497686D01*
X145243030Y-95506308D01*
X145235223Y-95510694D01*
X145234545Y-95510755D01*
X144112200Y-95579242D01*
X144103733Y-95576326D01*
X144099809Y-95568277D01*
X144099787Y-95567564D01*
X144099787Y-95384432D01*
X144102724Y-95376680D01*
X144330985Y-95118656D01*
X144339033Y-95114731D01*
X144341020Y-95114777D01*
G37*
%TD.AperFunction*%
%TD*%
%TA.AperFunction,Conductor*%
%TO.N,Net-(J5-Pin_1)*%
G36*
X116996329Y-99355232D02*
G01*
X117847012Y-100304167D01*
X117850000Y-100311976D01*
X117850000Y-100498976D01*
X117846573Y-100507249D01*
X117841887Y-100510113D01*
X116852403Y-100828801D01*
X116843477Y-100828075D01*
X116840621Y-100826014D01*
X116009343Y-100010151D01*
X116005839Y-100001910D01*
X116009188Y-99993606D01*
X116011097Y-99992033D01*
X116981186Y-99353269D01*
X116989977Y-99351582D01*
X116996329Y-99355232D01*
G37*
%TD.AperFunction*%
%TD*%
%TA.AperFunction,Conductor*%
%TO.N,Net-(J5-Pin_2)*%
G36*
X116630876Y-96801140D02*
G01*
X116631017Y-96801265D01*
X117396631Y-97500000D01*
X117729750Y-97804020D01*
X117733551Y-97812128D01*
X117733563Y-97812662D01*
X117733563Y-97998186D01*
X117730136Y-98006459D01*
X117724486Y-98009588D01*
X116325764Y-98331380D01*
X116316933Y-98329895D01*
X116312204Y-98324134D01*
X116191475Y-98006459D01*
X116001507Y-97506596D01*
X116001771Y-97497648D01*
X116003665Y-97494709D01*
X116614364Y-96802176D01*
X116622405Y-96798238D01*
X116630876Y-96801140D01*
G37*
%TD.AperFunction*%
%TD*%
%TA.AperFunction,Conductor*%
%TO.N,Net-(U1--)*%
G36*
X116202479Y-86566027D02*
G01*
X116887032Y-86849681D01*
X116893363Y-86856014D01*
X116893362Y-86864969D01*
X116887029Y-86871300D01*
X116884327Y-86872055D01*
X116055775Y-86999173D01*
X116047078Y-86997040D01*
X116045822Y-86995975D01*
X115775620Y-86731849D01*
X115772100Y-86723615D01*
X115775431Y-86715304D01*
X115905434Y-86585301D01*
X115913016Y-86581895D01*
X116197320Y-86565157D01*
X116202479Y-86566027D01*
G37*
%TD.AperFunction*%
%TD*%
%TA.AperFunction,Conductor*%
%TO.N,Net-(U2--)*%
G36*
X126802921Y-86732959D02*
G01*
X126804177Y-86734024D01*
X127074379Y-86998150D01*
X127077899Y-87006384D01*
X127074567Y-87014696D01*
X126944566Y-87144697D01*
X126936981Y-87148104D01*
X126652683Y-87164842D01*
X126647517Y-87163971D01*
X125962967Y-86880318D01*
X125956636Y-86873985D01*
X125956637Y-86865030D01*
X125962970Y-86858699D01*
X125965667Y-86857945D01*
X126794224Y-86730826D01*
X126802921Y-86732959D01*
G37*
%TD.AperFunction*%
%TD*%
%TA.AperFunction,Conductor*%
%TO.N,Net-(R6-Pad2)*%
G36*
X131073760Y-88138231D02*
G01*
X131078717Y-88144896D01*
X131158051Y-88424312D01*
X131157014Y-88433207D01*
X131150570Y-88438583D01*
X130337974Y-88715492D01*
X130329038Y-88714917D01*
X130325927Y-88712690D01*
X130193446Y-88580209D01*
X130190019Y-88571936D01*
X130190050Y-88571079D01*
X130200044Y-88435000D01*
X130207439Y-88334302D01*
X130211463Y-88326304D01*
X130216588Y-88323735D01*
X131064944Y-88136666D01*
X131073760Y-88138231D01*
G37*
%TD.AperFunction*%
%TD*%
%TA.AperFunction,Conductor*%
%TO.N,Net-(R6-Pad2)*%
G36*
X131861704Y-87848485D02*
G01*
X131861834Y-87848546D01*
X132243366Y-88031813D01*
X132249340Y-88038484D01*
X132250000Y-88042359D01*
X132250000Y-88227640D01*
X132246573Y-88235913D01*
X132243366Y-88238186D01*
X131861867Y-88421437D01*
X131852926Y-88421931D01*
X131852757Y-88421870D01*
X131103804Y-88145979D01*
X131097225Y-88139903D01*
X131096869Y-88130956D01*
X131102945Y-88124377D01*
X131103804Y-88124021D01*
X131345466Y-88035000D01*
X131852758Y-87848129D01*
X131861704Y-87848485D01*
G37*
%TD.AperFunction*%
%TD*%
%TA.AperFunction,Conductor*%
%TO.N,Net-(U3--)*%
G36*
X135936982Y-86581895D02*
G01*
X135944566Y-86585302D01*
X136074473Y-86715209D01*
X136077900Y-86723482D01*
X136074473Y-86731755D01*
X136074379Y-86731849D01*
X135804177Y-86995975D01*
X135795865Y-86999307D01*
X135794224Y-86999173D01*
X134965672Y-86872055D01*
X134958014Y-86867413D01*
X134955881Y-86858716D01*
X134960523Y-86851058D01*
X134962961Y-86849684D01*
X135647521Y-86566027D01*
X135652678Y-86565157D01*
X135936982Y-86581895D01*
G37*
%TD.AperFunction*%
%TD*%
%TA.AperFunction,Conductor*%
%TO.N,Net-(U4--)*%
G36*
X147693023Y-86572891D02*
G01*
X147694186Y-86573855D01*
X147974339Y-86838406D01*
X147978001Y-86846578D01*
X147974813Y-86854946D01*
X147974579Y-86855186D01*
X147844752Y-86985013D01*
X147837326Y-86988409D01*
X147542765Y-87009799D01*
X147537439Y-87008939D01*
X147487893Y-86988409D01*
X147165803Y-86854946D01*
X146852553Y-86725146D01*
X146846222Y-86718813D01*
X146846223Y-86709858D01*
X146852556Y-86703527D01*
X146855187Y-86702783D01*
X147684314Y-86570807D01*
X147693023Y-86572891D01*
G37*
%TD.AperFunction*%
%TD*%
%TA.AperFunction,Conductor*%
%TO.N,Net-(U7--)*%
G36*
X129222242Y-96633129D02*
G01*
X129971195Y-96909021D01*
X129977774Y-96915097D01*
X129978130Y-96924044D01*
X129972054Y-96930623D01*
X129971195Y-96930979D01*
X129222242Y-97206870D01*
X129213295Y-97206514D01*
X129213132Y-97206437D01*
X128831634Y-97023186D01*
X128825660Y-97016515D01*
X128825000Y-97012640D01*
X128825000Y-96827359D01*
X128828427Y-96819086D01*
X128831632Y-96816814D01*
X129213133Y-96633561D01*
X129222073Y-96633068D01*
X129222242Y-96633129D01*
G37*
%TD.AperFunction*%
%TD*%
%TA.AperFunction,Conductor*%
%TO.N,Net-(U7--)*%
G36*
X129130774Y-96785825D02*
G01*
X129959327Y-96912944D01*
X129966985Y-96917586D01*
X129969118Y-96926283D01*
X129964476Y-96933941D01*
X129962032Y-96935318D01*
X129277483Y-97218971D01*
X129272316Y-97219842D01*
X128988018Y-97203104D01*
X128980433Y-97199697D01*
X128850526Y-97069790D01*
X128847099Y-97061517D01*
X128850526Y-97053244D01*
X128850620Y-97053150D01*
X128980406Y-96926283D01*
X129120822Y-96789023D01*
X129129134Y-96785692D01*
X129130774Y-96785825D01*
G37*
%TD.AperFunction*%
%TD*%
%TA.AperFunction,Conductor*%
%TO.N,Net-(U7--)*%
G36*
X125727921Y-95517959D02*
G01*
X125729177Y-95519024D01*
X125999379Y-95783150D01*
X126002899Y-95791384D01*
X125999567Y-95799696D01*
X125869566Y-95929697D01*
X125861981Y-95933104D01*
X125577683Y-95949842D01*
X125572517Y-95948971D01*
X124887967Y-95665318D01*
X124881636Y-95658985D01*
X124881637Y-95650030D01*
X124887970Y-95643699D01*
X124890667Y-95642945D01*
X125719224Y-95515826D01*
X125727921Y-95517959D01*
G37*
%TD.AperFunction*%
%TD*%
%TA.AperFunction,Conductor*%
%TO.N,Net-(U8--)*%
G36*
X125573424Y-101650087D02*
G01*
X125576615Y-101652353D01*
X125709451Y-101785189D01*
X125712878Y-101793371D01*
X125714627Y-102018864D01*
X125711264Y-102027164D01*
X125705593Y-102030347D01*
X124860094Y-102228179D01*
X124851257Y-102226727D01*
X124846194Y-102220055D01*
X124764917Y-101940653D01*
X124765896Y-101931752D01*
X124772290Y-101926341D01*
X125564484Y-101649581D01*
X125573424Y-101650087D01*
G37*
%TD.AperFunction*%
%TD*%
%TA.AperFunction,Conductor*%
%TO.N,Net-(U8--)*%
G36*
X124848725Y-102233329D02*
G01*
X124853937Y-102240001D01*
X124938230Y-102519397D01*
X124937339Y-102528307D01*
X124931018Y-102533775D01*
X124168608Y-102810303D01*
X124159662Y-102809902D01*
X124156346Y-102807577D01*
X124023038Y-102674269D01*
X124019698Y-102667425D01*
X123993805Y-102456811D01*
X123996197Y-102448183D01*
X124002545Y-102444043D01*
X124839864Y-102232038D01*
X124848725Y-102233329D01*
G37*
%TD.AperFunction*%
%TD*%
%TA.AperFunction,Conductor*%
%TO.N,Net-(R11-Pad2)*%
G36*
X152812453Y-88194043D02*
G01*
X152819632Y-88199396D01*
X152821194Y-88206813D01*
X152795301Y-88417424D01*
X152791961Y-88424269D01*
X152658653Y-88557577D01*
X152650380Y-88561004D01*
X152646391Y-88560303D01*
X151883981Y-88283775D01*
X151877372Y-88277733D01*
X151876769Y-88269399D01*
X151961062Y-87990000D01*
X151966732Y-87983070D01*
X151975134Y-87982038D01*
X152812453Y-88194043D01*
G37*
%TD.AperFunction*%
%TD*%
M02*
