M48
; DRILL file {KiCad 9.0.1} date 2026-03-10T16:59:23+0100
; FORMAT={-:-/ absolute / metric / decimal}
; #@! TF.CreationDate,2026-03-10T16:59:23+01:00
; #@! TF.GenerationSoftware,Kicad,Pcbnew,9.0.1
; #@! TF.FileFunction,Plated,1,2,PTH
FMAT,2
METRIC
; #@! TA.AperFunction,Plated,PTH,ViaDrill
T1C0.300
; #@! TA.AperFunction,Plated,PTH,ComponentDrill
T2C1.000
; #@! TA.AperFunction,Plated,PTH,ComponentDrill
T3C1.020
; #@! TA.AperFunction,Plated,PTH,ComponentDrill
T4C2.200
%
G90
G05
T1
X118.74Y-91.77
X120.03Y-86.54
X120.2Y-88.3
X123.45Y-86.82
X123.93Y-90.23
X123.94Y-88.82
X124.82Y-104.78
X124.85Y-98.19
X125.94Y-91.6
X128.19Y-102.565
X128.84Y-101.8
X129.27Y-86.86
X129.85Y-107.17
X131.7Y-94.83
X132.69Y-85.94
X132.77Y-103.81
X132.95Y-89.03
X134.35Y-105.0
X135.85Y-90.97
X137.0Y-84.64
X137.91Y-89.11
X138.55Y-87.31
X138.59Y-96.02
X139.61Y-99.22
X139.96Y-97.73
X141.12Y-102.36
X141.54Y-88.06
X142.4Y-87.19
X142.89Y-104.77
X143.093Y-93.94
X143.35Y-95.48
X143.89Y-87.79
X145.18Y-89.5
X145.21Y-82.93
X145.96Y-100.99
X148.86Y-98.06
X150.85Y-86.28
X151.44Y-91.88
T2
X116.0Y-97.5
X116.0Y-100.0
X142.5Y-99.5
X148.34Y-95.06
X152.12Y-96.47
T3
X120.45Y-78.625
X122.99Y-78.625
X125.53Y-78.625
T4
X116.0Y-78.0
X116.0Y-106.0
X151.0Y-78.0
X151.0Y-106.0
M30
