%TF.GenerationSoftware,KiCad,Pcbnew,9.0.1*%
%TF.CreationDate,2026-03-10T16:59:17+01:00*%
%TF.ProjectId,EMG_sensor,454d475f-7365-46e7-936f-722e6b696361,rev?*%
%TF.SameCoordinates,Original*%
%TF.FileFunction,Legend,Top*%
%TF.FilePolarity,Positive*%
%FSLAX46Y46*%
G04 Gerber Fmt 4.6, Leading zero omitted, Abs format (unit mm)*
G04 Created by KiCad (PCBNEW 9.0.1) date 2026-03-10 16:59:17*
%MOMM*%
%LPD*%
G01*
G04 APERTURE LIST*
%ADD10C,0.150000*%
%ADD11C,0.120000*%
G04 APERTURE END LIST*
D10*
X151716666Y-98484819D02*
X151716666Y-99199104D01*
X151716666Y-99199104D02*
X151669047Y-99341961D01*
X151669047Y-99341961D02*
X151573809Y-99437200D01*
X151573809Y-99437200D02*
X151430952Y-99484819D01*
X151430952Y-99484819D02*
X151335714Y-99484819D01*
X152621428Y-98818152D02*
X152621428Y-99484819D01*
X152383333Y-98437200D02*
X152145238Y-99151485D01*
X152145238Y-99151485D02*
X152764285Y-99151485D01*
X147769580Y-100266666D02*
X147817200Y-100314285D01*
X147817200Y-100314285D02*
X147864819Y-100457142D01*
X147864819Y-100457142D02*
X147864819Y-100552380D01*
X147864819Y-100552380D02*
X147817200Y-100695237D01*
X147817200Y-100695237D02*
X147721961Y-100790475D01*
X147721961Y-100790475D02*
X147626723Y-100838094D01*
X147626723Y-100838094D02*
X147436247Y-100885713D01*
X147436247Y-100885713D02*
X147293390Y-100885713D01*
X147293390Y-100885713D02*
X147102914Y-100838094D01*
X147102914Y-100838094D02*
X147007676Y-100790475D01*
X147007676Y-100790475D02*
X146912438Y-100695237D01*
X146912438Y-100695237D02*
X146864819Y-100552380D01*
X146864819Y-100552380D02*
X146864819Y-100457142D01*
X146864819Y-100457142D02*
X146912438Y-100314285D01*
X146912438Y-100314285D02*
X146960057Y-100266666D01*
X146960057Y-99885713D02*
X146912438Y-99838094D01*
X146912438Y-99838094D02*
X146864819Y-99742856D01*
X146864819Y-99742856D02*
X146864819Y-99504761D01*
X146864819Y-99504761D02*
X146912438Y-99409523D01*
X146912438Y-99409523D02*
X146960057Y-99361904D01*
X146960057Y-99361904D02*
X147055295Y-99314285D01*
X147055295Y-99314285D02*
X147150533Y-99314285D01*
X147150533Y-99314285D02*
X147293390Y-99361904D01*
X147293390Y-99361904D02*
X147864819Y-99933332D01*
X147864819Y-99933332D02*
X147864819Y-99314285D01*
X119753333Y-92559580D02*
X119705714Y-92607200D01*
X119705714Y-92607200D02*
X119562857Y-92654819D01*
X119562857Y-92654819D02*
X119467619Y-92654819D01*
X119467619Y-92654819D02*
X119324762Y-92607200D01*
X119324762Y-92607200D02*
X119229524Y-92511961D01*
X119229524Y-92511961D02*
X119181905Y-92416723D01*
X119181905Y-92416723D02*
X119134286Y-92226247D01*
X119134286Y-92226247D02*
X119134286Y-92083390D01*
X119134286Y-92083390D02*
X119181905Y-91892914D01*
X119181905Y-91892914D02*
X119229524Y-91797676D01*
X119229524Y-91797676D02*
X119324762Y-91702438D01*
X119324762Y-91702438D02*
X119467619Y-91654819D01*
X119467619Y-91654819D02*
X119562857Y-91654819D01*
X119562857Y-91654819D02*
X119705714Y-91702438D01*
X119705714Y-91702438D02*
X119753333Y-91750057D01*
X120705714Y-92654819D02*
X120134286Y-92654819D01*
X120420000Y-92654819D02*
X120420000Y-91654819D01*
X120420000Y-91654819D02*
X120324762Y-91797676D01*
X120324762Y-91797676D02*
X120229524Y-91892914D01*
X120229524Y-91892914D02*
X120134286Y-91940533D01*
X145384819Y-85278094D02*
X144384819Y-85278094D01*
X144384819Y-85278094D02*
X144384819Y-85039999D01*
X144384819Y-85039999D02*
X144432438Y-84897142D01*
X144432438Y-84897142D02*
X144527676Y-84801904D01*
X144527676Y-84801904D02*
X144622914Y-84754285D01*
X144622914Y-84754285D02*
X144813390Y-84706666D01*
X144813390Y-84706666D02*
X144956247Y-84706666D01*
X144956247Y-84706666D02*
X145146723Y-84754285D01*
X145146723Y-84754285D02*
X145241961Y-84801904D01*
X145241961Y-84801904D02*
X145337200Y-84897142D01*
X145337200Y-84897142D02*
X145384819Y-85039999D01*
X145384819Y-85039999D02*
X145384819Y-85278094D01*
X144480057Y-84325713D02*
X144432438Y-84278094D01*
X144432438Y-84278094D02*
X144384819Y-84182856D01*
X144384819Y-84182856D02*
X144384819Y-83944761D01*
X144384819Y-83944761D02*
X144432438Y-83849523D01*
X144432438Y-83849523D02*
X144480057Y-83801904D01*
X144480057Y-83801904D02*
X144575295Y-83754285D01*
X144575295Y-83754285D02*
X144670533Y-83754285D01*
X144670533Y-83754285D02*
X144813390Y-83801904D01*
X144813390Y-83801904D02*
X145384819Y-84373332D01*
X145384819Y-84373332D02*
X145384819Y-83754285D01*
X145424819Y-80278094D02*
X144424819Y-80278094D01*
X144424819Y-80278094D02*
X144424819Y-80039999D01*
X144424819Y-80039999D02*
X144472438Y-79897142D01*
X144472438Y-79897142D02*
X144567676Y-79801904D01*
X144567676Y-79801904D02*
X144662914Y-79754285D01*
X144662914Y-79754285D02*
X144853390Y-79706666D01*
X144853390Y-79706666D02*
X144996247Y-79706666D01*
X144996247Y-79706666D02*
X145186723Y-79754285D01*
X145186723Y-79754285D02*
X145281961Y-79801904D01*
X145281961Y-79801904D02*
X145377200Y-79897142D01*
X145377200Y-79897142D02*
X145424819Y-80039999D01*
X145424819Y-80039999D02*
X145424819Y-80278094D01*
X145424819Y-78754285D02*
X145424819Y-79325713D01*
X145424819Y-79039999D02*
X144424819Y-79039999D01*
X144424819Y-79039999D02*
X144567676Y-79135237D01*
X144567676Y-79135237D02*
X144662914Y-79230475D01*
X144662914Y-79230475D02*
X144710533Y-79325713D01*
X134387142Y-100124819D02*
X134053809Y-99648628D01*
X133815714Y-100124819D02*
X133815714Y-99124819D01*
X133815714Y-99124819D02*
X134196666Y-99124819D01*
X134196666Y-99124819D02*
X134291904Y-99172438D01*
X134291904Y-99172438D02*
X134339523Y-99220057D01*
X134339523Y-99220057D02*
X134387142Y-99315295D01*
X134387142Y-99315295D02*
X134387142Y-99458152D01*
X134387142Y-99458152D02*
X134339523Y-99553390D01*
X134339523Y-99553390D02*
X134291904Y-99601009D01*
X134291904Y-99601009D02*
X134196666Y-99648628D01*
X134196666Y-99648628D02*
X133815714Y-99648628D01*
X135339523Y-100124819D02*
X134768095Y-100124819D01*
X135053809Y-100124819D02*
X135053809Y-99124819D01*
X135053809Y-99124819D02*
X134958571Y-99267676D01*
X134958571Y-99267676D02*
X134863333Y-99362914D01*
X134863333Y-99362914D02*
X134768095Y-99410533D01*
X135672857Y-99124819D02*
X136291904Y-99124819D01*
X136291904Y-99124819D02*
X135958571Y-99505771D01*
X135958571Y-99505771D02*
X136101428Y-99505771D01*
X136101428Y-99505771D02*
X136196666Y-99553390D01*
X136196666Y-99553390D02*
X136244285Y-99601009D01*
X136244285Y-99601009D02*
X136291904Y-99696247D01*
X136291904Y-99696247D02*
X136291904Y-99934342D01*
X136291904Y-99934342D02*
X136244285Y-100029580D01*
X136244285Y-100029580D02*
X136196666Y-100077200D01*
X136196666Y-100077200D02*
X136101428Y-100124819D01*
X136101428Y-100124819D02*
X135815714Y-100124819D01*
X135815714Y-100124819D02*
X135720476Y-100077200D01*
X135720476Y-100077200D02*
X135672857Y-100029580D01*
X149537142Y-92664819D02*
X149203809Y-92188628D01*
X148965714Y-92664819D02*
X148965714Y-91664819D01*
X148965714Y-91664819D02*
X149346666Y-91664819D01*
X149346666Y-91664819D02*
X149441904Y-91712438D01*
X149441904Y-91712438D02*
X149489523Y-91760057D01*
X149489523Y-91760057D02*
X149537142Y-91855295D01*
X149537142Y-91855295D02*
X149537142Y-91998152D01*
X149537142Y-91998152D02*
X149489523Y-92093390D01*
X149489523Y-92093390D02*
X149441904Y-92141009D01*
X149441904Y-92141009D02*
X149346666Y-92188628D01*
X149346666Y-92188628D02*
X148965714Y-92188628D01*
X150489523Y-92664819D02*
X149918095Y-92664819D01*
X150203809Y-92664819D02*
X150203809Y-91664819D01*
X150203809Y-91664819D02*
X150108571Y-91807676D01*
X150108571Y-91807676D02*
X150013333Y-91902914D01*
X150013333Y-91902914D02*
X149918095Y-91950533D01*
X151441904Y-92664819D02*
X150870476Y-92664819D01*
X151156190Y-92664819D02*
X151156190Y-91664819D01*
X151156190Y-91664819D02*
X151060952Y-91807676D01*
X151060952Y-91807676D02*
X150965714Y-91902914D01*
X150965714Y-91902914D02*
X150870476Y-91950533D01*
X114773333Y-83554819D02*
X114440000Y-83078628D01*
X114201905Y-83554819D02*
X114201905Y-82554819D01*
X114201905Y-82554819D02*
X114582857Y-82554819D01*
X114582857Y-82554819D02*
X114678095Y-82602438D01*
X114678095Y-82602438D02*
X114725714Y-82650057D01*
X114725714Y-82650057D02*
X114773333Y-82745295D01*
X114773333Y-82745295D02*
X114773333Y-82888152D01*
X114773333Y-82888152D02*
X114725714Y-82983390D01*
X114725714Y-82983390D02*
X114678095Y-83031009D01*
X114678095Y-83031009D02*
X114582857Y-83078628D01*
X114582857Y-83078628D02*
X114201905Y-83078628D01*
X115725714Y-83554819D02*
X115154286Y-83554819D01*
X115440000Y-83554819D02*
X115440000Y-82554819D01*
X115440000Y-82554819D02*
X115344762Y-82697676D01*
X115344762Y-82697676D02*
X115249524Y-82792914D01*
X115249524Y-82792914D02*
X115154286Y-82840533D01*
X133544819Y-84806666D02*
X133068628Y-85139999D01*
X133544819Y-85378094D02*
X132544819Y-85378094D01*
X132544819Y-85378094D02*
X132544819Y-84997142D01*
X132544819Y-84997142D02*
X132592438Y-84901904D01*
X132592438Y-84901904D02*
X132640057Y-84854285D01*
X132640057Y-84854285D02*
X132735295Y-84806666D01*
X132735295Y-84806666D02*
X132878152Y-84806666D01*
X132878152Y-84806666D02*
X132973390Y-84854285D01*
X132973390Y-84854285D02*
X133021009Y-84901904D01*
X133021009Y-84901904D02*
X133068628Y-84997142D01*
X133068628Y-84997142D02*
X133068628Y-85378094D01*
X132544819Y-84473332D02*
X132544819Y-83806666D01*
X132544819Y-83806666D02*
X133544819Y-84235237D01*
X146757142Y-92674819D02*
X146423809Y-92198628D01*
X146185714Y-92674819D02*
X146185714Y-91674819D01*
X146185714Y-91674819D02*
X146566666Y-91674819D01*
X146566666Y-91674819D02*
X146661904Y-91722438D01*
X146661904Y-91722438D02*
X146709523Y-91770057D01*
X146709523Y-91770057D02*
X146757142Y-91865295D01*
X146757142Y-91865295D02*
X146757142Y-92008152D01*
X146757142Y-92008152D02*
X146709523Y-92103390D01*
X146709523Y-92103390D02*
X146661904Y-92151009D01*
X146661904Y-92151009D02*
X146566666Y-92198628D01*
X146566666Y-92198628D02*
X146185714Y-92198628D01*
X147709523Y-92674819D02*
X147138095Y-92674819D01*
X147423809Y-92674819D02*
X147423809Y-91674819D01*
X147423809Y-91674819D02*
X147328571Y-91817676D01*
X147328571Y-91817676D02*
X147233333Y-91912914D01*
X147233333Y-91912914D02*
X147138095Y-91960533D01*
X148328571Y-91674819D02*
X148423809Y-91674819D01*
X148423809Y-91674819D02*
X148519047Y-91722438D01*
X148519047Y-91722438D02*
X148566666Y-91770057D01*
X148566666Y-91770057D02*
X148614285Y-91865295D01*
X148614285Y-91865295D02*
X148661904Y-92055771D01*
X148661904Y-92055771D02*
X148661904Y-92293866D01*
X148661904Y-92293866D02*
X148614285Y-92484342D01*
X148614285Y-92484342D02*
X148566666Y-92579580D01*
X148566666Y-92579580D02*
X148519047Y-92627200D01*
X148519047Y-92627200D02*
X148423809Y-92674819D01*
X148423809Y-92674819D02*
X148328571Y-92674819D01*
X148328571Y-92674819D02*
X148233333Y-92627200D01*
X148233333Y-92627200D02*
X148185714Y-92579580D01*
X148185714Y-92579580D02*
X148138095Y-92484342D01*
X148138095Y-92484342D02*
X148090476Y-92293866D01*
X148090476Y-92293866D02*
X148090476Y-92055771D01*
X148090476Y-92055771D02*
X148138095Y-91865295D01*
X148138095Y-91865295D02*
X148185714Y-91770057D01*
X148185714Y-91770057D02*
X148233333Y-91722438D01*
X148233333Y-91722438D02*
X148328571Y-91674819D01*
X131727142Y-97524819D02*
X131393809Y-97048628D01*
X131155714Y-97524819D02*
X131155714Y-96524819D01*
X131155714Y-96524819D02*
X131536666Y-96524819D01*
X131536666Y-96524819D02*
X131631904Y-96572438D01*
X131631904Y-96572438D02*
X131679523Y-96620057D01*
X131679523Y-96620057D02*
X131727142Y-96715295D01*
X131727142Y-96715295D02*
X131727142Y-96858152D01*
X131727142Y-96858152D02*
X131679523Y-96953390D01*
X131679523Y-96953390D02*
X131631904Y-97001009D01*
X131631904Y-97001009D02*
X131536666Y-97048628D01*
X131536666Y-97048628D02*
X131155714Y-97048628D01*
X132679523Y-97524819D02*
X132108095Y-97524819D01*
X132393809Y-97524819D02*
X132393809Y-96524819D01*
X132393809Y-96524819D02*
X132298571Y-96667676D01*
X132298571Y-96667676D02*
X132203333Y-96762914D01*
X132203333Y-96762914D02*
X132108095Y-96810533D01*
X133536666Y-96524819D02*
X133346190Y-96524819D01*
X133346190Y-96524819D02*
X133250952Y-96572438D01*
X133250952Y-96572438D02*
X133203333Y-96620057D01*
X133203333Y-96620057D02*
X133108095Y-96762914D01*
X133108095Y-96762914D02*
X133060476Y-96953390D01*
X133060476Y-96953390D02*
X133060476Y-97334342D01*
X133060476Y-97334342D02*
X133108095Y-97429580D01*
X133108095Y-97429580D02*
X133155714Y-97477200D01*
X133155714Y-97477200D02*
X133250952Y-97524819D01*
X133250952Y-97524819D02*
X133441428Y-97524819D01*
X133441428Y-97524819D02*
X133536666Y-97477200D01*
X133536666Y-97477200D02*
X133584285Y-97429580D01*
X133584285Y-97429580D02*
X133631904Y-97334342D01*
X133631904Y-97334342D02*
X133631904Y-97096247D01*
X133631904Y-97096247D02*
X133584285Y-97001009D01*
X133584285Y-97001009D02*
X133536666Y-96953390D01*
X133536666Y-96953390D02*
X133441428Y-96905771D01*
X133441428Y-96905771D02*
X133250952Y-96905771D01*
X133250952Y-96905771D02*
X133155714Y-96953390D01*
X133155714Y-96953390D02*
X133108095Y-97001009D01*
X133108095Y-97001009D02*
X133060476Y-97096247D01*
X127986666Y-76224819D02*
X127986666Y-76939104D01*
X127986666Y-76939104D02*
X127939047Y-77081961D01*
X127939047Y-77081961D02*
X127843809Y-77177200D01*
X127843809Y-77177200D02*
X127700952Y-77224819D01*
X127700952Y-77224819D02*
X127605714Y-77224819D01*
X128986666Y-77224819D02*
X128415238Y-77224819D01*
X128700952Y-77224819D02*
X128700952Y-76224819D01*
X128700952Y-76224819D02*
X128605714Y-76367676D01*
X128605714Y-76367676D02*
X128510476Y-76462914D01*
X128510476Y-76462914D02*
X128415238Y-76510533D01*
X140265833Y-82784819D02*
X139932500Y-82308628D01*
X139694405Y-82784819D02*
X139694405Y-81784819D01*
X139694405Y-81784819D02*
X140075357Y-81784819D01*
X140075357Y-81784819D02*
X140170595Y-81832438D01*
X140170595Y-81832438D02*
X140218214Y-81880057D01*
X140218214Y-81880057D02*
X140265833Y-81975295D01*
X140265833Y-81975295D02*
X140265833Y-82118152D01*
X140265833Y-82118152D02*
X140218214Y-82213390D01*
X140218214Y-82213390D02*
X140170595Y-82261009D01*
X140170595Y-82261009D02*
X140075357Y-82308628D01*
X140075357Y-82308628D02*
X139694405Y-82308628D01*
X140837262Y-82213390D02*
X140742024Y-82165771D01*
X140742024Y-82165771D02*
X140694405Y-82118152D01*
X140694405Y-82118152D02*
X140646786Y-82022914D01*
X140646786Y-82022914D02*
X140646786Y-81975295D01*
X140646786Y-81975295D02*
X140694405Y-81880057D01*
X140694405Y-81880057D02*
X140742024Y-81832438D01*
X140742024Y-81832438D02*
X140837262Y-81784819D01*
X140837262Y-81784819D02*
X141027738Y-81784819D01*
X141027738Y-81784819D02*
X141122976Y-81832438D01*
X141122976Y-81832438D02*
X141170595Y-81880057D01*
X141170595Y-81880057D02*
X141218214Y-81975295D01*
X141218214Y-81975295D02*
X141218214Y-82022914D01*
X141218214Y-82022914D02*
X141170595Y-82118152D01*
X141170595Y-82118152D02*
X141122976Y-82165771D01*
X141122976Y-82165771D02*
X141027738Y-82213390D01*
X141027738Y-82213390D02*
X140837262Y-82213390D01*
X140837262Y-82213390D02*
X140742024Y-82261009D01*
X140742024Y-82261009D02*
X140694405Y-82308628D01*
X140694405Y-82308628D02*
X140646786Y-82403866D01*
X140646786Y-82403866D02*
X140646786Y-82594342D01*
X140646786Y-82594342D02*
X140694405Y-82689580D01*
X140694405Y-82689580D02*
X140742024Y-82737200D01*
X140742024Y-82737200D02*
X140837262Y-82784819D01*
X140837262Y-82784819D02*
X141027738Y-82784819D01*
X141027738Y-82784819D02*
X141122976Y-82737200D01*
X141122976Y-82737200D02*
X141170595Y-82689580D01*
X141170595Y-82689580D02*
X141218214Y-82594342D01*
X141218214Y-82594342D02*
X141218214Y-82403866D01*
X141218214Y-82403866D02*
X141170595Y-82308628D01*
X141170595Y-82308628D02*
X141122976Y-82261009D01*
X141122976Y-82261009D02*
X141027738Y-82213390D01*
X129837142Y-100084819D02*
X129503809Y-99608628D01*
X129265714Y-100084819D02*
X129265714Y-99084819D01*
X129265714Y-99084819D02*
X129646666Y-99084819D01*
X129646666Y-99084819D02*
X129741904Y-99132438D01*
X129741904Y-99132438D02*
X129789523Y-99180057D01*
X129789523Y-99180057D02*
X129837142Y-99275295D01*
X129837142Y-99275295D02*
X129837142Y-99418152D01*
X129837142Y-99418152D02*
X129789523Y-99513390D01*
X129789523Y-99513390D02*
X129741904Y-99561009D01*
X129741904Y-99561009D02*
X129646666Y-99608628D01*
X129646666Y-99608628D02*
X129265714Y-99608628D01*
X130789523Y-100084819D02*
X130218095Y-100084819D01*
X130503809Y-100084819D02*
X130503809Y-99084819D01*
X130503809Y-99084819D02*
X130408571Y-99227676D01*
X130408571Y-99227676D02*
X130313333Y-99322914D01*
X130313333Y-99322914D02*
X130218095Y-99370533D01*
X131265714Y-100084819D02*
X131456190Y-100084819D01*
X131456190Y-100084819D02*
X131551428Y-100037200D01*
X131551428Y-100037200D02*
X131599047Y-99989580D01*
X131599047Y-99989580D02*
X131694285Y-99846723D01*
X131694285Y-99846723D02*
X131741904Y-99656247D01*
X131741904Y-99656247D02*
X131741904Y-99275295D01*
X131741904Y-99275295D02*
X131694285Y-99180057D01*
X131694285Y-99180057D02*
X131646666Y-99132438D01*
X131646666Y-99132438D02*
X131551428Y-99084819D01*
X131551428Y-99084819D02*
X131360952Y-99084819D01*
X131360952Y-99084819D02*
X131265714Y-99132438D01*
X131265714Y-99132438D02*
X131218095Y-99180057D01*
X131218095Y-99180057D02*
X131170476Y-99275295D01*
X131170476Y-99275295D02*
X131170476Y-99513390D01*
X131170476Y-99513390D02*
X131218095Y-99608628D01*
X131218095Y-99608628D02*
X131265714Y-99656247D01*
X131265714Y-99656247D02*
X131360952Y-99703866D01*
X131360952Y-99703866D02*
X131551428Y-99703866D01*
X131551428Y-99703866D02*
X131646666Y-99656247D01*
X131646666Y-99656247D02*
X131694285Y-99608628D01*
X131694285Y-99608628D02*
X131741904Y-99513390D01*
X119844819Y-100882857D02*
X119368628Y-101216190D01*
X119844819Y-101454285D02*
X118844819Y-101454285D01*
X118844819Y-101454285D02*
X118844819Y-101073333D01*
X118844819Y-101073333D02*
X118892438Y-100978095D01*
X118892438Y-100978095D02*
X118940057Y-100930476D01*
X118940057Y-100930476D02*
X119035295Y-100882857D01*
X119035295Y-100882857D02*
X119178152Y-100882857D01*
X119178152Y-100882857D02*
X119273390Y-100930476D01*
X119273390Y-100930476D02*
X119321009Y-100978095D01*
X119321009Y-100978095D02*
X119368628Y-101073333D01*
X119368628Y-101073333D02*
X119368628Y-101454285D01*
X118940057Y-100501904D02*
X118892438Y-100454285D01*
X118892438Y-100454285D02*
X118844819Y-100359047D01*
X118844819Y-100359047D02*
X118844819Y-100120952D01*
X118844819Y-100120952D02*
X118892438Y-100025714D01*
X118892438Y-100025714D02*
X118940057Y-99978095D01*
X118940057Y-99978095D02*
X119035295Y-99930476D01*
X119035295Y-99930476D02*
X119130533Y-99930476D01*
X119130533Y-99930476D02*
X119273390Y-99978095D01*
X119273390Y-99978095D02*
X119844819Y-100549523D01*
X119844819Y-100549523D02*
X119844819Y-99930476D01*
X118844819Y-99311428D02*
X118844819Y-99216190D01*
X118844819Y-99216190D02*
X118892438Y-99120952D01*
X118892438Y-99120952D02*
X118940057Y-99073333D01*
X118940057Y-99073333D02*
X119035295Y-99025714D01*
X119035295Y-99025714D02*
X119225771Y-98978095D01*
X119225771Y-98978095D02*
X119463866Y-98978095D01*
X119463866Y-98978095D02*
X119654342Y-99025714D01*
X119654342Y-99025714D02*
X119749580Y-99073333D01*
X119749580Y-99073333D02*
X119797200Y-99120952D01*
X119797200Y-99120952D02*
X119844819Y-99216190D01*
X119844819Y-99216190D02*
X119844819Y-99311428D01*
X119844819Y-99311428D02*
X119797200Y-99406666D01*
X119797200Y-99406666D02*
X119749580Y-99454285D01*
X119749580Y-99454285D02*
X119654342Y-99501904D01*
X119654342Y-99501904D02*
X119463866Y-99549523D01*
X119463866Y-99549523D02*
X119225771Y-99549523D01*
X119225771Y-99549523D02*
X119035295Y-99501904D01*
X119035295Y-99501904D02*
X118940057Y-99454285D01*
X118940057Y-99454285D02*
X118892438Y-99406666D01*
X118892438Y-99406666D02*
X118844819Y-99311428D01*
X123004819Y-106232857D02*
X122528628Y-106566190D01*
X123004819Y-106804285D02*
X122004819Y-106804285D01*
X122004819Y-106804285D02*
X122004819Y-106423333D01*
X122004819Y-106423333D02*
X122052438Y-106328095D01*
X122052438Y-106328095D02*
X122100057Y-106280476D01*
X122100057Y-106280476D02*
X122195295Y-106232857D01*
X122195295Y-106232857D02*
X122338152Y-106232857D01*
X122338152Y-106232857D02*
X122433390Y-106280476D01*
X122433390Y-106280476D02*
X122481009Y-106328095D01*
X122481009Y-106328095D02*
X122528628Y-106423333D01*
X122528628Y-106423333D02*
X122528628Y-106804285D01*
X123004819Y-105280476D02*
X123004819Y-105851904D01*
X123004819Y-105566190D02*
X122004819Y-105566190D01*
X122004819Y-105566190D02*
X122147676Y-105661428D01*
X122147676Y-105661428D02*
X122242914Y-105756666D01*
X122242914Y-105756666D02*
X122290533Y-105851904D01*
X122433390Y-104709047D02*
X122385771Y-104804285D01*
X122385771Y-104804285D02*
X122338152Y-104851904D01*
X122338152Y-104851904D02*
X122242914Y-104899523D01*
X122242914Y-104899523D02*
X122195295Y-104899523D01*
X122195295Y-104899523D02*
X122100057Y-104851904D01*
X122100057Y-104851904D02*
X122052438Y-104804285D01*
X122052438Y-104804285D02*
X122004819Y-104709047D01*
X122004819Y-104709047D02*
X122004819Y-104518571D01*
X122004819Y-104518571D02*
X122052438Y-104423333D01*
X122052438Y-104423333D02*
X122100057Y-104375714D01*
X122100057Y-104375714D02*
X122195295Y-104328095D01*
X122195295Y-104328095D02*
X122242914Y-104328095D01*
X122242914Y-104328095D02*
X122338152Y-104375714D01*
X122338152Y-104375714D02*
X122385771Y-104423333D01*
X122385771Y-104423333D02*
X122433390Y-104518571D01*
X122433390Y-104518571D02*
X122433390Y-104709047D01*
X122433390Y-104709047D02*
X122481009Y-104804285D01*
X122481009Y-104804285D02*
X122528628Y-104851904D01*
X122528628Y-104851904D02*
X122623866Y-104899523D01*
X122623866Y-104899523D02*
X122814342Y-104899523D01*
X122814342Y-104899523D02*
X122909580Y-104851904D01*
X122909580Y-104851904D02*
X122957200Y-104804285D01*
X122957200Y-104804285D02*
X123004819Y-104709047D01*
X123004819Y-104709047D02*
X123004819Y-104518571D01*
X123004819Y-104518571D02*
X122957200Y-104423333D01*
X122957200Y-104423333D02*
X122909580Y-104375714D01*
X122909580Y-104375714D02*
X122814342Y-104328095D01*
X122814342Y-104328095D02*
X122623866Y-104328095D01*
X122623866Y-104328095D02*
X122528628Y-104375714D01*
X122528628Y-104375714D02*
X122481009Y-104423333D01*
X122481009Y-104423333D02*
X122433390Y-104518571D01*
X134318095Y-82955526D02*
X134318095Y-83765049D01*
X134318095Y-83765049D02*
X134365714Y-83860287D01*
X134365714Y-83860287D02*
X134413333Y-83907907D01*
X134413333Y-83907907D02*
X134508571Y-83955526D01*
X134508571Y-83955526D02*
X134699047Y-83955526D01*
X134699047Y-83955526D02*
X134794285Y-83907907D01*
X134794285Y-83907907D02*
X134841904Y-83860287D01*
X134841904Y-83860287D02*
X134889523Y-83765049D01*
X134889523Y-83765049D02*
X134889523Y-82955526D01*
X135270476Y-82955526D02*
X135889523Y-82955526D01*
X135889523Y-82955526D02*
X135556190Y-83336478D01*
X135556190Y-83336478D02*
X135699047Y-83336478D01*
X135699047Y-83336478D02*
X135794285Y-83384097D01*
X135794285Y-83384097D02*
X135841904Y-83431716D01*
X135841904Y-83431716D02*
X135889523Y-83526954D01*
X135889523Y-83526954D02*
X135889523Y-83765049D01*
X135889523Y-83765049D02*
X135841904Y-83860287D01*
X135841904Y-83860287D02*
X135794285Y-83907907D01*
X135794285Y-83907907D02*
X135699047Y-83955526D01*
X135699047Y-83955526D02*
X135413333Y-83955526D01*
X135413333Y-83955526D02*
X135318095Y-83907907D01*
X135318095Y-83907907D02*
X135270476Y-83860287D01*
X114174819Y-93423333D02*
X114889104Y-93423333D01*
X114889104Y-93423333D02*
X115031961Y-93470952D01*
X115031961Y-93470952D02*
X115127200Y-93566190D01*
X115127200Y-93566190D02*
X115174819Y-93709047D01*
X115174819Y-93709047D02*
X115174819Y-93804285D01*
X114174819Y-92470952D02*
X114174819Y-92947142D01*
X114174819Y-92947142D02*
X114651009Y-92994761D01*
X114651009Y-92994761D02*
X114603390Y-92947142D01*
X114603390Y-92947142D02*
X114555771Y-92851904D01*
X114555771Y-92851904D02*
X114555771Y-92613809D01*
X114555771Y-92613809D02*
X114603390Y-92518571D01*
X114603390Y-92518571D02*
X114651009Y-92470952D01*
X114651009Y-92470952D02*
X114746247Y-92423333D01*
X114746247Y-92423333D02*
X114984342Y-92423333D01*
X114984342Y-92423333D02*
X115079580Y-92470952D01*
X115079580Y-92470952D02*
X115127200Y-92518571D01*
X115127200Y-92518571D02*
X115174819Y-92613809D01*
X115174819Y-92613809D02*
X115174819Y-92851904D01*
X115174819Y-92851904D02*
X115127200Y-92947142D01*
X115127200Y-92947142D02*
X115079580Y-92994761D01*
X113708095Y-81924819D02*
X113708095Y-80924819D01*
X113708095Y-81401009D02*
X114279523Y-81401009D01*
X114279523Y-81924819D02*
X114279523Y-80924819D01*
X115279523Y-81924819D02*
X114708095Y-81924819D01*
X114993809Y-81924819D02*
X114993809Y-80924819D01*
X114993809Y-80924819D02*
X114898571Y-81067676D01*
X114898571Y-81067676D02*
X114803333Y-81162914D01*
X114803333Y-81162914D02*
X114708095Y-81210533D01*
X119824819Y-98142857D02*
X119348628Y-98476190D01*
X119824819Y-98714285D02*
X118824819Y-98714285D01*
X118824819Y-98714285D02*
X118824819Y-98333333D01*
X118824819Y-98333333D02*
X118872438Y-98238095D01*
X118872438Y-98238095D02*
X118920057Y-98190476D01*
X118920057Y-98190476D02*
X119015295Y-98142857D01*
X119015295Y-98142857D02*
X119158152Y-98142857D01*
X119158152Y-98142857D02*
X119253390Y-98190476D01*
X119253390Y-98190476D02*
X119301009Y-98238095D01*
X119301009Y-98238095D02*
X119348628Y-98333333D01*
X119348628Y-98333333D02*
X119348628Y-98714285D01*
X118920057Y-97761904D02*
X118872438Y-97714285D01*
X118872438Y-97714285D02*
X118824819Y-97619047D01*
X118824819Y-97619047D02*
X118824819Y-97380952D01*
X118824819Y-97380952D02*
X118872438Y-97285714D01*
X118872438Y-97285714D02*
X118920057Y-97238095D01*
X118920057Y-97238095D02*
X119015295Y-97190476D01*
X119015295Y-97190476D02*
X119110533Y-97190476D01*
X119110533Y-97190476D02*
X119253390Y-97238095D01*
X119253390Y-97238095D02*
X119824819Y-97809523D01*
X119824819Y-97809523D02*
X119824819Y-97190476D01*
X119824819Y-96238095D02*
X119824819Y-96809523D01*
X119824819Y-96523809D02*
X118824819Y-96523809D01*
X118824819Y-96523809D02*
X118967676Y-96619047D01*
X118967676Y-96619047D02*
X119062914Y-96714285D01*
X119062914Y-96714285D02*
X119110533Y-96809523D01*
X124093333Y-83584819D02*
X123760000Y-83108628D01*
X123521905Y-83584819D02*
X123521905Y-82584819D01*
X123521905Y-82584819D02*
X123902857Y-82584819D01*
X123902857Y-82584819D02*
X123998095Y-82632438D01*
X123998095Y-82632438D02*
X124045714Y-82680057D01*
X124045714Y-82680057D02*
X124093333Y-82775295D01*
X124093333Y-82775295D02*
X124093333Y-82918152D01*
X124093333Y-82918152D02*
X124045714Y-83013390D01*
X124045714Y-83013390D02*
X123998095Y-83061009D01*
X123998095Y-83061009D02*
X123902857Y-83108628D01*
X123902857Y-83108628D02*
X123521905Y-83108628D01*
X124426667Y-82584819D02*
X125045714Y-82584819D01*
X125045714Y-82584819D02*
X124712381Y-82965771D01*
X124712381Y-82965771D02*
X124855238Y-82965771D01*
X124855238Y-82965771D02*
X124950476Y-83013390D01*
X124950476Y-83013390D02*
X124998095Y-83061009D01*
X124998095Y-83061009D02*
X125045714Y-83156247D01*
X125045714Y-83156247D02*
X125045714Y-83394342D01*
X125045714Y-83394342D02*
X124998095Y-83489580D01*
X124998095Y-83489580D02*
X124950476Y-83537200D01*
X124950476Y-83537200D02*
X124855238Y-83584819D01*
X124855238Y-83584819D02*
X124569524Y-83584819D01*
X124569524Y-83584819D02*
X124474286Y-83537200D01*
X124474286Y-83537200D02*
X124426667Y-83489580D01*
X127857142Y-108734819D02*
X127523809Y-108258628D01*
X127285714Y-108734819D02*
X127285714Y-107734819D01*
X127285714Y-107734819D02*
X127666666Y-107734819D01*
X127666666Y-107734819D02*
X127761904Y-107782438D01*
X127761904Y-107782438D02*
X127809523Y-107830057D01*
X127809523Y-107830057D02*
X127857142Y-107925295D01*
X127857142Y-107925295D02*
X127857142Y-108068152D01*
X127857142Y-108068152D02*
X127809523Y-108163390D01*
X127809523Y-108163390D02*
X127761904Y-108211009D01*
X127761904Y-108211009D02*
X127666666Y-108258628D01*
X127666666Y-108258628D02*
X127285714Y-108258628D01*
X128809523Y-108734819D02*
X128238095Y-108734819D01*
X128523809Y-108734819D02*
X128523809Y-107734819D01*
X128523809Y-107734819D02*
X128428571Y-107877676D01*
X128428571Y-107877676D02*
X128333333Y-107972914D01*
X128333333Y-107972914D02*
X128238095Y-108020533D01*
X129142857Y-107734819D02*
X129809523Y-107734819D01*
X129809523Y-107734819D02*
X129380952Y-108734819D01*
X117758095Y-83704819D02*
X117758095Y-84514342D01*
X117758095Y-84514342D02*
X117805714Y-84609580D01*
X117805714Y-84609580D02*
X117853333Y-84657200D01*
X117853333Y-84657200D02*
X117948571Y-84704819D01*
X117948571Y-84704819D02*
X118139047Y-84704819D01*
X118139047Y-84704819D02*
X118234285Y-84657200D01*
X118234285Y-84657200D02*
X118281904Y-84609580D01*
X118281904Y-84609580D02*
X118329523Y-84514342D01*
X118329523Y-84514342D02*
X118329523Y-83704819D01*
X119329523Y-84704819D02*
X118758095Y-84704819D01*
X119043809Y-84704819D02*
X119043809Y-83704819D01*
X119043809Y-83704819D02*
X118948571Y-83847676D01*
X118948571Y-83847676D02*
X118853333Y-83942914D01*
X118853333Y-83942914D02*
X118758095Y-83990533D01*
X136534642Y-97554819D02*
X136201309Y-97078628D01*
X135963214Y-97554819D02*
X135963214Y-96554819D01*
X135963214Y-96554819D02*
X136344166Y-96554819D01*
X136344166Y-96554819D02*
X136439404Y-96602438D01*
X136439404Y-96602438D02*
X136487023Y-96650057D01*
X136487023Y-96650057D02*
X136534642Y-96745295D01*
X136534642Y-96745295D02*
X136534642Y-96888152D01*
X136534642Y-96888152D02*
X136487023Y-96983390D01*
X136487023Y-96983390D02*
X136439404Y-97031009D01*
X136439404Y-97031009D02*
X136344166Y-97078628D01*
X136344166Y-97078628D02*
X135963214Y-97078628D01*
X137487023Y-97554819D02*
X136915595Y-97554819D01*
X137201309Y-97554819D02*
X137201309Y-96554819D01*
X137201309Y-96554819D02*
X137106071Y-96697676D01*
X137106071Y-96697676D02*
X137010833Y-96792914D01*
X137010833Y-96792914D02*
X136915595Y-96840533D01*
X138344166Y-96888152D02*
X138344166Y-97554819D01*
X138106071Y-96507200D02*
X137867976Y-97221485D01*
X137867976Y-97221485D02*
X138487023Y-97221485D01*
X151817142Y-94004819D02*
X151483809Y-93528628D01*
X151245714Y-94004819D02*
X151245714Y-93004819D01*
X151245714Y-93004819D02*
X151626666Y-93004819D01*
X151626666Y-93004819D02*
X151721904Y-93052438D01*
X151721904Y-93052438D02*
X151769523Y-93100057D01*
X151769523Y-93100057D02*
X151817142Y-93195295D01*
X151817142Y-93195295D02*
X151817142Y-93338152D01*
X151817142Y-93338152D02*
X151769523Y-93433390D01*
X151769523Y-93433390D02*
X151721904Y-93481009D01*
X151721904Y-93481009D02*
X151626666Y-93528628D01*
X151626666Y-93528628D02*
X151245714Y-93528628D01*
X152769523Y-94004819D02*
X152198095Y-94004819D01*
X152483809Y-94004819D02*
X152483809Y-93004819D01*
X152483809Y-93004819D02*
X152388571Y-93147676D01*
X152388571Y-93147676D02*
X152293333Y-93242914D01*
X152293333Y-93242914D02*
X152198095Y-93290533D01*
X153150476Y-93100057D02*
X153198095Y-93052438D01*
X153198095Y-93052438D02*
X153293333Y-93004819D01*
X153293333Y-93004819D02*
X153531428Y-93004819D01*
X153531428Y-93004819D02*
X153626666Y-93052438D01*
X153626666Y-93052438D02*
X153674285Y-93100057D01*
X153674285Y-93100057D02*
X153721904Y-93195295D01*
X153721904Y-93195295D02*
X153721904Y-93290533D01*
X153721904Y-93290533D02*
X153674285Y-93433390D01*
X153674285Y-93433390D02*
X153102857Y-94004819D01*
X153102857Y-94004819D02*
X153721904Y-94004819D01*
X146746666Y-97304819D02*
X146746666Y-98019104D01*
X146746666Y-98019104D02*
X146699047Y-98161961D01*
X146699047Y-98161961D02*
X146603809Y-98257200D01*
X146603809Y-98257200D02*
X146460952Y-98304819D01*
X146460952Y-98304819D02*
X146365714Y-98304819D01*
X147127619Y-97304819D02*
X147746666Y-97304819D01*
X147746666Y-97304819D02*
X147413333Y-97685771D01*
X147413333Y-97685771D02*
X147556190Y-97685771D01*
X147556190Y-97685771D02*
X147651428Y-97733390D01*
X147651428Y-97733390D02*
X147699047Y-97781009D01*
X147699047Y-97781009D02*
X147746666Y-97876247D01*
X147746666Y-97876247D02*
X147746666Y-98114342D01*
X147746666Y-98114342D02*
X147699047Y-98209580D01*
X147699047Y-98209580D02*
X147651428Y-98257200D01*
X147651428Y-98257200D02*
X147556190Y-98304819D01*
X147556190Y-98304819D02*
X147270476Y-98304819D01*
X147270476Y-98304819D02*
X147175238Y-98257200D01*
X147175238Y-98257200D02*
X147127619Y-98209580D01*
X150238095Y-81454819D02*
X150238095Y-80454819D01*
X150238095Y-80931009D02*
X150809523Y-80931009D01*
X150809523Y-81454819D02*
X150809523Y-80454819D01*
X151714285Y-80788152D02*
X151714285Y-81454819D01*
X151476190Y-80407200D02*
X151238095Y-81121485D01*
X151238095Y-81121485D02*
X151857142Y-81121485D01*
X127738095Y-83554819D02*
X127738095Y-84364342D01*
X127738095Y-84364342D02*
X127785714Y-84459580D01*
X127785714Y-84459580D02*
X127833333Y-84507200D01*
X127833333Y-84507200D02*
X127928571Y-84554819D01*
X127928571Y-84554819D02*
X128119047Y-84554819D01*
X128119047Y-84554819D02*
X128214285Y-84507200D01*
X128214285Y-84507200D02*
X128261904Y-84459580D01*
X128261904Y-84459580D02*
X128309523Y-84364342D01*
X128309523Y-84364342D02*
X128309523Y-83554819D01*
X128738095Y-83650057D02*
X128785714Y-83602438D01*
X128785714Y-83602438D02*
X128880952Y-83554819D01*
X128880952Y-83554819D02*
X129119047Y-83554819D01*
X129119047Y-83554819D02*
X129214285Y-83602438D01*
X129214285Y-83602438D02*
X129261904Y-83650057D01*
X129261904Y-83650057D02*
X129309523Y-83745295D01*
X129309523Y-83745295D02*
X129309523Y-83840533D01*
X129309523Y-83840533D02*
X129261904Y-83983390D01*
X129261904Y-83983390D02*
X128690476Y-84554819D01*
X128690476Y-84554819D02*
X129309523Y-84554819D01*
X129433333Y-91394819D02*
X129100000Y-90918628D01*
X128861905Y-91394819D02*
X128861905Y-90394819D01*
X128861905Y-90394819D02*
X129242857Y-90394819D01*
X129242857Y-90394819D02*
X129338095Y-90442438D01*
X129338095Y-90442438D02*
X129385714Y-90490057D01*
X129385714Y-90490057D02*
X129433333Y-90585295D01*
X129433333Y-90585295D02*
X129433333Y-90728152D01*
X129433333Y-90728152D02*
X129385714Y-90823390D01*
X129385714Y-90823390D02*
X129338095Y-90871009D01*
X129338095Y-90871009D02*
X129242857Y-90918628D01*
X129242857Y-90918628D02*
X128861905Y-90918628D01*
X130290476Y-90394819D02*
X130100000Y-90394819D01*
X130100000Y-90394819D02*
X130004762Y-90442438D01*
X130004762Y-90442438D02*
X129957143Y-90490057D01*
X129957143Y-90490057D02*
X129861905Y-90632914D01*
X129861905Y-90632914D02*
X129814286Y-90823390D01*
X129814286Y-90823390D02*
X129814286Y-91204342D01*
X129814286Y-91204342D02*
X129861905Y-91299580D01*
X129861905Y-91299580D02*
X129909524Y-91347200D01*
X129909524Y-91347200D02*
X130004762Y-91394819D01*
X130004762Y-91394819D02*
X130195238Y-91394819D01*
X130195238Y-91394819D02*
X130290476Y-91347200D01*
X130290476Y-91347200D02*
X130338095Y-91299580D01*
X130338095Y-91299580D02*
X130385714Y-91204342D01*
X130385714Y-91204342D02*
X130385714Y-90966247D01*
X130385714Y-90966247D02*
X130338095Y-90871009D01*
X130338095Y-90871009D02*
X130290476Y-90823390D01*
X130290476Y-90823390D02*
X130195238Y-90775771D01*
X130195238Y-90775771D02*
X130004762Y-90775771D01*
X130004762Y-90775771D02*
X129909524Y-90823390D01*
X129909524Y-90823390D02*
X129861905Y-90871009D01*
X129861905Y-90871009D02*
X129814286Y-90966247D01*
X137143333Y-82594819D02*
X136810000Y-82118628D01*
X136571905Y-82594819D02*
X136571905Y-81594819D01*
X136571905Y-81594819D02*
X136952857Y-81594819D01*
X136952857Y-81594819D02*
X137048095Y-81642438D01*
X137048095Y-81642438D02*
X137095714Y-81690057D01*
X137095714Y-81690057D02*
X137143333Y-81785295D01*
X137143333Y-81785295D02*
X137143333Y-81928152D01*
X137143333Y-81928152D02*
X137095714Y-82023390D01*
X137095714Y-82023390D02*
X137048095Y-82071009D01*
X137048095Y-82071009D02*
X136952857Y-82118628D01*
X136952857Y-82118628D02*
X136571905Y-82118628D01*
X137619524Y-82594819D02*
X137810000Y-82594819D01*
X137810000Y-82594819D02*
X137905238Y-82547200D01*
X137905238Y-82547200D02*
X137952857Y-82499580D01*
X137952857Y-82499580D02*
X138048095Y-82356723D01*
X138048095Y-82356723D02*
X138095714Y-82166247D01*
X138095714Y-82166247D02*
X138095714Y-81785295D01*
X138095714Y-81785295D02*
X138048095Y-81690057D01*
X138048095Y-81690057D02*
X138000476Y-81642438D01*
X138000476Y-81642438D02*
X137905238Y-81594819D01*
X137905238Y-81594819D02*
X137714762Y-81594819D01*
X137714762Y-81594819D02*
X137619524Y-81642438D01*
X137619524Y-81642438D02*
X137571905Y-81690057D01*
X137571905Y-81690057D02*
X137524286Y-81785295D01*
X137524286Y-81785295D02*
X137524286Y-82023390D01*
X137524286Y-82023390D02*
X137571905Y-82118628D01*
X137571905Y-82118628D02*
X137619524Y-82166247D01*
X137619524Y-82166247D02*
X137714762Y-82213866D01*
X137714762Y-82213866D02*
X137905238Y-82213866D01*
X137905238Y-82213866D02*
X138000476Y-82166247D01*
X138000476Y-82166247D02*
X138048095Y-82118628D01*
X138048095Y-82118628D02*
X138095714Y-82023390D01*
X139388095Y-107314819D02*
X139388095Y-108124342D01*
X139388095Y-108124342D02*
X139435714Y-108219580D01*
X139435714Y-108219580D02*
X139483333Y-108267200D01*
X139483333Y-108267200D02*
X139578571Y-108314819D01*
X139578571Y-108314819D02*
X139769047Y-108314819D01*
X139769047Y-108314819D02*
X139864285Y-108267200D01*
X139864285Y-108267200D02*
X139911904Y-108219580D01*
X139911904Y-108219580D02*
X139959523Y-108124342D01*
X139959523Y-108124342D02*
X139959523Y-107314819D01*
X140911904Y-107314819D02*
X140435714Y-107314819D01*
X140435714Y-107314819D02*
X140388095Y-107791009D01*
X140388095Y-107791009D02*
X140435714Y-107743390D01*
X140435714Y-107743390D02*
X140530952Y-107695771D01*
X140530952Y-107695771D02*
X140769047Y-107695771D01*
X140769047Y-107695771D02*
X140864285Y-107743390D01*
X140864285Y-107743390D02*
X140911904Y-107791009D01*
X140911904Y-107791009D02*
X140959523Y-107886247D01*
X140959523Y-107886247D02*
X140959523Y-108124342D01*
X140959523Y-108124342D02*
X140911904Y-108219580D01*
X140911904Y-108219580D02*
X140864285Y-108267200D01*
X140864285Y-108267200D02*
X140769047Y-108314819D01*
X140769047Y-108314819D02*
X140530952Y-108314819D01*
X140530952Y-108314819D02*
X140435714Y-108267200D01*
X140435714Y-108267200D02*
X140388095Y-108219580D01*
X117593333Y-82414819D02*
X117260000Y-81938628D01*
X117021905Y-82414819D02*
X117021905Y-81414819D01*
X117021905Y-81414819D02*
X117402857Y-81414819D01*
X117402857Y-81414819D02*
X117498095Y-81462438D01*
X117498095Y-81462438D02*
X117545714Y-81510057D01*
X117545714Y-81510057D02*
X117593333Y-81605295D01*
X117593333Y-81605295D02*
X117593333Y-81748152D01*
X117593333Y-81748152D02*
X117545714Y-81843390D01*
X117545714Y-81843390D02*
X117498095Y-81891009D01*
X117498095Y-81891009D02*
X117402857Y-81938628D01*
X117402857Y-81938628D02*
X117021905Y-81938628D01*
X117974286Y-81510057D02*
X118021905Y-81462438D01*
X118021905Y-81462438D02*
X118117143Y-81414819D01*
X118117143Y-81414819D02*
X118355238Y-81414819D01*
X118355238Y-81414819D02*
X118450476Y-81462438D01*
X118450476Y-81462438D02*
X118498095Y-81510057D01*
X118498095Y-81510057D02*
X118545714Y-81605295D01*
X118545714Y-81605295D02*
X118545714Y-81700533D01*
X118545714Y-81700533D02*
X118498095Y-81843390D01*
X118498095Y-81843390D02*
X117926667Y-82414819D01*
X117926667Y-82414819D02*
X118545714Y-82414819D01*
X118698095Y-106534819D02*
X118698095Y-105534819D01*
X118698095Y-106011009D02*
X119269523Y-106011009D01*
X119269523Y-106534819D02*
X119269523Y-105534819D01*
X119698095Y-105630057D02*
X119745714Y-105582438D01*
X119745714Y-105582438D02*
X119840952Y-105534819D01*
X119840952Y-105534819D02*
X120079047Y-105534819D01*
X120079047Y-105534819D02*
X120174285Y-105582438D01*
X120174285Y-105582438D02*
X120221904Y-105630057D01*
X120221904Y-105630057D02*
X120269523Y-105725295D01*
X120269523Y-105725295D02*
X120269523Y-105820533D01*
X120269523Y-105820533D02*
X120221904Y-105963390D01*
X120221904Y-105963390D02*
X119650476Y-106534819D01*
X119650476Y-106534819D02*
X120269523Y-106534819D01*
X126663095Y-92339819D02*
X126663095Y-93149342D01*
X126663095Y-93149342D02*
X126710714Y-93244580D01*
X126710714Y-93244580D02*
X126758333Y-93292200D01*
X126758333Y-93292200D02*
X126853571Y-93339819D01*
X126853571Y-93339819D02*
X127044047Y-93339819D01*
X127044047Y-93339819D02*
X127139285Y-93292200D01*
X127139285Y-93292200D02*
X127186904Y-93244580D01*
X127186904Y-93244580D02*
X127234523Y-93149342D01*
X127234523Y-93149342D02*
X127234523Y-92339819D01*
X127615476Y-92339819D02*
X128282142Y-92339819D01*
X128282142Y-92339819D02*
X127853571Y-93339819D01*
X150238095Y-103254819D02*
X150238095Y-102254819D01*
X150238095Y-102731009D02*
X150809523Y-102731009D01*
X150809523Y-103254819D02*
X150809523Y-102254819D01*
X151190476Y-102254819D02*
X151809523Y-102254819D01*
X151809523Y-102254819D02*
X151476190Y-102635771D01*
X151476190Y-102635771D02*
X151619047Y-102635771D01*
X151619047Y-102635771D02*
X151714285Y-102683390D01*
X151714285Y-102683390D02*
X151761904Y-102731009D01*
X151761904Y-102731009D02*
X151809523Y-102826247D01*
X151809523Y-102826247D02*
X151809523Y-103064342D01*
X151809523Y-103064342D02*
X151761904Y-103159580D01*
X151761904Y-103159580D02*
X151714285Y-103207200D01*
X151714285Y-103207200D02*
X151619047Y-103254819D01*
X151619047Y-103254819D02*
X151333333Y-103254819D01*
X151333333Y-103254819D02*
X151238095Y-103207200D01*
X151238095Y-103207200D02*
X151190476Y-103159580D01*
X148628095Y-83399819D02*
X148628095Y-84209342D01*
X148628095Y-84209342D02*
X148675714Y-84304580D01*
X148675714Y-84304580D02*
X148723333Y-84352200D01*
X148723333Y-84352200D02*
X148818571Y-84399819D01*
X148818571Y-84399819D02*
X149009047Y-84399819D01*
X149009047Y-84399819D02*
X149104285Y-84352200D01*
X149104285Y-84352200D02*
X149151904Y-84304580D01*
X149151904Y-84304580D02*
X149199523Y-84209342D01*
X149199523Y-84209342D02*
X149199523Y-83399819D01*
X150104285Y-83733152D02*
X150104285Y-84399819D01*
X149866190Y-83352200D02*
X149628095Y-84066485D01*
X149628095Y-84066485D02*
X150247142Y-84066485D01*
X121948095Y-100284819D02*
X121948095Y-101094342D01*
X121948095Y-101094342D02*
X121995714Y-101189580D01*
X121995714Y-101189580D02*
X122043333Y-101237200D01*
X122043333Y-101237200D02*
X122138571Y-101284819D01*
X122138571Y-101284819D02*
X122329047Y-101284819D01*
X122329047Y-101284819D02*
X122424285Y-101237200D01*
X122424285Y-101237200D02*
X122471904Y-101189580D01*
X122471904Y-101189580D02*
X122519523Y-101094342D01*
X122519523Y-101094342D02*
X122519523Y-100284819D01*
X123138571Y-100713390D02*
X123043333Y-100665771D01*
X123043333Y-100665771D02*
X122995714Y-100618152D01*
X122995714Y-100618152D02*
X122948095Y-100522914D01*
X122948095Y-100522914D02*
X122948095Y-100475295D01*
X122948095Y-100475295D02*
X122995714Y-100380057D01*
X122995714Y-100380057D02*
X123043333Y-100332438D01*
X123043333Y-100332438D02*
X123138571Y-100284819D01*
X123138571Y-100284819D02*
X123329047Y-100284819D01*
X123329047Y-100284819D02*
X123424285Y-100332438D01*
X123424285Y-100332438D02*
X123471904Y-100380057D01*
X123471904Y-100380057D02*
X123519523Y-100475295D01*
X123519523Y-100475295D02*
X123519523Y-100522914D01*
X123519523Y-100522914D02*
X123471904Y-100618152D01*
X123471904Y-100618152D02*
X123424285Y-100665771D01*
X123424285Y-100665771D02*
X123329047Y-100713390D01*
X123329047Y-100713390D02*
X123138571Y-100713390D01*
X123138571Y-100713390D02*
X123043333Y-100761009D01*
X123043333Y-100761009D02*
X122995714Y-100808628D01*
X122995714Y-100808628D02*
X122948095Y-100903866D01*
X122948095Y-100903866D02*
X122948095Y-101094342D01*
X122948095Y-101094342D02*
X122995714Y-101189580D01*
X122995714Y-101189580D02*
X123043333Y-101237200D01*
X123043333Y-101237200D02*
X123138571Y-101284819D01*
X123138571Y-101284819D02*
X123329047Y-101284819D01*
X123329047Y-101284819D02*
X123424285Y-101237200D01*
X123424285Y-101237200D02*
X123471904Y-101189580D01*
X123471904Y-101189580D02*
X123519523Y-101094342D01*
X123519523Y-101094342D02*
X123519523Y-100903866D01*
X123519523Y-100903866D02*
X123471904Y-100808628D01*
X123471904Y-100808628D02*
X123424285Y-100761009D01*
X123424285Y-100761009D02*
X123329047Y-100713390D01*
X141873095Y-90629819D02*
X141873095Y-91439342D01*
X141873095Y-91439342D02*
X141920714Y-91534580D01*
X141920714Y-91534580D02*
X141968333Y-91582200D01*
X141968333Y-91582200D02*
X142063571Y-91629819D01*
X142063571Y-91629819D02*
X142254047Y-91629819D01*
X142254047Y-91629819D02*
X142349285Y-91582200D01*
X142349285Y-91582200D02*
X142396904Y-91534580D01*
X142396904Y-91534580D02*
X142444523Y-91439342D01*
X142444523Y-91439342D02*
X142444523Y-90629819D01*
X143349285Y-90629819D02*
X143158809Y-90629819D01*
X143158809Y-90629819D02*
X143063571Y-90677438D01*
X143063571Y-90677438D02*
X143015952Y-90725057D01*
X143015952Y-90725057D02*
X142920714Y-90867914D01*
X142920714Y-90867914D02*
X142873095Y-91058390D01*
X142873095Y-91058390D02*
X142873095Y-91439342D01*
X142873095Y-91439342D02*
X142920714Y-91534580D01*
X142920714Y-91534580D02*
X142968333Y-91582200D01*
X142968333Y-91582200D02*
X143063571Y-91629819D01*
X143063571Y-91629819D02*
X143254047Y-91629819D01*
X143254047Y-91629819D02*
X143349285Y-91582200D01*
X143349285Y-91582200D02*
X143396904Y-91534580D01*
X143396904Y-91534580D02*
X143444523Y-91439342D01*
X143444523Y-91439342D02*
X143444523Y-91201247D01*
X143444523Y-91201247D02*
X143396904Y-91106009D01*
X143396904Y-91106009D02*
X143349285Y-91058390D01*
X143349285Y-91058390D02*
X143254047Y-91010771D01*
X143254047Y-91010771D02*
X143063571Y-91010771D01*
X143063571Y-91010771D02*
X142968333Y-91058390D01*
X142968333Y-91058390D02*
X142920714Y-91106009D01*
X142920714Y-91106009D02*
X142873095Y-91201247D01*
X114243333Y-91264819D02*
X113910000Y-90788628D01*
X113671905Y-91264819D02*
X113671905Y-90264819D01*
X113671905Y-90264819D02*
X114052857Y-90264819D01*
X114052857Y-90264819D02*
X114148095Y-90312438D01*
X114148095Y-90312438D02*
X114195714Y-90360057D01*
X114195714Y-90360057D02*
X114243333Y-90455295D01*
X114243333Y-90455295D02*
X114243333Y-90598152D01*
X114243333Y-90598152D02*
X114195714Y-90693390D01*
X114195714Y-90693390D02*
X114148095Y-90741009D01*
X114148095Y-90741009D02*
X114052857Y-90788628D01*
X114052857Y-90788628D02*
X113671905Y-90788628D01*
X115100476Y-90598152D02*
X115100476Y-91264819D01*
X114862381Y-90217200D02*
X114624286Y-90931485D01*
X114624286Y-90931485D02*
X115243333Y-90931485D01*
X123833333Y-90284819D02*
X123500000Y-89808628D01*
X123261905Y-90284819D02*
X123261905Y-89284819D01*
X123261905Y-89284819D02*
X123642857Y-89284819D01*
X123642857Y-89284819D02*
X123738095Y-89332438D01*
X123738095Y-89332438D02*
X123785714Y-89380057D01*
X123785714Y-89380057D02*
X123833333Y-89475295D01*
X123833333Y-89475295D02*
X123833333Y-89618152D01*
X123833333Y-89618152D02*
X123785714Y-89713390D01*
X123785714Y-89713390D02*
X123738095Y-89761009D01*
X123738095Y-89761009D02*
X123642857Y-89808628D01*
X123642857Y-89808628D02*
X123261905Y-89808628D01*
X124738095Y-89284819D02*
X124261905Y-89284819D01*
X124261905Y-89284819D02*
X124214286Y-89761009D01*
X124214286Y-89761009D02*
X124261905Y-89713390D01*
X124261905Y-89713390D02*
X124357143Y-89665771D01*
X124357143Y-89665771D02*
X124595238Y-89665771D01*
X124595238Y-89665771D02*
X124690476Y-89713390D01*
X124690476Y-89713390D02*
X124738095Y-89761009D01*
X124738095Y-89761009D02*
X124785714Y-89856247D01*
X124785714Y-89856247D02*
X124785714Y-90094342D01*
X124785714Y-90094342D02*
X124738095Y-90189580D01*
X124738095Y-90189580D02*
X124690476Y-90237200D01*
X124690476Y-90237200D02*
X124595238Y-90284819D01*
X124595238Y-90284819D02*
X124357143Y-90284819D01*
X124357143Y-90284819D02*
X124261905Y-90237200D01*
X124261905Y-90237200D02*
X124214286Y-90189580D01*
X143226666Y-101844819D02*
X143226666Y-102559104D01*
X143226666Y-102559104D02*
X143179047Y-102701961D01*
X143179047Y-102701961D02*
X143083809Y-102797200D01*
X143083809Y-102797200D02*
X142940952Y-102844819D01*
X142940952Y-102844819D02*
X142845714Y-102844819D01*
X143655238Y-101940057D02*
X143702857Y-101892438D01*
X143702857Y-101892438D02*
X143798095Y-101844819D01*
X143798095Y-101844819D02*
X144036190Y-101844819D01*
X144036190Y-101844819D02*
X144131428Y-101892438D01*
X144131428Y-101892438D02*
X144179047Y-101940057D01*
X144179047Y-101940057D02*
X144226666Y-102035295D01*
X144226666Y-102035295D02*
X144226666Y-102130533D01*
X144226666Y-102130533D02*
X144179047Y-102273390D01*
X144179047Y-102273390D02*
X143607619Y-102844819D01*
X143607619Y-102844819D02*
X144226666Y-102844819D01*
X138647142Y-100114819D02*
X138313809Y-99638628D01*
X138075714Y-100114819D02*
X138075714Y-99114819D01*
X138075714Y-99114819D02*
X138456666Y-99114819D01*
X138456666Y-99114819D02*
X138551904Y-99162438D01*
X138551904Y-99162438D02*
X138599523Y-99210057D01*
X138599523Y-99210057D02*
X138647142Y-99305295D01*
X138647142Y-99305295D02*
X138647142Y-99448152D01*
X138647142Y-99448152D02*
X138599523Y-99543390D01*
X138599523Y-99543390D02*
X138551904Y-99591009D01*
X138551904Y-99591009D02*
X138456666Y-99638628D01*
X138456666Y-99638628D02*
X138075714Y-99638628D01*
X139599523Y-100114819D02*
X139028095Y-100114819D01*
X139313809Y-100114819D02*
X139313809Y-99114819D01*
X139313809Y-99114819D02*
X139218571Y-99257676D01*
X139218571Y-99257676D02*
X139123333Y-99352914D01*
X139123333Y-99352914D02*
X139028095Y-99400533D01*
X140504285Y-99114819D02*
X140028095Y-99114819D01*
X140028095Y-99114819D02*
X139980476Y-99591009D01*
X139980476Y-99591009D02*
X140028095Y-99543390D01*
X140028095Y-99543390D02*
X140123333Y-99495771D01*
X140123333Y-99495771D02*
X140361428Y-99495771D01*
X140361428Y-99495771D02*
X140456666Y-99543390D01*
X140456666Y-99543390D02*
X140504285Y-99591009D01*
X140504285Y-99591009D02*
X140551904Y-99686247D01*
X140551904Y-99686247D02*
X140551904Y-99924342D01*
X140551904Y-99924342D02*
X140504285Y-100019580D01*
X140504285Y-100019580D02*
X140456666Y-100067200D01*
X140456666Y-100067200D02*
X140361428Y-100114819D01*
X140361428Y-100114819D02*
X140123333Y-100114819D01*
X140123333Y-100114819D02*
X140028095Y-100067200D01*
X140028095Y-100067200D02*
X139980476Y-100019580D01*
D11*
%TO.C,J4*%
X153500000Y-97740000D02*
X153500000Y-97850000D01*
X150740000Y-97850000D02*
X153500000Y-97850000D01*
X150740000Y-97740000D02*
X153500000Y-97740000D01*
X150740000Y-97740000D02*
X150740000Y-97850000D01*
X150740000Y-96470000D02*
X150740000Y-95090000D01*
X150740000Y-95090000D02*
X152120000Y-95090000D01*
%TO.C,C2*%
X148207500Y-100115835D02*
X148207500Y-99884165D01*
X148927500Y-100115835D02*
X148927500Y-99884165D01*
%TO.C,C1*%
X118884165Y-90640000D02*
X119115835Y-90640000D01*
X118884165Y-91360000D02*
X119115835Y-91360000D01*
%TO.C,D2*%
X143930000Y-82180000D02*
X141930000Y-82180000D01*
X143930000Y-82180000D02*
X143930000Y-86190000D01*
X141930000Y-82180000D02*
X141930000Y-86190000D01*
%TO.C,D1*%
X143970000Y-77180000D02*
X141970000Y-77180000D01*
X143970000Y-77180000D02*
X143970000Y-81190000D01*
X141970000Y-77180000D02*
X141970000Y-81190000D01*
%TO.C,R13*%
X134722379Y-98640000D02*
X135057621Y-98640000D01*
X134722379Y-97880000D02*
X135057621Y-97880000D01*
%TO.C,R11*%
X149832379Y-90620000D02*
X150167621Y-90620000D01*
X149832379Y-91380000D02*
X150167621Y-91380000D01*
%TO.C,R1*%
X116789879Y-82780000D02*
X117125121Y-82780000D01*
X116789879Y-83540000D02*
X117125121Y-83540000D01*
%TO.C,R7*%
X132570000Y-87605121D02*
X132570000Y-87269879D01*
X133330000Y-87605121D02*
X133330000Y-87269879D01*
%TO.C,R10*%
X147424879Y-90620000D02*
X147760121Y-90620000D01*
X147424879Y-91380000D02*
X147760121Y-91380000D01*
%TO.C,R16*%
X132389879Y-97870000D02*
X132725121Y-97870000D01*
X132389879Y-98630000D02*
X132725121Y-98630000D01*
%TO.C,J1*%
X119100000Y-75975000D02*
X126900000Y-75975000D01*
X119100000Y-82025000D02*
X119100000Y-75975000D01*
X120450000Y-80915000D02*
X125530000Y-80915000D01*
X120450000Y-81925000D02*
X120450000Y-80915000D01*
X125530000Y-80915000D02*
X125530000Y-81925000D01*
X126900000Y-75975000D02*
X126900000Y-82025000D01*
X126900000Y-82025000D02*
X119100000Y-82025000D01*
%TO.C,R8*%
X140264879Y-83120000D02*
X140600121Y-83120000D01*
X140264879Y-83880000D02*
X140600121Y-83880000D01*
%TO.C,R19*%
X127799879Y-99220000D02*
X128135121Y-99220000D01*
X127799879Y-99980000D02*
X128135121Y-99980000D01*
%TO.C,R20*%
X120120000Y-100167621D02*
X120120000Y-99832379D01*
X120880000Y-100167621D02*
X120880000Y-99832379D01*
%TO.C,R18*%
X122120000Y-102832379D02*
X122120000Y-103167621D01*
X122880000Y-102832379D02*
X122880000Y-103167621D01*
%TO.C,U3*%
X137500000Y-84940000D02*
X135550000Y-84940000D01*
X137500000Y-84940000D02*
X139450000Y-84940000D01*
X137500000Y-90060000D02*
X135550000Y-90060000D01*
X137500000Y-90060000D02*
X139450000Y-90060000D01*
X134800000Y-85035000D02*
X134560000Y-84705000D01*
X135040000Y-84705000D01*
X134800000Y-85035000D01*
G36*
X134800000Y-85035000D02*
G01*
X134560000Y-84705000D01*
X135040000Y-84705000D01*
X134800000Y-85035000D01*
G37*
%TO.C,J5*%
X114290000Y-94890000D02*
X114290000Y-102610000D01*
X114290000Y-102610000D02*
X118310000Y-102610000D01*
X114790000Y-95390000D02*
X116000000Y-95390000D01*
X114790000Y-102110000D02*
X114790000Y-95390000D01*
X116000000Y-95390000D02*
X116000000Y-94890000D01*
X116000000Y-102110000D02*
X114790000Y-102110000D01*
X116000000Y-102610000D02*
X116000000Y-102110000D01*
X116110000Y-102910000D02*
X118610000Y-102910000D01*
X116810000Y-94890000D02*
X116810000Y-95890000D01*
X116810000Y-95890000D02*
X118310000Y-95890000D01*
X116810000Y-101610000D02*
X118310000Y-101610000D01*
X116810000Y-102610000D02*
X116810000Y-101610000D01*
X118310000Y-94890000D02*
X114290000Y-94890000D01*
X118310000Y-102610000D02*
X118310000Y-94890000D01*
X118610000Y-102910000D02*
X118610000Y-100410000D01*
%TO.C,R21*%
X120120000Y-97667621D02*
X120120000Y-97332379D01*
X120880000Y-97667621D02*
X120880000Y-97332379D01*
%TO.C,R3*%
X121830121Y-82760000D02*
X121494879Y-82760000D01*
X121830121Y-83520000D02*
X121494879Y-83520000D01*
%TO.C,R17*%
X128667621Y-106730000D02*
X128332379Y-106730000D01*
X128667621Y-107490000D02*
X128332379Y-107490000D01*
%TO.C,U1*%
X119500000Y-84940000D02*
X117550000Y-84940000D01*
X119500000Y-84940000D02*
X121450000Y-84940000D01*
X119500000Y-90060000D02*
X117550000Y-90060000D01*
X119500000Y-90060000D02*
X121450000Y-90060000D01*
X116800000Y-85035000D02*
X116560000Y-84705000D01*
X117040000Y-84705000D01*
X116800000Y-85035000D01*
G36*
X116800000Y-85035000D02*
G01*
X116560000Y-84705000D01*
X117040000Y-84705000D01*
X116800000Y-85035000D01*
G37*
%TO.C,R14*%
X137009879Y-97890000D02*
X137345121Y-97890000D01*
X137009879Y-98650000D02*
X137345121Y-98650000D01*
%TO.C,R12*%
X152577621Y-90690000D02*
X152242379Y-90690000D01*
X152577621Y-91450000D02*
X152242379Y-91450000D01*
%TO.C,J3*%
X146960000Y-93680000D02*
X148340000Y-93680000D01*
X146960000Y-95060000D02*
X146960000Y-93680000D01*
X146960000Y-96330000D02*
X146960000Y-96440000D01*
X146960000Y-96330000D02*
X149720000Y-96330000D01*
X146960000Y-96440000D02*
X149720000Y-96440000D01*
X149720000Y-96330000D02*
X149720000Y-96440000D01*
%TO.C,U2*%
X128500000Y-84940000D02*
X126550000Y-84940000D01*
X128500000Y-84940000D02*
X130450000Y-84940000D01*
X128500000Y-90060000D02*
X126550000Y-90060000D01*
X128500000Y-90060000D02*
X130450000Y-90060000D01*
X125800000Y-85035000D02*
X125560000Y-84705000D01*
X126040000Y-84705000D01*
X125800000Y-85035000D01*
G36*
X125800000Y-85035000D02*
G01*
X125560000Y-84705000D01*
X126040000Y-84705000D01*
X125800000Y-85035000D01*
G37*
%TO.C,R6*%
X127332379Y-90620000D02*
X127667621Y-90620000D01*
X127332379Y-91380000D02*
X127667621Y-91380000D01*
%TO.C,R9*%
X138100121Y-83120000D02*
X137764879Y-83120000D01*
X138100121Y-83880000D02*
X137764879Y-83880000D01*
%TO.C,U5*%
X136925000Y-100535000D02*
X134975000Y-100535000D01*
X136925000Y-100535000D02*
X138875000Y-100535000D01*
X136925000Y-105655000D02*
X134975000Y-105655000D01*
X136925000Y-105655000D02*
X138875000Y-105655000D01*
X134225000Y-100630000D02*
X133985000Y-100300000D01*
X134465000Y-100300000D01*
X134225000Y-100630000D01*
G36*
X134225000Y-100630000D02*
G01*
X133985000Y-100300000D01*
X134465000Y-100300000D01*
X134225000Y-100630000D01*
G37*
%TO.C,R2*%
X119129879Y-82760000D02*
X119465121Y-82760000D01*
X119129879Y-83520000D02*
X119465121Y-83520000D01*
%TO.C,U7*%
X127425000Y-93725000D02*
X125475000Y-93725000D01*
X127425000Y-93725000D02*
X129375000Y-93725000D01*
X127425000Y-98845000D02*
X125475000Y-98845000D01*
X127425000Y-98845000D02*
X129375000Y-98845000D01*
X124725000Y-93820000D02*
X124485000Y-93490000D01*
X124965000Y-93490000D01*
X124725000Y-93820000D01*
G36*
X124725000Y-93820000D02*
G01*
X124485000Y-93490000D01*
X124965000Y-93490000D01*
X124725000Y-93820000D01*
G37*
%TO.C,U4*%
X149390000Y-84785000D02*
X147440000Y-84785000D01*
X149390000Y-84785000D02*
X151340000Y-84785000D01*
X149390000Y-89905000D02*
X147440000Y-89905000D01*
X149390000Y-89905000D02*
X151340000Y-89905000D01*
X146690000Y-84880000D02*
X146450000Y-84550000D01*
X146930000Y-84550000D01*
X146690000Y-84880000D01*
G36*
X146690000Y-84880000D02*
G01*
X146450000Y-84550000D01*
X146930000Y-84550000D01*
X146690000Y-84880000D01*
G37*
%TO.C,U8*%
X127425000Y-100305000D02*
X125475000Y-100305000D01*
X127425000Y-100305000D02*
X129375000Y-100305000D01*
X127425000Y-105425000D02*
X125475000Y-105425000D01*
X127425000Y-105425000D02*
X129375000Y-105425000D01*
X124725000Y-100400000D02*
X124485000Y-100070000D01*
X124965000Y-100070000D01*
X124725000Y-100400000D01*
G36*
X124725000Y-100400000D02*
G01*
X124485000Y-100070000D01*
X124965000Y-100070000D01*
X124725000Y-100400000D01*
G37*
%TO.C,U6*%
X142635000Y-92015000D02*
X140685000Y-92015000D01*
X142635000Y-92015000D02*
X144585000Y-92015000D01*
X142635000Y-97135000D02*
X140685000Y-97135000D01*
X142635000Y-97135000D02*
X144585000Y-97135000D01*
X139935000Y-92110000D02*
X139695000Y-91780000D01*
X140175000Y-91780000D01*
X139935000Y-92110000D01*
G36*
X139935000Y-92110000D02*
G01*
X139695000Y-91780000D01*
X140175000Y-91780000D01*
X139935000Y-92110000D01*
G37*
%TO.C,R4*%
X116264879Y-90620000D02*
X116600121Y-90620000D01*
X116264879Y-91380000D02*
X116600121Y-91380000D01*
%TO.C,R5*%
X123832379Y-90620000D02*
X124167621Y-90620000D01*
X123832379Y-91380000D02*
X124167621Y-91380000D01*
%TO.C,J2*%
X141120000Y-98120000D02*
X142500000Y-98120000D01*
X141120000Y-99500000D02*
X141120000Y-98120000D01*
X141120000Y-100770000D02*
X141120000Y-100880000D01*
X141120000Y-100770000D02*
X143880000Y-100770000D01*
X141120000Y-100880000D02*
X143880000Y-100880000D01*
X143880000Y-100770000D02*
X143880000Y-100880000D01*
%TO.C,R15*%
X139309879Y-97910000D02*
X139645121Y-97910000D01*
X139309879Y-98670000D02*
X139645121Y-98670000D01*
%TD*%
M02*
