M48
; DRILL file {KiCad 9.0.1} date 2026-03-17T14:30:31+0100
; FORMAT={-:-/ absolute / metric / decimal}
; #@! TF.CreationDate,2026-03-17T14:30:31+01:00
; #@! TF.GenerationSoftware,Kicad,Pcbnew,9.0.1
; #@! TF.FileFunction,Plated,1,2,PTH
FMAT,2
METRIC
; #@! TA.AperFunction,Plated,PTH,ViaDrill
T1C0.300
; #@! TA.AperFunction,Plated,PTH,ViaDrill
T2C0.400
; #@! TA.AperFunction,Plated,PTH,ComponentDrill
T3C1.000
; #@! TA.AperFunction,Plated,PTH,ComponentDrill
T4C1.020
; #@! TA.AperFunction,Plated,PTH,ComponentDrill
T5C2.200
%
G90
G05
T1
X113.86Y-88.45
X113.86Y-89.794
X113.86Y-91.138
X113.86Y-92.482
X113.86Y-93.826
X113.91Y-80.44
X113.91Y-81.784
X113.91Y-83.128
X113.91Y-84.472
X113.91Y-85.816
X113.91Y-87.16
X118.36Y-82.13
X118.66Y-84.26
X118.74Y-91.77
X119.05Y-108.09
X120.03Y-86.54
X120.2Y-88.3
X120.394Y-108.09
X121.33Y-84.3
X121.738Y-108.09
X123.082Y-108.09
X123.45Y-86.82
X123.92Y-90.1
X123.94Y-88.82
X124.426Y-108.09
X124.82Y-104.78
X124.85Y-98.19
X125.77Y-108.09
X125.94Y-91.6
X126.74Y-97.79
X127.01Y-102.82
X128.19Y-102.565
X128.84Y-101.8
X129.27Y-86.86
X129.297Y-76.42
X130.38Y-106.87
X130.636Y-76.42
X131.7Y-94.83
X131.8Y-90.69
X131.974Y-76.42
X132.77Y-103.81
X132.84Y-85.79
X132.97Y-88.992
X133.313Y-76.42
X133.46Y-95.03
X134.336Y-108.09
X134.35Y-105.0
X134.651Y-76.42
X135.07Y-96.97
X135.44Y-99.68
X135.68Y-108.09
X135.85Y-90.97
X135.989Y-76.42
X137.0Y-84.64
X137.024Y-108.09
X137.328Y-76.42
X137.91Y-89.11
X138.368Y-108.09
X138.55Y-87.31
X138.59Y-96.02
X138.666Y-76.42
X139.61Y-99.22
X140.005Y-76.42
X140.06Y-97.49
X141.12Y-102.36
X141.343Y-76.42
X141.54Y-88.06
X141.82Y-108.09
X142.29Y-87.33
X142.385Y-99.385
X142.682Y-76.37
X142.89Y-104.77
X143.093Y-93.94
X143.164Y-108.09
X143.35Y-95.48
X143.35Y-96.7
X143.36Y-92.37
X143.89Y-87.79
X144.02Y-76.37
X144.508Y-108.09
X145.18Y-89.5
X145.21Y-82.93
X145.358Y-76.37
X145.852Y-108.09
X145.96Y-100.99
X146.697Y-76.37
X147.196Y-108.09
X148.035Y-76.37
X148.54Y-108.09
X148.86Y-98.06
X150.85Y-86.28
X151.44Y-91.88
X152.96Y-92.31
X153.01Y-80.288
X153.01Y-81.632
X153.01Y-82.976
X153.01Y-84.32
X153.14Y-99.728
X153.14Y-101.072
X153.14Y-102.416
X153.14Y-103.76
T2
X122.12Y-81.52
T3
X116.0Y-97.5
X116.0Y-100.0
X151.47Y-97.68
X151.47Y-101.22
X151.49Y-94.13
T4
X120.45Y-78.625
X122.99Y-78.625
X125.53Y-78.625
T5
X116.0Y-78.0
X116.0Y-106.0
X151.0Y-78.0
X151.0Y-106.0
M30
