%TF.GenerationSoftware,KiCad,Pcbnew,9.0.1*%
%TF.CreationDate,2026-03-17T14:29:56+01:00*%
%TF.ProjectId,EMG_sensor,454d475f-7365-46e7-936f-722e6b696361,rev?*%
%TF.SameCoordinates,Original*%
%TF.FileFunction,Copper,L1,Top*%
%TF.FilePolarity,Positive*%
%FSLAX46Y46*%
G04 Gerber Fmt 4.6, Leading zero omitted, Abs format (unit mm)*
G04 Created by KiCad (PCBNEW 9.0.1) date 2026-03-17 14:29:56*
%MOMM*%
%LPD*%
G01*
G04 APERTURE LIST*
G04 Aperture macros list*
%AMRoundRect*
0 Rectangle with rounded corners*
0 $1 Rounding radius*
0 $2 $3 $4 $5 $6 $7 $8 $9 X,Y pos of 4 corners*
0 Add a 4 corners polygon primitive as box body*
4,1,4,$2,$3,$4,$5,$6,$7,$8,$9,$2,$3,0*
0 Add four circle primitives for the rounded corners*
1,1,$1+$1,$2,$3*
1,1,$1+$1,$4,$5*
1,1,$1+$1,$6,$7*
1,1,$1+$1,$8,$9*
0 Add four rect primitives between the rounded corners*
20,1,$1+$1,$2,$3,$4,$5,0*
20,1,$1+$1,$4,$5,$6,$7,0*
20,1,$1+$1,$6,$7,$8,$9,0*
20,1,$1+$1,$8,$9,$2,$3,0*%
G04 Aperture macros list end*
%TA.AperFunction,SMDPad,CuDef*%
%ADD10RoundRect,0.160000X-0.197500X-0.160000X0.197500X-0.160000X0.197500X0.160000X-0.197500X0.160000X0*%
%TD*%
%TA.AperFunction,SMDPad,CuDef*%
%ADD11RoundRect,0.160000X0.160000X-0.197500X0.160000X0.197500X-0.160000X0.197500X-0.160000X-0.197500X0*%
%TD*%
%TA.AperFunction,ComponentPad*%
%ADD12R,1.730000X2.030000*%
%TD*%
%TA.AperFunction,ComponentPad*%
%ADD13O,1.730000X2.030000*%
%TD*%
%TA.AperFunction,SMDPad,CuDef*%
%ADD14RoundRect,0.155000X0.155000X-0.212500X0.155000X0.212500X-0.155000X0.212500X-0.155000X-0.212500X0*%
%TD*%
%TA.AperFunction,SMDPad,CuDef*%
%ADD15RoundRect,0.225000X-0.375000X0.225000X-0.375000X-0.225000X0.375000X-0.225000X0.375000X0.225000X0*%
%TD*%
%TA.AperFunction,SMDPad,CuDef*%
%ADD16RoundRect,0.160000X-0.160000X0.197500X-0.160000X-0.197500X0.160000X-0.197500X0.160000X0.197500X0*%
%TD*%
%TA.AperFunction,SMDPad,CuDef*%
%ADD17RoundRect,0.150000X-0.725000X-0.150000X0.725000X-0.150000X0.725000X0.150000X-0.725000X0.150000X0*%
%TD*%
%TA.AperFunction,ComponentPad*%
%ADD18RoundRect,0.250000X0.750000X-0.600000X0.750000X0.600000X-0.750000X0.600000X-0.750000X-0.600000X0*%
%TD*%
%TA.AperFunction,ComponentPad*%
%ADD19O,2.000000X1.700000*%
%TD*%
%TA.AperFunction,ComponentPad*%
%ADD20C,4.400000*%
%TD*%
%TA.AperFunction,SMDPad,CuDef*%
%ADD21RoundRect,0.160000X0.197500X0.160000X-0.197500X0.160000X-0.197500X-0.160000X0.197500X-0.160000X0*%
%TD*%
%TA.AperFunction,ComponentPad*%
%ADD22R,1.700000X1.700000*%
%TD*%
%TA.AperFunction,SMDPad,CuDef*%
%ADD23RoundRect,0.155000X-0.212500X-0.155000X0.212500X-0.155000X0.212500X0.155000X-0.212500X0.155000X0*%
%TD*%
%TA.AperFunction,ViaPad*%
%ADD24C,0.600000*%
%TD*%
%TA.AperFunction,ViaPad*%
%ADD25C,0.800000*%
%TD*%
%TA.AperFunction,Conductor*%
%ADD26C,0.300000*%
%TD*%
G04 APERTURE END LIST*
D10*
%TO.P,R11,1*%
%TO.N,Net-(U4--)*%
X149402500Y-91000000D03*
%TO.P,R11,2*%
%TO.N,Net-(R11-Pad2)*%
X150597500Y-91000000D03*
%TD*%
%TO.P,R1,1*%
%TO.N,Net-(J1-Pin_1)*%
X116360000Y-83160000D03*
%TO.P,R1,2*%
%TO.N,Net-(U1--)*%
X117555000Y-83160000D03*
%TD*%
D11*
%TO.P,R7,1*%
%TO.N,Net-(R6-Pad2)*%
X132950000Y-88035000D03*
%TO.P,R7,2*%
%TO.N,Net-(U3--)*%
X132950000Y-86840000D03*
%TD*%
D10*
%TO.P,R10,1*%
%TO.N,Net-(D2-A)*%
X146995000Y-91000000D03*
%TO.P,R10,2*%
%TO.N,Net-(U4--)*%
X148190000Y-91000000D03*
%TD*%
%TO.P,R16,1*%
%TO.N,Net-(J1-Pin_3)*%
X131960000Y-98250000D03*
%TO.P,R16,2*%
%TO.N,Net-(U8-+)*%
X133155000Y-98250000D03*
%TD*%
D12*
%TO.P,J1,1,Pin_1*%
%TO.N,Net-(J1-Pin_1)*%
X120450000Y-78625000D03*
D13*
%TO.P,J1,2,Pin_2*%
%TO.N,Net-(J1-Pin_2)*%
X122990000Y-78625000D03*
%TO.P,J1,3,Pin_3*%
%TO.N,Net-(J1-Pin_3)*%
X125530000Y-78625000D03*
%TD*%
D10*
%TO.P,R8,1*%
%TO.N,Net-(U3--)*%
X139835000Y-83500000D03*
%TO.P,R8,2*%
%TO.N,Net-(D2-A)*%
X141030000Y-83500000D03*
%TD*%
%TO.P,R15,1*%
%TO.N,Net-(J1-Pin_3)*%
X138880000Y-98290000D03*
%TO.P,R15,2*%
%TO.N,Net-(J4-Pin_1)*%
X140075000Y-98290000D03*
%TD*%
%TO.P,R19,1*%
%TO.N,Net-(U8--)*%
X127370000Y-99600000D03*
%TO.P,R19,2*%
%TO.N,Net-(J1-Pin_3)*%
X128565000Y-99600000D03*
%TD*%
D11*
%TO.P,R20,1*%
%TO.N,Net-(J5-Pin_1)*%
X120500000Y-100597500D03*
%TO.P,R20,2*%
%TO.N,Net-(U7-+)*%
X120500000Y-99402500D03*
%TD*%
D14*
%TO.P,C2,1*%
%TO.N,Net-(C2-Pad1)*%
X148567500Y-100567500D03*
%TO.P,C2,2*%
%TO.N,Net-(U5--)*%
X148567500Y-99432500D03*
%TD*%
D15*
%TO.P,D1,1,K*%
%TO.N,Net-(D1-K)*%
X142970000Y-77890000D03*
%TO.P,D1,2,A*%
%TO.N,Net-(D1-A)*%
X142970000Y-81190000D03*
%TD*%
D16*
%TO.P,R18,1*%
%TO.N,Net-(U7--)*%
X122500000Y-102402500D03*
%TO.P,R18,2*%
%TO.N,Net-(U8--)*%
X122500000Y-103597500D03*
%TD*%
D17*
%TO.P,U3,1,NULL*%
%TO.N,unconnected-(U3-NULL-Pad1)*%
X134925000Y-85595000D03*
%TO.P,U3,2,-*%
%TO.N,Net-(U3--)*%
X134925000Y-86865000D03*
%TO.P,U3,3,+*%
%TO.N,Net-(J1-Pin_3)*%
X134925000Y-88135000D03*
%TO.P,U3,4,V-*%
%TO.N,Net-(J2-Pin_1)*%
X134925000Y-89405000D03*
%TO.P,U3,5,NULL*%
%TO.N,unconnected-(U3-NULL-Pad5)*%
X140075000Y-89405000D03*
%TO.P,U3,6*%
%TO.N,Net-(D1-A)*%
X140075000Y-88135000D03*
%TO.P,U3,7,V+*%
%TO.N,Net-(J3-Pin_1)*%
X140075000Y-86865000D03*
%TO.P,U3,8,NC*%
%TO.N,unconnected-(U3-NC-Pad8)*%
X140075000Y-85595000D03*
%TD*%
D18*
%TO.P,J5,1,Pin_1*%
%TO.N,Net-(J5-Pin_1)*%
X116000000Y-100000000D03*
D19*
%TO.P,J5,2,Pin_2*%
%TO.N,Net-(J5-Pin_2)*%
X116000000Y-97500000D03*
%TD*%
D20*
%TO.P,H1,1,1*%
%TO.N,GND*%
X116000000Y-78000000D03*
%TD*%
D11*
%TO.P,R21,1*%
%TO.N,Net-(J5-Pin_2)*%
X120500000Y-98097500D03*
%TO.P,R21,2*%
%TO.N,Net-(U7-+)*%
X120500000Y-96902500D03*
%TD*%
D10*
%TO.P,R13,1*%
%TO.N,Net-(U5--)*%
X134292500Y-98260000D03*
%TO.P,R13,2*%
%TO.N,Net-(C2-Pad1)*%
X135487500Y-98260000D03*
%TD*%
D21*
%TO.P,R3,1*%
%TO.N,Net-(J1-Pin_3)*%
X122260000Y-83140000D03*
%TO.P,R3,2*%
%TO.N,Net-(U1-+)*%
X121065000Y-83140000D03*
%TD*%
%TO.P,R17,1*%
%TO.N,Net-(J4-Pin_1)*%
X129097500Y-107110000D03*
%TO.P,R17,2*%
%TO.N,Net-(U8-+)*%
X127902500Y-107110000D03*
%TD*%
D17*
%TO.P,U1,1,NULL*%
%TO.N,unconnected-(U1-NULL-Pad1)*%
X116925000Y-85595000D03*
%TO.P,U1,2,-*%
%TO.N,Net-(U1--)*%
X116925000Y-86865000D03*
%TO.P,U1,3,+*%
%TO.N,Net-(U1-+)*%
X116925000Y-88135000D03*
%TO.P,U1,4,V-*%
%TO.N,Net-(J2-Pin_1)*%
X116925000Y-89405000D03*
%TO.P,U1,5,NULL*%
%TO.N,unconnected-(U1-NULL-Pad5)*%
X122075000Y-89405000D03*
%TO.P,U1,6*%
%TO.N,Net-(C1-Pad1)*%
X122075000Y-88135000D03*
%TO.P,U1,7,V+*%
%TO.N,Net-(J3-Pin_1)*%
X122075000Y-86865000D03*
%TO.P,U1,8,NC*%
%TO.N,unconnected-(U1-NC-Pad8)*%
X122075000Y-85595000D03*
%TD*%
D10*
%TO.P,R14,1*%
%TO.N,Net-(C2-Pad1)*%
X136580000Y-98270000D03*
%TO.P,R14,2*%
%TO.N,Net-(J1-Pin_3)*%
X137775000Y-98270000D03*
%TD*%
D15*
%TO.P,D2,1,K*%
%TO.N,Net-(D1-A)*%
X142930000Y-82890000D03*
%TO.P,D2,2,A*%
%TO.N,Net-(D2-A)*%
X142930000Y-86190000D03*
%TD*%
D21*
%TO.P,R12,1*%
%TO.N,Net-(R11-Pad2)*%
X153007500Y-91070000D03*
%TO.P,R12,2*%
%TO.N,Net-(U5--)*%
X151812500Y-91070000D03*
%TD*%
D22*
%TO.P,J3,1,Pin_1*%
%TO.N,Net-(J3-Pin_1)*%
X151490000Y-94130000D03*
%TD*%
D20*
%TO.P,H4,1,1*%
%TO.N,GND*%
X151000000Y-78000000D03*
%TD*%
D17*
%TO.P,U2,1,NULL*%
%TO.N,unconnected-(U2-NULL-Pad1)*%
X125925000Y-85595000D03*
%TO.P,U2,2,-*%
%TO.N,Net-(U2--)*%
X125925000Y-86865000D03*
%TO.P,U2,3,+*%
%TO.N,Net-(J1-Pin_3)*%
X125925000Y-88135000D03*
%TO.P,U2,4,V-*%
%TO.N,Net-(J2-Pin_1)*%
X125925000Y-89405000D03*
%TO.P,U2,5,NULL*%
%TO.N,unconnected-(U2-NULL-Pad5)*%
X131075000Y-89405000D03*
%TO.P,U2,6*%
%TO.N,Net-(R6-Pad2)*%
X131075000Y-88135000D03*
%TO.P,U2,7,V+*%
%TO.N,Net-(J3-Pin_1)*%
X131075000Y-86865000D03*
%TO.P,U2,8,NC*%
%TO.N,unconnected-(U2-NC-Pad8)*%
X131075000Y-85595000D03*
%TD*%
D10*
%TO.P,R6,1*%
%TO.N,Net-(U2--)*%
X126902500Y-91000000D03*
%TO.P,R6,2*%
%TO.N,Net-(R6-Pad2)*%
X128097500Y-91000000D03*
%TD*%
D21*
%TO.P,R9,1*%
%TO.N,Net-(U3--)*%
X138530000Y-83500000D03*
%TO.P,R9,2*%
%TO.N,Net-(D1-K)*%
X137335000Y-83500000D03*
%TD*%
D17*
%TO.P,U5,1,NULL*%
%TO.N,unconnected-(U5-NULL-Pad1)*%
X134350000Y-101190000D03*
%TO.P,U5,2,-*%
%TO.N,Net-(U5--)*%
X134350000Y-102460000D03*
%TO.P,U5,3,+*%
%TO.N,Net-(J1-Pin_3)*%
X134350000Y-103730000D03*
%TO.P,U5,4,V-*%
%TO.N,Net-(J2-Pin_1)*%
X134350000Y-105000000D03*
%TO.P,U5,5,NULL*%
%TO.N,unconnected-(U5-NULL-Pad5)*%
X139500000Y-105000000D03*
%TO.P,U5,6*%
%TO.N,Net-(C2-Pad1)*%
X139500000Y-103730000D03*
%TO.P,U5,7,V+*%
%TO.N,Net-(J3-Pin_1)*%
X139500000Y-102460000D03*
%TO.P,U5,8,NC*%
%TO.N,unconnected-(U5-NC-Pad8)*%
X139500000Y-101190000D03*
%TD*%
D10*
%TO.P,R2,1*%
%TO.N,Net-(J1-Pin_2)*%
X118700000Y-83140000D03*
%TO.P,R2,2*%
%TO.N,Net-(U1-+)*%
X119895000Y-83140000D03*
%TD*%
D20*
%TO.P,H2,1,1*%
%TO.N,GND*%
X116000000Y-106000000D03*
%TD*%
D17*
%TO.P,U7,1,NULL*%
%TO.N,unconnected-(U7-NULL-Pad1)*%
X124850000Y-94380000D03*
%TO.P,U7,2,-*%
%TO.N,Net-(U7--)*%
X124850000Y-95650000D03*
%TO.P,U7,3,+*%
%TO.N,Net-(U7-+)*%
X124850000Y-96920000D03*
%TO.P,U7,4,V-*%
%TO.N,Net-(J2-Pin_1)*%
X124850000Y-98190000D03*
%TO.P,U7,5,NULL*%
%TO.N,unconnected-(U7-NULL-Pad5)*%
X130000000Y-98190000D03*
%TO.P,U7,6*%
%TO.N,Net-(U7--)*%
X130000000Y-96920000D03*
%TO.P,U7,7,V+*%
%TO.N,Net-(J3-Pin_1)*%
X130000000Y-95650000D03*
%TO.P,U7,8,NC*%
%TO.N,unconnected-(U7-NC-Pad8)*%
X130000000Y-94380000D03*
%TD*%
D23*
%TO.P,C1,1*%
%TO.N,Net-(C1-Pad1)*%
X118432500Y-91000000D03*
%TO.P,C1,2*%
%TO.N,Net-(C1-Pad2)*%
X119567500Y-91000000D03*
%TD*%
D20*
%TO.P,H3,1,1*%
%TO.N,GND*%
X151000000Y-106000000D03*
%TD*%
D17*
%TO.P,U4,1,NULL*%
%TO.N,unconnected-(U4-NULL-Pad1)*%
X146815000Y-85440000D03*
%TO.P,U4,2,-*%
%TO.N,Net-(U4--)*%
X146815000Y-86710000D03*
%TO.P,U4,3,+*%
%TO.N,Net-(D1-K)*%
X146815000Y-87980000D03*
%TO.P,U4,4,V-*%
%TO.N,Net-(J2-Pin_1)*%
X146815000Y-89250000D03*
%TO.P,U4,5,NULL*%
%TO.N,unconnected-(U4-NULL-Pad5)*%
X151965000Y-89250000D03*
%TO.P,U4,6*%
%TO.N,Net-(R11-Pad2)*%
X151965000Y-87980000D03*
%TO.P,U4,7,V+*%
%TO.N,Net-(J3-Pin_1)*%
X151965000Y-86710000D03*
%TO.P,U4,8,NC*%
%TO.N,unconnected-(U4-NC-Pad8)*%
X151965000Y-85440000D03*
%TD*%
D22*
%TO.P,J4,1,Pin_1*%
%TO.N,Net-(J4-Pin_1)*%
X151470000Y-97680000D03*
%TD*%
D17*
%TO.P,U8,1,NULL*%
%TO.N,unconnected-(U8-NULL-Pad1)*%
X124840000Y-100960000D03*
%TO.P,U8,2,-*%
%TO.N,Net-(U8--)*%
X124840000Y-102230000D03*
%TO.P,U8,3,+*%
%TO.N,Net-(U8-+)*%
X124840000Y-103500000D03*
%TO.P,U8,4,V-*%
%TO.N,Net-(J2-Pin_1)*%
X124840000Y-104770000D03*
%TO.P,U8,5,NULL*%
%TO.N,unconnected-(U8-NULL-Pad5)*%
X129990000Y-104770000D03*
%TO.P,U8,6*%
%TO.N,Net-(J1-Pin_3)*%
X129990000Y-103500000D03*
%TO.P,U8,7,V+*%
%TO.N,Net-(J3-Pin_1)*%
X129990000Y-102230000D03*
%TO.P,U8,8,NC*%
%TO.N,unconnected-(U8-NC-Pad8)*%
X129990000Y-100960000D03*
%TD*%
%TO.P,U6,1,NULL*%
%TO.N,unconnected-(U6-NULL-Pad1)*%
X140060000Y-92670000D03*
%TO.P,U6,2,-*%
%TO.N,Net-(J1-Pin_3)*%
X140060000Y-93940000D03*
%TO.P,U6,3,+*%
X140060000Y-95210000D03*
%TO.P,U6,4,V-*%
%TO.N,Net-(J2-Pin_1)*%
X140060000Y-96480000D03*
%TO.P,U6,5,NULL*%
%TO.N,unconnected-(U6-NULL-Pad5)*%
X145210000Y-96480000D03*
%TO.P,U6,6*%
%TO.N,Net-(J4-Pin_1)*%
X145210000Y-95210000D03*
%TO.P,U6,7,V+*%
%TO.N,Net-(J3-Pin_1)*%
X145210000Y-93940000D03*
%TO.P,U6,8,NC*%
%TO.N,unconnected-(U6-NC-Pad8)*%
X145210000Y-92670000D03*
%TD*%
D10*
%TO.P,R4,1*%
%TO.N,Net-(U1--)*%
X115835000Y-91000000D03*
%TO.P,R4,2*%
%TO.N,Net-(C1-Pad1)*%
X117030000Y-91000000D03*
%TD*%
%TO.P,R5,1*%
%TO.N,Net-(C1-Pad2)*%
X123402500Y-91000000D03*
%TO.P,R5,2*%
%TO.N,Net-(U2--)*%
X124597500Y-91000000D03*
%TD*%
D22*
%TO.P,J2,1,Pin_1*%
%TO.N,Net-(J2-Pin_1)*%
X151470000Y-101220000D03*
%TD*%
D24*
%TO.N,Net-(U5--)*%
X148860000Y-98060000D03*
%TO.N,Net-(C1-Pad1)*%
X118740000Y-91770000D03*
X120200000Y-88300000D03*
%TO.N,Net-(U5--)*%
X151440000Y-91880000D03*
%TO.N,Net-(D1-A)*%
X141540000Y-88060000D03*
X145210000Y-82930000D03*
%TO.N,Net-(D1-K)*%
X143890000Y-87790000D03*
X137000000Y-84640000D03*
%TO.N,Net-(J1-Pin_3)*%
X128190000Y-102564999D03*
X132770000Y-103810000D03*
X123940000Y-88820000D03*
X132970405Y-88992500D03*
%TO.N,Net-(J2-Pin_1)*%
X134350000Y-105000000D03*
X138590000Y-96020000D03*
X145180000Y-89500000D03*
X135850000Y-90970000D03*
X124820000Y-104780000D03*
X125940000Y-91600000D03*
X123920000Y-90100000D03*
X124850000Y-98190000D03*
%TO.N,Net-(J3-Pin_1)*%
X128840000Y-101800000D03*
X132840000Y-85790000D03*
X131700000Y-94830000D03*
X141120000Y-102360000D03*
X142290000Y-87330000D03*
X138550000Y-87310000D03*
X150850000Y-86280000D03*
X129270000Y-86860000D03*
X123450000Y-86820000D03*
X143093032Y-93940000D03*
%TO.N,Net-(J4-Pin_1)*%
X140060000Y-97490000D03*
X130380000Y-106870000D03*
X143350000Y-95480000D03*
X139610000Y-99220000D03*
%TO.N,GND*%
X135440000Y-99680000D03*
X137910000Y-89110000D03*
X131800000Y-90690000D03*
X143350000Y-96700000D03*
X142890000Y-104770000D03*
X142681572Y-76370000D03*
X153140000Y-99728000D03*
X125770000Y-108090000D03*
X118660000Y-84260000D03*
X124426000Y-108090000D03*
X143360000Y-92370000D03*
X145960000Y-100990000D03*
X133312572Y-76420000D03*
X113910000Y-84472000D03*
X113860000Y-91138000D03*
X113860000Y-93826000D03*
X148540000Y-108090000D03*
X140004715Y-76420000D03*
X138666286Y-76420000D03*
X126740000Y-97790000D03*
X134651000Y-76420000D03*
X119050000Y-108090000D03*
X143164000Y-108090000D03*
X153140000Y-102416000D03*
X113860000Y-89794000D03*
X121330000Y-84300000D03*
X113910000Y-85816000D03*
X137327857Y-76420000D03*
X148035286Y-76370000D03*
X120030000Y-86540000D03*
X144508000Y-108090000D03*
X120394000Y-108090000D03*
X147196000Y-108090000D03*
X153010000Y-80288000D03*
X135070000Y-96970000D03*
X113860000Y-92482000D03*
X113910000Y-83128000D03*
X131974143Y-76420000D03*
X152960000Y-92310000D03*
X138368000Y-108090000D03*
X123082000Y-108090000D03*
X153010000Y-81632000D03*
X137024000Y-108090000D03*
X135680000Y-108090000D03*
X135989429Y-76420000D03*
X153010000Y-82976000D03*
X113860000Y-88450000D03*
X129297286Y-76420000D03*
X144020000Y-76370000D03*
X113910000Y-80440000D03*
X153140000Y-103760000D03*
X153140000Y-101072000D03*
X127010000Y-102820000D03*
X113910000Y-81784000D03*
X145358429Y-76370000D03*
X141820000Y-108090000D03*
X118360000Y-82130000D03*
X153010000Y-84320000D03*
X130635715Y-76420000D03*
X133460000Y-95030000D03*
X113910000Y-87160000D03*
X141343143Y-76420000D03*
X145852000Y-108090000D03*
X134336000Y-108090000D03*
X121738000Y-108090000D03*
D25*
X122120000Y-81520000D03*
D24*
X146696857Y-76370000D03*
%TO.N,Net-(J2-Pin_1)*%
X142385431Y-99385431D03*
%TD*%
D26*
%TO.N,Net-(J2-Pin_1)*%
X142500000Y-99500000D02*
X142500000Y-98350000D01*
%TO.N,Net-(J4-Pin_1)*%
X150740000Y-97030000D02*
X151480000Y-97770000D01*
X147276968Y-97030000D02*
X150740000Y-97030000D01*
%TO.N,Net-(J3-Pin_1)*%
X151280001Y-93940000D02*
X151323963Y-93983962D01*
X145210000Y-93940000D02*
X151280001Y-93940000D01*
%TO.N,Net-(C1-Pad2)*%
X119407500Y-91000000D02*
X123592500Y-91000000D01*
%TO.N,Net-(C1-Pad1)*%
X116840000Y-91000000D02*
X118592500Y-91000000D01*
X120365000Y-88135000D02*
X120200000Y-88300000D01*
X118740000Y-91147500D02*
X118592500Y-91000000D01*
X122075000Y-88135000D02*
X120365000Y-88135000D01*
X118740000Y-91770000D02*
X118740000Y-91147500D01*
%TO.N,Net-(U5--)*%
X134350000Y-102460000D02*
X133475001Y-102460000D01*
X134350000Y-102460000D02*
X135224999Y-102460000D01*
X144612808Y-105751000D02*
X149328500Y-101035308D01*
X135224999Y-102460000D02*
X138515999Y-105751000D01*
X151812500Y-91070000D02*
X151812500Y-91507500D01*
X148860000Y-99140000D02*
X148567500Y-99432500D01*
X148847500Y-99432500D02*
X148567500Y-99432500D01*
X149328500Y-101035308D02*
X149328500Y-99913500D01*
X133475001Y-102460000D02*
X132680000Y-101664999D01*
X148567500Y-99592500D02*
X148639870Y-99592500D01*
X149328500Y-99913500D02*
X148847500Y-99432500D01*
X134292500Y-99287500D02*
X132680000Y-100900000D01*
X151812500Y-91507500D02*
X151440000Y-91880000D01*
X148860000Y-98060000D02*
X148860000Y-99140000D01*
X138515999Y-105751000D02*
X144612808Y-105751000D01*
X132680000Y-101664999D02*
X132680000Y-100900000D01*
X134292500Y-98260000D02*
X134292500Y-99287500D01*
%TO.N,Net-(C2-Pad1)*%
X136580000Y-98270000D02*
X136580000Y-101684999D01*
X138625001Y-103730000D02*
X139500000Y-103730000D01*
X148567500Y-100482500D02*
X148567500Y-100407500D01*
X139500000Y-103730000D02*
X145320000Y-103730000D01*
X136580000Y-101684999D02*
X138625001Y-103730000D01*
X136580000Y-98270000D02*
X135497500Y-98270000D01*
X145320000Y-103730000D02*
X148567500Y-100482500D01*
X135497500Y-98270000D02*
X135487500Y-98260000D01*
%TO.N,Net-(D1-A)*%
X141540000Y-88060000D02*
X140150000Y-88060000D01*
X142970000Y-81190000D02*
X142970000Y-82850000D01*
X140150000Y-88060000D02*
X140075000Y-88135000D01*
X142970000Y-82850000D02*
X142930000Y-82890000D01*
X145170000Y-82890000D02*
X145210000Y-82930000D01*
X142930000Y-82890000D02*
X145170000Y-82890000D01*
%TO.N,Net-(D1-K)*%
X145582999Y-87790000D02*
X143890000Y-87790000D01*
X137000000Y-83835000D02*
X137335000Y-83500000D01*
X137525000Y-83500000D02*
X137525000Y-83427630D01*
X137000000Y-84640000D02*
X137000000Y-83835000D01*
X142630000Y-77890000D02*
X142970000Y-77890000D01*
X145975001Y-88000000D02*
X146850000Y-88000000D01*
X137335000Y-83185000D02*
X142630000Y-77890000D01*
X145674000Y-87698999D02*
X145582999Y-87790000D01*
X137335000Y-83500000D02*
X137335000Y-83185000D01*
X145674000Y-87698999D02*
X145975001Y-88000000D01*
%TO.N,Net-(D2-A)*%
X143095000Y-88875000D02*
X145220000Y-91000000D01*
X143100000Y-88870000D02*
X143095000Y-88875000D01*
X142930000Y-86190000D02*
X143100000Y-86360000D01*
X142930000Y-85400000D02*
X141030000Y-83500000D01*
X143100000Y-86360000D02*
X143100000Y-88870000D01*
X142930000Y-86190000D02*
X142930000Y-85400000D01*
X145220000Y-91000000D02*
X147185000Y-91000000D01*
%TO.N,Net-(J1-Pin_3)*%
X137795000Y-98290000D02*
X137775000Y-98270000D01*
X137850000Y-98100001D02*
X137850000Y-98300000D01*
X138030000Y-95210000D02*
X137775000Y-95465000D01*
X128190000Y-102564999D02*
X128089000Y-102463999D01*
X124625000Y-88135000D02*
X123940000Y-88820000D01*
X131960000Y-98250000D02*
X131960000Y-97930000D01*
X122260000Y-83140000D02*
X122620000Y-83500000D01*
X131960000Y-98670000D02*
X131030000Y-99600000D01*
X138030000Y-95210000D02*
X140060000Y-95210000D01*
X124231772Y-87910000D02*
X124200000Y-87910000D01*
X132850000Y-103730000D02*
X132770000Y-103810000D01*
X136365000Y-88135000D02*
X136870000Y-88640000D01*
X124200000Y-87910000D02*
X124425000Y-88135000D01*
X128089000Y-102463999D02*
X128089000Y-100395999D01*
X134925000Y-88135000D02*
X136365000Y-88135000D01*
X134925000Y-88135000D02*
X134076018Y-88135000D01*
X125530000Y-79870000D02*
X122260000Y-83140000D01*
X137775000Y-95465000D02*
X137775000Y-98270000D01*
X133218518Y-88992500D02*
X132970405Y-88992500D01*
X140060000Y-93940000D02*
X140060000Y-95210000D01*
X131960000Y-98250000D02*
X131960000Y-98670000D01*
X122720000Y-83500000D02*
X124231772Y-85011772D01*
X134076018Y-88135000D02*
X133218518Y-88992500D01*
X139185001Y-93940000D02*
X140060000Y-93940000D01*
X129990000Y-103500000D02*
X129125001Y-103500000D01*
X136870000Y-88640000D02*
X136870000Y-91624999D01*
X124231772Y-85011772D02*
X124231772Y-87910000D01*
X138880000Y-98290000D02*
X137795000Y-98290000D01*
X129125001Y-103500000D02*
X128190000Y-102564999D01*
X136870000Y-91624999D02*
X139185001Y-93940000D01*
X131960000Y-97930000D02*
X134425000Y-95465000D01*
X125925000Y-88135000D02*
X124625000Y-88135000D01*
X134350000Y-103730000D02*
X132850000Y-103730000D01*
X122620000Y-83500000D02*
X122720000Y-83500000D01*
X128089000Y-100395999D02*
X128565000Y-99919999D01*
X125530000Y-78625000D02*
X125530000Y-79870000D01*
X131030000Y-99600000D02*
X128375000Y-99600000D01*
X124425000Y-88135000D02*
X125925000Y-88135000D01*
X128565000Y-99919999D02*
X128565000Y-99600000D01*
X134425000Y-95465000D02*
X137775000Y-95465000D01*
%TO.N,Net-(J1-Pin_2)*%
X118700000Y-82920000D02*
X118700000Y-83140000D01*
X122990000Y-78630000D02*
X118700000Y-82920000D01*
X122990000Y-78625000D02*
X122990000Y-78630000D01*
%TO.N,Net-(J1-Pin_1)*%
X120450000Y-78625000D02*
X116360000Y-82715000D01*
X116360000Y-82715000D02*
X116360000Y-83160000D01*
%TO.N,Net-(J2-Pin_1)*%
X146621000Y-89500000D02*
X146851000Y-89270000D01*
X139050000Y-96480000D02*
X138590000Y-96020000D01*
X134925000Y-89405000D02*
X132390000Y-91940000D01*
X140630000Y-96480000D02*
X140060000Y-96480000D01*
X123920000Y-90100000D02*
X123790000Y-90230000D01*
X142500000Y-98350000D02*
X140630000Y-96480000D01*
X126280000Y-91940000D02*
X125940000Y-91600000D01*
X132390000Y-91940000D02*
X126280000Y-91940000D01*
X134925000Y-90045000D02*
X135850000Y-90970000D01*
X117750000Y-90230000D02*
X116925000Y-89405000D01*
X124060000Y-90100000D02*
X124755000Y-89405000D01*
X145180000Y-89500000D02*
X146621000Y-89500000D01*
X124755000Y-89405000D02*
X125925000Y-89405000D01*
X140060000Y-96480000D02*
X139050000Y-96480000D01*
X123920000Y-90100000D02*
X124060000Y-90100000D01*
X123790000Y-90230000D02*
X117750000Y-90230000D01*
X134925000Y-89405000D02*
X134925000Y-90045000D01*
%TO.N,Net-(J3-Pin_1)*%
X142290000Y-87330000D02*
X142400000Y-87440000D01*
X151535000Y-86280000D02*
X151965000Y-86710000D01*
X129270000Y-102230000D02*
X128840000Y-101800000D01*
X142075000Y-87060000D02*
X141880000Y-86865000D01*
X141880000Y-86865000D02*
X140075000Y-86865000D01*
X150850000Y-86280000D02*
X151535000Y-86280000D01*
X130880000Y-95650000D02*
X130000000Y-95650000D01*
X131075000Y-86865000D02*
X131698982Y-86865000D01*
X123450000Y-86820000D02*
X122120000Y-86820000D01*
X132773982Y-85790000D02*
X132840000Y-85790000D01*
X131075000Y-86865000D02*
X129275000Y-86865000D01*
X138995000Y-86865000D02*
X138550000Y-87310000D01*
X140075000Y-86865000D02*
X138995000Y-86865000D01*
X142400000Y-93246968D02*
X143093032Y-93940000D01*
X145210000Y-93940000D02*
X145270000Y-94000000D01*
X131700000Y-94830000D02*
X130880000Y-95650000D01*
X142400000Y-87440000D02*
X142400000Y-93246968D01*
X131698982Y-86865000D02*
X132773982Y-85790000D01*
X139600000Y-102360000D02*
X139500000Y-102460000D01*
X129990000Y-102230000D02*
X129270000Y-102230000D01*
X145290000Y-94020000D02*
X145210000Y-93940000D01*
X129275000Y-86865000D02*
X129270000Y-86860000D01*
X141120000Y-102360000D02*
X139600000Y-102360000D01*
X145210000Y-93940000D02*
X143093032Y-93940000D01*
X122120000Y-86820000D02*
X122075000Y-86865000D01*
%TO.N,Net-(J4-Pin_1)*%
X145210000Y-95210000D02*
X146084999Y-95210000D01*
X139610000Y-98755000D02*
X139610000Y-99220000D01*
X144940000Y-95480000D02*
X145210000Y-95210000D01*
X130030000Y-106870000D02*
X129790000Y-107110000D01*
X143350000Y-95480000D02*
X144940000Y-95480000D01*
X130380000Y-106870000D02*
X130030000Y-106870000D01*
X140075000Y-98290000D02*
X139610000Y-98755000D01*
X147276968Y-96401969D02*
X147276968Y-97030000D01*
X129790000Y-107110000D02*
X128907500Y-107110000D01*
X140075000Y-97845000D02*
X140075000Y-98290000D01*
X140060000Y-97490000D02*
X140060000Y-97830000D01*
X140060000Y-97830000D02*
X140075000Y-97845000D01*
X146084999Y-95210000D02*
X147276968Y-96401969D01*
%TO.N,Net-(J5-Pin_1)*%
X120500000Y-100597500D02*
X116597500Y-100597500D01*
X116597500Y-100597500D02*
X116000000Y-100000000D01*
X116000000Y-100000000D02*
X116407500Y-100407500D01*
%TO.N,Net-(J5-Pin_2)*%
X116597500Y-98097500D02*
X116000000Y-97500000D01*
X116000000Y-97500000D02*
X116530000Y-97500000D01*
X120500000Y-98097500D02*
X116597500Y-98097500D01*
%TO.N,Net-(U1--)*%
X115350000Y-90325000D02*
X116025000Y-91000000D01*
X115350000Y-84290000D02*
X116884999Y-84290000D01*
X116050001Y-86865000D02*
X116925000Y-86865000D01*
X116884999Y-84290000D02*
X117555000Y-83619999D01*
X117575000Y-83140000D02*
X117555000Y-83160000D01*
X115350000Y-86164999D02*
X115350000Y-84290000D01*
X115350000Y-86164999D02*
X115350000Y-90325000D01*
X115350000Y-86164999D02*
X116050001Y-86865000D01*
X117555000Y-83619999D02*
X117555000Y-83160000D01*
%TO.N,Net-(U1-+)*%
X119895000Y-85612925D02*
X118251000Y-87256925D01*
X118251000Y-87683999D02*
X117799999Y-88135000D01*
X119705000Y-83140000D02*
X121255000Y-83140000D01*
X117799999Y-88135000D02*
X116925000Y-88135000D01*
X119895000Y-83140000D02*
X119895000Y-85612925D01*
X118251000Y-87256925D02*
X118251000Y-87683999D01*
%TO.N,Net-(U2--)*%
X126384100Y-86865000D02*
X127251000Y-87731900D01*
X126751500Y-90849000D02*
X126902500Y-91000000D01*
X124748500Y-90849000D02*
X126751500Y-90849000D01*
X127251000Y-87731900D02*
X127251000Y-90651500D01*
X127092500Y-91000000D02*
X127101000Y-90991500D01*
X125925000Y-86865000D02*
X126384100Y-86865000D01*
X127251000Y-90651500D02*
X126902500Y-91000000D01*
X124597500Y-91000000D02*
X124748500Y-90849000D01*
%TO.N,Net-(R6-Pad2)*%
X128097500Y-90237501D02*
X128097500Y-91000000D01*
X130200001Y-88135000D02*
X128097500Y-90237501D01*
X131075000Y-88135000D02*
X130200001Y-88135000D01*
X131075000Y-88135000D02*
X132840000Y-88135000D01*
X132840000Y-88135000D02*
X133000000Y-87975000D01*
%TO.N,Net-(U3--)*%
X138340000Y-84620000D02*
X138340000Y-83500000D01*
X138340000Y-83500000D02*
X140025000Y-83500000D01*
X134900000Y-86840000D02*
X134925000Y-86865000D01*
X132950000Y-86840000D02*
X134900000Y-86840000D01*
X134925000Y-86865000D02*
X136095000Y-86865000D01*
X136095000Y-86865000D02*
X138340000Y-84620000D01*
%TO.N,Net-(U4--)*%
X149402500Y-91000000D02*
X149402500Y-90922500D01*
X149325000Y-91000000D02*
X148190000Y-91000000D01*
X148190000Y-87210001D02*
X148190000Y-91000000D01*
X149390000Y-90935000D02*
X149325000Y-91000000D01*
X146815000Y-86710000D02*
X147689999Y-86710000D01*
X147689999Y-86710000D02*
X148190000Y-87210001D01*
X149390000Y-90910000D02*
X149390000Y-90935000D01*
X149402500Y-90922500D02*
X149390000Y-90910000D01*
%TO.N,Net-(R11-Pad2)*%
X152000000Y-88000000D02*
X152231968Y-88000000D01*
X153291000Y-88431001D02*
X153291000Y-90786500D01*
X152839999Y-87980000D02*
X153291000Y-88431001D01*
X151965000Y-87980000D02*
X152839999Y-87980000D01*
X151298500Y-90299000D02*
X150597500Y-91000000D01*
X152267518Y-90299000D02*
X151298500Y-90299000D01*
X153291000Y-90786500D02*
X153007500Y-91070000D01*
X153007500Y-91038982D02*
X152267518Y-90299000D01*
X153007500Y-91070000D02*
X153007500Y-91038982D01*
X152817500Y-91070000D02*
X152817500Y-90997630D01*
%TO.N,Net-(U8-+)*%
X127902500Y-105687501D02*
X127902500Y-106730000D01*
X127902500Y-106730000D02*
X127902500Y-107110000D01*
X131370000Y-105720000D02*
X128060000Y-105720000D01*
X125714999Y-103500000D02*
X127902500Y-105687501D01*
X131950000Y-99619232D02*
X131950000Y-105140000D01*
X128060000Y-105720000D02*
X128060000Y-106572500D01*
X124840000Y-103500000D02*
X125714999Y-103500000D01*
X131950000Y-105140000D02*
X131370000Y-105720000D01*
X133155000Y-98250000D02*
X133155000Y-98414232D01*
X133155000Y-98414232D02*
X131950000Y-99619232D01*
X128060000Y-106572500D02*
X127902500Y-106730000D01*
%TO.N,Net-(U7--)*%
X130000000Y-96920000D02*
X126861364Y-96920000D01*
X122500000Y-101570900D02*
X125129900Y-98941000D01*
X126861364Y-96920000D02*
X125591364Y-95650000D01*
X125591364Y-95650000D02*
X124850000Y-95650000D01*
X128823982Y-96920000D02*
X130000000Y-96920000D01*
X125129900Y-98941000D02*
X126802982Y-98941000D01*
X122500000Y-102402500D02*
X122500000Y-101570900D01*
X126802982Y-98941000D02*
X128823982Y-96920000D01*
%TO.N,Net-(U8--)*%
X125299100Y-102230000D02*
X124840000Y-102230000D01*
X124850000Y-102230000D02*
X125129999Y-102230000D01*
X124603032Y-102230000D02*
X124850000Y-102230000D01*
X127370000Y-100159100D02*
X125299100Y-102230000D01*
X123898518Y-102230000D02*
X122531018Y-103597500D01*
X122531018Y-103597500D02*
X122500000Y-103597500D01*
X124840000Y-102230000D02*
X123898518Y-102230000D01*
X127370000Y-99600000D02*
X127370000Y-100159100D01*
X127560000Y-99799999D02*
X127560000Y-99600000D01*
%TO.N,Net-(U7-+)*%
X120500000Y-96902500D02*
X124832500Y-96902500D01*
X120500000Y-96902500D02*
X120819999Y-96902500D01*
X121271000Y-97353501D02*
X121271000Y-98631500D01*
X120590000Y-97092500D02*
X120762500Y-96920000D01*
X120699999Y-97092500D02*
X120500000Y-97092500D01*
X120500000Y-97092500D02*
X120590000Y-97092500D01*
X121271000Y-98631500D02*
X120500000Y-99402500D01*
X124832500Y-96902500D02*
X124850000Y-96920000D01*
X120819999Y-96902500D02*
X121271000Y-97353501D01*
%TD*%
%TA.AperFunction,Conductor*%
%TO.N,GND*%
G36*
X115160967Y-78716602D02*
G01*
X115283398Y-78839033D01*
X115417262Y-78936290D01*
X114275425Y-80078127D01*
X114435127Y-80205484D01*
X114691903Y-80366827D01*
X114965119Y-80498401D01*
X114965133Y-80498407D01*
X115251354Y-80598561D01*
X115251366Y-80598565D01*
X115547017Y-80666045D01*
X115547033Y-80666047D01*
X115848366Y-80699999D01*
X115848368Y-80700000D01*
X116151632Y-80700000D01*
X116151633Y-80699999D01*
X116452966Y-80666047D01*
X116452982Y-80666045D01*
X116748633Y-80598565D01*
X116748645Y-80598561D01*
X117034866Y-80498407D01*
X117034880Y-80498401D01*
X117308096Y-80366827D01*
X117564872Y-80205484D01*
X117738051Y-80067379D01*
X117802738Y-80040971D01*
X117871433Y-80053726D01*
X117922327Y-80101597D01*
X117939261Y-80169383D01*
X117916858Y-80235564D01*
X117903045Y-80252007D01*
X115854724Y-82300328D01*
X115798334Y-82384724D01*
X115783535Y-82406871D01*
X115766098Y-82448966D01*
X115739220Y-82489190D01*
X115638746Y-82589664D01*
X115638742Y-82589670D01*
X115555767Y-82726929D01*
X115555765Y-82726933D01*
X115508048Y-82880065D01*
X115502000Y-82946621D01*
X115502000Y-83373388D01*
X115508046Y-83439925D01*
X115508047Y-83439930D01*
X115508048Y-83439933D01*
X115520101Y-83478612D01*
X115521251Y-83548470D01*
X115484450Y-83607863D01*
X115421381Y-83637931D01*
X115401715Y-83639500D01*
X115285929Y-83639500D01*
X115160261Y-83664497D01*
X115160255Y-83664499D01*
X115041875Y-83713533D01*
X115041866Y-83713538D01*
X114935331Y-83784723D01*
X114935327Y-83784726D01*
X114844726Y-83875327D01*
X114844723Y-83875331D01*
X114773538Y-83981866D01*
X114773533Y-83981875D01*
X114724499Y-84100255D01*
X114724497Y-84100261D01*
X114699500Y-84225928D01*
X114699500Y-90389070D01*
X114721499Y-90499659D01*
X114721499Y-90499668D01*
X114721501Y-90499668D01*
X114724499Y-90514745D01*
X114773533Y-90633125D01*
X114781432Y-90644946D01*
X114844723Y-90739669D01*
X114940682Y-90835628D01*
X114974166Y-90896949D01*
X114977000Y-90923308D01*
X114977000Y-91213388D01*
X114983046Y-91279926D01*
X114983048Y-91279933D01*
X115030765Y-91433066D01*
X115030767Y-91433070D01*
X115113742Y-91570329D01*
X115113746Y-91570334D01*
X115227165Y-91683753D01*
X115227170Y-91683757D01*
X115364429Y-91766732D01*
X115364433Y-91766734D01*
X115402831Y-91778699D01*
X115517567Y-91814452D01*
X115584119Y-91820500D01*
X116085880Y-91820499D01*
X116085888Y-91820499D01*
X116152426Y-91814453D01*
X116152427Y-91814452D01*
X116152433Y-91814452D01*
X116305569Y-91766733D01*
X116368350Y-91728779D01*
X116435905Y-91710944D01*
X116496649Y-91728779D01*
X116559431Y-91766733D01*
X116559434Y-91766734D01*
X116559433Y-91766734D01*
X116597831Y-91778699D01*
X116712567Y-91814452D01*
X116779119Y-91820500D01*
X117280880Y-91820499D01*
X117280888Y-91820499D01*
X117347426Y-91814453D01*
X117347427Y-91814452D01*
X117347433Y-91814452D01*
X117500569Y-91766733D01*
X117572398Y-91723311D01*
X117637829Y-91683757D01*
X117637831Y-91683755D01*
X117637835Y-91683753D01*
X117637838Y-91683749D01*
X117643734Y-91679131D01*
X117645266Y-91681086D01*
X117661696Y-91672115D01*
X117687515Y-91655523D01*
X117693715Y-91654631D01*
X117696092Y-91653334D01*
X117722450Y-91650500D01*
X117738346Y-91650500D01*
X117805385Y-91670185D01*
X117814344Y-91676519D01*
X117815044Y-91677062D01*
X117878621Y-91714661D01*
X117926304Y-91765730D01*
X117939500Y-91821393D01*
X117939500Y-91848846D01*
X117970261Y-92003489D01*
X117970264Y-92003501D01*
X118030602Y-92149172D01*
X118030609Y-92149185D01*
X118118210Y-92280288D01*
X118118213Y-92280292D01*
X118229707Y-92391786D01*
X118229711Y-92391789D01*
X118360814Y-92479390D01*
X118360827Y-92479397D01*
X118506498Y-92539735D01*
X118506503Y-92539737D01*
X118636032Y-92565502D01*
X118661153Y-92570499D01*
X118661156Y-92570500D01*
X118661158Y-92570500D01*
X118818844Y-92570500D01*
X118818845Y-92570499D01*
X118973497Y-92539737D01*
X119119179Y-92479394D01*
X119250289Y-92391789D01*
X119361789Y-92280289D01*
X119449394Y-92149179D01*
X119509737Y-92003497D01*
X119523735Y-91933124D01*
X119528274Y-91910308D01*
X119560659Y-91848397D01*
X119621374Y-91813823D01*
X119649891Y-91810499D01*
X119846190Y-91810499D01*
X119846202Y-91810499D01*
X119883358Y-91807576D01*
X120042400Y-91761370D01*
X120184954Y-91677063D01*
X120184955Y-91677062D01*
X120185656Y-91676519D01*
X120186305Y-91676264D01*
X120191669Y-91673092D01*
X120192180Y-91673957D01*
X120250693Y-91650985D01*
X120261654Y-91650500D01*
X122710050Y-91650500D01*
X122777089Y-91670185D01*
X122788543Y-91679415D01*
X122788766Y-91679131D01*
X122794670Y-91683757D01*
X122931929Y-91766732D01*
X122931933Y-91766734D01*
X122970331Y-91778699D01*
X123085067Y-91814452D01*
X123151619Y-91820500D01*
X123653380Y-91820499D01*
X123653388Y-91820499D01*
X123719926Y-91814453D01*
X123719927Y-91814452D01*
X123719933Y-91814452D01*
X123873069Y-91766733D01*
X123935850Y-91728779D01*
X124003405Y-91710944D01*
X124064149Y-91728779D01*
X124126931Y-91766733D01*
X124126934Y-91766734D01*
X124126933Y-91766734D01*
X124165331Y-91778699D01*
X124280067Y-91814452D01*
X124346619Y-91820500D01*
X124848380Y-91820499D01*
X124848388Y-91820499D01*
X124914926Y-91814453D01*
X124914927Y-91814452D01*
X124914933Y-91814452D01*
X125025972Y-91779851D01*
X125095832Y-91778699D01*
X125155224Y-91815500D01*
X125177423Y-91850784D01*
X125230602Y-91979172D01*
X125230609Y-91979185D01*
X125318210Y-92110288D01*
X125318213Y-92110292D01*
X125429707Y-92221786D01*
X125429711Y-92221789D01*
X125560814Y-92309390D01*
X125560827Y-92309397D01*
X125648230Y-92345599D01*
X125706503Y-92369737D01*
X125773580Y-92383079D01*
X125835488Y-92415461D01*
X125837013Y-92416959D01*
X125865329Y-92445275D01*
X125865331Y-92445277D01*
X125865332Y-92445278D01*
X125971863Y-92516459D01*
X125971865Y-92516460D01*
X125971874Y-92516466D01*
X126005756Y-92530500D01*
X126090256Y-92565501D01*
X126090260Y-92565501D01*
X126090261Y-92565502D01*
X126215928Y-92590500D01*
X126215931Y-92590500D01*
X132454071Y-92590500D01*
X132554618Y-92570499D01*
X132579744Y-92565501D01*
X132698127Y-92516465D01*
X132714536Y-92505501D01*
X132720092Y-92501789D01*
X132791145Y-92454313D01*
X132804669Y-92445277D01*
X134517319Y-90732627D01*
X134578642Y-90699142D01*
X134648334Y-90704126D01*
X134692681Y-90732627D01*
X135032984Y-91072930D01*
X135066469Y-91134253D01*
X135066920Y-91136420D01*
X135080261Y-91203489D01*
X135080264Y-91203501D01*
X135140602Y-91349172D01*
X135140609Y-91349185D01*
X135228210Y-91480288D01*
X135228213Y-91480292D01*
X135339707Y-91591786D01*
X135339711Y-91591789D01*
X135470814Y-91679390D01*
X135470827Y-91679397D01*
X135616498Y-91739735D01*
X135616503Y-91739737D01*
X135723248Y-91760970D01*
X135771153Y-91770499D01*
X135771156Y-91770500D01*
X135771158Y-91770500D01*
X135928844Y-91770500D01*
X135928845Y-91770499D01*
X136083497Y-91739737D01*
X136083509Y-91739731D01*
X136089324Y-91737969D01*
X136089983Y-91740142D01*
X136149358Y-91733746D01*
X136211844Y-91765008D01*
X136239951Y-91810033D01*
X136242168Y-91809115D01*
X136244498Y-91814742D01*
X136244499Y-91814743D01*
X136250096Y-91828255D01*
X136287375Y-91918256D01*
X136293535Y-91933126D01*
X136364723Y-92039668D01*
X136364726Y-92039672D01*
X136364727Y-92039673D01*
X138672874Y-94347819D01*
X138706359Y-94409142D01*
X138701375Y-94478834D01*
X138659503Y-94534767D01*
X138594039Y-94559184D01*
X138585193Y-94559500D01*
X137965929Y-94559500D01*
X137840261Y-94584497D01*
X137840255Y-94584499D01*
X137721870Y-94633535D01*
X137615331Y-94704722D01*
X137615330Y-94704723D01*
X137579554Y-94740500D01*
X137541871Y-94778182D01*
X137480551Y-94811666D01*
X137454192Y-94814500D01*
X134360929Y-94814500D01*
X134235261Y-94839497D01*
X134235255Y-94839499D01*
X134116870Y-94888535D01*
X134010331Y-94959722D01*
X134010324Y-94959728D01*
X131540103Y-97429949D01*
X131478780Y-97463434D01*
X131409088Y-97458450D01*
X131353155Y-97416578D01*
X131328738Y-97351114D01*
X131333345Y-97307675D01*
X131372598Y-97172569D01*
X131375500Y-97135694D01*
X131375500Y-96704306D01*
X131372598Y-96667431D01*
X131368004Y-96651619D01*
X131331426Y-96525719D01*
X131326744Y-96509602D01*
X131243081Y-96368135D01*
X131243078Y-96368132D01*
X131238298Y-96361969D01*
X131240611Y-96360174D01*
X131230693Y-96341670D01*
X131214155Y-96311421D01*
X131214192Y-96310886D01*
X131213941Y-96310417D01*
X131216662Y-96276104D01*
X131219104Y-96241726D01*
X131219437Y-96241119D01*
X131219466Y-96240766D01*
X131220571Y-96239060D01*
X131236621Y-96209921D01*
X131241696Y-96203249D01*
X131243081Y-96201865D01*
X131244237Y-96199909D01*
X131248604Y-96194170D01*
X131259422Y-96186201D01*
X131278402Y-96166145D01*
X131294669Y-96155277D01*
X131501573Y-95948372D01*
X131515373Y-95937212D01*
X131516613Y-95936135D01*
X131578732Y-95871684D01*
X131579418Y-95870527D01*
X131802930Y-95647013D01*
X131864251Y-95613530D01*
X131866330Y-95613096D01*
X131933497Y-95599737D01*
X132079179Y-95539394D01*
X132210289Y-95451789D01*
X132321789Y-95340289D01*
X132409394Y-95209179D01*
X132469737Y-95063497D01*
X132500500Y-94908842D01*
X132500500Y-94751158D01*
X132500500Y-94751155D01*
X132500499Y-94751153D01*
X132480391Y-94650066D01*
X132469737Y-94596503D01*
X132467381Y-94590816D01*
X132409397Y-94450827D01*
X132409390Y-94450814D01*
X132321789Y-94319711D01*
X132321786Y-94319707D01*
X132210292Y-94208213D01*
X132210288Y-94208210D01*
X132079185Y-94120609D01*
X132079172Y-94120602D01*
X131933501Y-94060264D01*
X131933489Y-94060261D01*
X131778845Y-94029500D01*
X131778842Y-94029500D01*
X131621158Y-94029500D01*
X131621153Y-94029500D01*
X131470818Y-94059403D01*
X131401226Y-94053176D01*
X131346049Y-94010312D01*
X131327550Y-93972378D01*
X131326744Y-93969602D01*
X131243081Y-93828135D01*
X131243079Y-93828133D01*
X131243076Y-93828129D01*
X131126870Y-93711923D01*
X131126862Y-93711917D01*
X130985396Y-93628255D01*
X130985393Y-93628254D01*
X130827573Y-93582402D01*
X130827567Y-93582401D01*
X130790701Y-93579500D01*
X130790694Y-93579500D01*
X129209306Y-93579500D01*
X129209298Y-93579500D01*
X129172432Y-93582401D01*
X129172426Y-93582402D01*
X129014606Y-93628254D01*
X129014603Y-93628255D01*
X128873137Y-93711917D01*
X128873129Y-93711923D01*
X128756923Y-93828129D01*
X128756917Y-93828137D01*
X128673255Y-93969603D01*
X128673254Y-93969606D01*
X128627402Y-94127426D01*
X128627401Y-94127432D01*
X128624500Y-94164298D01*
X128624500Y-94595701D01*
X128627401Y-94632567D01*
X128627402Y-94632573D01*
X128673254Y-94790393D01*
X128673255Y-94790396D01*
X128673256Y-94790398D01*
X128685834Y-94811666D01*
X128756917Y-94931862D01*
X128761702Y-94938031D01*
X128759256Y-94939927D01*
X128785857Y-94988642D01*
X128780873Y-95058334D01*
X128760069Y-95090703D01*
X128761702Y-95091969D01*
X128756917Y-95098137D01*
X128673255Y-95239603D01*
X128673254Y-95239606D01*
X128627402Y-95397426D01*
X128627401Y-95397432D01*
X128624500Y-95434298D01*
X128624500Y-95865701D01*
X128627401Y-95902567D01*
X128627402Y-95902573D01*
X128673253Y-96060392D01*
X128673255Y-96060396D01*
X128673256Y-96060398D01*
X128686256Y-96082381D01*
X128703439Y-96150102D01*
X128681280Y-96216365D01*
X128626814Y-96260128D01*
X128579524Y-96269500D01*
X127182171Y-96269500D01*
X127115132Y-96249815D01*
X127094490Y-96233181D01*
X126394269Y-95532959D01*
X126391090Y-95529780D01*
X126365181Y-95499812D01*
X126334318Y-95473008D01*
X126230309Y-95368999D01*
X126198915Y-95315915D01*
X126176744Y-95239602D01*
X126093081Y-95098135D01*
X126093078Y-95098132D01*
X126088298Y-95091969D01*
X126090750Y-95090066D01*
X126064155Y-95041421D01*
X126069104Y-94971726D01*
X126089940Y-94939304D01*
X126088298Y-94938031D01*
X126093075Y-94931870D01*
X126093081Y-94931865D01*
X126176744Y-94790398D01*
X126217711Y-94649390D01*
X126222597Y-94632573D01*
X126222598Y-94632567D01*
X126223962Y-94615233D01*
X126225500Y-94595694D01*
X126225500Y-94164306D01*
X126222598Y-94127431D01*
X126220615Y-94120606D01*
X126176745Y-93969606D01*
X126176744Y-93969603D01*
X126176744Y-93969602D01*
X126093081Y-93828135D01*
X126093079Y-93828133D01*
X126093076Y-93828129D01*
X125976870Y-93711923D01*
X125976862Y-93711917D01*
X125835396Y-93628255D01*
X125835393Y-93628254D01*
X125677573Y-93582402D01*
X125677567Y-93582401D01*
X125640701Y-93579500D01*
X125640694Y-93579500D01*
X124059306Y-93579500D01*
X124059298Y-93579500D01*
X124022432Y-93582401D01*
X124022426Y-93582402D01*
X123864606Y-93628254D01*
X123864603Y-93628255D01*
X123723137Y-93711917D01*
X123723129Y-93711923D01*
X123606923Y-93828129D01*
X123606917Y-93828137D01*
X123523255Y-93969603D01*
X123523254Y-93969606D01*
X123477402Y-94127426D01*
X123477401Y-94127432D01*
X123474500Y-94164298D01*
X123474500Y-94595701D01*
X123477401Y-94632567D01*
X123477402Y-94632573D01*
X123523254Y-94790393D01*
X123523255Y-94790396D01*
X123523256Y-94790398D01*
X123535834Y-94811666D01*
X123606917Y-94931862D01*
X123611702Y-94938031D01*
X123609256Y-94939927D01*
X123635857Y-94988642D01*
X123630873Y-95058334D01*
X123610069Y-95090703D01*
X123611702Y-95091969D01*
X123606917Y-95098137D01*
X123523255Y-95239603D01*
X123523254Y-95239606D01*
X123477402Y-95397426D01*
X123477401Y-95397432D01*
X123474500Y-95434298D01*
X123474500Y-95865701D01*
X123477401Y-95902567D01*
X123477402Y-95902573D01*
X123523254Y-96060393D01*
X123523256Y-96060398D01*
X123525907Y-96064881D01*
X123543088Y-96132605D01*
X123520928Y-96198867D01*
X123466461Y-96242630D01*
X123419174Y-96252000D01*
X121192450Y-96252000D01*
X121125411Y-96232315D01*
X121104769Y-96215681D01*
X121070334Y-96181246D01*
X121070329Y-96181242D01*
X120933070Y-96098267D01*
X120933066Y-96098265D01*
X120779933Y-96050548D01*
X120779935Y-96050548D01*
X120753312Y-96048128D01*
X120713381Y-96044500D01*
X120713378Y-96044500D01*
X120286611Y-96044500D01*
X120220073Y-96050546D01*
X120220066Y-96050548D01*
X120066933Y-96098265D01*
X120066929Y-96098267D01*
X119929670Y-96181242D01*
X119929665Y-96181246D01*
X119816246Y-96294665D01*
X119816242Y-96294670D01*
X119733267Y-96431929D01*
X119733265Y-96431933D01*
X119685548Y-96585065D01*
X119679500Y-96651621D01*
X119679500Y-97153388D01*
X119685546Y-97219925D01*
X119685547Y-97219930D01*
X119685548Y-97219933D01*
X119706170Y-97286110D01*
X119707320Y-97355971D01*
X119670519Y-97415363D01*
X119607450Y-97445431D01*
X119587784Y-97447000D01*
X117890838Y-97447000D01*
X117823799Y-97427315D01*
X117793442Y-97399746D01*
X117259952Y-96722713D01*
X117251948Y-96712813D01*
X117248181Y-96709405D01*
X117231060Y-96690344D01*
X117180104Y-96620208D01*
X117029792Y-96469896D01*
X117029786Y-96469890D01*
X116857820Y-96344951D01*
X116668414Y-96248444D01*
X116668413Y-96248443D01*
X116668412Y-96248443D01*
X116466243Y-96182754D01*
X116466241Y-96182753D01*
X116466240Y-96182753D01*
X116270928Y-96151819D01*
X116256287Y-96149500D01*
X115743713Y-96149500D01*
X115729072Y-96151819D01*
X115533760Y-96182753D01*
X115474940Y-96201865D01*
X115349479Y-96242630D01*
X115331585Y-96248444D01*
X115142179Y-96344951D01*
X114970213Y-96469890D01*
X114819890Y-96620213D01*
X114694951Y-96792179D01*
X114598444Y-96981585D01*
X114532753Y-97183760D01*
X114505478Y-97355971D01*
X114499500Y-97393713D01*
X114499500Y-97606287D01*
X114500082Y-97609961D01*
X114526950Y-97779603D01*
X114532754Y-97816243D01*
X114593760Y-98004000D01*
X114598444Y-98018414D01*
X114694951Y-98207820D01*
X114819890Y-98379786D01*
X114958705Y-98518601D01*
X114992190Y-98579924D01*
X114987206Y-98649616D01*
X114945334Y-98705549D01*
X114936121Y-98711821D01*
X114781342Y-98807289D01*
X114657289Y-98931342D01*
X114565187Y-99080663D01*
X114565185Y-99080668D01*
X114545141Y-99141158D01*
X114510001Y-99247203D01*
X114510001Y-99247204D01*
X114510000Y-99247204D01*
X114499500Y-99349983D01*
X114499500Y-100650001D01*
X114499501Y-100650018D01*
X114510000Y-100752796D01*
X114510001Y-100752799D01*
X114540674Y-100845362D01*
X114565186Y-100919334D01*
X114657288Y-101068656D01*
X114781344Y-101192712D01*
X114930666Y-101284814D01*
X115097203Y-101339999D01*
X115199991Y-101350500D01*
X116754274Y-101350499D01*
X116760458Y-101350653D01*
X116802817Y-101352768D01*
X116802817Y-101352767D01*
X116802818Y-101352768D01*
X117886286Y-101251809D01*
X117909429Y-101248940D01*
X117924676Y-101248000D01*
X119807550Y-101248000D01*
X119874589Y-101267685D01*
X119895231Y-101284319D01*
X119929665Y-101318753D01*
X119929670Y-101318757D01*
X120066929Y-101401732D01*
X120066933Y-101401734D01*
X120111281Y-101415553D01*
X120220067Y-101449452D01*
X120286619Y-101455500D01*
X120713380Y-101455499D01*
X120713388Y-101455499D01*
X120779926Y-101449453D01*
X120779927Y-101449452D01*
X120779933Y-101449452D01*
X120933069Y-101401733D01*
X121035190Y-101339999D01*
X121070329Y-101318757D01*
X121070330Y-101318755D01*
X121070335Y-101318753D01*
X121183753Y-101205335D01*
X121190772Y-101193725D01*
X121224024Y-101138717D01*
X121266733Y-101068069D01*
X121314452Y-100914933D01*
X121320500Y-100848381D01*
X121320499Y-100346620D01*
X121320499Y-100346611D01*
X121314453Y-100280073D01*
X121314452Y-100280070D01*
X121314452Y-100280067D01*
X121275532Y-100155168D01*
X121266734Y-100126933D01*
X121247324Y-100094825D01*
X121228779Y-100064149D01*
X121210944Y-99996595D01*
X121228780Y-99935850D01*
X121232683Y-99929394D01*
X121266733Y-99873069D01*
X121314452Y-99719933D01*
X121320500Y-99653381D01*
X121320499Y-99553306D01*
X121340183Y-99486269D01*
X121356809Y-99465635D01*
X121776277Y-99046169D01*
X121847466Y-98939626D01*
X121877770Y-98866465D01*
X121896501Y-98821244D01*
X121907222Y-98767348D01*
X121921500Y-98695571D01*
X121921500Y-97677000D01*
X121941185Y-97609961D01*
X121993989Y-97564206D01*
X122045500Y-97553000D01*
X123439873Y-97553000D01*
X123506912Y-97572685D01*
X123552667Y-97625489D01*
X123562611Y-97694647D01*
X123546605Y-97740121D01*
X123523255Y-97779603D01*
X123523254Y-97779606D01*
X123477402Y-97937426D01*
X123477401Y-97937432D01*
X123474500Y-97974298D01*
X123474500Y-98405701D01*
X123477401Y-98442567D01*
X123477402Y-98442573D01*
X123523254Y-98600393D01*
X123523255Y-98600396D01*
X123606917Y-98741862D01*
X123606923Y-98741870D01*
X123723129Y-98858076D01*
X123723133Y-98858079D01*
X123723135Y-98858081D01*
X123864602Y-98941744D01*
X123864603Y-98941744D01*
X123864606Y-98941746D01*
X123930283Y-98960827D01*
X123989169Y-98998433D01*
X124018375Y-99061906D01*
X124008629Y-99131093D01*
X123983369Y-99167584D01*
X121994724Y-101156229D01*
X121949754Y-101223534D01*
X121949752Y-101223536D01*
X121923539Y-101262764D01*
X121923533Y-101262775D01*
X121874499Y-101381155D01*
X121874497Y-101381161D01*
X121849500Y-101506828D01*
X121849500Y-101710050D01*
X121829815Y-101777089D01*
X121820584Y-101788543D01*
X121820869Y-101788766D01*
X121816242Y-101794670D01*
X121733267Y-101931929D01*
X121733265Y-101931933D01*
X121685548Y-102085065D01*
X121685548Y-102085067D01*
X121680521Y-102140390D01*
X121679500Y-102151621D01*
X121679500Y-102653388D01*
X121685546Y-102719926D01*
X121685548Y-102719933D01*
X121733265Y-102873066D01*
X121733267Y-102873070D01*
X121771219Y-102935851D01*
X121789055Y-103003406D01*
X121771219Y-103064149D01*
X121733267Y-103126929D01*
X121733265Y-103126933D01*
X121685548Y-103280065D01*
X121679500Y-103346621D01*
X121679500Y-103848388D01*
X121685546Y-103914926D01*
X121685548Y-103914933D01*
X121733265Y-104068066D01*
X121733267Y-104068070D01*
X121816242Y-104205329D01*
X121816246Y-104205334D01*
X121929665Y-104318753D01*
X121929670Y-104318757D01*
X122066929Y-104401732D01*
X122066933Y-104401734D01*
X122121100Y-104418612D01*
X122220067Y-104449452D01*
X122286619Y-104455500D01*
X122713380Y-104455499D01*
X122713388Y-104455499D01*
X122779926Y-104449453D01*
X122779927Y-104449452D01*
X122779933Y-104449452D01*
X122933069Y-104401733D01*
X123003717Y-104359024D01*
X123070329Y-104318757D01*
X123070330Y-104318755D01*
X123070335Y-104318753D01*
X123183753Y-104205335D01*
X123192463Y-104190928D01*
X123223010Y-104140396D01*
X123266733Y-104068069D01*
X123300945Y-103958277D01*
X123311052Y-103943106D01*
X123316591Y-103925739D01*
X123330019Y-103914636D01*
X123339681Y-103900133D01*
X123356387Y-103892833D01*
X123370438Y-103881216D01*
X123387738Y-103879135D01*
X123403706Y-103872159D01*
X123421707Y-103875050D01*
X123439808Y-103872874D01*
X123455485Y-103880476D01*
X123472691Y-103883240D01*
X123486271Y-103895405D01*
X123502676Y-103903360D01*
X123523033Y-103928335D01*
X123524734Y-103929859D01*
X123525166Y-103930560D01*
X123525605Y-103931279D01*
X123596919Y-104051865D01*
X123602825Y-104057771D01*
X123610528Y-104070389D01*
X123615912Y-104090430D01*
X123625857Y-104108642D01*
X123624795Y-104123489D01*
X123628658Y-104137866D01*
X123622353Y-104157635D01*
X123620873Y-104178334D01*
X123610707Y-104194150D01*
X123607429Y-104204432D01*
X123600325Y-104210305D01*
X123600069Y-104210703D01*
X123601702Y-104211969D01*
X123596917Y-104218137D01*
X123513255Y-104359603D01*
X123513254Y-104359606D01*
X123467402Y-104517426D01*
X123467401Y-104517432D01*
X123464500Y-104554298D01*
X123464500Y-104985701D01*
X123467401Y-105022567D01*
X123467402Y-105022573D01*
X123513254Y-105180393D01*
X123513255Y-105180396D01*
X123596917Y-105321862D01*
X123596923Y-105321870D01*
X123713129Y-105438076D01*
X123713133Y-105438079D01*
X123713135Y-105438081D01*
X123854602Y-105521744D01*
X123896224Y-105533836D01*
X124012426Y-105567597D01*
X124012429Y-105567597D01*
X124012431Y-105567598D01*
X124049306Y-105570500D01*
X124678673Y-105570500D01*
X124702864Y-105572882D01*
X124721460Y-105576581D01*
X124741157Y-105580500D01*
X124741158Y-105580500D01*
X124898843Y-105580500D01*
X124918539Y-105576581D01*
X124937135Y-105572882D01*
X124961327Y-105570500D01*
X125630686Y-105570500D01*
X125630694Y-105570500D01*
X125667569Y-105567598D01*
X125667571Y-105567597D01*
X125667573Y-105567597D01*
X125712070Y-105554669D01*
X125825398Y-105521744D01*
X125966865Y-105438081D01*
X126083081Y-105321865D01*
X126166744Y-105180398D01*
X126177744Y-105142534D01*
X126215348Y-105083650D01*
X126278820Y-105054442D01*
X126348007Y-105064187D01*
X126384501Y-105089448D01*
X127215681Y-105920628D01*
X127249166Y-105981951D01*
X127252000Y-106008309D01*
X127252000Y-106417550D01*
X127232315Y-106484589D01*
X127215681Y-106505231D01*
X127181246Y-106539665D01*
X127181242Y-106539670D01*
X127098267Y-106676929D01*
X127098265Y-106676933D01*
X127050548Y-106830065D01*
X127044500Y-106896621D01*
X127044500Y-107323388D01*
X127050546Y-107389926D01*
X127050548Y-107389933D01*
X127098265Y-107543066D01*
X127098267Y-107543070D01*
X127181242Y-107680329D01*
X127181246Y-107680334D01*
X127294665Y-107793753D01*
X127294670Y-107793757D01*
X127431929Y-107876732D01*
X127431933Y-107876734D01*
X127486100Y-107893612D01*
X127585067Y-107924452D01*
X127651619Y-107930500D01*
X128153380Y-107930499D01*
X128153388Y-107930499D01*
X128219926Y-107924453D01*
X128219927Y-107924452D01*
X128219933Y-107924452D01*
X128373069Y-107876733D01*
X128435850Y-107838779D01*
X128503405Y-107820944D01*
X128564149Y-107838779D01*
X128626931Y-107876733D01*
X128626934Y-107876734D01*
X128626933Y-107876734D01*
X128681100Y-107893612D01*
X128780067Y-107924452D01*
X128846619Y-107930500D01*
X129348380Y-107930499D01*
X129348388Y-107930499D01*
X129414926Y-107924453D01*
X129414927Y-107924452D01*
X129414933Y-107924452D01*
X129568069Y-107876733D01*
X129638717Y-107834024D01*
X129705329Y-107793757D01*
X129705331Y-107793755D01*
X129705335Y-107793753D01*
X129705338Y-107793749D01*
X129711234Y-107789131D01*
X129712766Y-107791086D01*
X129763592Y-107763334D01*
X129789950Y-107760500D01*
X129854071Y-107760500D01*
X129938615Y-107743682D01*
X129979744Y-107735501D01*
X130098127Y-107686465D01*
X130107301Y-107680335D01*
X130120412Y-107671574D01*
X130187085Y-107650698D01*
X130213484Y-107653060D01*
X130283794Y-107667046D01*
X130301157Y-107670500D01*
X130301158Y-107670500D01*
X130458844Y-107670500D01*
X130458845Y-107670499D01*
X130613497Y-107639737D01*
X130759179Y-107579394D01*
X130890289Y-107491789D01*
X131001789Y-107380289D01*
X131089394Y-107249179D01*
X131149737Y-107103497D01*
X131180500Y-106948842D01*
X131180500Y-106791158D01*
X131180500Y-106791155D01*
X131180499Y-106791153D01*
X131149737Y-106636503D01*
X131110572Y-106541951D01*
X131103104Y-106472483D01*
X131134379Y-106410004D01*
X131194468Y-106374352D01*
X131225134Y-106370500D01*
X131434071Y-106370500D01*
X131518615Y-106353682D01*
X131559744Y-106345501D01*
X131678127Y-106296465D01*
X131680307Y-106295008D01*
X131682516Y-106293533D01*
X131750616Y-106248029D01*
X131784669Y-106225277D01*
X132455277Y-105554669D01*
X132526465Y-105448127D01*
X132575501Y-105329744D01*
X132584346Y-105285276D01*
X132584720Y-105283398D01*
X132600500Y-105204071D01*
X132600500Y-104734500D01*
X132603050Y-104725814D01*
X132601762Y-104716853D01*
X132612740Y-104692812D01*
X132620185Y-104667461D01*
X132627025Y-104661533D01*
X132630787Y-104653297D01*
X132653021Y-104639007D01*
X132672989Y-104621706D01*
X132683503Y-104619418D01*
X132689565Y-104615523D01*
X132724500Y-104610500D01*
X132854036Y-104610500D01*
X132921075Y-104630185D01*
X132966830Y-104682989D01*
X132977654Y-104744228D01*
X132974500Y-104784298D01*
X132974500Y-105215701D01*
X132977401Y-105252567D01*
X132977402Y-105252573D01*
X133023254Y-105410393D01*
X133023255Y-105410396D01*
X133106917Y-105551862D01*
X133106923Y-105551870D01*
X133223129Y-105668076D01*
X133223133Y-105668079D01*
X133223135Y-105668081D01*
X133364602Y-105751744D01*
X133406224Y-105763836D01*
X133522426Y-105797597D01*
X133522429Y-105797597D01*
X133522431Y-105797598D01*
X133559306Y-105800500D01*
X133559314Y-105800500D01*
X135140686Y-105800500D01*
X135140694Y-105800500D01*
X135177569Y-105797598D01*
X135177571Y-105797597D01*
X135177573Y-105797597D01*
X135219191Y-105785505D01*
X135335398Y-105751744D01*
X135476865Y-105668081D01*
X135593081Y-105551865D01*
X135676744Y-105410398D01*
X135722598Y-105252569D01*
X135725500Y-105215694D01*
X135725500Y-104784306D01*
X135722598Y-104747431D01*
X135721667Y-104744228D01*
X135676745Y-104589606D01*
X135676744Y-104589603D01*
X135676744Y-104589602D01*
X135593081Y-104448135D01*
X135593078Y-104448132D01*
X135588298Y-104441969D01*
X135590750Y-104440066D01*
X135564155Y-104391421D01*
X135569104Y-104321726D01*
X135589940Y-104289304D01*
X135588298Y-104288031D01*
X135593075Y-104281870D01*
X135593081Y-104281865D01*
X135676744Y-104140398D01*
X135687744Y-104102534D01*
X135725348Y-104043650D01*
X135788820Y-104014442D01*
X135858007Y-104024187D01*
X135894501Y-104049448D01*
X138101324Y-106256272D01*
X138101331Y-106256278D01*
X138189711Y-106315331D01*
X138207870Y-106327464D01*
X138207871Y-106327464D01*
X138207872Y-106327465D01*
X138326255Y-106376501D01*
X138326259Y-106376501D01*
X138326260Y-106376502D01*
X138451927Y-106401500D01*
X138451930Y-106401500D01*
X144676879Y-106401500D01*
X144761423Y-106384682D01*
X144802552Y-106376501D01*
X144920935Y-106327465D01*
X144926962Y-106323437D01*
X144939096Y-106315331D01*
X144997883Y-106276050D01*
X145027477Y-106256277D01*
X145275445Y-106008309D01*
X145526544Y-105757211D01*
X147401118Y-103882637D01*
X149833772Y-101449982D01*
X149833777Y-101449977D01*
X149892400Y-101362240D01*
X149946009Y-101317438D01*
X150015334Y-101308729D01*
X150078362Y-101338884D01*
X150115081Y-101398326D01*
X150119500Y-101431133D01*
X150119500Y-102117870D01*
X150119501Y-102117876D01*
X150125908Y-102177483D01*
X150176202Y-102312328D01*
X150176206Y-102312335D01*
X150262452Y-102427544D01*
X150262455Y-102427547D01*
X150377664Y-102513793D01*
X150377671Y-102513797D01*
X150512517Y-102564091D01*
X150512516Y-102564091D01*
X150519444Y-102564835D01*
X150572127Y-102570500D01*
X152367872Y-102570499D01*
X152427483Y-102564091D01*
X152562331Y-102513796D01*
X152677546Y-102427546D01*
X152763796Y-102312331D01*
X152814091Y-102177483D01*
X152820500Y-102117873D01*
X152820499Y-100322128D01*
X152814091Y-100262517D01*
X152810035Y-100251643D01*
X152763797Y-100127671D01*
X152763793Y-100127664D01*
X152677547Y-100012455D01*
X152677544Y-100012452D01*
X152562335Y-99926206D01*
X152562328Y-99926202D01*
X152427482Y-99875908D01*
X152427483Y-99875908D01*
X152367883Y-99869501D01*
X152367881Y-99869500D01*
X152367873Y-99869500D01*
X152367864Y-99869500D01*
X150572129Y-99869500D01*
X150572123Y-99869501D01*
X150512516Y-99875908D01*
X150377671Y-99926202D01*
X150377664Y-99926206D01*
X150262455Y-100012452D01*
X150202266Y-100092854D01*
X150146332Y-100134724D01*
X150076640Y-100139708D01*
X150015318Y-100106222D01*
X149981833Y-100044898D01*
X149979000Y-100018542D01*
X149979000Y-99849428D01*
X149954002Y-99723761D01*
X149954001Y-99723760D01*
X149954001Y-99723756D01*
X149904965Y-99605373D01*
X149904964Y-99605371D01*
X149898453Y-99595626D01*
X149898453Y-99595625D01*
X149833778Y-99498832D01*
X149833772Y-99498825D01*
X149546819Y-99211872D01*
X149513334Y-99150549D01*
X149510500Y-99124191D01*
X149510500Y-98564935D01*
X149530185Y-98497896D01*
X149531366Y-98496090D01*
X149569394Y-98439179D01*
X149629737Y-98293497D01*
X149660500Y-98138842D01*
X149660500Y-97981158D01*
X149660500Y-97981155D01*
X149660499Y-97981153D01*
X149630173Y-97828691D01*
X149632050Y-97807707D01*
X149629052Y-97786853D01*
X149635102Y-97773605D01*
X149636400Y-97759100D01*
X149649324Y-97742461D01*
X149658077Y-97723297D01*
X149670328Y-97715423D01*
X149679263Y-97703922D01*
X149699131Y-97696912D01*
X149716855Y-97685523D01*
X149741438Y-97681988D01*
X149745153Y-97680678D01*
X149751790Y-97680500D01*
X149995501Y-97680500D01*
X150062540Y-97700185D01*
X150108295Y-97752989D01*
X150119501Y-97804500D01*
X150119501Y-98577876D01*
X150125908Y-98637483D01*
X150176202Y-98772328D01*
X150176206Y-98772335D01*
X150262452Y-98887544D01*
X150262455Y-98887547D01*
X150377664Y-98973793D01*
X150377671Y-98973797D01*
X150512517Y-99024091D01*
X150512516Y-99024091D01*
X150519444Y-99024835D01*
X150572127Y-99030500D01*
X152367872Y-99030499D01*
X152427483Y-99024091D01*
X152562331Y-98973796D01*
X152677546Y-98887546D01*
X152763796Y-98772331D01*
X152814091Y-98637483D01*
X152820500Y-98577873D01*
X152820499Y-96782128D01*
X152814091Y-96722517D01*
X152807301Y-96704313D01*
X152763797Y-96587671D01*
X152763793Y-96587664D01*
X152677547Y-96472455D01*
X152677544Y-96472452D01*
X152562335Y-96386206D01*
X152562328Y-96386202D01*
X152427482Y-96335908D01*
X152427483Y-96335908D01*
X152367883Y-96329501D01*
X152367881Y-96329500D01*
X152367873Y-96329500D01*
X152367864Y-96329500D01*
X150572129Y-96329500D01*
X150572123Y-96329501D01*
X150512516Y-96335908D01*
X150416604Y-96371682D01*
X150373271Y-96379500D01*
X148037507Y-96379500D01*
X147970468Y-96359815D01*
X147924713Y-96307011D01*
X147915890Y-96279692D01*
X147902470Y-96212230D01*
X147902469Y-96212229D01*
X147902469Y-96212225D01*
X147853433Y-96093842D01*
X147837656Y-96070230D01*
X147782245Y-95987300D01*
X147782243Y-95987298D01*
X147782241Y-95987295D01*
X146597127Y-94802181D01*
X146563642Y-94740858D01*
X146568626Y-94671166D01*
X146610498Y-94615233D01*
X146675962Y-94590816D01*
X146684808Y-94590500D01*
X149534992Y-94590500D01*
X149602031Y-94610185D01*
X149619989Y-94624214D01*
X149628868Y-94632573D01*
X150143149Y-95116742D01*
X150174332Y-95163692D01*
X150196204Y-95222332D01*
X150196205Y-95222334D01*
X150282452Y-95337544D01*
X150282455Y-95337547D01*
X150397664Y-95423793D01*
X150397671Y-95423797D01*
X150532517Y-95474091D01*
X150532516Y-95474091D01*
X150539444Y-95474835D01*
X150592127Y-95480500D01*
X152387872Y-95480499D01*
X152447483Y-95474091D01*
X152582331Y-95423796D01*
X152697546Y-95337546D01*
X152783796Y-95222331D01*
X152834091Y-95087483D01*
X152840500Y-95027873D01*
X152840499Y-93232128D01*
X152834091Y-93172517D01*
X152833250Y-93170263D01*
X152783797Y-93037671D01*
X152783793Y-93037664D01*
X152697547Y-92922455D01*
X152697544Y-92922452D01*
X152582335Y-92836206D01*
X152582328Y-92836202D01*
X152447482Y-92785908D01*
X152447483Y-92785908D01*
X152387883Y-92779501D01*
X152387881Y-92779500D01*
X152387873Y-92779500D01*
X152387865Y-92779500D01*
X151943438Y-92779500D01*
X151876399Y-92759815D01*
X151830644Y-92707011D01*
X151820700Y-92637853D01*
X151849725Y-92574297D01*
X151874545Y-92552399D01*
X151950289Y-92501789D01*
X152061789Y-92390289D01*
X152149394Y-92259179D01*
X152209737Y-92113497D01*
X152223079Y-92046418D01*
X152229535Y-92032938D01*
X152231043Y-92021022D01*
X152245162Y-92000313D01*
X152249618Y-91991011D01*
X152253134Y-91986811D01*
X152317777Y-91922169D01*
X152359380Y-91859903D01*
X152363678Y-91854771D01*
X152387391Y-91838956D01*
X152409264Y-91820676D01*
X152416085Y-91819819D01*
X152421806Y-91816004D01*
X152450305Y-91815520D01*
X152478589Y-91811967D01*
X152486581Y-91814904D01*
X152491665Y-91814818D01*
X152499440Y-91819630D01*
X152522907Y-91828255D01*
X152536931Y-91836733D01*
X152536933Y-91836734D01*
X152548002Y-91840183D01*
X152690067Y-91884452D01*
X152756619Y-91890500D01*
X153258380Y-91890499D01*
X153258388Y-91890499D01*
X153324926Y-91884453D01*
X153324928Y-91884452D01*
X153324933Y-91884452D01*
X153338610Y-91880189D01*
X153408469Y-91879038D01*
X153467862Y-91915839D01*
X153497930Y-91978907D01*
X153499500Y-91998575D01*
X153499500Y-104472636D01*
X153479815Y-104539675D01*
X153427011Y-104585430D01*
X153357853Y-104595374D01*
X153294297Y-104566349D01*
X153270506Y-104538608D01*
X153205484Y-104435127D01*
X153078127Y-104275425D01*
X151936290Y-105417262D01*
X151839033Y-105283398D01*
X151716602Y-105160967D01*
X151582736Y-105063709D01*
X152724573Y-103921871D01*
X152564872Y-103794515D01*
X152308096Y-103633172D01*
X152034880Y-103501598D01*
X152034866Y-103501592D01*
X151748645Y-103401438D01*
X151748633Y-103401434D01*
X151452982Y-103333954D01*
X151452966Y-103333952D01*
X151151633Y-103300000D01*
X150848366Y-103300000D01*
X150547033Y-103333952D01*
X150547017Y-103333954D01*
X150251366Y-103401434D01*
X150251354Y-103401438D01*
X149965133Y-103501592D01*
X149965119Y-103501598D01*
X149691903Y-103633172D01*
X149435127Y-103794515D01*
X149275425Y-103921871D01*
X150417263Y-105063709D01*
X150283398Y-105160967D01*
X150160967Y-105283398D01*
X150063709Y-105417262D01*
X148921871Y-104275425D01*
X148794515Y-104435127D01*
X148633172Y-104691903D01*
X148501598Y-104965119D01*
X148501592Y-104965133D01*
X148401438Y-105251354D01*
X148401434Y-105251366D01*
X148333954Y-105547017D01*
X148333952Y-105547033D01*
X148300000Y-105848366D01*
X148300000Y-106151633D01*
X148333952Y-106452966D01*
X148333954Y-106452982D01*
X148401434Y-106748633D01*
X148401438Y-106748645D01*
X148501592Y-107034866D01*
X148501598Y-107034880D01*
X148633172Y-107308096D01*
X148794515Y-107564872D01*
X148921871Y-107724573D01*
X150063708Y-106582736D01*
X150160967Y-106716602D01*
X150283398Y-106839033D01*
X150417262Y-106936290D01*
X149275425Y-108078127D01*
X149435127Y-108205484D01*
X149538608Y-108270506D01*
X149584899Y-108322841D01*
X149595547Y-108391894D01*
X149567172Y-108455743D01*
X149508783Y-108494115D01*
X149472636Y-108499500D01*
X117527364Y-108499500D01*
X117460325Y-108479815D01*
X117414570Y-108427011D01*
X117404626Y-108357853D01*
X117433651Y-108294297D01*
X117461392Y-108270506D01*
X117564872Y-108205484D01*
X117724573Y-108078126D01*
X116582737Y-106936290D01*
X116716602Y-106839033D01*
X116839033Y-106716602D01*
X116936290Y-106582737D01*
X118078126Y-107724573D01*
X118205484Y-107564872D01*
X118366827Y-107308096D01*
X118498401Y-107034880D01*
X118498407Y-107034866D01*
X118598561Y-106748645D01*
X118598565Y-106748633D01*
X118666045Y-106452982D01*
X118666047Y-106452966D01*
X118699999Y-106151633D01*
X118700000Y-106151631D01*
X118700000Y-105848368D01*
X118699999Y-105848366D01*
X118666047Y-105547033D01*
X118666045Y-105547017D01*
X118598565Y-105251366D01*
X118598561Y-105251354D01*
X118498407Y-104965133D01*
X118498401Y-104965119D01*
X118366827Y-104691903D01*
X118205484Y-104435127D01*
X118078127Y-104275425D01*
X116936290Y-105417262D01*
X116839033Y-105283398D01*
X116716602Y-105160967D01*
X116582736Y-105063709D01*
X117724573Y-103921871D01*
X117564872Y-103794515D01*
X117308096Y-103633172D01*
X117034880Y-103501598D01*
X117034866Y-103501592D01*
X116748645Y-103401438D01*
X116748633Y-103401434D01*
X116452982Y-103333954D01*
X116452966Y-103333952D01*
X116151633Y-103300000D01*
X115848366Y-103300000D01*
X115547033Y-103333952D01*
X115547017Y-103333954D01*
X115251366Y-103401434D01*
X115251354Y-103401438D01*
X114965133Y-103501592D01*
X114965119Y-103501598D01*
X114691903Y-103633172D01*
X114435127Y-103794515D01*
X114275425Y-103921871D01*
X115417263Y-105063709D01*
X115283398Y-105160967D01*
X115160967Y-105283398D01*
X115063709Y-105417263D01*
X113921871Y-104275425D01*
X113794515Y-104435127D01*
X113729494Y-104538608D01*
X113677159Y-104584899D01*
X113608106Y-104595547D01*
X113544257Y-104567172D01*
X113505885Y-104508783D01*
X113500500Y-104472636D01*
X113500500Y-79527363D01*
X113520185Y-79460324D01*
X113572989Y-79414569D01*
X113642147Y-79404625D01*
X113705703Y-79433650D01*
X113729494Y-79461392D01*
X113794512Y-79564869D01*
X113921871Y-79724573D01*
X115063708Y-78582736D01*
X115160967Y-78716602D01*
G37*
%TD.AperFunction*%
%TA.AperFunction,Conductor*%
G36*
X144831039Y-104400185D02*
G01*
X144876794Y-104452989D01*
X144886738Y-104522147D01*
X144857713Y-104585703D01*
X144851681Y-104592181D01*
X144379681Y-105064181D01*
X144318358Y-105097666D01*
X144292000Y-105100500D01*
X140999500Y-105100500D01*
X140932461Y-105080815D01*
X140886706Y-105028011D01*
X140875500Y-104976500D01*
X140875500Y-104784313D01*
X140875499Y-104784298D01*
X140872598Y-104747432D01*
X140872597Y-104747426D01*
X140826746Y-104589607D01*
X140826744Y-104589603D01*
X140826744Y-104589602D01*
X140813743Y-104567618D01*
X140796561Y-104499898D01*
X140818720Y-104433635D01*
X140873186Y-104389872D01*
X140920476Y-104380500D01*
X144764000Y-104380500D01*
X144831039Y-104400185D01*
G37*
%TD.AperFunction*%
%TA.AperFunction,Conductor*%
G36*
X127357834Y-101193725D02*
G01*
X127413767Y-101235597D01*
X127438184Y-101301061D01*
X127438500Y-101309907D01*
X127438500Y-102262809D01*
X127429062Y-102310257D01*
X127420263Y-102331502D01*
X127420262Y-102331505D01*
X127420260Y-102331510D01*
X127389500Y-102486152D01*
X127389500Y-102643845D01*
X127420261Y-102798488D01*
X127420264Y-102798500D01*
X127480602Y-102944171D01*
X127480609Y-102944184D01*
X127568210Y-103075287D01*
X127568213Y-103075291D01*
X127679707Y-103186785D01*
X127679711Y-103186788D01*
X127810814Y-103274389D01*
X127810827Y-103274396D01*
X127872642Y-103300000D01*
X127956503Y-103334736D01*
X128023580Y-103348078D01*
X128085490Y-103380462D01*
X128087069Y-103382014D01*
X128710332Y-104005277D01*
X128710335Y-104005279D01*
X128710959Y-104005791D01*
X128711339Y-104006210D01*
X128711605Y-104006325D01*
X128712897Y-104007842D01*
X128714640Y-104009585D01*
X128714517Y-104009707D01*
X128735249Y-104032529D01*
X128737218Y-104035463D01*
X128746919Y-104051865D01*
X128750911Y-104055857D01*
X128757641Y-104065881D01*
X128764668Y-104088151D01*
X128775857Y-104108642D01*
X128774984Y-104120844D01*
X128778666Y-104132512D01*
X128772538Y-104155041D01*
X128770873Y-104178334D01*
X128762778Y-104190928D01*
X128760330Y-104199933D01*
X128752384Y-104207102D01*
X128750069Y-104210703D01*
X128751702Y-104211969D01*
X128746917Y-104218137D01*
X128663255Y-104359603D01*
X128663254Y-104359606D01*
X128617402Y-104517426D01*
X128617401Y-104517432D01*
X128614500Y-104554298D01*
X128614500Y-104945500D01*
X128611949Y-104954185D01*
X128613238Y-104963147D01*
X128602259Y-104987187D01*
X128594815Y-105012539D01*
X128587974Y-105018466D01*
X128584213Y-105026703D01*
X128561978Y-105040992D01*
X128542011Y-105058294D01*
X128531496Y-105060581D01*
X128525435Y-105064477D01*
X128490500Y-105069500D01*
X128255807Y-105069500D01*
X128188768Y-105049815D01*
X128168126Y-105033181D01*
X126129673Y-102994727D01*
X126129672Y-102994726D01*
X126129668Y-102994723D01*
X126121666Y-102989376D01*
X126117404Y-102985252D01*
X126114212Y-102983986D01*
X126103537Y-102971833D01*
X126089777Y-102958518D01*
X126086601Y-102954088D01*
X126083081Y-102948135D01*
X126080444Y-102945498D01*
X126074526Y-102937242D01*
X126066224Y-102913496D01*
X126054155Y-102891421D01*
X126054889Y-102881076D01*
X126051467Y-102871287D01*
X126057322Y-102846819D01*
X126059104Y-102821726D01*
X126065832Y-102811256D01*
X126067728Y-102803336D01*
X126076061Y-102795340D01*
X126079940Y-102789304D01*
X126078298Y-102788031D01*
X126083075Y-102781870D01*
X126083081Y-102781865D01*
X126166744Y-102640398D01*
X126212598Y-102482569D01*
X126215500Y-102445694D01*
X126215500Y-102315799D01*
X126221215Y-102296335D01*
X126222038Y-102276067D01*
X126234235Y-102251992D01*
X126235185Y-102248760D01*
X126237990Y-102244583D01*
X126310617Y-102141061D01*
X126324436Y-102124608D01*
X127226820Y-101222225D01*
X127288142Y-101188741D01*
X127357834Y-101193725D01*
G37*
%TD.AperFunction*%
%TA.AperFunction,Conductor*%
G36*
X138618834Y-85363625D02*
G01*
X138674767Y-85405497D01*
X138699184Y-85470961D01*
X138699500Y-85479807D01*
X138699500Y-85810701D01*
X138702401Y-85847567D01*
X138702402Y-85847573D01*
X138748254Y-86005393D01*
X138748255Y-86005396D01*
X138797936Y-86089403D01*
X138815119Y-86157127D01*
X138792959Y-86223390D01*
X138738657Y-86267085D01*
X138686874Y-86288533D01*
X138580329Y-86359724D01*
X138580327Y-86359726D01*
X138447066Y-86492985D01*
X138385743Y-86526469D01*
X138383578Y-86526920D01*
X138316508Y-86540261D01*
X138316498Y-86540264D01*
X138170827Y-86600602D01*
X138170814Y-86600609D01*
X138039711Y-86688210D01*
X138039707Y-86688213D01*
X137928213Y-86799707D01*
X137928210Y-86799711D01*
X137840609Y-86930814D01*
X137840602Y-86930827D01*
X137780264Y-87076498D01*
X137780261Y-87076510D01*
X137749500Y-87231153D01*
X137749500Y-87388846D01*
X137780261Y-87543489D01*
X137780264Y-87543501D01*
X137840602Y-87689172D01*
X137840609Y-87689185D01*
X137928210Y-87820288D01*
X137928213Y-87820292D01*
X138039707Y-87931786D01*
X138039711Y-87931789D01*
X138170814Y-88019390D01*
X138170827Y-88019397D01*
X138284541Y-88066498D01*
X138316503Y-88079737D01*
X138471153Y-88110499D01*
X138471156Y-88110500D01*
X138575500Y-88110500D01*
X138642539Y-88130185D01*
X138688294Y-88182989D01*
X138699500Y-88234500D01*
X138699500Y-88350701D01*
X138702401Y-88387567D01*
X138702402Y-88387573D01*
X138748254Y-88545393D01*
X138748255Y-88545396D01*
X138831917Y-88686862D01*
X138836702Y-88693031D01*
X138834256Y-88694927D01*
X138860857Y-88743642D01*
X138855873Y-88813334D01*
X138835069Y-88845703D01*
X138836702Y-88846969D01*
X138831917Y-88853137D01*
X138748255Y-88994603D01*
X138748254Y-88994606D01*
X138702402Y-89152426D01*
X138702401Y-89152432D01*
X138699500Y-89189298D01*
X138699500Y-89620701D01*
X138702401Y-89657567D01*
X138702402Y-89657573D01*
X138748254Y-89815393D01*
X138748255Y-89815396D01*
X138748256Y-89815398D01*
X138780598Y-89870085D01*
X138831917Y-89956862D01*
X138831923Y-89956870D01*
X138948129Y-90073076D01*
X138948133Y-90073079D01*
X138948135Y-90073081D01*
X139089602Y-90156744D01*
X139110619Y-90162850D01*
X139247426Y-90202597D01*
X139247429Y-90202597D01*
X139247431Y-90202598D01*
X139284306Y-90205500D01*
X139284314Y-90205500D01*
X140865686Y-90205500D01*
X140865694Y-90205500D01*
X140902569Y-90202598D01*
X140902571Y-90202597D01*
X140902573Y-90202597D01*
X140967144Y-90183837D01*
X141060398Y-90156744D01*
X141201865Y-90073081D01*
X141318081Y-89956865D01*
X141401744Y-89815398D01*
X141441284Y-89679303D01*
X141447597Y-89657573D01*
X141447598Y-89657567D01*
X141450499Y-89620701D01*
X141450500Y-89620694D01*
X141450500Y-89189306D01*
X141447598Y-89152431D01*
X141447597Y-89152426D01*
X141408861Y-89019095D01*
X141408935Y-88992876D01*
X141405189Y-88966923D01*
X141409033Y-88958491D01*
X141409060Y-88949225D01*
X141423298Y-88927207D01*
X141434177Y-88903351D01*
X141441969Y-88898336D01*
X141447002Y-88890555D01*
X141470885Y-88879730D01*
X141492934Y-88865543D01*
X141506501Y-88863588D01*
X141510641Y-88861712D01*
X141527866Y-88860500D01*
X141618842Y-88860500D01*
X141619105Y-88860447D01*
X141625429Y-88860444D01*
X141653357Y-88868626D01*
X141681943Y-88874035D01*
X141686480Y-88878332D01*
X141692480Y-88880090D01*
X141711547Y-88902069D01*
X141732675Y-88922077D01*
X141734377Y-88928386D01*
X141738265Y-88932868D01*
X141741348Y-88954228D01*
X141749500Y-88984444D01*
X141749500Y-93311039D01*
X141763231Y-93380066D01*
X141770626Y-93417241D01*
X141774499Y-93436712D01*
X141823535Y-93555095D01*
X141872419Y-93628256D01*
X141894726Y-93661641D01*
X141894727Y-93661642D01*
X142276016Y-94042930D01*
X142309501Y-94104253D01*
X142309952Y-94106420D01*
X142323293Y-94173489D01*
X142323296Y-94173501D01*
X142383634Y-94319172D01*
X142383641Y-94319185D01*
X142471242Y-94450288D01*
X142471245Y-94450292D01*
X142582739Y-94561786D01*
X142582743Y-94561789D01*
X142713846Y-94649390D01*
X142713853Y-94649394D01*
X142779051Y-94676399D01*
X142833453Y-94720239D01*
X142855519Y-94786533D01*
X142838241Y-94854232D01*
X142819280Y-94878641D01*
X142728210Y-94969711D01*
X142640609Y-95100814D01*
X142640602Y-95100827D01*
X142580264Y-95246498D01*
X142580261Y-95246510D01*
X142549500Y-95401153D01*
X142549500Y-95558846D01*
X142580261Y-95713489D01*
X142580264Y-95713501D01*
X142640602Y-95859172D01*
X142640609Y-95859185D01*
X142728210Y-95990288D01*
X142728213Y-95990292D01*
X142839707Y-96101786D01*
X142839711Y-96101789D01*
X142970814Y-96189390D01*
X142970827Y-96189397D01*
X143099345Y-96242630D01*
X143116503Y-96249737D01*
X143215858Y-96269500D01*
X143271153Y-96280499D01*
X143271156Y-96280500D01*
X143271158Y-96280500D01*
X143428844Y-96280500D01*
X143428845Y-96280499D01*
X143583497Y-96249737D01*
X143663048Y-96216785D01*
X143732516Y-96209317D01*
X143794996Y-96240592D01*
X143830648Y-96300681D01*
X143834500Y-96331347D01*
X143834500Y-96695701D01*
X143837401Y-96732567D01*
X143837402Y-96732573D01*
X143883254Y-96890393D01*
X143883255Y-96890396D01*
X143966917Y-97031862D01*
X143966923Y-97031870D01*
X144083129Y-97148076D01*
X144083133Y-97148079D01*
X144083135Y-97148081D01*
X144224602Y-97231744D01*
X144254682Y-97240483D01*
X144382426Y-97277597D01*
X144382429Y-97277597D01*
X144382431Y-97277598D01*
X144419306Y-97280500D01*
X144419314Y-97280500D01*
X146000686Y-97280500D01*
X146000694Y-97280500D01*
X146037569Y-97277598D01*
X146037571Y-97277597D01*
X146037573Y-97277597D01*
X146098661Y-97259849D01*
X146195398Y-97231744D01*
X146336865Y-97148081D01*
X146423342Y-97061603D01*
X146484663Y-97028120D01*
X146554355Y-97033104D01*
X146610289Y-97074975D01*
X146632639Y-97125094D01*
X146651465Y-97219738D01*
X146651467Y-97219744D01*
X146700501Y-97338124D01*
X146700506Y-97338133D01*
X146771691Y-97444668D01*
X146771694Y-97444672D01*
X146862295Y-97535273D01*
X146862299Y-97535276D01*
X146968834Y-97606461D01*
X146968840Y-97606464D01*
X146968841Y-97606465D01*
X147087224Y-97655501D01*
X147087228Y-97655501D01*
X147087229Y-97655502D01*
X147212896Y-97680500D01*
X147212899Y-97680500D01*
X147341037Y-97680500D01*
X147968210Y-97680500D01*
X148035249Y-97700185D01*
X148081004Y-97752989D01*
X148090948Y-97822147D01*
X148089827Y-97828691D01*
X148059500Y-97981153D01*
X148059500Y-98138846D01*
X148090261Y-98293489D01*
X148090264Y-98293501D01*
X148150602Y-98439172D01*
X148150606Y-98439179D01*
X148161225Y-98455071D01*
X148182103Y-98521748D01*
X148163619Y-98589129D01*
X148121245Y-98630694D01*
X148109769Y-98637482D01*
X148007546Y-98697937D01*
X148007540Y-98697941D01*
X147890441Y-98815040D01*
X147890434Y-98815049D01*
X147806129Y-98957601D01*
X147806128Y-98957604D01*
X147759924Y-99116637D01*
X147759923Y-99116643D01*
X147757000Y-99153789D01*
X147757000Y-99711190D01*
X147757001Y-99711215D01*
X147759923Y-99748354D01*
X147759923Y-99748357D01*
X147759924Y-99748358D01*
X147765028Y-99765927D01*
X147806130Y-99907401D01*
X147823564Y-99936881D01*
X147840745Y-100004606D01*
X147823564Y-100063119D01*
X147806130Y-100092599D01*
X147806128Y-100092604D01*
X147759924Y-100251637D01*
X147759923Y-100251643D01*
X147757000Y-100288789D01*
X147757000Y-100321691D01*
X147737315Y-100388730D01*
X147720681Y-100409372D01*
X145086873Y-103043181D01*
X145025550Y-103076666D01*
X144999192Y-103079500D01*
X141831941Y-103079500D01*
X141764902Y-103059815D01*
X141719147Y-103007011D01*
X141709203Y-102937853D01*
X141738228Y-102874297D01*
X141740521Y-102871834D01*
X141741784Y-102870293D01*
X141741789Y-102870289D01*
X141829394Y-102739179D01*
X141889737Y-102593497D01*
X141920500Y-102438842D01*
X141920500Y-102281158D01*
X141920500Y-102281155D01*
X141920499Y-102281153D01*
X141913170Y-102244306D01*
X141889737Y-102126503D01*
X141872573Y-102085065D01*
X141829397Y-101980827D01*
X141829390Y-101980814D01*
X141741787Y-101849708D01*
X141630292Y-101738213D01*
X141630288Y-101738210D01*
X141499185Y-101650609D01*
X141499172Y-101650602D01*
X141353501Y-101590264D01*
X141353489Y-101590261D01*
X141198845Y-101559500D01*
X141198842Y-101559500D01*
X141041158Y-101559500D01*
X141041157Y-101559500D01*
X141021227Y-101563464D01*
X140951636Y-101557235D01*
X140896459Y-101514371D01*
X140873216Y-101448481D01*
X140873419Y-101432125D01*
X140875500Y-101405694D01*
X140875500Y-100974306D01*
X140872598Y-100937431D01*
X140867340Y-100919334D01*
X140826745Y-100779606D01*
X140826744Y-100779603D01*
X140826744Y-100779602D01*
X140743081Y-100638135D01*
X140743079Y-100638133D01*
X140743076Y-100638129D01*
X140626870Y-100521923D01*
X140626862Y-100521917D01*
X140485396Y-100438255D01*
X140485393Y-100438254D01*
X140327573Y-100392402D01*
X140327567Y-100392401D01*
X140290701Y-100389500D01*
X140290694Y-100389500D01*
X138709306Y-100389500D01*
X138709298Y-100389500D01*
X138672432Y-100392401D01*
X138672426Y-100392402D01*
X138514606Y-100438254D01*
X138514603Y-100438255D01*
X138373137Y-100521917D01*
X138373129Y-100521923D01*
X138256923Y-100638129D01*
X138256917Y-100638137D01*
X138173255Y-100779603D01*
X138173254Y-100779606D01*
X138127402Y-100937426D01*
X138127401Y-100937432D01*
X138124500Y-100974298D01*
X138124500Y-101405701D01*
X138127401Y-101442567D01*
X138127402Y-101442573D01*
X138173254Y-101600393D01*
X138173255Y-101600396D01*
X138173256Y-101600398D01*
X138191664Y-101631524D01*
X138256917Y-101741862D01*
X138261702Y-101748031D01*
X138259256Y-101749927D01*
X138285857Y-101798642D01*
X138280873Y-101868334D01*
X138260069Y-101900703D01*
X138261702Y-101901969D01*
X138256917Y-101908137D01*
X138173255Y-102049603D01*
X138173253Y-102049606D01*
X138162255Y-102087465D01*
X138124649Y-102146351D01*
X138061176Y-102175557D01*
X137991990Y-102165811D01*
X137955498Y-102140551D01*
X137266819Y-101451872D01*
X137233334Y-101390549D01*
X137230500Y-101364191D01*
X137230500Y-99182215D01*
X137250185Y-99115176D01*
X137302989Y-99069421D01*
X137372147Y-99059477D01*
X137391381Y-99063827D01*
X137457567Y-99084452D01*
X137524119Y-99090500D01*
X138025880Y-99090499D01*
X138025888Y-99090499D01*
X138092425Y-99084453D01*
X138092426Y-99084452D01*
X138092433Y-99084452D01*
X138245569Y-99036733D01*
X138246799Y-99035989D01*
X138247824Y-99035718D01*
X138252409Y-99033655D01*
X138252751Y-99034416D01*
X138314349Y-99018146D01*
X138375106Y-99035983D01*
X138409431Y-99056733D01*
X138409432Y-99056733D01*
X138409433Y-99056734D01*
X138441766Y-99066809D01*
X138562567Y-99104452D01*
X138629119Y-99110500D01*
X138685500Y-99110499D01*
X138752538Y-99130182D01*
X138798293Y-99182986D01*
X138809500Y-99234499D01*
X138809500Y-99298846D01*
X138840261Y-99453489D01*
X138840264Y-99453501D01*
X138900602Y-99599172D01*
X138900609Y-99599185D01*
X138988210Y-99730288D01*
X138988213Y-99730292D01*
X139099707Y-99841786D01*
X139099711Y-99841789D01*
X139230814Y-99929390D01*
X139230827Y-99929397D01*
X139376498Y-99989735D01*
X139376503Y-99989737D01*
X139517851Y-100017853D01*
X139531153Y-100020499D01*
X139531156Y-100020500D01*
X139531158Y-100020500D01*
X139688844Y-100020500D01*
X139688845Y-100020499D01*
X139843497Y-99989737D01*
X139989179Y-99929394D01*
X140120289Y-99841789D01*
X140231789Y-99730289D01*
X140319394Y-99599179D01*
X140379737Y-99453497D01*
X140410500Y-99298842D01*
X140410500Y-99190062D01*
X140430185Y-99123023D01*
X140482989Y-99077268D01*
X140497599Y-99071680D01*
X140545569Y-99056733D01*
X140616217Y-99014024D01*
X140682829Y-98973757D01*
X140682830Y-98973755D01*
X140682835Y-98973753D01*
X140796253Y-98860335D01*
X140879233Y-98723069D01*
X140926952Y-98569933D01*
X140933000Y-98503381D01*
X140932999Y-98076620D01*
X140932999Y-98076611D01*
X140926643Y-98006663D01*
X140940180Y-97938117D01*
X140988627Y-97887772D01*
X141056602Y-97871611D01*
X141122523Y-97894765D01*
X141137815Y-97907761D01*
X141813181Y-98583127D01*
X141827884Y-98610054D01*
X141844477Y-98635873D01*
X141845368Y-98642073D01*
X141846666Y-98644450D01*
X141849500Y-98670808D01*
X141849500Y-98737921D01*
X141829815Y-98804960D01*
X141813181Y-98825602D01*
X141763644Y-98875138D01*
X141763641Y-98875142D01*
X141676040Y-99006245D01*
X141676033Y-99006258D01*
X141615695Y-99151929D01*
X141615692Y-99151941D01*
X141584931Y-99306584D01*
X141584931Y-99464277D01*
X141615692Y-99618920D01*
X141615695Y-99618932D01*
X141676033Y-99764603D01*
X141676040Y-99764616D01*
X141763641Y-99895719D01*
X141763644Y-99895723D01*
X141875138Y-100007217D01*
X141875142Y-100007220D01*
X142006245Y-100094821D01*
X142006258Y-100094828D01*
X142102577Y-100134724D01*
X142151934Y-100155168D01*
X142306584Y-100185930D01*
X142306587Y-100185931D01*
X142306589Y-100185931D01*
X142464275Y-100185931D01*
X142464276Y-100185930D01*
X142618928Y-100155168D01*
X142764610Y-100094825D01*
X142764610Y-100094824D01*
X142767333Y-100093697D01*
X142773026Y-100091003D01*
X142808127Y-100076465D01*
X142914669Y-100005276D01*
X143005276Y-99914669D01*
X143076465Y-99808127D01*
X143091003Y-99773026D01*
X143093697Y-99767333D01*
X143109041Y-99730289D01*
X143155168Y-99618928D01*
X143185931Y-99464273D01*
X143185931Y-99306589D01*
X143185931Y-99306586D01*
X143185930Y-99306584D01*
X143153980Y-99145959D01*
X143154606Y-99145834D01*
X143150500Y-99118151D01*
X143150500Y-98285928D01*
X143125502Y-98160261D01*
X143125501Y-98160260D01*
X143125501Y-98160256D01*
X143076465Y-98041873D01*
X143051160Y-98004001D01*
X143051160Y-98004000D01*
X143005274Y-97935327D01*
X143005271Y-97935324D01*
X141595665Y-96525719D01*
X141590187Y-96519875D01*
X141585062Y-96514041D01*
X141572534Y-96495561D01*
X141467088Y-96379746D01*
X141466341Y-96378895D01*
X141452063Y-96348185D01*
X141437233Y-96317715D01*
X141437086Y-96315971D01*
X141436885Y-96315538D01*
X141436987Y-96314788D01*
X141435500Y-96297058D01*
X141435500Y-96264313D01*
X141435499Y-96264298D01*
X141434531Y-96252000D01*
X141432598Y-96227431D01*
X141429505Y-96216786D01*
X141386745Y-96069606D01*
X141386744Y-96069603D01*
X141386744Y-96069602D01*
X141303081Y-95928135D01*
X141303078Y-95928132D01*
X141298298Y-95921969D01*
X141300750Y-95920066D01*
X141274155Y-95871421D01*
X141279104Y-95801726D01*
X141299940Y-95769304D01*
X141298298Y-95768031D01*
X141303075Y-95761870D01*
X141303081Y-95761865D01*
X141386744Y-95620398D01*
X141432598Y-95462569D01*
X141435500Y-95425694D01*
X141435500Y-94994306D01*
X141432598Y-94957431D01*
X141425170Y-94931865D01*
X141386745Y-94799606D01*
X141386744Y-94799603D01*
X141386744Y-94799602D01*
X141303081Y-94658135D01*
X141303078Y-94658132D01*
X141298298Y-94651969D01*
X141300750Y-94650066D01*
X141274155Y-94601421D01*
X141279104Y-94531726D01*
X141299940Y-94499304D01*
X141298298Y-94498031D01*
X141303075Y-94491870D01*
X141303081Y-94491865D01*
X141386744Y-94350398D01*
X141432598Y-94192569D01*
X141435500Y-94155694D01*
X141435500Y-93724306D01*
X141432598Y-93687431D01*
X141425105Y-93661641D01*
X141386745Y-93529606D01*
X141386744Y-93529603D01*
X141386744Y-93529602D01*
X141303081Y-93388135D01*
X141303078Y-93388132D01*
X141298298Y-93381969D01*
X141300750Y-93380066D01*
X141274155Y-93331421D01*
X141279104Y-93261726D01*
X141299940Y-93229304D01*
X141298298Y-93228031D01*
X141303075Y-93221870D01*
X141303081Y-93221865D01*
X141386744Y-93080398D01*
X141432598Y-92922569D01*
X141435500Y-92885694D01*
X141435500Y-92454306D01*
X141432598Y-92417431D01*
X141432477Y-92417015D01*
X141386745Y-92259606D01*
X141386744Y-92259603D01*
X141386744Y-92259602D01*
X141303081Y-92118135D01*
X141303079Y-92118133D01*
X141303076Y-92118129D01*
X141186870Y-92001923D01*
X141186862Y-92001917D01*
X141070542Y-91933126D01*
X141045398Y-91918256D01*
X141045397Y-91918255D01*
X141045396Y-91918255D01*
X141045393Y-91918254D01*
X140887573Y-91872402D01*
X140887567Y-91872401D01*
X140850701Y-91869500D01*
X140850694Y-91869500D01*
X139269306Y-91869500D01*
X139269298Y-91869500D01*
X139232432Y-91872401D01*
X139232426Y-91872402D01*
X139074606Y-91918254D01*
X139074603Y-91918255D01*
X138933137Y-92001917D01*
X138933129Y-92001923D01*
X138816923Y-92118129D01*
X138816917Y-92118137D01*
X138733255Y-92259603D01*
X138733253Y-92259606D01*
X138722255Y-92297465D01*
X138684649Y-92356351D01*
X138621176Y-92385557D01*
X138551990Y-92375811D01*
X138515498Y-92350551D01*
X137556819Y-91391872D01*
X137523334Y-91330549D01*
X137520500Y-91304191D01*
X137520500Y-88575928D01*
X137495502Y-88450261D01*
X137495501Y-88450260D01*
X137495501Y-88450256D01*
X137446465Y-88331873D01*
X137441702Y-88324744D01*
X137375277Y-88225331D01*
X137375275Y-88225328D01*
X136779673Y-87629726D01*
X136765865Y-87620500D01*
X136673127Y-87558535D01*
X136673126Y-87558534D01*
X136673124Y-87558533D01*
X136595879Y-87526537D01*
X136541475Y-87482695D01*
X136519411Y-87416401D01*
X136536691Y-87348702D01*
X136555651Y-87324295D01*
X137521104Y-86358842D01*
X138487819Y-85392125D01*
X138549142Y-85358641D01*
X138618834Y-85363625D01*
G37*
%TD.AperFunction*%
%TA.AperFunction,Conductor*%
G36*
X135080503Y-99050072D02*
G01*
X135084647Y-99049477D01*
X135103881Y-99053827D01*
X135170067Y-99074452D01*
X135236619Y-99080500D01*
X135738380Y-99080499D01*
X135738387Y-99080499D01*
X135785883Y-99076182D01*
X135794278Y-99075420D01*
X135862824Y-99088957D01*
X135913170Y-99137403D01*
X135929500Y-99198911D01*
X135929500Y-100778323D01*
X135909815Y-100845362D01*
X135857011Y-100891117D01*
X135787853Y-100901061D01*
X135724297Y-100872036D01*
X135686523Y-100813258D01*
X135686424Y-100812918D01*
X135676746Y-100779606D01*
X135676744Y-100779603D01*
X135676744Y-100779602D01*
X135593081Y-100638135D01*
X135593079Y-100638133D01*
X135593076Y-100638129D01*
X135476870Y-100521923D01*
X135476862Y-100521917D01*
X135335396Y-100438255D01*
X135335393Y-100438254D01*
X135177573Y-100392402D01*
X135177567Y-100392401D01*
X135140701Y-100389500D01*
X135140694Y-100389500D01*
X134409808Y-100389500D01*
X134342769Y-100369815D01*
X134297014Y-100317011D01*
X134287070Y-100247853D01*
X134316095Y-100184297D01*
X134322127Y-100177819D01*
X134797771Y-99702175D01*
X134797776Y-99702170D01*
X134868965Y-99595627D01*
X134868966Y-99595626D01*
X134909059Y-99498831D01*
X134918001Y-99477244D01*
X134924161Y-99446276D01*
X134943000Y-99351569D01*
X134943000Y-99172215D01*
X134950722Y-99145916D01*
X134955070Y-99118851D01*
X134960424Y-99112873D01*
X134962685Y-99105176D01*
X134983396Y-99087229D01*
X135001689Y-99066809D01*
X135009425Y-99064675D01*
X135015489Y-99059421D01*
X135042620Y-99055519D01*
X135069044Y-99048232D01*
X135080503Y-99050072D01*
G37*
%TD.AperFunction*%
%TA.AperFunction,Conductor*%
G36*
X126284294Y-97299468D02*
G01*
X126284635Y-97299416D01*
X126291026Y-97302246D01*
X126344828Y-97324441D01*
X126348414Y-97327657D01*
X126348521Y-97327705D01*
X126348599Y-97327823D01*
X126354842Y-97333423D01*
X126356088Y-97334669D01*
X126406907Y-97385488D01*
X126446696Y-97425277D01*
X126553230Y-97496461D01*
X126553239Y-97496466D01*
X126569656Y-97503266D01*
X126671620Y-97545501D01*
X126671624Y-97545501D01*
X126671625Y-97545502D01*
X126797292Y-97570500D01*
X126797295Y-97570500D01*
X126954174Y-97570500D01*
X127021213Y-97590185D01*
X127066968Y-97642989D01*
X127076912Y-97712147D01*
X127047887Y-97775703D01*
X127041855Y-97782181D01*
X126569855Y-98254181D01*
X126542927Y-98268884D01*
X126517109Y-98285477D01*
X126510908Y-98286368D01*
X126508532Y-98287666D01*
X126482174Y-98290500D01*
X126349500Y-98290500D01*
X126282461Y-98270815D01*
X126236706Y-98218011D01*
X126225500Y-98166500D01*
X126225500Y-97974313D01*
X126225499Y-97974298D01*
X126222598Y-97937432D01*
X126222597Y-97937426D01*
X126183978Y-97804500D01*
X126176744Y-97779602D01*
X126093081Y-97638135D01*
X126093078Y-97638132D01*
X126088298Y-97631969D01*
X126090750Y-97630066D01*
X126064155Y-97581421D01*
X126069104Y-97511726D01*
X126080225Y-97489170D01*
X126087685Y-97477260D01*
X126093081Y-97471865D01*
X126160431Y-97357980D01*
X126211497Y-97310300D01*
X126280239Y-97297796D01*
X126284294Y-97299468D01*
G37*
%TD.AperFunction*%
%TA.AperFunction,Conductor*%
G36*
X137067539Y-96135185D02*
G01*
X137113294Y-96187989D01*
X137124500Y-96239500D01*
X137124500Y-97357784D01*
X137104815Y-97424823D01*
X137052011Y-97470578D01*
X136982853Y-97480522D01*
X136963615Y-97476171D01*
X136897433Y-97455548D01*
X136897431Y-97455547D01*
X136897429Y-97455547D01*
X136850835Y-97451313D01*
X136830881Y-97449500D01*
X136830878Y-97449500D01*
X136329111Y-97449500D01*
X136262573Y-97455546D01*
X136262566Y-97455548D01*
X136109433Y-97503265D01*
X136109431Y-97503266D01*
X136106165Y-97505241D01*
X136103454Y-97505956D01*
X136102589Y-97506346D01*
X136102524Y-97506202D01*
X136038609Y-97523073D01*
X135977873Y-97505238D01*
X135958070Y-97493267D01*
X135958066Y-97493265D01*
X135804933Y-97445548D01*
X135804935Y-97445548D01*
X135778312Y-97443128D01*
X135738381Y-97439500D01*
X135738378Y-97439500D01*
X135236611Y-97439500D01*
X135170073Y-97445546D01*
X135170066Y-97445548D01*
X135016933Y-97493265D01*
X135016929Y-97493267D01*
X134954149Y-97531219D01*
X134886594Y-97549055D01*
X134825851Y-97531219D01*
X134763070Y-97493267D01*
X134763066Y-97493265D01*
X134609933Y-97445548D01*
X134609935Y-97445548D01*
X134583312Y-97443128D01*
X134543381Y-97439500D01*
X134543378Y-97439500D01*
X134041611Y-97439500D01*
X133975073Y-97445546D01*
X133975066Y-97445548D01*
X133821933Y-97493265D01*
X133821931Y-97493266D01*
X133796169Y-97508840D01*
X133788379Y-97510896D01*
X133782229Y-97516103D01*
X133755084Y-97519686D01*
X133728614Y-97526675D01*
X133719173Y-97524427D01*
X133712960Y-97525248D01*
X133694690Y-97518599D01*
X133679213Y-97514915D01*
X133673379Y-97512169D01*
X133625569Y-97483267D01*
X133585348Y-97470733D01*
X133577603Y-97467088D01*
X133557612Y-97449358D01*
X133535373Y-97434543D01*
X133531871Y-97426528D01*
X133525330Y-97420727D01*
X133518097Y-97395003D01*
X133507399Y-97370517D01*
X133508785Y-97361884D01*
X133506419Y-97353466D01*
X133514243Y-97327912D01*
X133518481Y-97301532D01*
X133525256Y-97291943D01*
X133526875Y-97286657D01*
X133532142Y-97282198D01*
X133542727Y-97267217D01*
X134658127Y-96151819D01*
X134719450Y-96118334D01*
X134745808Y-96115500D01*
X137000500Y-96115500D01*
X137067539Y-96135185D01*
G37*
%TD.AperFunction*%
%TA.AperFunction,Conductor*%
G36*
X143255703Y-89956095D02*
G01*
X143262181Y-89962127D01*
X144805325Y-91505272D01*
X144805326Y-91505273D01*
X144805329Y-91505275D01*
X144805331Y-91505277D01*
X144906687Y-91573000D01*
X144911873Y-91576465D01*
X145030256Y-91625501D01*
X145036372Y-91626717D01*
X145047788Y-91631642D01*
X145069502Y-91649667D01*
X145093108Y-91665138D01*
X145096029Y-91671688D01*
X145101548Y-91676270D01*
X145110068Y-91703172D01*
X145121564Y-91728950D01*
X145120479Y-91736041D01*
X145122645Y-91742878D01*
X145115269Y-91770112D01*
X145111003Y-91798017D01*
X145106256Y-91803396D01*
X145104382Y-91810319D01*
X145083450Y-91829246D01*
X145064778Y-91850410D01*
X145057824Y-91852418D01*
X145052558Y-91857180D01*
X145026281Y-91861527D01*
X144998673Y-91869500D01*
X144419298Y-91869500D01*
X144382432Y-91872401D01*
X144382426Y-91872402D01*
X144224606Y-91918254D01*
X144224603Y-91918255D01*
X144083137Y-92001917D01*
X144083129Y-92001923D01*
X143966923Y-92118129D01*
X143966917Y-92118137D01*
X143883255Y-92259603D01*
X143883254Y-92259606D01*
X143837402Y-92417426D01*
X143837401Y-92417432D01*
X143834500Y-92454298D01*
X143834500Y-92885701D01*
X143837401Y-92922567D01*
X143837402Y-92922573D01*
X143883253Y-93080392D01*
X143883255Y-93080396D01*
X143883256Y-93080398D01*
X143896256Y-93102381D01*
X143897911Y-93108903D01*
X143902318Y-93113989D01*
X143906393Y-93142333D01*
X143913439Y-93170102D01*
X143911304Y-93176485D01*
X143912262Y-93183147D01*
X143900364Y-93209198D01*
X143891280Y-93236365D01*
X143886032Y-93240581D01*
X143883237Y-93246703D01*
X143859141Y-93262188D01*
X143836814Y-93280128D01*
X143828734Y-93281729D01*
X143824459Y-93284477D01*
X143789524Y-93289500D01*
X143597967Y-93289500D01*
X143530928Y-93269815D01*
X143529122Y-93268633D01*
X143472211Y-93230606D01*
X143472204Y-93230602D01*
X143326533Y-93170264D01*
X143326521Y-93170261D01*
X143259452Y-93156920D01*
X143242695Y-93148155D01*
X143224216Y-93144135D01*
X143199177Y-93125390D01*
X143197541Y-93124535D01*
X143195962Y-93122984D01*
X143086819Y-93013841D01*
X143053334Y-92952518D01*
X143050500Y-92926160D01*
X143050500Y-90049808D01*
X143070185Y-89982769D01*
X143122989Y-89937014D01*
X143192147Y-89927070D01*
X143255703Y-89956095D01*
G37*
%TD.AperFunction*%
%TA.AperFunction,Conductor*%
G36*
X133517451Y-89676908D02*
G01*
X133564142Y-89728886D01*
X133575320Y-89797856D01*
X133547435Y-89861920D01*
X133539967Y-89870085D01*
X132156873Y-91253181D01*
X132095550Y-91286666D01*
X132069192Y-91289500D01*
X129079500Y-91289500D01*
X129012461Y-91269815D01*
X128966706Y-91217011D01*
X128955500Y-91165500D01*
X128955499Y-90786611D01*
X128949453Y-90720073D01*
X128949452Y-90720070D01*
X128949452Y-90720067D01*
X128901733Y-90566931D01*
X128901732Y-90566929D01*
X128871470Y-90516869D01*
X128853634Y-90449315D01*
X128875152Y-90382841D01*
X128889900Y-90365045D01*
X129530499Y-89724447D01*
X129591821Y-89690963D01*
X129661513Y-89695947D01*
X129717446Y-89737819D01*
X129737254Y-89777531D01*
X129747445Y-89812608D01*
X129748256Y-89815398D01*
X129831917Y-89956862D01*
X129831923Y-89956870D01*
X129948129Y-90073076D01*
X129948133Y-90073079D01*
X129948135Y-90073081D01*
X130089602Y-90156744D01*
X130110619Y-90162850D01*
X130247426Y-90202597D01*
X130247429Y-90202597D01*
X130247431Y-90202598D01*
X130284306Y-90205500D01*
X130284314Y-90205500D01*
X131865686Y-90205500D01*
X131865694Y-90205500D01*
X131902569Y-90202598D01*
X131902571Y-90202597D01*
X131902573Y-90202597D01*
X131967144Y-90183837D01*
X132060398Y-90156744D01*
X132201865Y-90073081D01*
X132318081Y-89956865D01*
X132401744Y-89815398D01*
X132413093Y-89776334D01*
X132450698Y-89717450D01*
X132514170Y-89688243D01*
X132583357Y-89697988D01*
X132590619Y-89701570D01*
X132591227Y-89701895D01*
X132736903Y-89762235D01*
X132736908Y-89762237D01*
X132891558Y-89792999D01*
X132891561Y-89793000D01*
X132891563Y-89793000D01*
X133049249Y-89793000D01*
X133049250Y-89792999D01*
X133203902Y-89762237D01*
X133349584Y-89701894D01*
X133383394Y-89679303D01*
X133450071Y-89658424D01*
X133517451Y-89676908D01*
G37*
%TD.AperFunction*%
%TA.AperFunction,Conductor*%
G36*
X149539675Y-75520185D02*
G01*
X149585430Y-75572989D01*
X149595374Y-75642147D01*
X149566349Y-75705703D01*
X149538608Y-75729494D01*
X149435127Y-75794515D01*
X149275425Y-75921871D01*
X150417263Y-77063709D01*
X150283398Y-77160967D01*
X150160967Y-77283398D01*
X150063709Y-77417262D01*
X148921871Y-76275425D01*
X148794515Y-76435127D01*
X148633172Y-76691903D01*
X148501598Y-76965119D01*
X148501592Y-76965133D01*
X148401438Y-77251354D01*
X148401434Y-77251366D01*
X148333954Y-77547017D01*
X148333952Y-77547033D01*
X148300000Y-77848366D01*
X148300000Y-78151633D01*
X148333952Y-78452966D01*
X148333954Y-78452982D01*
X148401434Y-78748633D01*
X148401438Y-78748645D01*
X148501592Y-79034866D01*
X148501598Y-79034880D01*
X148633172Y-79308096D01*
X148794515Y-79564872D01*
X148921871Y-79724573D01*
X150063708Y-78582736D01*
X150160967Y-78716602D01*
X150283398Y-78839033D01*
X150417262Y-78936290D01*
X149275425Y-80078127D01*
X149435127Y-80205484D01*
X149691903Y-80366827D01*
X149965119Y-80498401D01*
X149965133Y-80498407D01*
X150251354Y-80598561D01*
X150251366Y-80598565D01*
X150547017Y-80666045D01*
X150547033Y-80666047D01*
X150848366Y-80699999D01*
X150848368Y-80700000D01*
X151151632Y-80700000D01*
X151151633Y-80699999D01*
X151452966Y-80666047D01*
X151452982Y-80666045D01*
X151748633Y-80598565D01*
X151748645Y-80598561D01*
X152034866Y-80498407D01*
X152034880Y-80498401D01*
X152308096Y-80366827D01*
X152564872Y-80205484D01*
X152724573Y-80078126D01*
X151582737Y-78936290D01*
X151716602Y-78839033D01*
X151839033Y-78716602D01*
X151936290Y-78582737D01*
X153078126Y-79724573D01*
X153205487Y-79564868D01*
X153270506Y-79461392D01*
X153322840Y-79415100D01*
X153391894Y-79404451D01*
X153455742Y-79432826D01*
X153494114Y-79491216D01*
X153499500Y-79527363D01*
X153499500Y-84927630D01*
X153479815Y-84994669D01*
X153427011Y-85040424D01*
X153357853Y-85050368D01*
X153294297Y-85021343D01*
X153268768Y-84990751D01*
X153208083Y-84888138D01*
X153208076Y-84888129D01*
X153091870Y-84771923D01*
X153091862Y-84771917D01*
X152953665Y-84690188D01*
X152950398Y-84688256D01*
X152950397Y-84688255D01*
X152950396Y-84688255D01*
X152950393Y-84688254D01*
X152792573Y-84642402D01*
X152792567Y-84642401D01*
X152755701Y-84639500D01*
X152755694Y-84639500D01*
X151174306Y-84639500D01*
X151174298Y-84639500D01*
X151137432Y-84642401D01*
X151137426Y-84642402D01*
X150979606Y-84688254D01*
X150979603Y-84688255D01*
X150838137Y-84771917D01*
X150838129Y-84771923D01*
X150721923Y-84888129D01*
X150721917Y-84888137D01*
X150638255Y-85029603D01*
X150638254Y-85029606D01*
X150592402Y-85187426D01*
X150592401Y-85187432D01*
X150589500Y-85224298D01*
X150589500Y-85438593D01*
X150569815Y-85505632D01*
X150517011Y-85551387D01*
X150512953Y-85553154D01*
X150470824Y-85570604D01*
X150470814Y-85570609D01*
X150339711Y-85658210D01*
X150339707Y-85658213D01*
X150228213Y-85769707D01*
X150228210Y-85769711D01*
X150140609Y-85900814D01*
X150140602Y-85900827D01*
X150080264Y-86046498D01*
X150080261Y-86046510D01*
X150049500Y-86201153D01*
X150049500Y-86358846D01*
X150080261Y-86513489D01*
X150080264Y-86513501D01*
X150140602Y-86659172D01*
X150140609Y-86659185D01*
X150228210Y-86790288D01*
X150228213Y-86790292D01*
X150339707Y-86901786D01*
X150339711Y-86901789D01*
X150470814Y-86989390D01*
X150470827Y-86989397D01*
X150562882Y-87027527D01*
X150617286Y-87071368D01*
X150623477Y-87081246D01*
X150630508Y-87093733D01*
X150638256Y-87120398D01*
X150721919Y-87261865D01*
X150729393Y-87269339D01*
X150737738Y-87284158D01*
X150741933Y-87302299D01*
X150750857Y-87318642D01*
X150749641Y-87335633D01*
X150753480Y-87352231D01*
X150747201Y-87369759D01*
X150745873Y-87388334D01*
X150733844Y-87407050D01*
X150729919Y-87418009D01*
X150725740Y-87421223D01*
X150726702Y-87421969D01*
X150721917Y-87428137D01*
X150638255Y-87569603D01*
X150638254Y-87569606D01*
X150592402Y-87727426D01*
X150592401Y-87727432D01*
X150589500Y-87764298D01*
X150589500Y-88195701D01*
X150592401Y-88232567D01*
X150592402Y-88232573D01*
X150638254Y-88390393D01*
X150638255Y-88390396D01*
X150721917Y-88531862D01*
X150726702Y-88538031D01*
X150724256Y-88539927D01*
X150750857Y-88588642D01*
X150745873Y-88658334D01*
X150725069Y-88690703D01*
X150726702Y-88691969D01*
X150721917Y-88698137D01*
X150638255Y-88839603D01*
X150638254Y-88839606D01*
X150592402Y-88997426D01*
X150592401Y-88997432D01*
X150589500Y-89034298D01*
X150589500Y-89465701D01*
X150592401Y-89502567D01*
X150592402Y-89502573D01*
X150638254Y-89660393D01*
X150638255Y-89660396D01*
X150721919Y-89801866D01*
X150722090Y-89802086D01*
X150722169Y-89802289D01*
X150725890Y-89808580D01*
X150724875Y-89809180D01*
X150747623Y-89867124D01*
X150733940Y-89935640D01*
X150711789Y-89965764D01*
X150534371Y-90143181D01*
X150473048Y-90176666D01*
X150446691Y-90179500D01*
X150346611Y-90179500D01*
X150280073Y-90185546D01*
X150280066Y-90185548D01*
X150126933Y-90233265D01*
X150126929Y-90233267D01*
X150064149Y-90271219D01*
X149996594Y-90289055D01*
X149935851Y-90271219D01*
X149873070Y-90233267D01*
X149873066Y-90233265D01*
X149719933Y-90185548D01*
X149719935Y-90185548D01*
X149693312Y-90183128D01*
X149653381Y-90179500D01*
X149653378Y-90179500D01*
X149151611Y-90179500D01*
X149085073Y-90185546D01*
X149085072Y-90185546D01*
X149001389Y-90211623D01*
X148931529Y-90212773D01*
X148872137Y-90175972D01*
X148842069Y-90112903D01*
X148840500Y-90093237D01*
X148840500Y-87145929D01*
X148815502Y-87020262D01*
X148815501Y-87020261D01*
X148815501Y-87020257D01*
X148777574Y-86928693D01*
X148766466Y-86901876D01*
X148766461Y-86901867D01*
X148695277Y-86795333D01*
X148679141Y-86779197D01*
X148604669Y-86704725D01*
X148500546Y-86600602D01*
X148104673Y-86204727D01*
X148104672Y-86204726D01*
X148102529Y-86203294D01*
X148096666Y-86199376D01*
X148092404Y-86195252D01*
X148089212Y-86193986D01*
X148078537Y-86181833D01*
X148064777Y-86168518D01*
X148061601Y-86164088D01*
X148058081Y-86158135D01*
X148055444Y-86155498D01*
X148049526Y-86147242D01*
X148041224Y-86123496D01*
X148029155Y-86101421D01*
X148029889Y-86091076D01*
X148026467Y-86081287D01*
X148032322Y-86056819D01*
X148034104Y-86031726D01*
X148040832Y-86021256D01*
X148042728Y-86013336D01*
X148051061Y-86005340D01*
X148054940Y-85999304D01*
X148053298Y-85998031D01*
X148058075Y-85991870D01*
X148058081Y-85991865D01*
X148141744Y-85850398D01*
X148187598Y-85692569D01*
X148190500Y-85655694D01*
X148190500Y-85224306D01*
X148187598Y-85187431D01*
X148186777Y-85184606D01*
X148141745Y-85029606D01*
X148141744Y-85029603D01*
X148141744Y-85029602D01*
X148058081Y-84888135D01*
X148058079Y-84888133D01*
X148058076Y-84888129D01*
X147941870Y-84771923D01*
X147941862Y-84771917D01*
X147803665Y-84690188D01*
X147800398Y-84688256D01*
X147800397Y-84688255D01*
X147800396Y-84688255D01*
X147800393Y-84688254D01*
X147642573Y-84642402D01*
X147642567Y-84642401D01*
X147605701Y-84639500D01*
X147605694Y-84639500D01*
X146024306Y-84639500D01*
X146024298Y-84639500D01*
X145987432Y-84642401D01*
X145987426Y-84642402D01*
X145829606Y-84688254D01*
X145829603Y-84688255D01*
X145688137Y-84771917D01*
X145688129Y-84771923D01*
X145571923Y-84888129D01*
X145571917Y-84888137D01*
X145488255Y-85029603D01*
X145488254Y-85029606D01*
X145442402Y-85187426D01*
X145442401Y-85187432D01*
X145439500Y-85224298D01*
X145439500Y-85655701D01*
X145442401Y-85692567D01*
X145442402Y-85692573D01*
X145488254Y-85850393D01*
X145488255Y-85850396D01*
X145571917Y-85991862D01*
X145576702Y-85998031D01*
X145574256Y-85999927D01*
X145600857Y-86048642D01*
X145595873Y-86118334D01*
X145575069Y-86150703D01*
X145576702Y-86151969D01*
X145571917Y-86158137D01*
X145488255Y-86299603D01*
X145488254Y-86299606D01*
X145442402Y-86457426D01*
X145442401Y-86457432D01*
X145439500Y-86494298D01*
X145439500Y-86925701D01*
X145442401Y-86962567D01*
X145442402Y-86962570D01*
X145444678Y-86970404D01*
X145444579Y-87004688D01*
X145444848Y-87039000D01*
X145444478Y-87039584D01*
X145444477Y-87040274D01*
X145425858Y-87069062D01*
X145407535Y-87098071D01*
X145406802Y-87098527D01*
X145406534Y-87098943D01*
X145377994Y-87117385D01*
X145375526Y-87118535D01*
X145365873Y-87122534D01*
X145363389Y-87124193D01*
X145355464Y-87127888D01*
X145340148Y-87130212D01*
X145303071Y-87139500D01*
X144394935Y-87139500D01*
X144327896Y-87119815D01*
X144326090Y-87118633D01*
X144269179Y-87080606D01*
X144269172Y-87080602D01*
X144123501Y-87020264D01*
X144123489Y-87020261D01*
X143996209Y-86994943D01*
X143934298Y-86962558D01*
X143899723Y-86901842D01*
X143903463Y-86832073D01*
X143914857Y-86808236D01*
X143967003Y-86723697D01*
X144020349Y-86562708D01*
X144030500Y-86463345D01*
X144030499Y-85916656D01*
X144028881Y-85900821D01*
X144020349Y-85817292D01*
X144020348Y-85817289D01*
X143992914Y-85734499D01*
X143967003Y-85656303D01*
X143966999Y-85656297D01*
X143966998Y-85656294D01*
X143877970Y-85511959D01*
X143877967Y-85511955D01*
X143758043Y-85392031D01*
X143614369Y-85303411D01*
X143567645Y-85251463D01*
X143566253Y-85248455D01*
X143560568Y-85235730D01*
X143555501Y-85210256D01*
X143506465Y-85091873D01*
X143481606Y-85054669D01*
X143475774Y-85045940D01*
X143435281Y-84985336D01*
X143435277Y-84985331D01*
X142502126Y-84052180D01*
X142468641Y-83990857D01*
X142473625Y-83921165D01*
X142515497Y-83865232D01*
X142580961Y-83840815D01*
X142589781Y-83840499D01*
X143353344Y-83840499D01*
X143353352Y-83840498D01*
X143353355Y-83840498D01*
X143407760Y-83834940D01*
X143452708Y-83830349D01*
X143613697Y-83777003D01*
X143758044Y-83687968D01*
X143869193Y-83576819D01*
X143930516Y-83543334D01*
X143956874Y-83540500D01*
X144645200Y-83540500D01*
X144712239Y-83560185D01*
X144714091Y-83561398D01*
X144830814Y-83639390D01*
X144830827Y-83639397D01*
X144976498Y-83699735D01*
X144976503Y-83699737D01*
X145131153Y-83730499D01*
X145131156Y-83730500D01*
X145131158Y-83730500D01*
X145288844Y-83730500D01*
X145288845Y-83730499D01*
X145443497Y-83699737D01*
X145589179Y-83639394D01*
X145720289Y-83551789D01*
X145831789Y-83440289D01*
X145919394Y-83309179D01*
X145979737Y-83163497D01*
X146010500Y-83008842D01*
X146010500Y-82851158D01*
X146010500Y-82851155D01*
X146010499Y-82851153D01*
X146002313Y-82809999D01*
X145979737Y-82696503D01*
X145975199Y-82685548D01*
X145919397Y-82550827D01*
X145919390Y-82550814D01*
X145831789Y-82419711D01*
X145831786Y-82419707D01*
X145720292Y-82308213D01*
X145720288Y-82308210D01*
X145589185Y-82220609D01*
X145589172Y-82220602D01*
X145443501Y-82160264D01*
X145443489Y-82160261D01*
X145288845Y-82129500D01*
X145288842Y-82129500D01*
X145131158Y-82129500D01*
X145131155Y-82129500D01*
X144976510Y-82160261D01*
X144976498Y-82160264D01*
X144830828Y-82220602D01*
X144825447Y-82223479D01*
X144824414Y-82221547D01*
X144767137Y-82239480D01*
X144764929Y-82239500D01*
X143956874Y-82239500D01*
X143927433Y-82230855D01*
X143897447Y-82224332D01*
X143892431Y-82220577D01*
X143889835Y-82219815D01*
X143869193Y-82203181D01*
X143813693Y-82147681D01*
X143780208Y-82086358D01*
X143785192Y-82016666D01*
X143813693Y-81972319D01*
X143853694Y-81932318D01*
X143917968Y-81868044D01*
X144007003Y-81723697D01*
X144060349Y-81562708D01*
X144070500Y-81463345D01*
X144070499Y-80916656D01*
X144060349Y-80817292D01*
X144007003Y-80656303D01*
X144006999Y-80656297D01*
X144006998Y-80656294D01*
X143917970Y-80511959D01*
X143917967Y-80511955D01*
X143798044Y-80392032D01*
X143798040Y-80392029D01*
X143653705Y-80303001D01*
X143653699Y-80302998D01*
X143653697Y-80302997D01*
X143653694Y-80302996D01*
X143492709Y-80249651D01*
X143393346Y-80239500D01*
X142546662Y-80239500D01*
X142546644Y-80239501D01*
X142447292Y-80249650D01*
X142447289Y-80249651D01*
X142286305Y-80302996D01*
X142286294Y-80303001D01*
X142141959Y-80392029D01*
X142141955Y-80392032D01*
X142022032Y-80511955D01*
X142022029Y-80511959D01*
X141933001Y-80656294D01*
X141932996Y-80656305D01*
X141879651Y-80817290D01*
X141869500Y-80916647D01*
X141869500Y-81463337D01*
X141869501Y-81463355D01*
X141879650Y-81562707D01*
X141879651Y-81562710D01*
X141932996Y-81723694D01*
X141933001Y-81723705D01*
X142022029Y-81868040D01*
X142022032Y-81868044D01*
X142086306Y-81932318D01*
X142119791Y-81993641D01*
X142114807Y-82063333D01*
X142086307Y-82107679D01*
X141982032Y-82211955D01*
X141982029Y-82211959D01*
X141893001Y-82356294D01*
X141892996Y-82356305D01*
X141839651Y-82517290D01*
X141829500Y-82616647D01*
X141829500Y-82712254D01*
X141809815Y-82779293D01*
X141757011Y-82825048D01*
X141687853Y-82834992D01*
X141641351Y-82818371D01*
X141500570Y-82733267D01*
X141500566Y-82733265D01*
X141347433Y-82685548D01*
X141347435Y-82685548D01*
X141320812Y-82683128D01*
X141280881Y-82679500D01*
X141280878Y-82679500D01*
X140779111Y-82679500D01*
X140712573Y-82685546D01*
X140712566Y-82685548D01*
X140559433Y-82733265D01*
X140559429Y-82733267D01*
X140496649Y-82771219D01*
X140429094Y-82789055D01*
X140368351Y-82771219D01*
X140305570Y-82733267D01*
X140305566Y-82733265D01*
X140152433Y-82685548D01*
X140152435Y-82685548D01*
X140125812Y-82683128D01*
X140085881Y-82679500D01*
X140085878Y-82679500D01*
X139584111Y-82679500D01*
X139517573Y-82685546D01*
X139517566Y-82685548D01*
X139364433Y-82733265D01*
X139364429Y-82733267D01*
X139246649Y-82804467D01*
X139235890Y-82807307D01*
X139227052Y-82814070D01*
X139202708Y-82816068D01*
X139179094Y-82822303D01*
X139166690Y-82819024D01*
X139157416Y-82819786D01*
X139132288Y-82809932D01*
X139124220Y-82807800D01*
X139121215Y-82806199D01*
X139000569Y-82733267D01*
X138961220Y-82721005D01*
X138950943Y-82715533D01*
X138933965Y-82698908D01*
X138914185Y-82685731D01*
X138909457Y-82674910D01*
X138901021Y-82666650D01*
X138895725Y-82643483D01*
X138886211Y-82621706D01*
X138888083Y-82610047D01*
X138885453Y-82598537D01*
X138893522Y-82576186D01*
X138897292Y-82552721D01*
X138906909Y-82539110D01*
X138909181Y-82532819D01*
X138913913Y-82529198D01*
X138921539Y-82518405D01*
X142563127Y-78876818D01*
X142624450Y-78843333D01*
X142650808Y-78840499D01*
X143393338Y-78840499D01*
X143393344Y-78840499D01*
X143393352Y-78840498D01*
X143393355Y-78840498D01*
X143447760Y-78834940D01*
X143492708Y-78830349D01*
X143653697Y-78777003D01*
X143798044Y-78687968D01*
X143917968Y-78568044D01*
X144007003Y-78423697D01*
X144060349Y-78262708D01*
X144070500Y-78163345D01*
X144070499Y-77616656D01*
X144066524Y-77577747D01*
X144060349Y-77517292D01*
X144060348Y-77517289D01*
X144022089Y-77401830D01*
X144007003Y-77356303D01*
X144006999Y-77356297D01*
X144006998Y-77356294D01*
X143917970Y-77211959D01*
X143917967Y-77211955D01*
X143798044Y-77092032D01*
X143798040Y-77092029D01*
X143653705Y-77003001D01*
X143653699Y-77002998D01*
X143653697Y-77002997D01*
X143586077Y-76980590D01*
X143492709Y-76949651D01*
X143393346Y-76939500D01*
X142546662Y-76939500D01*
X142546644Y-76939501D01*
X142447292Y-76949650D01*
X142447289Y-76949651D01*
X142286305Y-77002996D01*
X142286294Y-77003001D01*
X142141959Y-77092029D01*
X142141955Y-77092032D01*
X142022032Y-77211955D01*
X142022029Y-77211959D01*
X141933001Y-77356294D01*
X141932996Y-77356305D01*
X141879651Y-77517290D01*
X141869500Y-77616647D01*
X141869500Y-77679191D01*
X141849815Y-77746230D01*
X141833181Y-77766872D01*
X136881032Y-82719020D01*
X136857501Y-82737456D01*
X136727166Y-82816245D01*
X136613746Y-82929665D01*
X136613742Y-82929670D01*
X136530767Y-83066929D01*
X136530765Y-83066933D01*
X136483048Y-83220065D01*
X136477000Y-83286621D01*
X136477000Y-83409240D01*
X136457315Y-83476279D01*
X136456103Y-83478129D01*
X136423535Y-83526871D01*
X136374499Y-83645255D01*
X136374497Y-83645261D01*
X136349500Y-83770928D01*
X136349500Y-84135064D01*
X136329815Y-84202103D01*
X136328603Y-84203954D01*
X136290608Y-84260817D01*
X136290602Y-84260828D01*
X136230264Y-84406498D01*
X136230261Y-84406510D01*
X136199500Y-84561153D01*
X136199500Y-84561158D01*
X136199500Y-84718842D01*
X136200693Y-84724840D01*
X136211946Y-84781414D01*
X136205718Y-84851005D01*
X136162854Y-84906182D01*
X136096964Y-84929426D01*
X136028967Y-84913358D01*
X136027207Y-84912336D01*
X135910396Y-84843255D01*
X135910393Y-84843254D01*
X135752573Y-84797402D01*
X135752567Y-84797401D01*
X135715701Y-84794500D01*
X135715694Y-84794500D01*
X134134306Y-84794500D01*
X134134298Y-84794500D01*
X134097432Y-84797401D01*
X134097426Y-84797402D01*
X133939606Y-84843254D01*
X133939603Y-84843255D01*
X133798137Y-84926917D01*
X133798129Y-84926923D01*
X133681923Y-85043129D01*
X133681917Y-85043137D01*
X133594285Y-85191317D01*
X133591647Y-85189757D01*
X133556058Y-85232506D01*
X133489419Y-85253509D01*
X133422005Y-85235150D01*
X133399293Y-85217214D01*
X133350292Y-85168213D01*
X133350288Y-85168210D01*
X133219185Y-85080609D01*
X133219172Y-85080602D01*
X133073501Y-85020264D01*
X133073489Y-85020261D01*
X132918845Y-84989500D01*
X132918842Y-84989500D01*
X132761158Y-84989500D01*
X132761155Y-84989500D01*
X132606510Y-85020261D01*
X132606498Y-85020264D01*
X132462218Y-85080027D01*
X132392749Y-85087496D01*
X132330270Y-85056221D01*
X132320755Y-85045808D01*
X132201870Y-84926923D01*
X132201862Y-84926917D01*
X132060396Y-84843255D01*
X132060393Y-84843254D01*
X131902573Y-84797402D01*
X131902567Y-84797401D01*
X131865701Y-84794500D01*
X131865694Y-84794500D01*
X130284306Y-84794500D01*
X130284298Y-84794500D01*
X130247432Y-84797401D01*
X130247426Y-84797402D01*
X130089606Y-84843254D01*
X130089603Y-84843255D01*
X129948137Y-84926917D01*
X129948129Y-84926923D01*
X129831923Y-85043129D01*
X129831917Y-85043137D01*
X129748255Y-85184603D01*
X129748254Y-85184606D01*
X129702402Y-85342426D01*
X129702401Y-85342432D01*
X129699500Y-85379298D01*
X129699500Y-85810701D01*
X129702401Y-85847567D01*
X129737724Y-85969149D01*
X129737524Y-86039018D01*
X129699581Y-86097688D01*
X129635943Y-86126531D01*
X129571195Y-86118304D01*
X129503501Y-86090264D01*
X129503489Y-86090261D01*
X129348845Y-86059500D01*
X129348842Y-86059500D01*
X129191158Y-86059500D01*
X129191155Y-86059500D01*
X129036510Y-86090261D01*
X129036498Y-86090264D01*
X128890827Y-86150602D01*
X128890814Y-86150609D01*
X128759711Y-86238210D01*
X128759707Y-86238213D01*
X128648213Y-86349707D01*
X128648210Y-86349711D01*
X128560609Y-86480814D01*
X128560602Y-86480827D01*
X128500264Y-86626498D01*
X128500261Y-86626510D01*
X128469500Y-86781153D01*
X128469500Y-86938846D01*
X128500261Y-87093489D01*
X128500264Y-87093501D01*
X128560602Y-87239172D01*
X128560609Y-87239185D01*
X128648210Y-87370288D01*
X128648213Y-87370292D01*
X128759707Y-87481786D01*
X128759711Y-87481789D01*
X128890814Y-87569390D01*
X128890827Y-87569397D01*
X129036476Y-87629726D01*
X129036503Y-87629737D01*
X129191153Y-87660499D01*
X129191156Y-87660500D01*
X129191158Y-87660500D01*
X129348844Y-87660500D01*
X129420597Y-87646227D01*
X129450830Y-87640213D01*
X129483424Y-87643129D01*
X129516121Y-87644839D01*
X129518052Y-87646227D01*
X129520422Y-87646440D01*
X129546276Y-87666523D01*
X129572847Y-87685631D01*
X129573720Y-87687842D01*
X129575599Y-87689302D01*
X129586486Y-87720164D01*
X129598514Y-87750615D01*
X129598052Y-87752949D01*
X129598844Y-87755192D01*
X129591316Y-87787049D01*
X129584973Y-87819160D01*
X129583159Y-87821568D01*
X129582777Y-87823189D01*
X129564368Y-87847815D01*
X129560751Y-87851573D01*
X129560364Y-87851888D01*
X129559157Y-87852940D01*
X129497697Y-87916818D01*
X129497272Y-87917533D01*
X129491735Y-87923287D01*
X129491370Y-87923494D01*
X129490070Y-87924983D01*
X128113181Y-89301873D01*
X128051858Y-89335358D01*
X127982166Y-89330374D01*
X127926233Y-89288502D01*
X127901816Y-89223038D01*
X127901500Y-89214192D01*
X127901500Y-87667828D01*
X127876502Y-87542161D01*
X127876501Y-87542160D01*
X127876501Y-87542156D01*
X127827465Y-87423773D01*
X127817928Y-87409500D01*
X127756277Y-87317231D01*
X127756275Y-87317229D01*
X127756273Y-87317226D01*
X127756272Y-87317225D01*
X127409446Y-86970400D01*
X127395617Y-86953935D01*
X127322990Y-86850413D01*
X127300602Y-86784227D01*
X127300500Y-86779197D01*
X127300500Y-86649313D01*
X127300499Y-86649298D01*
X127297598Y-86612432D01*
X127297597Y-86612426D01*
X127251745Y-86454606D01*
X127251744Y-86454603D01*
X127251744Y-86454602D01*
X127168081Y-86313135D01*
X127168078Y-86313132D01*
X127163298Y-86306969D01*
X127165750Y-86305066D01*
X127139155Y-86256421D01*
X127144104Y-86186726D01*
X127164940Y-86154304D01*
X127163298Y-86153031D01*
X127168075Y-86146870D01*
X127168081Y-86146865D01*
X127251744Y-86005398D01*
X127297598Y-85847569D01*
X127300500Y-85810694D01*
X127300500Y-85379306D01*
X127297598Y-85342431D01*
X127286141Y-85302997D01*
X127259197Y-85210256D01*
X127251744Y-85184602D01*
X127168081Y-85043135D01*
X127168079Y-85043133D01*
X127168076Y-85043129D01*
X127051870Y-84926923D01*
X127051862Y-84926917D01*
X126910396Y-84843255D01*
X126910393Y-84843254D01*
X126752573Y-84797402D01*
X126752567Y-84797401D01*
X126715701Y-84794500D01*
X126715694Y-84794500D01*
X125134306Y-84794500D01*
X125134298Y-84794500D01*
X125097432Y-84797401D01*
X125097426Y-84797402D01*
X124980618Y-84831339D01*
X124910749Y-84831140D01*
X124852079Y-84793198D01*
X124831462Y-84759715D01*
X124808237Y-84703646D01*
X124808236Y-84703643D01*
X124737049Y-84597103D01*
X124737043Y-84597096D01*
X123317627Y-83177680D01*
X123284142Y-83116357D01*
X123289126Y-83046665D01*
X123317625Y-83002320D01*
X125550261Y-80769684D01*
X125581435Y-80743894D01*
X125634110Y-80685835D01*
X126035276Y-80284670D01*
X126106465Y-80178127D01*
X126108060Y-80174275D01*
X126130786Y-80138402D01*
X126454508Y-79781599D01*
X126571545Y-79664563D01*
X126615165Y-79604525D01*
X126615608Y-79604037D01*
X126618303Y-79601043D01*
X126618428Y-79600903D01*
X126654603Y-79555365D01*
X126658882Y-79546959D01*
X126669061Y-79530342D01*
X126697880Y-79490678D01*
X126795458Y-79299170D01*
X126861876Y-79094755D01*
X126895500Y-78882467D01*
X126895500Y-78367533D01*
X126861876Y-78155245D01*
X126861875Y-78155241D01*
X126861875Y-78155240D01*
X126795459Y-77950832D01*
X126795458Y-77950829D01*
X126707315Y-77777840D01*
X126697880Y-77759322D01*
X126571545Y-77585437D01*
X126419563Y-77433455D01*
X126245678Y-77307120D01*
X126199121Y-77283398D01*
X126054170Y-77209541D01*
X126054167Y-77209540D01*
X125849757Y-77143124D01*
X125708229Y-77120708D01*
X125637467Y-77109500D01*
X125422533Y-77109500D01*
X125351770Y-77120708D01*
X125210243Y-77143124D01*
X125210240Y-77143124D01*
X125005832Y-77209540D01*
X125005829Y-77209541D01*
X124814321Y-77307120D01*
X124730981Y-77367671D01*
X124640437Y-77433455D01*
X124640435Y-77433457D01*
X124640434Y-77433457D01*
X124488457Y-77585434D01*
X124488457Y-77585435D01*
X124488455Y-77585437D01*
X124465782Y-77616644D01*
X124360318Y-77761802D01*
X124304988Y-77804467D01*
X124235374Y-77810446D01*
X124173579Y-77777840D01*
X124159682Y-77761802D01*
X124099661Y-77679191D01*
X124031545Y-77585437D01*
X123879563Y-77433455D01*
X123705678Y-77307120D01*
X123659121Y-77283398D01*
X123514170Y-77209541D01*
X123514167Y-77209540D01*
X123309757Y-77143124D01*
X123168229Y-77120708D01*
X123097467Y-77109500D01*
X122882533Y-77109500D01*
X122811770Y-77120708D01*
X122670243Y-77143124D01*
X122670240Y-77143124D01*
X122465832Y-77209540D01*
X122465829Y-77209541D01*
X122274321Y-77307120D01*
X122100438Y-77433454D01*
X122005910Y-77527982D01*
X121944586Y-77561466D01*
X121874895Y-77556482D01*
X121818962Y-77514610D01*
X121802047Y-77483632D01*
X121758798Y-77367673D01*
X121758793Y-77367664D01*
X121672547Y-77252455D01*
X121672544Y-77252452D01*
X121557335Y-77166206D01*
X121557328Y-77166202D01*
X121422482Y-77115908D01*
X121422483Y-77115908D01*
X121362883Y-77109501D01*
X121362881Y-77109500D01*
X121362873Y-77109500D01*
X121362864Y-77109500D01*
X119537129Y-77109500D01*
X119537123Y-77109501D01*
X119477516Y-77115908D01*
X119342671Y-77166202D01*
X119342664Y-77166206D01*
X119227455Y-77252452D01*
X119227452Y-77252455D01*
X119141206Y-77367664D01*
X119141202Y-77367671D01*
X119090908Y-77502517D01*
X119084501Y-77562116D01*
X119084500Y-77562135D01*
X119084500Y-78129186D01*
X119075024Y-78176729D01*
X118867642Y-78676283D01*
X118823758Y-78730652D01*
X118757446Y-78752664D01*
X118689761Y-78735332D01*
X118642190Y-78684157D01*
X118629839Y-78615388D01*
X118632227Y-78601147D01*
X118666045Y-78452978D01*
X118666047Y-78452966D01*
X118699999Y-78151633D01*
X118700000Y-78151631D01*
X118700000Y-77848368D01*
X118699999Y-77848366D01*
X118666047Y-77547033D01*
X118666045Y-77547017D01*
X118598565Y-77251366D01*
X118598561Y-77251354D01*
X118498407Y-76965133D01*
X118498401Y-76965119D01*
X118366827Y-76691903D01*
X118205484Y-76435127D01*
X118078127Y-76275425D01*
X116936290Y-77417262D01*
X116839033Y-77283398D01*
X116716602Y-77160967D01*
X116582736Y-77063708D01*
X117724573Y-75921871D01*
X117564872Y-75794515D01*
X117461392Y-75729494D01*
X117415101Y-75677159D01*
X117404453Y-75608106D01*
X117432828Y-75544257D01*
X117491217Y-75505885D01*
X117527364Y-75500500D01*
X149472636Y-75500500D01*
X149539675Y-75520185D01*
G37*
%TD.AperFunction*%
%TA.AperFunction,Conductor*%
G36*
X120662454Y-85830101D02*
G01*
X120710065Y-85881237D01*
X120718258Y-85902148D01*
X120748253Y-86005393D01*
X120748255Y-86005396D01*
X120748256Y-86005398D01*
X120773830Y-86048642D01*
X120831917Y-86146862D01*
X120836702Y-86153031D01*
X120834256Y-86154927D01*
X120860857Y-86203642D01*
X120855873Y-86273334D01*
X120835069Y-86305703D01*
X120836702Y-86306969D01*
X120831917Y-86313137D01*
X120748255Y-86454603D01*
X120748254Y-86454606D01*
X120702402Y-86612426D01*
X120702401Y-86612432D01*
X120699500Y-86649298D01*
X120699500Y-87080701D01*
X120702401Y-87117567D01*
X120702402Y-87117573D01*
X120748253Y-87275392D01*
X120748255Y-87275396D01*
X120748256Y-87275398D01*
X120761256Y-87297381D01*
X120778439Y-87365102D01*
X120756280Y-87431365D01*
X120701814Y-87475128D01*
X120654524Y-87484500D01*
X120300929Y-87484500D01*
X120237502Y-87497117D01*
X120213310Y-87499500D01*
X120121155Y-87499500D01*
X119966510Y-87530261D01*
X119966498Y-87530264D01*
X119820827Y-87590602D01*
X119820814Y-87590609D01*
X119689711Y-87678210D01*
X119689707Y-87678213D01*
X119578213Y-87789707D01*
X119578210Y-87789711D01*
X119490609Y-87920814D01*
X119490602Y-87920827D01*
X119430264Y-88066498D01*
X119430261Y-88066510D01*
X119399500Y-88221153D01*
X119399500Y-88378846D01*
X119430261Y-88533489D01*
X119430264Y-88533501D01*
X119490602Y-88679172D01*
X119490609Y-88679185D01*
X119578210Y-88810288D01*
X119578213Y-88810292D01*
X119689707Y-88921786D01*
X119689711Y-88921789D01*
X119820814Y-89009390D01*
X119820827Y-89009397D01*
X119966498Y-89069735D01*
X119966503Y-89069737D01*
X120121153Y-89100499D01*
X120121156Y-89100500D01*
X120121158Y-89100500D01*
X120278844Y-89100500D01*
X120278845Y-89100499D01*
X120433497Y-89069737D01*
X120531244Y-89029248D01*
X120600713Y-89021780D01*
X120663192Y-89053055D01*
X120698844Y-89113144D01*
X120702314Y-89153536D01*
X120699500Y-89189292D01*
X120699500Y-89455500D01*
X120679815Y-89522539D01*
X120627011Y-89568294D01*
X120575500Y-89579500D01*
X118424500Y-89579500D01*
X118357461Y-89559815D01*
X118311706Y-89507011D01*
X118300500Y-89455500D01*
X118300500Y-89189313D01*
X118300499Y-89189298D01*
X118297598Y-89152432D01*
X118297597Y-89152426D01*
X118256042Y-89009397D01*
X118251744Y-88994602D01*
X118168081Y-88853135D01*
X118168078Y-88853132D01*
X118163298Y-88846969D01*
X118165742Y-88845072D01*
X118139142Y-88796357D01*
X118144126Y-88726665D01*
X118159528Y-88697754D01*
X118165442Y-88689503D01*
X118168081Y-88686865D01*
X118171601Y-88680912D01*
X118174780Y-88676478D01*
X118185090Y-88668422D01*
X118206671Y-88645620D01*
X118214668Y-88640277D01*
X118424646Y-88430298D01*
X118439635Y-88418111D01*
X118440842Y-88417059D01*
X118502302Y-88353181D01*
X118503087Y-88351857D01*
X118756277Y-88098668D01*
X118827465Y-87992126D01*
X118841655Y-87957868D01*
X118876501Y-87873743D01*
X118887359Y-87819160D01*
X118901500Y-87748070D01*
X118901500Y-87577733D01*
X118921185Y-87510694D01*
X118937819Y-87490052D01*
X120400273Y-86027598D01*
X120400277Y-86027594D01*
X120471465Y-85921052D01*
X120484621Y-85889288D01*
X120528461Y-85834888D01*
X120594755Y-85812822D01*
X120662454Y-85830101D01*
G37*
%TD.AperFunction*%
%TA.AperFunction,Conductor*%
G36*
X118248666Y-83912726D02*
G01*
X118382567Y-83954452D01*
X118449119Y-83960500D01*
X118950880Y-83960499D01*
X118950888Y-83960499D01*
X119017426Y-83954453D01*
X119017428Y-83954452D01*
X119017433Y-83954452D01*
X119083611Y-83933829D01*
X119153469Y-83932678D01*
X119212862Y-83969479D01*
X119242930Y-84032547D01*
X119244500Y-84052215D01*
X119244500Y-85292116D01*
X119224815Y-85359155D01*
X119208181Y-85379797D01*
X118457763Y-86130214D01*
X118396440Y-86163699D01*
X118326748Y-86158715D01*
X118270815Y-86116843D01*
X118246398Y-86051379D01*
X118251006Y-86007937D01*
X118251744Y-86005398D01*
X118297598Y-85847569D01*
X118300500Y-85810694D01*
X118300500Y-85379306D01*
X118297598Y-85342431D01*
X118286141Y-85302997D01*
X118259197Y-85210256D01*
X118251744Y-85184602D01*
X118168081Y-85043135D01*
X118168079Y-85043133D01*
X118168076Y-85043129D01*
X118051870Y-84926923D01*
X118051862Y-84926917D01*
X117910396Y-84843255D01*
X117910393Y-84843254D01*
X117752573Y-84797402D01*
X117752567Y-84797401D01*
X117715701Y-84794500D01*
X117715694Y-84794500D01*
X117599807Y-84794500D01*
X117532768Y-84774815D01*
X117487013Y-84722011D01*
X117477069Y-84652853D01*
X117506094Y-84589297D01*
X117512126Y-84582819D01*
X118060273Y-84034672D01*
X118060277Y-84034668D01*
X118108683Y-83962222D01*
X118162293Y-83917419D01*
X118231618Y-83908711D01*
X118248666Y-83912726D01*
G37*
%TD.AperFunction*%
%TA.AperFunction,Conductor*%
G36*
X121726649Y-83868779D02*
G01*
X121789431Y-83906733D01*
X121789434Y-83906734D01*
X121789433Y-83906734D01*
X121835745Y-83921165D01*
X121942567Y-83954452D01*
X122009119Y-83960500D01*
X122109190Y-83960499D01*
X122176228Y-83980183D01*
X122181493Y-83983761D01*
X122189719Y-83989665D01*
X122205331Y-84005277D01*
X122292522Y-84063535D01*
X122294221Y-84064670D01*
X122294243Y-84064686D01*
X122311864Y-84076460D01*
X122311878Y-84076468D01*
X122399442Y-84112737D01*
X122439671Y-84139617D01*
X122882873Y-84582819D01*
X122916358Y-84644142D01*
X122911374Y-84713834D01*
X122869502Y-84769767D01*
X122804038Y-84794184D01*
X122795192Y-84794500D01*
X121284298Y-84794500D01*
X121247432Y-84797401D01*
X121247426Y-84797402D01*
X121089606Y-84843254D01*
X121089603Y-84843255D01*
X120948137Y-84926917D01*
X120948129Y-84926923D01*
X120831923Y-85043129D01*
X120831917Y-85043137D01*
X120776232Y-85137297D01*
X120725163Y-85184980D01*
X120656422Y-85197484D01*
X120591832Y-85170839D01*
X120551902Y-85113504D01*
X120545500Y-85074176D01*
X120545500Y-84060005D01*
X120565185Y-83992966D01*
X120617989Y-83947211D01*
X120687147Y-83937267D01*
X120706375Y-83941616D01*
X120747567Y-83954452D01*
X120814119Y-83960500D01*
X121315880Y-83960499D01*
X121315888Y-83960499D01*
X121382426Y-83954453D01*
X121382427Y-83954452D01*
X121382433Y-83954452D01*
X121535569Y-83906733D01*
X121598350Y-83868779D01*
X121665905Y-83850944D01*
X121726649Y-83868779D01*
G37*
%TD.AperFunction*%
%TA.AperFunction,Conductor*%
G36*
X124289162Y-79550966D02*
G01*
X124323247Y-79610657D01*
X124413456Y-79982505D01*
X124410131Y-80052296D01*
X124380632Y-80099420D01*
X122196871Y-82283181D01*
X122135548Y-82316666D01*
X122109191Y-82319500D01*
X122009111Y-82319500D01*
X121942573Y-82325546D01*
X121942566Y-82325548D01*
X121789433Y-82373265D01*
X121789429Y-82373267D01*
X121726649Y-82411219D01*
X121659094Y-82429055D01*
X121598351Y-82411219D01*
X121535570Y-82373267D01*
X121535566Y-82373265D01*
X121382433Y-82325548D01*
X121382435Y-82325548D01*
X121355812Y-82323128D01*
X121315881Y-82319500D01*
X121315878Y-82319500D01*
X120814111Y-82319500D01*
X120747573Y-82325546D01*
X120747566Y-82325548D01*
X120594437Y-82373264D01*
X120594436Y-82373265D01*
X120594434Y-82373265D01*
X120594431Y-82373267D01*
X120544146Y-82403664D01*
X120530147Y-82407360D01*
X120518188Y-82415519D01*
X120497045Y-82416099D01*
X120476594Y-82421499D01*
X120461527Y-82417074D01*
X120448345Y-82417437D01*
X120415852Y-82403664D01*
X120377058Y-82380212D01*
X120329872Y-82328685D01*
X120318033Y-82259826D01*
X120345302Y-82195497D01*
X120353518Y-82186425D01*
X122046041Y-80493902D01*
X122098678Y-80462639D01*
X122809584Y-80253217D01*
X123293047Y-80110796D01*
X123293069Y-80110873D01*
X123305019Y-80108028D01*
X123305016Y-80108014D01*
X123309755Y-80106876D01*
X123514167Y-80040459D01*
X123514170Y-80040458D01*
X123705678Y-79942880D01*
X123879563Y-79816545D01*
X124031545Y-79664563D01*
X124102424Y-79567005D01*
X124157754Y-79524340D01*
X124227367Y-79518361D01*
X124289162Y-79550966D01*
G37*
%TD.AperFunction*%
%TA.AperFunction,Conductor*%
G36*
X120055975Y-80470790D02*
G01*
X120088732Y-80532505D01*
X120082924Y-80602132D01*
X120054944Y-80645109D01*
X118392468Y-82307584D01*
X118385482Y-82312247D01*
X118382508Y-82316523D01*
X118365477Y-82325601D01*
X118352138Y-82334506D01*
X118346986Y-82336634D01*
X118229431Y-82373267D01*
X118167034Y-82410986D01*
X118158308Y-82414592D01*
X118132573Y-82417335D01*
X118107550Y-82423942D01*
X118097709Y-82421052D01*
X118088832Y-82421999D01*
X118071752Y-82413430D01*
X118046808Y-82406106D01*
X118025571Y-82393268D01*
X118025570Y-82393267D01*
X118025569Y-82393267D01*
X117898214Y-82353581D01*
X117840070Y-82314846D01*
X117812096Y-82250821D01*
X117823177Y-82181836D01*
X117847424Y-82147520D01*
X119326231Y-80668713D01*
X119371951Y-80639711D01*
X119925308Y-80440741D01*
X119995052Y-80436582D01*
X120055975Y-80470790D01*
G37*
%TD.AperFunction*%
%TD*%
%TA.AperFunction,Conductor*%
%TO.N,Net-(J3-Pin_1)*%
G36*
X150646459Y-93286452D02*
G01*
X151147188Y-93786592D01*
X151446245Y-94085298D01*
X151482237Y-94121247D01*
X151485669Y-94129518D01*
X151482247Y-94137793D01*
X151481764Y-94138250D01*
X150648002Y-94883081D01*
X150639549Y-94886037D01*
X150632188Y-94882875D01*
X149841251Y-94138250D01*
X149793680Y-94093464D01*
X149790005Y-94085298D01*
X149790000Y-94084945D01*
X149790000Y-93796625D01*
X149793427Y-93788352D01*
X149795680Y-93786592D01*
X150632171Y-93284696D01*
X150641029Y-93283379D01*
X150646459Y-93286452D01*
G37*
%TD.AperFunction*%
%TD*%
%TA.AperFunction,Conductor*%
%TO.N,Net-(J3-Pin_1)*%
G36*
X146377195Y-93787244D02*
G01*
X146383855Y-93793229D01*
X146385000Y-93798277D01*
X146385000Y-94081722D01*
X146381573Y-94089995D01*
X146377194Y-94092755D01*
X145996381Y-94227177D01*
X145988443Y-94227123D01*
X145238804Y-93950979D01*
X145232225Y-93944903D01*
X145231869Y-93935956D01*
X145237945Y-93929377D01*
X145238804Y-93929021D01*
X145988445Y-93652875D01*
X145996380Y-93652822D01*
X146377195Y-93787244D01*
G37*
%TD.AperFunction*%
%TD*%
%TA.AperFunction,Conductor*%
%TO.N,Net-(C1-Pad1)*%
G36*
X121296554Y-87847875D02*
G01*
X121691270Y-87993277D01*
X122046195Y-88124021D01*
X122052774Y-88130097D01*
X122053130Y-88139044D01*
X122047054Y-88145623D01*
X122046195Y-88145979D01*
X121296556Y-88422123D01*
X121288618Y-88422177D01*
X120907806Y-88287755D01*
X120901145Y-88281770D01*
X120900000Y-88276722D01*
X120900000Y-87993277D01*
X120903427Y-87985004D01*
X120907803Y-87982245D01*
X121288619Y-87847822D01*
X121296554Y-87847875D01*
G37*
%TD.AperFunction*%
%TD*%
%TA.AperFunction,Conductor*%
%TO.N,Net-(U5--)*%
G36*
X135228803Y-102327823D02*
G01*
X135228946Y-102327930D01*
X135532499Y-102557960D01*
X135537023Y-102565688D01*
X135534758Y-102574351D01*
X135533706Y-102575558D01*
X135334580Y-102774684D01*
X135326307Y-102778111D01*
X135326096Y-102778109D01*
X134336333Y-102760225D01*
X134328123Y-102756649D01*
X134324846Y-102748316D01*
X134324884Y-102747570D01*
X134348515Y-102468471D01*
X134352627Y-102460518D01*
X134358395Y-102457896D01*
X135220108Y-102325690D01*
X135228803Y-102327823D01*
G37*
%TD.AperFunction*%
%TD*%
%TA.AperFunction,Conductor*%
%TO.N,Net-(U5--)*%
G36*
X133373812Y-102141889D02*
G01*
X134363666Y-102159774D01*
X134371876Y-102163350D01*
X134375153Y-102171683D01*
X134375113Y-102172459D01*
X134351484Y-102451526D01*
X134347372Y-102459481D01*
X134341600Y-102462104D01*
X133479893Y-102594308D01*
X133471196Y-102592175D01*
X133471053Y-102592068D01*
X133167500Y-102362039D01*
X133162976Y-102354311D01*
X133165241Y-102345648D01*
X133166286Y-102344448D01*
X133365420Y-102145314D01*
X133373692Y-102141888D01*
X133373812Y-102141889D01*
G37*
%TD.AperFunction*%
%TD*%
%TA.AperFunction,Conductor*%
%TO.N,Net-(C2-Pad1)*%
G36*
X140667195Y-103577244D02*
G01*
X140673855Y-103583229D01*
X140675000Y-103588277D01*
X140675000Y-103871722D01*
X140671573Y-103879995D01*
X140667194Y-103882755D01*
X140286381Y-104017177D01*
X140278443Y-104017123D01*
X139528804Y-103740979D01*
X139522225Y-103734903D01*
X139521869Y-103725956D01*
X139527945Y-103719377D01*
X139528804Y-103719021D01*
X140278445Y-103442875D01*
X140286380Y-103442822D01*
X140667195Y-103577244D01*
G37*
%TD.AperFunction*%
%TD*%
%TA.AperFunction,Conductor*%
%TO.N,Net-(C2-Pad1)*%
G36*
X138523812Y-103411889D02*
G01*
X139513666Y-103429774D01*
X139521876Y-103433350D01*
X139525153Y-103441683D01*
X139525113Y-103442459D01*
X139501484Y-103721526D01*
X139497372Y-103729481D01*
X139491600Y-103732104D01*
X138629893Y-103864308D01*
X138621196Y-103862175D01*
X138621053Y-103862068D01*
X138317500Y-103632039D01*
X138312976Y-103624311D01*
X138315241Y-103615648D01*
X138316286Y-103614448D01*
X138515420Y-103415314D01*
X138523692Y-103411888D01*
X138523812Y-103411889D01*
G37*
%TD.AperFunction*%
%TD*%
%TA.AperFunction,Conductor*%
%TO.N,Net-(D1-A)*%
G36*
X141240224Y-87908370D02*
G01*
X141247821Y-87913111D01*
X141250000Y-87919911D01*
X141250000Y-88202829D01*
X141246573Y-88211102D01*
X141243610Y-88213254D01*
X140916164Y-88380049D01*
X140907544Y-88380846D01*
X140105791Y-88144376D01*
X140098825Y-88138749D01*
X140097879Y-88129844D01*
X140103506Y-88122878D01*
X140104621Y-88122346D01*
X140796910Y-87836276D01*
X140803295Y-87835549D01*
X141240224Y-87908370D01*
G37*
%TD.AperFunction*%
%TD*%
%TA.AperFunction,Conductor*%
%TO.N,Net-(D1-K)*%
G36*
X145838961Y-87646966D02*
G01*
X146831007Y-87679592D01*
X146839163Y-87683289D01*
X146842316Y-87691671D01*
X146842273Y-87692359D01*
X146816556Y-87971483D01*
X146812384Y-87979407D01*
X146806534Y-87981996D01*
X145944868Y-88103120D01*
X145936198Y-88100878D01*
X145936103Y-88100806D01*
X145632359Y-87867057D01*
X145627893Y-87859296D01*
X145630223Y-87850649D01*
X145631214Y-87849520D01*
X145830347Y-87650387D01*
X145838619Y-87646961D01*
X145838961Y-87646966D01*
G37*
%TD.AperFunction*%
%TD*%
%TA.AperFunction,Conductor*%
%TO.N,Net-(J1-Pin_3)*%
G36*
X139281554Y-94922875D02*
G01*
X139676270Y-95068277D01*
X140031195Y-95199021D01*
X140037774Y-95205097D01*
X140038130Y-95214044D01*
X140032054Y-95220623D01*
X140031195Y-95220979D01*
X139281556Y-95497123D01*
X139273618Y-95497177D01*
X138892806Y-95362755D01*
X138886145Y-95356770D01*
X138885000Y-95351722D01*
X138885000Y-95068277D01*
X138888427Y-95060004D01*
X138892803Y-95057245D01*
X139273619Y-94922822D01*
X139281554Y-94922875D01*
G37*
%TD.AperFunction*%
%TD*%
%TA.AperFunction,Conductor*%
%TO.N,Net-(J1-Pin_3)*%
G36*
X136092195Y-87982244D02*
G01*
X136098855Y-87988229D01*
X136100000Y-87993277D01*
X136100000Y-88276722D01*
X136096573Y-88284995D01*
X136092194Y-88287755D01*
X135711381Y-88422177D01*
X135703443Y-88422123D01*
X134953804Y-88145979D01*
X134947225Y-88139903D01*
X134946869Y-88130956D01*
X134952945Y-88124377D01*
X134953804Y-88124021D01*
X135703445Y-87847875D01*
X135711380Y-87847822D01*
X136092195Y-87982244D01*
G37*
%TD.AperFunction*%
%TD*%
%TA.AperFunction,Conductor*%
%TO.N,Net-(J1-Pin_3)*%
G36*
X140068258Y-93947285D02*
G01*
X140354057Y-94234037D01*
X140357470Y-94242315D01*
X140356235Y-94247528D01*
X140213234Y-94533532D01*
X140206469Y-94539400D01*
X140202769Y-94540000D01*
X139917231Y-94540000D01*
X139908958Y-94536573D01*
X139906766Y-94533532D01*
X139763764Y-94247528D01*
X139763129Y-94238596D01*
X139765940Y-94234040D01*
X140051714Y-93947313D01*
X140059981Y-93943873D01*
X140068258Y-93947285D01*
G37*
%TD.AperFunction*%
%TD*%
%TA.AperFunction,Conductor*%
%TO.N,Net-(J1-Pin_3)*%
G36*
X140211042Y-94613427D02*
G01*
X140213234Y-94616468D01*
X140356235Y-94902471D01*
X140356870Y-94911403D01*
X140354057Y-94915962D01*
X140068287Y-95202685D01*
X140060019Y-95206126D01*
X140051741Y-95202713D01*
X140051713Y-95202685D01*
X139765942Y-94915962D01*
X139762529Y-94907684D01*
X139763764Y-94902471D01*
X139906766Y-94616468D01*
X139913531Y-94610600D01*
X139917231Y-94610000D01*
X140202769Y-94610000D01*
X140211042Y-94613427D01*
G37*
%TD.AperFunction*%
%TD*%
%TA.AperFunction,Conductor*%
%TO.N,Net-(J1-Pin_3)*%
G36*
X134916487Y-88133083D02*
G01*
X134924243Y-88137557D01*
X134926609Y-88143548D01*
X134953837Y-88422714D01*
X134951229Y-88431281D01*
X134943328Y-88435495D01*
X134942703Y-88435539D01*
X133949077Y-88478991D01*
X133940662Y-88475929D01*
X133940293Y-88475575D01*
X133741170Y-88276452D01*
X133737743Y-88268179D01*
X133741170Y-88259906D01*
X133742250Y-88258951D01*
X134046142Y-88022427D01*
X134054772Y-88020051D01*
X134916487Y-88133083D01*
G37*
%TD.AperFunction*%
%TD*%
%TA.AperFunction,Conductor*%
%TO.N,Net-(J1-Pin_3)*%
G36*
X139083812Y-93621889D02*
G01*
X140073666Y-93639774D01*
X140081876Y-93643350D01*
X140085153Y-93651683D01*
X140085113Y-93652459D01*
X140061484Y-93931526D01*
X140057372Y-93939481D01*
X140051600Y-93942104D01*
X139189893Y-94074308D01*
X139181196Y-94072175D01*
X139181053Y-94072068D01*
X138877500Y-93842039D01*
X138872976Y-93834311D01*
X138875241Y-93825648D01*
X138876286Y-93824448D01*
X139075420Y-93625314D01*
X139083692Y-93621888D01*
X139083812Y-93621889D01*
G37*
%TD.AperFunction*%
%TD*%
%TA.AperFunction,Conductor*%
%TO.N,Net-(J1-Pin_3)*%
G36*
X125146554Y-87847875D02*
G01*
X125541270Y-87993277D01*
X125896195Y-88124021D01*
X125902774Y-88130097D01*
X125903130Y-88139044D01*
X125897054Y-88145623D01*
X125896195Y-88145979D01*
X125146556Y-88422123D01*
X125138618Y-88422177D01*
X124757806Y-88287755D01*
X124751145Y-88281770D01*
X124750000Y-88276722D01*
X124750000Y-87993277D01*
X124753427Y-87985004D01*
X124757803Y-87982245D01*
X125138619Y-87847822D01*
X125146554Y-87847875D01*
G37*
%TD.AperFunction*%
%TD*%
%TA.AperFunction,Conductor*%
%TO.N,Net-(J1-Pin_3)*%
G36*
X133571554Y-103442875D02*
G01*
X133966270Y-103588277D01*
X134321195Y-103719021D01*
X134327774Y-103725097D01*
X134328130Y-103734044D01*
X134322054Y-103740623D01*
X134321195Y-103740979D01*
X133571556Y-104017123D01*
X133563618Y-104017177D01*
X133182806Y-103882755D01*
X133176145Y-103876770D01*
X133175000Y-103871722D01*
X133175000Y-103588277D01*
X133178427Y-103580004D01*
X133182803Y-103577245D01*
X133563619Y-103442822D01*
X133571554Y-103442875D01*
G37*
%TD.AperFunction*%
%TD*%
%TA.AperFunction,Conductor*%
%TO.N,Net-(J1-Pin_3)*%
G36*
X125533087Y-78627058D02*
G01*
X125535979Y-78628925D01*
X126240289Y-79247720D01*
X126244243Y-79255755D01*
X126241357Y-79264232D01*
X126241232Y-79264372D01*
X125207059Y-80404229D01*
X125198962Y-80408053D01*
X125190532Y-80405032D01*
X125190121Y-80404640D01*
X124988996Y-80203515D01*
X124985899Y-80198000D01*
X124684062Y-78953815D01*
X124685442Y-78944968D01*
X124691310Y-78940107D01*
X125524139Y-78626764D01*
X125533087Y-78627058D01*
G37*
%TD.AperFunction*%
%TD*%
%TA.AperFunction,Conductor*%
%TO.N,Net-(J1-Pin_3)*%
G36*
X125146554Y-87847875D02*
G01*
X125541270Y-87993277D01*
X125896195Y-88124021D01*
X125902774Y-88130097D01*
X125903130Y-88139044D01*
X125897054Y-88145623D01*
X125896195Y-88145979D01*
X125146556Y-88422123D01*
X125138618Y-88422177D01*
X124757806Y-88287755D01*
X124751145Y-88281770D01*
X124750000Y-88276722D01*
X124750000Y-87993277D01*
X124753427Y-87985004D01*
X124757803Y-87982245D01*
X125138619Y-87847822D01*
X125146554Y-87847875D01*
G37*
%TD.AperFunction*%
%TD*%
%TA.AperFunction,Conductor*%
%TO.N,Net-(J1-Pin_2)*%
G36*
X122152711Y-78310401D02*
G01*
X122984391Y-78621927D01*
X122990936Y-78628039D01*
X122991825Y-78630943D01*
X123157031Y-79613147D01*
X123155024Y-79621874D01*
X123148799Y-79626311D01*
X121818689Y-80018144D01*
X121809785Y-80017195D01*
X121807110Y-80015194D01*
X121605146Y-79813230D01*
X121601719Y-79804957D01*
X121602413Y-79800987D01*
X121670174Y-79613147D01*
X122137602Y-78317386D01*
X122143632Y-78310768D01*
X122152577Y-78310352D01*
X122152711Y-78310401D01*
G37*
%TD.AperFunction*%
%TD*%
%TA.AperFunction,Conductor*%
%TO.N,Net-(J1-Pin_1)*%
G36*
X120444956Y-78621917D02*
G01*
X120451294Y-78628243D01*
X120451952Y-78630388D01*
X120656265Y-79630074D01*
X120654564Y-79638866D01*
X120648761Y-79643427D01*
X119086402Y-80205201D01*
X119077457Y-80204775D01*
X119074170Y-80202464D01*
X118872819Y-80001113D01*
X118869392Y-79992840D01*
X118870284Y-79988359D01*
X119580523Y-78277489D01*
X119586858Y-78271165D01*
X119595792Y-78271164D01*
X120444956Y-78621917D01*
G37*
%TD.AperFunction*%
%TD*%
%TA.AperFunction,Conductor*%
%TO.N,Net-(J2-Pin_1)*%
G36*
X140930367Y-96545838D02*
G01*
X140938127Y-96549627D01*
X141198750Y-96835879D01*
X141201786Y-96844304D01*
X141198372Y-96852029D01*
X140998957Y-97051444D01*
X140990684Y-97054871D01*
X140987563Y-97054447D01*
X140006739Y-96782930D01*
X139999680Y-96777420D01*
X139998410Y-96769250D01*
X140057184Y-96489336D01*
X140062237Y-96481943D01*
X140069522Y-96480074D01*
X140930367Y-96545838D01*
G37*
%TD.AperFunction*%
%TD*%
%TA.AperFunction,Conductor*%
%TO.N,Net-(J2-Pin_1)*%
G36*
X117321923Y-89569223D02*
G01*
X117633098Y-89698295D01*
X117639427Y-89704630D01*
X117639422Y-89713585D01*
X117636888Y-89717375D01*
X117543198Y-89811066D01*
X117337525Y-90016738D01*
X117329252Y-90020165D01*
X117323233Y-90018498D01*
X116809361Y-89710175D01*
X116804030Y-89702980D01*
X116804559Y-89695695D01*
X116919832Y-89415148D01*
X116926145Y-89408800D01*
X116935098Y-89408775D01*
X117321923Y-89569223D01*
G37*
%TD.AperFunction*%
%TD*%
%TA.AperFunction,Conductor*%
%TO.N,Net-(J2-Pin_1)*%
G36*
X145944981Y-89136234D02*
G01*
X146806879Y-89248808D01*
X146814638Y-89253277D01*
X146816994Y-89259144D01*
X146847321Y-89538098D01*
X146844809Y-89546694D01*
X146836955Y-89550994D01*
X146836687Y-89551020D01*
X145692578Y-89648913D01*
X145684043Y-89646204D01*
X145679924Y-89638253D01*
X145679881Y-89637256D01*
X145679881Y-89355518D01*
X145683308Y-89347245D01*
X145684139Y-89346490D01*
X145936082Y-89138813D01*
X145944644Y-89136196D01*
X145944981Y-89136234D01*
G37*
%TD.AperFunction*%
%TD*%
%TA.AperFunction,Conductor*%
%TO.N,Net-(J2-Pin_1)*%
G36*
X125895906Y-89393338D02*
G01*
X125902489Y-89399409D01*
X125902851Y-89408357D01*
X125896780Y-89414940D01*
X125895923Y-89415295D01*
X125147996Y-89691587D01*
X125139048Y-89691239D01*
X125137725Y-89690523D01*
X124977387Y-89589854D01*
X124858647Y-89515302D01*
X124856595Y-89513666D01*
X124658256Y-89315327D01*
X124654829Y-89307054D01*
X124658256Y-89298781D01*
X124662423Y-89296099D01*
X125138532Y-89117938D01*
X125146669Y-89117915D01*
X125895906Y-89393338D01*
G37*
%TD.AperFunction*%
%TD*%
%TA.AperFunction,Conductor*%
%TO.N,Net-(J2-Pin_1)*%
G36*
X139281132Y-96192723D02*
G01*
X139453610Y-96256439D01*
X140024934Y-96467492D01*
X140031507Y-96473573D01*
X140031855Y-96482521D01*
X140025774Y-96489094D01*
X140023678Y-96489827D01*
X139204642Y-96691557D01*
X139195830Y-96690233D01*
X138840123Y-96477100D01*
X138834788Y-96469909D01*
X138836101Y-96461050D01*
X138837860Y-96458795D01*
X139037214Y-96259441D01*
X139042364Y-96256440D01*
X139273964Y-96192422D01*
X139281132Y-96192723D01*
G37*
%TD.AperFunction*%
%TD*%
%TA.AperFunction,Conductor*%
%TO.N,Net-(J3-Pin_1)*%
G36*
X141242195Y-86712244D02*
G01*
X141248855Y-86718229D01*
X141250000Y-86723277D01*
X141250000Y-87006722D01*
X141246573Y-87014995D01*
X141242194Y-87017755D01*
X140861381Y-87152177D01*
X140853443Y-87152123D01*
X140103804Y-86875979D01*
X140097225Y-86869903D01*
X140096869Y-86860956D01*
X140102945Y-86854377D01*
X140103804Y-86854021D01*
X140853445Y-86577875D01*
X140861380Y-86577822D01*
X141242195Y-86712244D01*
G37*
%TD.AperFunction*%
%TD*%
%TA.AperFunction,Conductor*%
%TO.N,Net-(J3-Pin_1)*%
G36*
X130985906Y-95338715D02*
G01*
X130986027Y-95338835D01*
X131185136Y-95537944D01*
X131188563Y-95546217D01*
X131185136Y-95554490D01*
X131183896Y-95555567D01*
X130878955Y-95784957D01*
X130870284Y-95787192D01*
X130870111Y-95787166D01*
X130008383Y-95652131D01*
X130000740Y-95647465D01*
X129998534Y-95641537D01*
X129975443Y-95362479D01*
X129978176Y-95353953D01*
X129986138Y-95349856D01*
X129986907Y-95349818D01*
X130977586Y-95335409D01*
X130985906Y-95338715D01*
G37*
%TD.AperFunction*%
%TD*%
%TA.AperFunction,Conductor*%
%TO.N,Net-(J3-Pin_1)*%
G36*
X123241014Y-86667858D02*
G01*
X123248266Y-86673109D01*
X123250000Y-86679238D01*
X123250000Y-86962445D01*
X123246573Y-86970718D01*
X123243115Y-86973108D01*
X122890677Y-87132248D01*
X122882183Y-87132692D01*
X122105761Y-86875520D01*
X122098985Y-86869665D01*
X122098333Y-86860734D01*
X122104188Y-86853958D01*
X122105385Y-86853438D01*
X122854089Y-86577638D01*
X122860839Y-86577237D01*
X123241014Y-86667858D01*
G37*
%TD.AperFunction*%
%TD*%
%TA.AperFunction,Conductor*%
%TO.N,Net-(J3-Pin_1)*%
G36*
X130296554Y-86577875D02*
G01*
X130691270Y-86723277D01*
X131046195Y-86854021D01*
X131052774Y-86860097D01*
X131053130Y-86869044D01*
X131047054Y-86875623D01*
X131046195Y-86875979D01*
X130296556Y-87152123D01*
X130288618Y-87152177D01*
X129907806Y-87017755D01*
X129901145Y-87011770D01*
X129900000Y-87006722D01*
X129900000Y-86723277D01*
X129903427Y-86715004D01*
X129907803Y-86712245D01*
X130288619Y-86577822D01*
X130296554Y-86577875D01*
G37*
%TD.AperFunction*%
%TD*%
%TA.AperFunction,Conductor*%
%TO.N,Net-(J3-Pin_1)*%
G36*
X140042247Y-86854223D02*
G01*
X140049180Y-86859888D01*
X140050078Y-86868798D01*
X140044412Y-86875732D01*
X140042928Y-86876401D01*
X139297064Y-87151931D01*
X139288246Y-87151642D01*
X139035867Y-87039122D01*
X139032358Y-87036709D01*
X138833161Y-86837512D01*
X138829734Y-86829239D01*
X138833161Y-86820966D01*
X138836129Y-86818811D01*
X139236953Y-86615245D01*
X139245623Y-86614474D01*
X140042247Y-86854223D01*
G37*
%TD.AperFunction*%
%TD*%
%TA.AperFunction,Conductor*%
%TO.N,Net-(J3-Pin_1)*%
G36*
X132034221Y-86323028D02*
G01*
X132036391Y-86324737D01*
X132235642Y-86523988D01*
X132239069Y-86532261D01*
X132235674Y-86540502D01*
X131953227Y-86825145D01*
X131945420Y-86828593D01*
X131084374Y-86865277D01*
X131075962Y-86862206D01*
X131072387Y-86855798D01*
X131018563Y-86575965D01*
X131020365Y-86567193D01*
X131027307Y-86562381D01*
X132025375Y-86321636D01*
X132034221Y-86323028D01*
G37*
%TD.AperFunction*%
%TD*%
%TA.AperFunction,Conductor*%
%TO.N,Net-(J3-Pin_1)*%
G36*
X140664593Y-102208843D02*
G01*
X140672436Y-102213162D01*
X140675000Y-102220471D01*
X140675000Y-102503075D01*
X140671573Y-102511348D01*
X140668930Y-102513331D01*
X140353424Y-102686513D01*
X140344754Y-102687555D01*
X139532272Y-102468952D01*
X139525173Y-102463494D01*
X139524014Y-102454614D01*
X139529472Y-102447515D01*
X139530839Y-102446843D01*
X140222227Y-102161145D01*
X140227982Y-102160331D01*
X140664593Y-102208843D01*
G37*
%TD.AperFunction*%
%TD*%
%TA.AperFunction,Conductor*%
%TO.N,Net-(J3-Pin_1)*%
G36*
X144431554Y-93652875D02*
G01*
X144826270Y-93798277D01*
X145181195Y-93929021D01*
X145187774Y-93935097D01*
X145188130Y-93944044D01*
X145182054Y-93950623D01*
X145181195Y-93950979D01*
X144431556Y-94227123D01*
X144423618Y-94227177D01*
X144042806Y-94092755D01*
X144036145Y-94086770D01*
X144035000Y-94081722D01*
X144035000Y-93798277D01*
X144038427Y-93790004D01*
X144042803Y-93787245D01*
X144423619Y-93652822D01*
X144431554Y-93652875D01*
G37*
%TD.AperFunction*%
%TD*%
%TA.AperFunction,Conductor*%
%TO.N,Net-(J4-Pin_1)*%
G36*
X144340266Y-95114695D02*
G01*
X145201762Y-95208988D01*
X145209612Y-95213295D01*
X145212105Y-95219228D01*
X145245511Y-95498207D01*
X145243092Y-95506829D01*
X145235285Y-95511215D01*
X145235111Y-95511235D01*
X144112704Y-95628648D01*
X144104119Y-95626100D01*
X144099850Y-95618228D01*
X144099787Y-95617011D01*
X144099787Y-95335142D01*
X144103214Y-95326869D01*
X144103576Y-95326522D01*
X144331091Y-95117706D01*
X144339502Y-95114638D01*
X144340266Y-95114695D01*
G37*
%TD.AperFunction*%
%TD*%
%TA.AperFunction,Conductor*%
%TO.N,Net-(J4-Pin_1)*%
G36*
X146088803Y-95077823D02*
G01*
X146088946Y-95077930D01*
X146392499Y-95307960D01*
X146397023Y-95315688D01*
X146394758Y-95324351D01*
X146393706Y-95325558D01*
X146194580Y-95524684D01*
X146186307Y-95528111D01*
X146186096Y-95528109D01*
X145196333Y-95510225D01*
X145188123Y-95506649D01*
X145184846Y-95498316D01*
X145184884Y-95497570D01*
X145208515Y-95218471D01*
X145212627Y-95210518D01*
X145218395Y-95207896D01*
X146080108Y-95075690D01*
X146088803Y-95077823D01*
G37*
%TD.AperFunction*%
%TD*%
%TA.AperFunction,Conductor*%
%TO.N,Net-(J5-Pin_1)*%
G36*
X117006270Y-99437439D02*
G01*
X117847279Y-100444242D01*
X117850000Y-100451743D01*
X117850000Y-100736839D01*
X117846573Y-100745112D01*
X117839386Y-100748489D01*
X116755918Y-100849448D01*
X116747362Y-100846803D01*
X116746064Y-100845545D01*
X116008532Y-100010789D01*
X116005622Y-100002320D01*
X116009553Y-99994274D01*
X116011505Y-99992877D01*
X116991501Y-99434772D01*
X117000386Y-99433657D01*
X117006270Y-99437439D01*
G37*
%TD.AperFunction*%
%TD*%
%TA.AperFunction,Conductor*%
%TO.N,Net-(J5-Pin_2)*%
G36*
X116862889Y-97035557D02*
G01*
X117578974Y-97944315D01*
X117581484Y-97951555D01*
X117581484Y-98236607D01*
X117578057Y-98244880D01*
X117570620Y-98248277D01*
X116160512Y-98349247D01*
X116152015Y-98346420D01*
X116148156Y-98339624D01*
X116000465Y-97508249D01*
X116002392Y-97499507D01*
X116006339Y-97495959D01*
X116848057Y-97032549D01*
X116856957Y-97031562D01*
X116862889Y-97035557D01*
G37*
%TD.AperFunction*%
%TD*%
%TA.AperFunction,Conductor*%
%TO.N,Net-(U1--)*%
G36*
X115948812Y-86546889D02*
G01*
X116938666Y-86564774D01*
X116946876Y-86568350D01*
X116950153Y-86576683D01*
X116950113Y-86577459D01*
X116926484Y-86856526D01*
X116922372Y-86864481D01*
X116916600Y-86867104D01*
X116054893Y-86999308D01*
X116046196Y-86997175D01*
X116046053Y-86997068D01*
X115742500Y-86767039D01*
X115737976Y-86759311D01*
X115740241Y-86750648D01*
X115741286Y-86749448D01*
X115940420Y-86550314D01*
X115948692Y-86546888D01*
X115948812Y-86546889D01*
G37*
%TD.AperFunction*%
%TD*%
%TA.AperFunction,Conductor*%
%TO.N,Net-(U1-+)*%
G36*
X117909429Y-87820167D02*
G01*
X117909580Y-87820315D01*
X118108706Y-88019441D01*
X118112133Y-88027714D01*
X118108706Y-88035987D01*
X118107499Y-88037039D01*
X117803946Y-88267068D01*
X117795283Y-88269333D01*
X117795106Y-88269308D01*
X116933399Y-88137104D01*
X116925741Y-88132462D01*
X116923515Y-88126528D01*
X116899886Y-87847456D01*
X116902602Y-87838926D01*
X116910557Y-87834814D01*
X116911329Y-87834774D01*
X117901097Y-87816890D01*
X117909429Y-87820167D01*
G37*
%TD.AperFunction*%
%TD*%
%TA.AperFunction,Conductor*%
%TO.N,Net-(U2--)*%
G36*
X126794948Y-86984423D02*
G01*
X126802675Y-86988948D01*
X126802927Y-86989293D01*
X126990997Y-87257364D01*
X126992943Y-87266105D01*
X126989692Y-87272357D01*
X126789631Y-87472418D01*
X126781358Y-87475845D01*
X126777641Y-87475239D01*
X125861865Y-87168408D01*
X125855109Y-87162530D01*
X125854209Y-87154569D01*
X125921808Y-86874583D01*
X125927081Y-86867346D01*
X125934780Y-86865740D01*
X126794948Y-86984423D01*
G37*
%TD.AperFunction*%
%TD*%
%TA.AperFunction,Conductor*%
%TO.N,Net-(R6-Pad2)*%
G36*
X130204835Y-88000681D02*
G01*
X131066601Y-88132896D01*
X131074258Y-88137537D01*
X131076484Y-88143473D01*
X131100113Y-88422540D01*
X131097397Y-88431073D01*
X131089442Y-88435185D01*
X131088666Y-88435225D01*
X130098903Y-88453109D01*
X130090570Y-88449832D01*
X130090419Y-88449684D01*
X129891293Y-88250558D01*
X129887866Y-88242285D01*
X129891293Y-88234012D01*
X129892500Y-88232960D01*
X130196055Y-88002929D01*
X130204716Y-88000665D01*
X130204835Y-88000681D01*
G37*
%TD.AperFunction*%
%TD*%
%TA.AperFunction,Conductor*%
%TO.N,Net-(R6-Pad2)*%
G36*
X132242195Y-87982244D02*
G01*
X132248855Y-87988229D01*
X132250000Y-87993277D01*
X132250000Y-88276722D01*
X132246573Y-88284995D01*
X132242194Y-88287755D01*
X131861381Y-88422177D01*
X131853443Y-88422123D01*
X131103804Y-88145979D01*
X131097225Y-88139903D01*
X131096869Y-88130956D01*
X131102945Y-88124377D01*
X131103804Y-88124021D01*
X131853445Y-87847875D01*
X131861380Y-87847822D01*
X132242195Y-87982244D01*
G37*
%TD.AperFunction*%
%TD*%
%TA.AperFunction,Conductor*%
%TO.N,Net-(U3--)*%
G36*
X134146199Y-86577744D02*
G01*
X134895765Y-86853862D01*
X134902344Y-86859938D01*
X134902700Y-86868885D01*
X134896624Y-86875464D01*
X134895664Y-86875857D01*
X134138841Y-87146727D01*
X134130446Y-87146531D01*
X133757248Y-86992982D01*
X133750901Y-86986665D01*
X133750000Y-86982162D01*
X133750000Y-86698794D01*
X133753427Y-86690521D01*
X133758444Y-86687556D01*
X134138908Y-86577485D01*
X134146199Y-86577744D01*
G37*
%TD.AperFunction*%
%TD*%
%TA.AperFunction,Conductor*%
%TO.N,Net-(U3--)*%
G36*
X135710951Y-86578760D02*
G01*
X135712268Y-86579473D01*
X135991352Y-86754697D01*
X135993404Y-86756333D01*
X136191743Y-86954672D01*
X136195170Y-86962945D01*
X136191743Y-86971218D01*
X136187570Y-86973903D01*
X135711467Y-87152060D01*
X135703330Y-87152084D01*
X134954093Y-86876661D01*
X134947510Y-86870590D01*
X134947148Y-86861642D01*
X134953219Y-86855059D01*
X134954057Y-86854711D01*
X135702004Y-86578412D01*
X135710951Y-86578760D01*
G37*
%TD.AperFunction*%
%TD*%
%TA.AperFunction,Conductor*%
%TO.N,Net-(U4--)*%
G36*
X147693803Y-86577823D02*
G01*
X147693946Y-86577930D01*
X147997499Y-86807960D01*
X148002023Y-86815688D01*
X147999758Y-86824351D01*
X147998706Y-86825558D01*
X147799580Y-87024684D01*
X147791307Y-87028111D01*
X147791096Y-87028109D01*
X146801333Y-87010225D01*
X146793123Y-87006649D01*
X146789846Y-86998316D01*
X146789884Y-86997570D01*
X146813515Y-86718471D01*
X146817627Y-86710518D01*
X146823395Y-86707896D01*
X147685108Y-86575690D01*
X147693803Y-86577823D01*
G37*
%TD.AperFunction*%
%TD*%
%TA.AperFunction,Conductor*%
%TO.N,Net-(R11-Pad2)*%
G36*
X152843803Y-87847823D02*
G01*
X152843946Y-87847930D01*
X153147499Y-88077960D01*
X153152023Y-88085688D01*
X153149758Y-88094351D01*
X153148706Y-88095558D01*
X152949580Y-88294684D01*
X152941307Y-88298111D01*
X152941096Y-88298109D01*
X151951333Y-88280225D01*
X151943123Y-88276649D01*
X151939846Y-88268316D01*
X151939884Y-88267570D01*
X151963515Y-87988471D01*
X151967627Y-87980518D01*
X151973395Y-87977896D01*
X152835108Y-87845690D01*
X152843803Y-87847823D01*
G37*
%TD.AperFunction*%
%TD*%
%TA.AperFunction,Conductor*%
%TO.N,Net-(U8-+)*%
G36*
X125718803Y-103367823D02*
G01*
X125718946Y-103367930D01*
X126022499Y-103597960D01*
X126027023Y-103605688D01*
X126024758Y-103614351D01*
X126023706Y-103615558D01*
X125824580Y-103814684D01*
X125816307Y-103818111D01*
X125816096Y-103818109D01*
X124826333Y-103800225D01*
X124818123Y-103796649D01*
X124814846Y-103788316D01*
X124814884Y-103787570D01*
X124838515Y-103508471D01*
X124842627Y-103500518D01*
X124848395Y-103497896D01*
X125710108Y-103365690D01*
X125718803Y-103367823D01*
G37*
%TD.AperFunction*%
%TD*%
%TA.AperFunction,Conductor*%
%TO.N,Net-(U7--)*%
G36*
X129221554Y-96632875D02*
G01*
X129616270Y-96778277D01*
X129971195Y-96909021D01*
X129977774Y-96915097D01*
X129978130Y-96924044D01*
X129972054Y-96930623D01*
X129971195Y-96930979D01*
X129221556Y-97207123D01*
X129213618Y-97207177D01*
X128832806Y-97072755D01*
X128826145Y-97066770D01*
X128825000Y-97061722D01*
X128825000Y-96778277D01*
X128828427Y-96770004D01*
X128832803Y-96767245D01*
X129213619Y-96632822D01*
X129221554Y-96632875D01*
G37*
%TD.AperFunction*%
%TD*%
%TA.AperFunction,Conductor*%
%TO.N,Net-(U7--)*%
G36*
X125728507Y-95616401D02*
G01*
X126033720Y-95881471D01*
X126037719Y-95889483D01*
X126034882Y-95897977D01*
X126034321Y-95898578D01*
X125835228Y-96097671D01*
X125826955Y-96101098D01*
X125825242Y-96100972D01*
X124816461Y-95951711D01*
X124808779Y-95947110D01*
X124806599Y-95938429D01*
X124847878Y-95658873D01*
X124852476Y-95651192D01*
X124858969Y-95648895D01*
X125720356Y-95613545D01*
X125728507Y-95616401D01*
G37*
%TD.AperFunction*%
%TD*%
%TA.AperFunction,Conductor*%
%TO.N,Net-(U7--)*%
G36*
X129221554Y-96632875D02*
G01*
X129616270Y-96778277D01*
X129971195Y-96909021D01*
X129977774Y-96915097D01*
X129978130Y-96924044D01*
X129972054Y-96930623D01*
X129971195Y-96930979D01*
X129221556Y-97207123D01*
X129213618Y-97207177D01*
X128832806Y-97072755D01*
X128826145Y-97066770D01*
X128825000Y-97061722D01*
X128825000Y-96778277D01*
X128828427Y-96770004D01*
X128832803Y-96767245D01*
X129213619Y-96632822D01*
X129221554Y-96632875D01*
G37*
%TD.AperFunction*%
%TD*%
%TA.AperFunction,Conductor*%
%TO.N,Net-(U8--)*%
G36*
X125701574Y-101620381D02*
G01*
X125704631Y-101622581D01*
X125904692Y-101822642D01*
X125908119Y-101830915D01*
X125905997Y-101837635D01*
X125717927Y-102105705D01*
X125710370Y-102110509D01*
X125709948Y-102110575D01*
X124849780Y-102229259D01*
X124841116Y-102226995D01*
X124836808Y-102220415D01*
X124769209Y-101940429D01*
X124770598Y-101931585D01*
X124776864Y-101926591D01*
X125692641Y-101619760D01*
X125701574Y-101620381D01*
G37*
%TD.AperFunction*%
%TD*%
%TA.AperFunction,Conductor*%
%TO.N,Net-(U8--)*%
G36*
X124802857Y-102221779D02*
G01*
X124810305Y-102226751D01*
X124812055Y-102235533D01*
X124807083Y-102242981D01*
X124805058Y-102244064D01*
X124117743Y-102528863D01*
X124112047Y-102529691D01*
X123843585Y-102501619D01*
X123836529Y-102498255D01*
X123637330Y-102299056D01*
X123633903Y-102290783D01*
X123637330Y-102282510D01*
X123639021Y-102281110D01*
X123965647Y-102059139D01*
X123974412Y-102057324D01*
X124802857Y-102221779D01*
G37*
%TD.AperFunction*%
%TD*%
%TA.AperFunction,Conductor*%
%TO.N,Net-(U7-+)*%
G36*
X124071307Y-96632784D02*
G01*
X124821180Y-96909015D01*
X124827758Y-96915090D01*
X124828114Y-96924037D01*
X124822038Y-96930616D01*
X124821175Y-96930973D01*
X124071481Y-97206824D01*
X124063121Y-97206717D01*
X123682380Y-97055432D01*
X123675957Y-97049192D01*
X123675000Y-97044559D01*
X123675000Y-96761134D01*
X123678427Y-96752861D01*
X123683248Y-96749956D01*
X124063816Y-96632584D01*
X124071307Y-96632784D01*
G37*
%TD.AperFunction*%
%TD*%
M02*
